<?xml version="1.0" encoding="utf-8"?>
<!-- Generator: Adobe Illustrator 28.7.3, SVG Export Plug-In . SVG Version: 9.03 Build 54978)  -->
<svg version="1.0" id="Camada_1" xmlns="http://www.w3.org/2000/svg" xmlns:xlink="http://www.w3.org/1999/xlink" x="0px" y="0px"
	 viewBox="0 0 2000 437.18" style="enable-background:new 0 0 2000 437.18;" xml:space="preserve">
<style type="text/css">
	.st0{fill:#010202;}
	.st1{clip-path:url(#SVGID_00000161602110422523473970000008166983992018989227_);fill:#E42521;}
	
		.st2{clip-path:url(#SVGID_00000166656231285053772780000004000581580330676382_);fill:url(#SVGID_00000083801204880188679630000018142540497528880311_);}
	.st3{fill:#0F2B41;}
	.st4{clip-path:url(#SVGID_00000029046206665000110610000007672422821777768097_);fill:#0F2B41;}
	
		.st5{clip-path:url(#SVGID_00000121964730198581595140000009338459088714198442_);fill:url(#SVGID_00000029739492936566726020000004219215505387214757_);}
	
		.st6{clip-path:url(#SVGID_00000145748883629413292980000016248476513224827052_);fill:url(#SVGID_00000114052366812894453120000002850884428190002358_);}
	.st7{clip-path:url(#SVGID_00000055693240654706082370000003893221719304236203_);fill:#E42521;}
	.st8{clip-path:url(#SVGID_00000055693240654706082370000003893221719304236203_);fill:#0F2B41;}
	
		.st9{clip-path:url(#SVGID_00000008131413953335937010000016454140183978917527_);fill:url(#SVGID_00000110449410373419410200000001629443498476330402_);}
	.st10{clip-path:url(#SVGID_00000178200541424295610910000007315864716623727748_);fill:#0F2B41;}
	
		.st11{clip-path:url(#SVGID_00000107554547568716117150000007341951856905646470_);fill:url(#SVGID_00000137820624073154017570000002091898404619623093_);}
	.st12{clip-path:url(#SVGID_00000069362932872722146120000008136826058594574491_);fill:#0F2B41;}
	
		.st13{clip-path:url(#SVGID_00000051372503927536236220000009335095933406043779_);fill:url(#SVGID_00000181088426423301695920000011575191645611918490_);}
	.st14{clip-path:url(#SVGID_00000049916973541916076600000006544811567535023012_);fill:#0F2B41;}
	
		.st15{clip-path:url(#SVGID_00000085235720078810640990000002326637279371644591_);fill:url(#SVGID_00000018952674541998068080000003495209958978579590_);}
	.st16{clip-path:url(#SVGID_00000020371303894490224380000013798341295280237743_);fill:#0F2B41;}
	.st17{clip-path:url(#SVGID_00000020371303894490224380000013798341295280237743_);fill:#E42521;}
	
		.st18{clip-path:url(#SVGID_00000110429549168019130040000012933170958765286027_);fill:url(#SVGID_00000046314229924097896890000005923428394545921667_);}
	.st19{clip-path:url(#SVGID_00000013898648343498570730000013828482264133278352_);fill:#E42521;}
	.st20{clip-path:url(#SVGID_00000013898648343498570730000013828482264133278352_);fill:#0F2B41;}
	
		.st21{clip-path:url(#SVGID_00000095320785978778911800000008067598613771078328_);fill:url(#SVGID_00000176753806318029895940000003463374008072367037_);}
	.st22{fill:#15457C;}
	.st23{fill-rule:evenodd;clip-rule:evenodd;fill:#0F2B41;}
	.st24{clip-path:url(#SVGID_00000062900052565361012490000018337330728211750300_);fill:#E42521;}
	
		.st25{clip-path:url(#SVGID_00000119101950738176612020000016063301101476811648_);fill:url(#SVGID_00000180350797837079372200000012992967372948427928_);}
	.st26{clip-path:url(#SVGID_00000095300042101837734870000014854535943007617454_);fill:#0F2B41;}
	
		.st27{clip-path:url(#SVGID_00000118375432761613140840000011715791826926007463_);fill:url(#SVGID_00000072992171653004769190000012875124504085459873_);}
	
		.st28{clip-path:url(#SVGID_00000173127499053415387160000000527178065760982409_);fill:url(#SVGID_00000114777588986086321270000012593260620096959154_);}
	.st29{clip-path:url(#SVGID_00000137091126161635364100000011234334036686707377_);fill:#E42521;}
	.st30{clip-path:url(#SVGID_00000137091126161635364100000011234334036686707377_);fill:#0F2B41;}
	
		.st31{clip-path:url(#SVGID_00000083089138610623477590000010996504801539323534_);fill:url(#SVGID_00000108271817425690450490000012413032682321902770_);}
	.st32{clip-path:url(#SVGID_00000078759464032661283570000009746210554296341388_);fill:#0F2B41;}
	
		.st33{clip-path:url(#SVGID_00000161609794096613000810000002652274292475189687_);fill:url(#SVGID_00000026153160516531213510000005606484620558961792_);}
	.st34{clip-path:url(#SVGID_00000084524678232954443700000009224457590625326248_);fill:#0F2B41;}
	
		.st35{clip-path:url(#SVGID_00000141436730131084770700000004188241849884644766_);fill:url(#SVGID_00000132085180487573451190000016731890002641474973_);}
	.st36{clip-path:url(#SVGID_00000161610254510271326390000015832033561860273080_);fill:#0F2B41;}
	
		.st37{clip-path:url(#SVGID_00000030450566917628279680000013704949173403240090_);fill:url(#SVGID_00000074434957310717666890000006547385025419194284_);}
	.st38{clip-path:url(#SVGID_00000119075188436980573130000006582987589557975950_);fill:#0F2B41;}
	.st39{clip-path:url(#SVGID_00000119075188436980573130000006582987589557975950_);fill:#E42521;}
	
		.st40{clip-path:url(#SVGID_00000142145627900729096030000006877824253805664924_);fill:url(#SVGID_00000145030093192039511720000006695528302114096011_);}
	.st41{clip-path:url(#SVGID_00000049179746242517726940000001936127898482795141_);fill:#E42521;}
	.st42{clip-path:url(#SVGID_00000049179746242517726940000001936127898482795141_);fill:#0F2B41;}
	
		.st43{clip-path:url(#SVGID_00000119819331535790164300000012587987799109456257_);fill:url(#SVGID_00000031198612766325137320000009614804521059329416_);}
	.st44{fill-rule:evenodd;clip-rule:evenodd;fill:#010202;}
	.st45{font-family:'Nohemi-Bold';}
	.st46{font-size:90.4533px;}
	.st47{font-size:54.9181px;}
	.st48{clip-path:url(#SVGID_00000083048950739743248720000015489163654173397158_);fill:#E42521;}
	
		.st49{clip-path:url(#SVGID_00000143613406077930060320000013797719671966084285_);fill:url(#SVGID_00000161622403650402671330000017913260360522861698_);}
	.st50{fill:#020203;}
	.st51{clip-path:url(#SVGID_00000029011424295098504010000004509063085055871403_);fill:#020203;}
	
		.st52{clip-path:url(#SVGID_00000019660708441661886400000000967905932328495767_);fill:url(#SVGID_00000160153526509393601170000007660410248981518477_);}
	
		.st53{clip-path:url(#SVGID_00000016068676462100400080000010843082092270754458_);fill:url(#SVGID_00000005226454581166737540000014903452725106612101_);}
	.st54{clip-path:url(#SVGID_00000010292834241181208710000012779531351901662629_);fill:#E52721;}
	.st55{clip-path:url(#SVGID_00000010292834241181208710000012779531351901662629_);fill:#0F2B42;}
	.st56{clip-path:url(#SVGID_00000010292834241181208710000012779531351901662629_);fill:#020203;}
	
		.st57{clip-path:url(#SVGID_00000038389762501105240370000016946120662861786758_);fill:url(#SVGID_00000177444305062773185540000016926437309357905034_);}
	.st58{clip-path:url(#SVGID_00000032623027534131435880000018288303115403818672_);fill:#020203;}
	
		.st59{clip-path:url(#SVGID_00000113313830637749112620000001442801753816934029_);fill:url(#SVGID_00000026146215077763621940000008508644802790488968_);}
	.st60{clip-path:url(#SVGID_00000074434887835934312490000006344386119573678723_);fill:#020203;}
	
		.st61{clip-path:url(#SVGID_00000021099045518219396420000002864946246351633063_);fill:url(#SVGID_00000142856356744339993840000009053294805303932333_);}
	.st62{clip-path:url(#SVGID_00000148645101576077685040000011897567033240504222_);fill:#020203;}
	
		.st63{clip-path:url(#SVGID_00000153674626034965250960000011159554714296263308_);fill:url(#SVGID_00000023985796248319525940000015434901014687237270_);}
	.st64{clip-path:url(#SVGID_00000168821466584360915810000009122519153565068954_);fill:#020203;}
	
		.st65{clip-path:url(#SVGID_00000165225159832912892330000002840901953110835087_);fill:url(#SVGID_00000044876869177780852960000012457522277533969539_);}
	.st66{clip-path:url(#SVGID_00000115497139638171629800000001698804890888243358_);fill:#E52721;}
	.st67{clip-path:url(#SVGID_00000115497139638171629800000001698804890888243358_);fill:#0F2B42;}
	.st68{clip-path:url(#SVGID_00000115497139638171629800000001698804890888243358_);fill:#020203;}
	
		.st69{clip-path:url(#SVGID_00000129889341552479065100000007283647651370739643_);fill:url(#SVGID_00000106861520035676878770000014485490647719866019_);}
	.st70{clip-path:url(#SVGID_00000106105036319341133130000013343808350969584268_);fill:#020203;}
	.st71{clip-path:url(#SVGID_00000006700050077327875690000007016904639138786216_);fill:#E42521;}
	
		.st72{clip-path:url(#SVGID_00000056425279390071542020000017045970599380888474_);fill:url(#SVGID_00000143578526662586866540000012165313132894665887_);}
	.st73{clip-path:url(#SVGID_00000001626492568324972000000018381119404316909986_);fill:#0F2B41;}
	.st74{fill:#FFFFFF;}
	.st75{fill-rule:evenodd;clip-rule:evenodd;fill:#FFFFFF;}
	.st76{clip-path:url(#SVGID_00000013877330569235942280000008576140420341125786_);fill:#E42521;}
	
		.st77{clip-path:url(#SVGID_00000097482575091406515720000016701002681817961602_);fill:url(#SVGID_00000052096050832033183850000002078970001202007944_);}
	.st78{clip-path:url(#SVGID_00000005976045840916891390000011479015814063204995_);fill:#FFFFFF;}
	
		.st79{clip-path:url(#SVGID_00000035513454695063324180000000126873036584174011_);fill:url(#SVGID_00000087396493840400171460000018326203594445196976_);}
	
		.st80{clip-path:url(#SVGID_00000045581899305144251970000001388399201448111037_);fill:url(#SVGID_00000174578442710944188810000000421064400853040290_);}
	.st81{clip-path:url(#SVGID_00000086694240557353656550000009105228387273558916_);fill:#E52721;}
	.st82{clip-path:url(#SVGID_00000086694240557353656550000009105228387273558916_);fill:#0F2B42;}
	.st83{clip-path:url(#SVGID_00000086694240557353656550000009105228387273558916_);fill:#FFFFFF;}
	
		.st84{clip-path:url(#SVGID_00000145048286443106528640000000927313584406701467_);fill:url(#SVGID_00000181793275036849285010000002727080043068618881_);}
	.st85{clip-path:url(#SVGID_00000083774883009718000830000008245368763329176760_);fill:#FFFFFF;}
	
		.st86{clip-path:url(#SVGID_00000137846437127955612230000011726774127999061435_);fill:url(#SVGID_00000170268487185032057340000003798127822798537112_);}
	.st87{clip-path:url(#SVGID_00000092414403601649820040000008599592033054654633_);fill:#FFFFFF;}
	
		.st88{clip-path:url(#SVGID_00000140703752506320793390000004643388406424845192_);fill:url(#SVGID_00000157293279291380375720000009893148247835400868_);}
	.st89{clip-path:url(#SVGID_00000017509736215298273050000002327852825036067466_);fill:#FFFFFF;}
	
		.st90{clip-path:url(#SVGID_00000143587255359004338260000003408922744126695041_);fill:url(#SVGID_00000126316707752692338270000009335620564000805260_);}
	.st91{clip-path:url(#SVGID_00000068648421021473741760000009283104080669836206_);fill:#FFFFFF;}
	
		.st92{clip-path:url(#SVGID_00000061445073978746031110000017720258143850070686_);fill:url(#SVGID_00000062878481049435894620000001680988422462923946_);}
	.st93{clip-path:url(#SVGID_00000031169068978184333990000007367937531806222774_);fill:#E52721;}
	.st94{clip-path:url(#SVGID_00000031169068978184333990000007367937531806222774_);fill:#0F2B42;}
	.st95{clip-path:url(#SVGID_00000031169068978184333990000007367937531806222774_);fill:#FFFFFF;}
	
		.st96{clip-path:url(#SVGID_00000039103804438976575220000000064241829922585780_);fill:url(#SVGID_00000053511015430684884240000015802338678863170460_);}
	.st97{clip-path:url(#SVGID_00000061451070605229986570000009104665588328140439_);fill:#FFFFFF;}
</style>
<g>
	<g>
		<defs>
			<rect id="SVGID_00000040572785432089605320000000074368819766078902_" x="34.97" y="-430.45" width="1298.07" height="1298.07"/>
		</defs>
		<clipPath id="SVGID_00000134229403272962908790000002303726681369838003_">
			<use xlink:href="#SVGID_00000040572785432089605320000000074368819766078902_"  style="overflow:visible;"/>
		</clipPath>
		<path style="clip-path:url(#SVGID_00000134229403272962908790000002303726681369838003_);fill:#E42521;" d="M876.39,169.71
			c-0.35,0.02-0.68,0.06-1.03,0.08c0.88-0.05,1.76-0.11,2.65-0.12C877.48,169.68,876.93,169.69,876.39,169.71"/>
		<path style="clip-path:url(#SVGID_00000134229403272962908790000002303726681369838003_);fill:#E42521;" d="M864.95,171.61
			c-0.33,0.1-0.65,0.23-0.98,0.33c0.4-0.13,0.79-0.27,1.19-0.38C865.09,171.58,865.02,171.59,864.95,171.61"/>
		<path style="clip-path:url(#SVGID_00000134229403272962908790000002303726681369838003_);fill:#E42521;" d="M869.4,170.52
			c-0.03,0.01-0.07,0.02-0.1,0.03c0.04-0.01,0.08-0.02,0.12-0.03C869.42,170.52,869.41,170.52,869.4,170.52"/>
		<path style="clip-path:url(#SVGID_00000134229403272962908790000002303726681369838003_);fill:#E42521;" d="M872.03,170.12
			c0.36-0.05,0.72-0.11,1.09-0.15C872.75,170.02,872.39,170.07,872.03,170.12"/>
		<path style="clip-path:url(#SVGID_00000134229403272962908790000002303726681369838003_);fill:#E42521;" d="M878.82,169.66h-0.32
			c-0.05,0-0.09,0-0.14,0c0.48,0,0.95,0.03,1.43,0.04C879.47,169.7,879.16,169.66,878.82,169.66"/>
	</g>
	<g>
		<defs>
			<path id="SVGID_00000051367205563070601330000012059650055401566080_" d="M1039.36,276.97l-6.9,15.44h140.67l-6.86-15.44H1039.36
				z M1083.57,246.09h38.76l-19.37-43.67L1083.57,246.09z"/>
		</defs>
		<clipPath id="SVGID_00000086690080164731247250000009665005466548606870_">
			<use xlink:href="#SVGID_00000051367205563070601330000012059650055401566080_"  style="overflow:visible;"/>
		</clipPath>
		
			<linearGradient id="SVGID_00000151525476426293342710000015996369034632923548_" gradientUnits="userSpaceOnUse" x1="-2015.4739" y1="1222.3606" x2="-2014.8248" y2="1222.3606" gradientTransform="matrix(87.1939 -151.0243 151.0243 87.1939 -7803.3643 -410656.375)">
			<stop  offset="0" style="stop-color:#168ECE"/>
			<stop  offset="1.065560e-07" style="stop-color:#168ECE"/>
			<stop  offset="0.8384" style="stop-color:#53A3DA"/>
			<stop  offset="1" style="stop-color:#5CA8DD"/>
		</linearGradient>
		
			<polygon style="clip-path:url(#SVGID_00000086690080164731247250000009665005466548606870_);fill:url(#SVGID_00000151525476426293342710000015996369034632923548_);" points="
			1137.96,353.32 1212.09,224.92 1067.62,141.51 993.49,269.92 		"/>
	</g>
	<path class="st3" d="M1152.57,246.09l-22.23-50.11l-12.26-27.63l-14.76-33.27h-0.75l-14.76,33.27l-10.9,24.57l-0.61,1.41
		l-0.75,1.66l-22.39,50.11l-13.81,30.88h126.91L1152.57,246.09z M1083.57,246.09l19.39-43.67l19.37,43.67H1083.57z"/>
	<g>
		<defs>
			<rect id="SVGID_00000148660218213312736440000018377020152412380293_" x="34.97" y="-430.45" width="1298.07" height="1298.07"/>
		</defs>
		<clipPath id="SVGID_00000178919256416265953680000011512534848302656934_">
			<use xlink:href="#SVGID_00000148660218213312736440000018377020152412380293_"  style="overflow:visible;"/>
		</clipPath>
		<path style="clip-path:url(#SVGID_00000178919256416265953680000011512534848302656934_);fill:#0F2B41;" d="M1016.98,236.76
			c8.72-3.45,13.01-6.65,18.39-14.22c6.47-9.15,9.72-18.89,9.72-29.24v-4c0-17.01-5.49-25.52-14.87-34.88
			c-9.26-9.17-23.09-15.64-40.19-15.64h-19.16v30.57h4.57v0.04h12.69c7.42,0,15.05,2.2,19.05,6.08c4.06,4.27,6.11,9.17,6.11,14.78
			c0,11.69-9.06,21.62-20.3,21.62h-10.31v-0.09h-7.24v0.09h-4.57v12.58l44.12,67.96h37.74L1016.98,236.76z"/>
	</g>
	<g>
		<defs>
			<path id="SVGID_00000116947207852241785550000003611063055657251769_" d="M939.89,138.78l0.09,153.63h75l-44.12-67.96v-12.58
				h4.57v-0.09h7.24v0.09h10.31c11.24,0,20.3-9.92,20.3-21.62c0-5.61-2.04-10.51-6.11-14.78c-4-3.88-11.63-6.08-19.05-6.08h-12.69
				v-0.04h-4.57v-30.57H939.89z"/>
		</defs>
		<clipPath id="SVGID_00000036969460741494373630000000252324345838177178_">
			<use xlink:href="#SVGID_00000116947207852241785550000003611063055657251769_"  style="overflow:visible;"/>
		</clipPath>
		
			<linearGradient id="SVGID_00000125570118525368886770000013696068213804443305_" gradientUnits="userSpaceOnUse" x1="-2006.4679" y1="1215.1021" x2="-2005.8188" y2="1215.1021" gradientTransform="matrix(115.6979 0 0 115.6979 233083.9531 -140369.125)">
			<stop  offset="0" style="stop-color:#FDDF2A"/>
			<stop  offset="1" style="stop-color:#FAB619"/>
		</linearGradient>
		
			<rect x="939.89" y="138.78" style="clip-path:url(#SVGID_00000036969460741494373630000000252324345838177178_);fill:url(#SVGID_00000125570118525368886770000013696068213804443305_);" width="75.09" height="153.63"/>
	</g>
	<g>
		<defs>
			<path id="SVGID_00000014634907432006275310000017008105722724677767_" d="M898.78,174.45c-6.09-2.91-12.74-4.36-19.98-4.36
				c-13.06,0-24.14,4.59-33.17,13.78c-6.97,7.06-11.26,15.12-12.94,24.18h-0.43v0c-0.54,2.93-0.82,5.95-0.82,9.11
				c0,0.43,0,0.84,0.02,1.27h-30.85c0.74,42.59,35.47,76.88,78.24,76.88c42.76,0,77.49-34.3,78.23-76.88h-30.85
				c0.02-0.41,0.02-0.84,0.02-1.27c0-13.03-4.66-24.23-13.94-33.54c-8.67-8.67-18.97-13.24-30.84-13.84
				C887.64,170.2,893.48,171.82,898.78,174.45"/>
		</defs>
		<clipPath id="SVGID_00000136400577179439941430000006700840910508419756_">
			<use xlink:href="#SVGID_00000014634907432006275310000017008105722724677767_"  style="overflow:visible;"/>
		</clipPath>
		
			<linearGradient id="SVGID_00000042738265545649277900000003631174708398658454_" gradientUnits="userSpaceOnUse" x1="-2013.1934" y1="1215.0409" x2="-2012.5443" y2="1215.0409" gradientTransform="matrix(241.0811 0 0 241.0811 486143.4062 -292690.7812)">
			<stop  offset="0" style="stop-color:#81BB47"/>
			<stop  offset="0.2724" style="stop-color:#71B447"/>
			<stop  offset="0.7728" style="stop-color:#3FA447"/>
			<stop  offset="1" style="stop-color:#109C47"/>
		</linearGradient>
		
			<rect x="800.61" y="169.78" style="clip-path:url(#SVGID_00000136400577179439941430000006700840910508419756_);fill:url(#SVGID_00000042738265545649277900000003631174708398658454_);" width="156.47" height="125.54"/>
	</g>
	<g>
		<defs>
			<rect id="SVGID_00000178912993382441770640000014237708862145307558_" x="34.97" y="-430.45" width="1298.07" height="1298.07"/>
		</defs>
		<clipPath id="SVGID_00000102541933208746799370000014375292928934387864_">
			<use xlink:href="#SVGID_00000178912993382441770640000014237708862145307558_"  style="overflow:visible;"/>
		</clipPath>
		<path style="clip-path:url(#SVGID_00000102541933208746799370000014375292928934387864_);fill:#E42521;" d="M835.51,151.87
			c-9.6,6.39-17.7,14.84-23.68,24.73c3.22-5.18,7.11-10.09,11.7-14.73C827.34,158.07,831.33,154.74,835.51,151.87"/>
		<path style="clip-path:url(#SVGID_00000102541933208746799370000014375292928934387864_);fill:#E42521;" d="M957.12,217.05
			c0-0.49-0.03-0.97-0.04-1.46c0.01,0.52,0.03,1.02,0.03,1.54C957.11,217.11,957.12,217.08,957.12,217.05"/>
		<path style="clip-path:url(#SVGID_00000102541933208746799370000014375292928934387864_);fill:#E42521;" d="M956.99,212.69
			c0.01,0.13,0.02,0.26,0.03,0.39C957.01,212.95,957,212.82,956.99,212.69"/>
		<path style="clip-path:url(#SVGID_00000102541933208746799370000014375292928934387864_);fill:#E42521;" d="M800.68,213.08
			c0.01-0.14,0.02-0.29,0.03-0.43C800.7,212.8,800.68,212.94,800.68,213.08"/>
		<path style="clip-path:url(#SVGID_00000102541933208746799370000014375292928934387864_);fill:#E42521;" d="M945.94,176.73
			c-6.62-10.99-15.85-20.21-26.85-26.81c5.29,3.27,10.29,7.25,15,11.96C938.75,166.54,942.69,171.5,945.94,176.73"/>
		<path style="clip-path:url(#SVGID_00000102541933208746799370000014375292928934387864_);fill:#E42521;" d="M800.58,217.05
			c0,0.03,0,0.06,0,0.09c0-0.51,0.02-1.02,0.04-1.53C800.6,216.09,800.58,216.57,800.58,217.05"/>
		<path style="clip-path:url(#SVGID_00000102541933208746799370000014375292928934387864_);fill:#0F2B41;" d="M845.63,183.87
			c9.04-9.2,20.12-13.78,33.18-13.78c7.24,0,13.9,1.45,19.98,4.36c-5.31-2.63-11.14-4.25-17.31-4.67c-0.56-0.03-1.11-0.07-1.67-0.08
			c-0.48-0.02-0.95-0.04-1.43-0.04c-0.12,0-0.23,0.01-0.35,0.01c-0.89,0-1.77,0.06-2.65,0.12c-0.75,0.05-1.51,0.1-2.25,0.18
			c-0.37,0.04-0.73,0.1-1.09,0.15c-0.87,0.11-1.75,0.23-2.61,0.4c-0.04,0.01-0.08,0.02-0.12,0.03c-1.39,0.28-2.79,0.62-4.14,1.01
			c-0.4,0.12-0.79,0.26-1.19,0.38c-6.85,2.26-13.09,6.13-18.64,11.68c-7.04,7.11-11.4,15.24-13.08,24.43h0.43
			C834.36,199,838.66,190.94,845.63,183.87"/>
		<path style="clip-path:url(#SVGID_00000102541933208746799370000014375292928934387864_);fill:#0F2B41;" d="M957.08,215.59
			c-0.02-0.84-0.02-1.68-0.06-2.51c-0.01-0.13-0.02-0.26-0.03-0.39c-0.68-13.19-4.37-25.17-11.05-35.96
			c-3.25-5.24-7.19-10.19-11.85-14.86c-4.71-4.71-9.71-8.69-15-11.96c-9.3-5.75-19.5-9.24-30.58-10.52
			c-3.17-0.37-6.4-0.57-9.71-0.57c-2.92,0-5.78,0.16-8.59,0.44c-12.72,1.29-24.29,5.48-34.7,12.61c-4.18,2.86-8.17,6.19-11.98,10
			c-4.6,4.64-8.49,9.55-11.7,14.73c-6.72,10.83-10.43,22.84-11.12,36.05c-0.01,0.14-0.02,0.29-0.03,0.43
			c-0.04,0.83-0.05,1.68-0.06,2.52c-0.01,0.51-0.03,1.02-0.03,1.53c0,0.03,0,0.06,0,0.1c0,0.41,0,0.82,0.02,1.2h0.01h30.85
			c-0.02-0.43-0.02-0.84-0.02-1.27c0-3.16,0.27-6.18,0.82-9.11v0c1.68-9.2,6.04-17.32,13.08-24.43c5.55-5.55,11.78-9.42,18.64-11.68
			c0.33-0.11,0.65-0.23,0.98-0.33c0.07-0.02,0.14-0.03,0.21-0.05c1.36-0.39,2.75-0.74,4.14-1.01c0.03-0.01,0.07-0.02,0.1-0.03
			c0.01,0,0.02,0,0.02,0c0.86-0.16,1.73-0.28,2.61-0.4c0.36-0.05,0.72-0.11,1.09-0.15c0.74-0.08,1.5-0.13,2.25-0.18
			c0.34-0.02,0.68-0.07,1.03-0.08c0.54-0.02,1.08-0.03,1.62-0.04c0.12,0,0.23-0.01,0.35-0.01c0.05,0,0.09,0,0.14,0h0.32
			c0.33,0,0.65,0.04,0.97,0.04c0.57,0.01,1.12,0.05,1.67,0.08c11.88,0.6,22.18,5.18,30.84,13.84c9.29,9.31,13.94,20.5,13.94,33.54
			c0,0.43,0,0.86-0.02,1.27h30.85h0.01c0.02-0.38,0.02-0.79,0.02-1.2c0-0.03,0-0.06,0-0.1
			C957.11,216.62,957.09,216.11,957.08,215.59"/>
	</g>
	<g>
		<defs>
			<path id="SVGID_00000078745064425285884760000011611971093107886760_" d="M690.01,140.68v154.04h30.88v-30.88h10.33
				c27.79,0,45.89-18.44,45.89-46.28c0-27.59-18.42-46.28-46.19-46.28H720.9v-30.61H690.01z"/>
		</defs>
		<clipPath id="SVGID_00000114786617963924060940000010730847896634859170_">
			<use xlink:href="#SVGID_00000078745064425285884760000011611971093107886760_"  style="overflow:visible;"/>
		</clipPath>
		
			<linearGradient id="SVGID_00000164490316852110482800000011666769819473582770_" gradientUnits="userSpaceOnUse" x1="-2019.8414" y1="1222.1243" x2="-2019.1924" y2="1222.1243" gradientTransform="matrix(0 -237.3399 237.3399 0 -289325.2812 -479094.25)">
			<stop  offset="0" style="stop-color:#168ECE"/>
			<stop  offset="1.065560e-07" style="stop-color:#168ECE"/>
			<stop  offset="0.8384" style="stop-color:#53A3DA"/>
			<stop  offset="1" style="stop-color:#5CA8DD"/>
		</linearGradient>
		
			<rect x="690.01" y="140.68" style="clip-path:url(#SVGID_00000114786617963924060940000010730847896634859170_);fill:url(#SVGID_00000164490316852110482800000011666769819473582770_);" width="87.1" height="154.04"/>
	</g>
	<g>
		<defs>
			<rect id="SVGID_00000044151174234430063720000004603265412265302168_" x="34.97" y="-430.45" width="1298.07" height="1298.07"/>
		</defs>
		<clipPath id="SVGID_00000067233342796299864780000006339216901910708905_">
			<use xlink:href="#SVGID_00000044151174234430063720000004603265412265302168_"  style="overflow:visible;"/>
		</clipPath>
		<path style="clip-path:url(#SVGID_00000067233342796299864780000006339216901910708905_);fill:#0F2B41;" d="M787.36,163.25
			c-2.66-2.63-5.54-5.13-8.65-7.4c-11.49-8.51-26.16-14.4-43.76-15.17c-1.29-0.07-2.61-0.09-3.93-0.09v0.09H720.9v30.61h10.04
			c27.77,0,46.19,18.69,46.19,46.28c0,27.84-18.1,46.27-45.89,46.27H720.9v30.88h10.13c18.3,0,34.2-5.02,47.68-15.1
			c3-2.22,5.88-4.72,8.65-7.47c13.76-13.69,20.66-31.81,20.66-54.36C808.02,195.26,801.12,177.07,787.36,163.25"/>
	</g>
	<g>
		<defs>
			<polygon id="SVGID_00000026122714216564664580000003416777503248909727_" points="323.87,170.98 323.87,202.07 370.33,202.07 
				370.33,232.95 292.88,232.95 292.88,294.91 385.83,294.91 385.83,170.98 			"/>
		</defs>
		<clipPath id="SVGID_00000073693181375426995910000012437198422210658983_">
			<use xlink:href="#SVGID_00000026122714216564664580000003416777503248909727_"  style="overflow:visible;"/>
		</clipPath>
		
			<linearGradient id="SVGID_00000138562574235678259090000014087542229273734306_" gradientUnits="userSpaceOnUse" x1="-2006.6249" y1="1215.028" x2="-2005.9758" y2="1215.028" gradientTransform="matrix(143.214 0 0 143.214 287669.6562 -173776.0781)">
			<stop  offset="0" style="stop-color:#FDDF2A"/>
			<stop  offset="1" style="stop-color:#FAB619"/>
		</linearGradient>
		
			<rect x="292.88" y="170.98" style="clip-path:url(#SVGID_00000073693181375426995910000012437198422210658983_);fill:url(#SVGID_00000138562574235678259090000014087542229273734306_);" width="92.95" height="123.93"/>
	</g>
	<g>
		<defs>
			<rect id="SVGID_00000005952007884221978090000015881220764936616086_" x="34.97" y="-430.45" width="1298.07" height="1298.07"/>
		</defs>
		<clipPath id="SVGID_00000057115544569350223620000011223828642480077751_">
			<use xlink:href="#SVGID_00000005952007884221978090000015881220764936616086_"  style="overflow:visible;"/>
		</clipPath>
		<polygon style="clip-path:url(#SVGID_00000057115544569350223620000011223828642480077751_);fill:#0F2B41;" points="385.82,170.9 
			385.83,170.9 385.83,140.11 292.87,140.11 292.87,202.12 292.87,232.86 292.87,294.88 385.83,294.88 385.83,264.09 385.82,264.09 
			323.87,264.09 323.87,233 370.32,233 370.32,232.86 370.32,202.12 370.32,201.98 323.87,201.98 323.87,170.9 		"/>
	</g>
	<g>
		<defs>
			<path id="SVGID_00000007395531627241434390000009233362095046124197_" d="M197.16,232.95v61.76h-30.9v0.01h113.32v-0.01h-30.88
				v-61.76H197.16z M166.27,202.29h113.32v-61.73H166.27V202.29z"/>
		</defs>
		<clipPath id="SVGID_00000036230437459534623710000015209569763013479594_">
			<use xlink:href="#SVGID_00000007395531627241434390000009233362095046124197_"  style="overflow:visible;"/>
		</clipPath>
		
			<linearGradient id="SVGID_00000108987499831028923190000016327821690224765612_" gradientUnits="userSpaceOnUse" x1="-2019.8075" y1="1206.8334" x2="-2019.1584" y2="1206.8334" gradientTransform="matrix(0 237.5099 -237.5099 0 286857.8125 479864.8438)">
			<stop  offset="0" style="stop-color:#81BB47"/>
			<stop  offset="0.2293" style="stop-color:#74B544"/>
			<stop  offset="0.6211" style="stop-color:#4FA73F"/>
			<stop  offset="1" style="stop-color:#009739"/>
			<stop  offset="1" style="stop-color:#009739"/>
		</linearGradient>
		
			<rect x="166.27" y="140.57" style="clip-path:url(#SVGID_00000036230437459534623710000015209569763013479594_);fill:url(#SVGID_00000108987499831028923190000016327821690224765612_);" width="113.32" height="154.15"/>
	</g>
	<g>
		<defs>
			<rect id="SVGID_00000145026784123805707210000003201937174622756280_" x="34.97" y="-430.45" width="1298.07" height="1298.07"/>
		</defs>
		<clipPath id="SVGID_00000029744042472075058170000015080219573558868877_">
			<use xlink:href="#SVGID_00000145026784123805707210000003201937174622756280_"  style="overflow:visible;"/>
		</clipPath>
		<polygon style="clip-path:url(#SVGID_00000029744042472075058170000015080219573558868877_);fill:#0F2B41;" points="
			279.59,140.57 279.59,140.57 248.71,140.57 248.71,202.29 197.16,202.29 197.16,140.57 166.27,140.57 166.26,140.57 
			166.26,202.29 166.26,202.29 166.26,294.71 166.27,294.71 197.16,294.71 197.16,232.98 248.71,232.98 248.71,294.71 
			279.58,294.71 279.59,294.71 279.59,232.98 279.59,232.98 		"/>
	</g>
	<g>
		<defs>
			<rect id="SVGID_00000135649656648552376090000009966767102886294456_" x="506.75" y="217.64" width="30.98" height="77.08"/>
		</defs>
		<clipPath id="SVGID_00000021080066306947676170000008407121419405978036_">
			<use xlink:href="#SVGID_00000135649656648552376090000009966767102886294456_"  style="overflow:visible;"/>
		</clipPath>
		
			<linearGradient id="SVGID_00000145738940153700449120000005239205878157893794_" gradientUnits="userSpaceOnUse" x1="-2019.9659" y1="1199.972" x2="-2019.3169" y2="1199.972" gradientTransform="matrix(0 118.7551 -118.7551 0 143025 240098.8125)">
			<stop  offset="0" style="stop-color:#81BB47"/>
			<stop  offset="0.2724" style="stop-color:#71B447"/>
			<stop  offset="0.7728" style="stop-color:#3FA447"/>
			<stop  offset="1" style="stop-color:#109C47"/>
		</linearGradient>
		
			<rect x="506.75" y="217.64" style="clip-path:url(#SVGID_00000021080066306947676170000008407121419405978036_);fill:url(#SVGID_00000145738940153700449120000005239205878157893794_);" width="30.98" height="77.08"/>
	</g>
	<g>
		<defs>
			<rect id="SVGID_00000101789253946965728460000007977008895915682184_" x="34.97" y="-430.45" width="1298.07" height="1298.07"/>
		</defs>
		<clipPath id="SVGID_00000054970348465946461900000002496013217406853021_">
			<use xlink:href="#SVGID_00000101789253946965728460000007977008895915682184_"  style="overflow:visible;"/>
		</clipPath>
		<polygon style="clip-path:url(#SVGID_00000054970348465946461900000002496013217406853021_);fill:#0F2B41;" points="
			537.73,140.58 506.75,140.58 506.74,140.58 506.74,217.64 506.75,217.64 537.73,217.64 537.74,217.64 537.74,140.58 		"/>
		<path style="clip-path:url(#SVGID_00000054970348465946461900000002496013217406853021_);fill:#E42521;" d="M627.86,169.11
			c-0.35,0.02-0.68,0.06-1.03,0.08c0.88-0.05,1.76-0.11,2.65-0.12C628.95,169.08,628.4,169.09,627.86,169.11"/>
		<path style="clip-path:url(#SVGID_00000054970348465946461900000002496013217406853021_);fill:#E42521;" d="M616.42,171.01
			c-0.33,0.1-0.65,0.23-0.98,0.33c0.4-0.13,0.79-0.27,1.19-0.38C616.56,170.98,616.49,170.99,616.42,171.01"/>
		<path style="clip-path:url(#SVGID_00000054970348465946461900000002496013217406853021_);fill:#E42521;" d="M620.87,169.92
			c-0.03,0.01-0.07,0.02-0.1,0.03c0.04-0.01,0.08-0.02,0.12-0.03C620.89,169.92,620.88,169.92,620.87,169.92"/>
		<path style="clip-path:url(#SVGID_00000054970348465946461900000002496013217406853021_);fill:#E42521;" d="M623.5,169.52
			c0.36-0.05,0.72-0.11,1.09-0.15C624.22,169.41,623.86,169.47,623.5,169.52"/>
		<path style="clip-path:url(#SVGID_00000054970348465946461900000002496013217406853021_);fill:#E42521;" d="M630.29,169.06h-0.32
			c-0.05,0-0.09,0-0.14,0c0.48,0,0.95,0.03,1.43,0.04C630.94,169.1,630.62,169.06,630.29,169.06"/>
	</g>
	<g>
		<defs>
			<path id="SVGID_00000117639440675826101470000013000517700025401258_" d="M650.25,173.85c-6.09-2.91-12.74-4.36-19.98-4.36
				c-13.06,0-24.14,4.59-33.17,13.78c-6.97,7.06-11.26,15.12-12.94,24.18h-0.43v0c-0.55,2.93-0.82,5.95-0.82,9.11
				c0,0.43,0,0.84,0.02,1.27h-30.85c0.74,42.59,35.47,76.89,78.24,76.89c42.76,0,77.49-34.3,78.23-76.89h-30.85
				c0.02-0.41,0.02-0.84,0.02-1.27c0-13.03-4.66-24.23-13.94-33.54c-8.67-8.67-18.97-13.24-30.84-13.84
				C639.11,169.6,644.95,171.22,650.25,173.85"/>
		</defs>
		<clipPath id="SVGID_00000141441835038164153210000014764485186077269670_">
			<use xlink:href="#SVGID_00000117639440675826101470000013000517700025401258_"  style="overflow:visible;"/>
		</clipPath>
		
			<linearGradient id="SVGID_00000057129486538740831230000007839692853672452273_" gradientUnits="userSpaceOnUse" x1="-2019.8436" y1="1206.0977" x2="-2019.1946" y2="1206.0977" gradientTransform="matrix(0 193.4219 -193.4219 0 233916.0625 390851.25)">
			<stop  offset="0" style="stop-color:#FDDF2A"/>
			<stop  offset="1" style="stop-color:#FAB619"/>
		</linearGradient>
		
			<rect x="552.08" y="169.18" style="clip-path:url(#SVGID_00000141441835038164153210000014764485186077269670_);fill:url(#SVGID_00000057129486538740831230000007839692853672452273_);" width="156.47" height="125.54"/>
	</g>
	<g>
		<defs>
			<rect id="SVGID_00000101086165757090364540000011446740573136332221_" x="34.97" y="-430.45" width="1298.07" height="1298.07"/>
		</defs>
		<clipPath id="SVGID_00000133501860461952660820000003375620202558788524_">
			<use xlink:href="#SVGID_00000101086165757090364540000011446740573136332221_"  style="overflow:visible;"/>
		</clipPath>
		<path style="clip-path:url(#SVGID_00000133501860461952660820000003375620202558788524_);fill:#E42521;" d="M586.98,151.27
			c-9.6,6.39-17.7,14.84-23.68,24.73c3.22-5.18,7.11-10.09,11.7-14.73C578.81,157.47,582.8,154.13,586.98,151.27"/>
		<path style="clip-path:url(#SVGID_00000133501860461952660820000003375620202558788524_);fill:#E42521;" d="M708.59,216.45
			c0-0.49-0.03-0.97-0.04-1.46c0.01,0.52,0.03,1.02,0.03,1.54C708.58,216.5,708.59,216.48,708.59,216.45"/>
		<path style="clip-path:url(#SVGID_00000133501860461952660820000003375620202558788524_);fill:#E42521;" d="M708.46,212.09
			c0.01,0.13,0.02,0.26,0.03,0.39C708.48,212.35,708.47,212.22,708.46,212.09"/>
		<path style="clip-path:url(#SVGID_00000133501860461952660820000003375620202558788524_);fill:#E42521;" d="M552.15,212.48
			c0.01-0.14,0.02-0.29,0.03-0.43C552.17,212.2,552.15,212.34,552.15,212.48"/>
		<path style="clip-path:url(#SVGID_00000133501860461952660820000003375620202558788524_);fill:#E42521;" d="M697.41,176.13
			c-6.62-10.99-15.85-20.21-26.85-26.81c5.29,3.27,10.29,7.25,15,11.96C690.22,165.94,694.16,170.89,697.41,176.13"/>
		<path style="clip-path:url(#SVGID_00000133501860461952660820000003375620202558788524_);fill:#E42521;" d="M552.05,216.45
			c0,0.03,0,0.06,0,0.09c0-0.51,0.02-1.02,0.04-1.53C552.07,215.49,552.05,215.96,552.05,216.45"/>
		<path style="clip-path:url(#SVGID_00000133501860461952660820000003375620202558788524_);fill:#0F2B41;" d="M597.1,183.27
			c9.04-9.2,20.12-13.78,33.18-13.78c7.24,0,13.9,1.45,19.98,4.36c-5.31-2.63-11.14-4.25-17.31-4.67c-0.56-0.03-1.11-0.07-1.67-0.08
			c-0.48-0.02-0.95-0.04-1.43-0.04c-0.12,0-0.23,0.01-0.35,0.01c-0.89,0-1.77,0.06-2.65,0.12c-0.75,0.05-1.51,0.1-2.25,0.18
			c-0.37,0.04-0.73,0.1-1.09,0.15c-0.87,0.12-1.75,0.23-2.61,0.4c-0.04,0.01-0.08,0.02-0.12,0.03c-1.39,0.28-2.79,0.62-4.14,1.01
			c-0.4,0.12-0.79,0.26-1.19,0.38c-6.85,2.26-13.09,6.13-18.64,11.68c-7.04,7.11-11.4,15.24-13.08,24.43h0.43
			C585.83,198.4,590.13,190.33,597.1,183.27"/>
		<path style="clip-path:url(#SVGID_00000133501860461952660820000003375620202558788524_);fill:#0F2B41;" d="M708.55,214.99
			c-0.02-0.84-0.02-1.68-0.06-2.51c-0.01-0.13-0.02-0.26-0.03-0.39c-0.68-13.19-4.37-25.17-11.05-35.96
			c-3.25-5.24-7.19-10.19-11.85-14.86c-4.71-4.71-9.71-8.69-15-11.96c-9.3-5.75-19.5-9.24-30.58-10.52
			c-3.17-0.37-6.4-0.57-9.71-0.57c-2.92,0-5.78,0.16-8.59,0.44c-12.73,1.29-24.29,5.48-34.7,12.61c-4.18,2.86-8.17,6.19-11.98,10
			c-4.6,4.64-8.49,9.55-11.7,14.73c-6.72,10.83-10.43,22.84-11.12,36.05c-0.01,0.14-0.02,0.29-0.03,0.43
			c-0.04,0.83-0.05,1.68-0.06,2.52c-0.01,0.51-0.04,1.02-0.04,1.53c0,0.03,0,0.06,0,0.1c0,0.41,0,0.82,0.02,1.2h0.01h30.85
			c-0.02-0.43-0.02-0.84-0.02-1.27c0-3.16,0.27-6.18,0.82-9.11v0c1.68-9.2,6.04-17.32,13.08-24.43c5.55-5.55,11.78-9.42,18.64-11.68
			c0.33-0.11,0.65-0.23,0.98-0.33c0.07-0.02,0.14-0.03,0.21-0.05c1.36-0.39,2.75-0.74,4.14-1.01c0.03-0.01,0.07-0.02,0.1-0.03
			c0.01,0,0.02,0,0.02,0c0.86-0.16,1.73-0.28,2.61-0.4c0.36-0.05,0.72-0.11,1.09-0.15c0.74-0.08,1.5-0.13,2.25-0.18
			c0.34-0.02,0.68-0.07,1.03-0.08c0.54-0.02,1.08-0.03,1.62-0.04c0.12,0,0.23-0.01,0.35-0.01c0.05,0,0.09,0,0.14,0h0.32
			c0.33,0,0.65,0.04,0.97,0.04c0.57,0.01,1.12,0.05,1.67,0.08c11.88,0.6,22.18,5.18,30.84,13.84c9.29,9.31,13.94,20.5,13.94,33.54
			c0,0.43,0,0.86-0.02,1.27h30.85h0.01c0.02-0.38,0.02-0.79,0.02-1.2c0-0.03,0-0.06,0-0.1
			C708.58,216.01,708.56,215.51,708.55,214.99"/>
	</g>
	<g>
		<defs>
			<path id="SVGID_00000180334432543058885550000008939812378402798488_" d="M400.61,219.02h30.97v46.28h61.97v30.79h-92.94V219.02z
				 M400.61,296.09h92.95V141.94h-92.95V296.09z"/>
		</defs>
		<clipPath id="SVGID_00000083771074203177505390000013600020415358591113_">
			<use xlink:href="#SVGID_00000180334432543058885550000008939812378402798488_"  style="overflow:visible;"/>
		</clipPath>
		
			<linearGradient id="SVGID_00000021099718991762834840000000899357152502503355_" gradientUnits="userSpaceOnUse" x1="-2007.0317" y1="1215.0806" x2="-2006.3827" y2="1215.0806" gradientTransform="matrix(143.214 0 0 143.214 287835.625 -173797.5156)">
			<stop  offset="0" style="stop-color:#37A7DF"/>
			<stop  offset="0.8542" style="stop-color:#0A99CE"/>
			<stop  offset="0.9951" style="stop-color:#0097CB"/>
			<stop  offset="1" style="stop-color:#0097CB"/>
		</linearGradient>
		
			<rect x="400.61" y="141.94" style="clip-path:url(#SVGID_00000083771074203177505390000013600020415358591113_);fill:url(#SVGID_00000021099718991762834840000000899357152502503355_);" width="92.95" height="154.15"/>
	</g>
	<g>
		<g>
			<polygon class="st0" points="431.58,265.29 431.58,219.02 431.6,219.02 431.61,219.02 431.61,141.95 431.6,141.95 400.62,141.95 
				400.61,141.95 400.61,219.02 400.61,296.08 493.55,296.08 493.55,265.29 			"/>
			<path class="st0" d="M1200.77,275.48c0,0.79-0.15,1.45-0.44,1.99c-0.29,0.54-0.7,0.96-1.23,1.24c-0.53,0.29-1.15,0.45-1.87,0.48
				c-0.39,0.01-0.8,0.01-1.24,0.01c-0.44,0-0.85,0-1.25-0.01c-0.72-0.04-1.34-0.2-1.86-0.48c-0.53-0.29-0.93-0.7-1.22-1.25
				c-0.29-0.55-0.43-1.21-0.43-1.99c0-0.62,0.09-1.16,0.26-1.62s0.4-0.84,0.67-1.13c0.27-0.3,0.55-0.52,0.84-0.66
				c0.29-0.15,0.55-0.22,0.77-0.23c0.08-0.01,0.14,0.01,0.19,0.07c0.05,0.05,0.07,0.12,0.07,0.21v0.78c0,0.09-0.02,0.15-0.05,0.19
				c-0.04,0.04-0.1,0.08-0.19,0.11c-0.23,0.08-0.45,0.21-0.68,0.39c-0.22,0.18-0.4,0.42-0.55,0.73c-0.15,0.3-0.22,0.69-0.22,1.16
				c0,0.71,0.19,1.27,0.57,1.7c0.38,0.43,1.01,0.66,1.88,0.7c0.79,0.03,1.57,0.03,2.36,0c0.88-0.04,1.52-0.27,1.9-0.7
				c0.38-0.43,0.58-1,0.58-1.69c0-0.47-0.09-0.89-0.26-1.25c-0.18-0.37-0.44-0.66-0.8-0.87c-0.36-0.21-0.81-0.32-1.37-0.32h-0.56
				v1.99c0,0.09-0.03,0.16-0.09,0.22c-0.06,0.06-0.13,0.09-0.23,0.09h-0.42c-0.1,0-0.17-0.03-0.23-0.09
				c-0.06-0.06-0.09-0.13-0.09-0.22v-2.99c0-0.1,0.03-0.17,0.09-0.23c0.06-0.05,0.14-0.08,0.23-0.08h1.27
				c0.72,0,1.36,0.15,1.89,0.44c0.54,0.3,0.96,0.73,1.25,1.29C1200.62,274.03,1200.77,274.7,1200.77,275.48"/>
			<path class="st0" d="M1200.63,269.54c0,0.1-0.03,0.17-0.09,0.22c-0.06,0.05-0.13,0.08-0.22,0.08h-8.65
				c-0.1,0-0.17-0.03-0.23-0.08c-0.06-0.05-0.09-0.13-0.09-0.22v-5.47c0-0.1,0.03-0.17,0.09-0.23c0.06-0.05,0.13-0.08,0.23-0.08h0.5
				c0.1,0,0.17,0.03,0.23,0.08c0.05,0.05,0.08,0.13,0.08,0.23v4.5h2.9v-4.21c0-0.1,0.03-0.17,0.09-0.23
				c0.06-0.05,0.14-0.08,0.23-0.08h0.49c0.09,0,0.16,0.03,0.22,0.08c0.06,0.05,0.09,0.13,0.09,0.23v4.21h3.01v-4.61
				c0-0.1,0.03-0.17,0.08-0.23c0.05-0.05,0.13-0.08,0.23-0.08h0.52c0.09,0,0.16,0.03,0.22,0.08c0.06,0.05,0.09,0.13,0.09,0.23
				V269.54z"/>
			<path class="st0" d="M1200.77,258.84c0,0.77-0.12,1.41-0.36,1.93c-0.24,0.52-0.54,0.92-0.92,1.2c-0.38,0.28-0.77,0.43-1.18,0.44
				c-0.07,0-0.13-0.03-0.19-0.09c-0.06-0.06-0.09-0.13-0.09-0.21v-0.67c0-0.11,0.03-0.19,0.08-0.24c0.05-0.05,0.11-0.09,0.19-0.11
				c0.21-0.05,0.42-0.16,0.63-0.33c0.21-0.17,0.38-0.41,0.52-0.72c0.14-0.31,0.21-0.72,0.21-1.21c0-0.76-0.14-1.32-0.4-1.68
				c-0.27-0.36-0.63-0.54-1.08-0.54c-0.31,0-0.56,0.09-0.75,0.28c-0.19,0.19-0.36,0.48-0.51,0.87c-0.15,0.39-0.31,0.89-0.49,1.51
				c-0.19,0.65-0.39,1.18-0.61,1.6c-0.22,0.42-0.49,0.74-0.82,0.95c-0.33,0.21-0.74,0.31-1.24,0.31c-0.48,0-0.9-0.13-1.28-0.38
				c-0.38-0.26-0.67-0.63-0.89-1.11c-0.22-0.48-0.33-1.07-0.33-1.75c0-0.55,0.07-1.03,0.22-1.44c0.15-0.41,0.34-0.75,0.58-1.03
				c0.24-0.27,0.5-0.48,0.78-0.62c0.28-0.14,0.55-0.22,0.81-0.23c0.06,0,0.12,0.02,0.18,0.07c0.06,0.04,0.09,0.11,0.09,0.21v0.7
				c0,0.06-0.02,0.13-0.05,0.19c-0.04,0.07-0.1,0.12-0.2,0.15c-0.36,0.05-0.67,0.26-0.91,0.61c-0.25,0.35-0.37,0.81-0.37,1.38
				c0,0.57,0.11,1.04,0.33,1.4c0.22,0.36,0.56,0.54,1.03,0.54c0.3,0,0.55-0.08,0.75-0.25c0.2-0.17,0.37-0.43,0.52-0.79
				c0.15-0.36,0.31-0.83,0.48-1.42c0.19-0.71,0.4-1.28,0.62-1.73c0.22-0.45,0.49-0.78,0.81-1c0.32-0.22,0.73-0.32,1.24-0.32
				c0.56,0,1.03,0.15,1.42,0.44c0.39,0.29,0.69,0.7,0.9,1.22C1200.66,257.5,1200.77,258.12,1200.77,258.84"/>
			<path class="st0" d="M1200.63,251.36c0,0.09-0.03,0.16-0.09,0.22c-0.06,0.06-0.13,0.09-0.22,0.09h-7.79v2.54
				c0,0.09-0.03,0.16-0.09,0.22c-0.06,0.06-0.13,0.09-0.22,0.09h-0.56c-0.1,0-0.17-0.03-0.23-0.09c-0.06-0.06-0.09-0.13-0.09-0.22
				v-6.38c0-0.1,0.03-0.17,0.09-0.23c0.06-0.06,0.13-0.09,0.23-0.09h0.56c0.09,0,0.16,0.03,0.22,0.09c0.06,0.06,0.09,0.14,0.09,0.23
				v2.53h7.79c0.09,0,0.16,0.03,0.22,0.09c0.06,0.06,0.09,0.14,0.09,0.23V251.36z"/>
			<path class="st0" d="M1190.77,243.03c0,0.21-0.04,0.39-0.11,0.54c-0.07,0.15-0.15,0.28-0.23,0.4c-0.07,0.12-0.11,0.24-0.11,0.38
				c0,0.11,0.03,0.18,0.09,0.23c0.06,0.05,0.13,0.09,0.19,0.13c0.07,0.04,0.1,0.11,0.1,0.21v0.42c0,0.06-0.02,0.11-0.07,0.16
				c-0.04,0.04-0.09,0.07-0.15,0.07c-0.13,0-0.27-0.02-0.42-0.07c-0.15-0.05-0.28-0.12-0.4-0.23c-0.12-0.1-0.22-0.22-0.3-0.36
				c-0.08-0.14-0.11-0.3-0.11-0.48c0-0.22,0.04-0.41,0.11-0.56c0.08-0.15,0.15-0.29,0.23-0.41c0.07-0.12,0.11-0.25,0.11-0.38
				c0-0.11-0.03-0.18-0.1-0.23c-0.07-0.04-0.13-0.09-0.2-0.13c-0.07-0.04-0.1-0.11-0.1-0.21v-0.42c0-0.08,0.02-0.14,0.07-0.17
				c0.04-0.04,0.1-0.05,0.16-0.05c0.12,0,0.26,0.03,0.4,0.08c0.15,0.05,0.28,0.13,0.4,0.23c0.12,0.1,0.23,0.22,0.3,0.36
				C1190.73,242.69,1190.77,242.85,1190.77,243.03 M1200.63,247.62c0,0.07-0.03,0.13-0.08,0.18c-0.05,0.05-0.11,0.08-0.19,0.08
				c-0.04,0-0.09,0-0.15-0.01l-8.57-3.28c-0.09-0.04-0.16-0.08-0.21-0.15c-0.05-0.06-0.08-0.15-0.08-0.28v-0.9
				c0-0.12,0.03-0.22,0.08-0.28c0.05-0.06,0.12-0.11,0.21-0.15l8.57-3.27c0.05-0.02,0.1-0.03,0.15-0.03c0.07,0,0.13,0.03,0.19,0.08
				c0.05,0.05,0.08,0.11,0.08,0.18v0.68c0,0.11-0.03,0.18-0.08,0.23c-0.05,0.05-0.1,0.08-0.15,0.1l-1.88,0.73v4.34l1.88,0.73
				c0.04,0.01,0.09,0.04,0.15,0.09c0.05,0.05,0.08,0.13,0.08,0.24V247.62z M1197.39,245.5v-3.57l-4.7,1.79L1197.39,245.5z"/>
			<path class="st0" d="M1200.77,234.96c0,0.76-0.13,1.41-0.39,1.95c-0.26,0.54-0.66,0.95-1.2,1.24c-0.54,0.29-1.23,0.45-2.05,0.49
				c-0.39,0.01-0.76,0.01-1.12,0.01c-0.36,0-0.73,0-1.12-0.01c-0.81-0.04-1.49-0.21-2.03-0.51s-0.95-0.73-1.22-1.27
				c-0.27-0.54-0.4-1.18-0.4-1.9c0-0.71,0.14-1.34,0.4-1.89c0.27-0.54,0.68-0.97,1.22-1.28c0.54-0.31,1.22-0.48,2.03-0.5
				c0.39-0.02,0.76-0.03,1.12-0.03c0.36,0,0.73,0.01,1.12,0.03c0.82,0.03,1.5,0.19,2.05,0.48c0.54,0.3,0.94,0.71,1.2,1.25
				S1200.77,234.22,1200.77,234.96 M1199.64,234.96c0-0.67-0.2-1.22-0.61-1.65c-0.41-0.43-1.06-0.66-1.97-0.7
				c-0.4-0.02-0.75-0.03-1.07-0.03c-0.31,0-0.66,0.01-1.05,0.03c-0.61,0.02-1.1,0.13-1.48,0.34c-0.38,0.21-0.66,0.48-0.83,0.83
				c-0.18,0.34-0.26,0.74-0.26,1.18c0,0.44,0.09,0.83,0.26,1.18c0.18,0.34,0.45,0.62,0.83,0.83c0.38,0.21,0.87,0.32,1.48,0.35
				c0.39,0.01,0.74,0.01,1.05,0.01c0.31,0,0.67,0,1.07-0.01c0.91-0.04,1.57-0.27,1.97-0.7
				C1199.44,236.19,1199.64,235.64,1199.64,234.96"/>
			<path class="st0" d="M1200.63,226.29c0,0.09-0.03,0.16-0.09,0.22c-0.06,0.06-0.13,0.09-0.22,0.09h-0.42
				c-0.08,0-0.17-0.02-0.26-0.07c-0.1-0.04-0.2-0.13-0.32-0.26l-2.81-2.81c-0.38-0.45-0.7-0.8-0.97-1.07
				c-0.27-0.26-0.53-0.45-0.78-0.56c-0.25-0.11-0.5-0.17-0.77-0.17c-0.5,0-0.9,0.14-1.2,0.42c-0.3,0.28-0.44,0.7-0.44,1.26
				c0,0.35,0.07,0.66,0.22,0.91c0.15,0.26,0.34,0.45,0.6,0.6c0.25,0.14,0.54,0.24,0.85,0.29c0.11,0.02,0.19,0.06,0.24,0.14
				c0.04,0.08,0.07,0.14,0.07,0.21v0.69c0,0.08-0.02,0.15-0.07,0.2c-0.05,0.05-0.11,0.08-0.18,0.08c-0.34-0.01-0.67-0.08-1.01-0.21
				c-0.34-0.13-0.65-0.33-0.93-0.59c-0.28-0.26-0.5-0.58-0.67-0.97c-0.17-0.38-0.25-0.83-0.25-1.34c0-0.7,0.13-1.27,0.38-1.71
				s0.58-0.77,1-0.99c0.41-0.21,0.87-0.32,1.36-0.32c0.39,0,0.74,0.07,1.07,0.2c0.32,0.13,0.64,0.32,0.94,0.58
				c0.3,0.25,0.62,0.56,0.93,0.93l2.58,2.54v-4.13c0-0.1,0.03-0.17,0.08-0.23c0.05-0.06,0.13-0.09,0.23-0.09h0.54
				c0.09,0,0.16,0.03,0.22,0.09c0.06,0.06,0.09,0.13,0.09,0.23V226.29z"/>
			<path class="st0" d="M1200.77,215.28c0,0.61-0.1,1.12-0.28,1.54c-0.19,0.42-0.45,0.76-0.79,1.03c-0.33,0.27-0.72,0.46-1.15,0.58
				c-0.43,0.12-0.89,0.19-1.38,0.21c-0.24,0.01-0.49,0.02-0.75,0.02c-0.26,0-0.53,0-0.81,0c-0.27,0-0.53-0.01-0.78-0.02
				c-0.48-0.01-0.94-0.08-1.38-0.21c-0.43-0.13-0.81-0.32-1.14-0.59c-0.33-0.26-0.59-0.61-0.78-1.03c-0.19-0.42-0.28-0.93-0.28-1.53
				c0-0.61,0.09-1.12,0.28-1.54c0.19-0.42,0.45-0.76,0.78-1.03c0.33-0.26,0.71-0.46,1.14-0.59c0.43-0.13,0.89-0.2,1.38-0.21
				c0.25-0.01,0.51-0.01,0.78-0.02c0.27,0,0.54,0,0.81,0c0.26,0,0.52,0.01,0.75,0.02c0.49,0.01,0.94,0.08,1.38,0.21
				c0.43,0.13,0.82,0.32,1.15,0.58c0.34,0.26,0.6,0.6,0.79,1.02C1200.67,214.14,1200.77,214.66,1200.77,215.28 M1199.63,215.28
				c0-0.69-0.23-1.2-0.68-1.53c-0.45-0.33-1.07-0.5-1.85-0.51c-0.26-0.02-0.51-0.03-0.75-0.03h-0.73c-0.24,0-0.48,0.01-0.72,0.03
				c-0.77,0.01-1.38,0.18-1.85,0.51c-0.46,0.33-0.69,0.84-0.69,1.53c0,0.68,0.23,1.18,0.69,1.52c0.46,0.33,1.08,0.5,1.85,0.52
				c0.24,0,0.48,0,0.72,0.01s0.49,0,0.73,0c0.24,0,0.49-0.01,0.75-0.01c0.79-0.02,1.4-0.19,1.85-0.53
				C1199.4,216.45,1199.63,215.95,1199.63,215.28"/>
			<path class="st0" d="M1200.63,210.11c0,0.09-0.03,0.16-0.09,0.22c-0.06,0.06-0.13,0.09-0.22,0.09h-0.42
				c-0.08,0-0.17-0.02-0.26-0.07c-0.1-0.04-0.2-0.13-0.32-0.26l-2.81-2.81c-0.38-0.45-0.7-0.81-0.97-1.07
				c-0.27-0.26-0.53-0.45-0.78-0.56c-0.25-0.11-0.5-0.17-0.77-0.17c-0.5,0-0.9,0.14-1.2,0.42c-0.3,0.28-0.44,0.7-0.44,1.26
				c0,0.35,0.07,0.66,0.22,0.91c0.15,0.26,0.34,0.45,0.6,0.6c0.25,0.14,0.54,0.24,0.85,0.29c0.11,0.02,0.19,0.06,0.24,0.14
				c0.04,0.07,0.07,0.14,0.07,0.21v0.69c0,0.08-0.02,0.15-0.07,0.2c-0.05,0.05-0.11,0.08-0.18,0.08c-0.34-0.01-0.67-0.08-1.01-0.21
				c-0.34-0.13-0.65-0.33-0.93-0.59c-0.28-0.26-0.5-0.58-0.67-0.97c-0.17-0.38-0.25-0.83-0.25-1.34c0-0.7,0.13-1.27,0.38-1.71
				c0.25-0.45,0.58-0.77,1-0.99c0.41-0.21,0.87-0.32,1.36-0.32c0.39,0,0.74,0.07,1.07,0.2c0.32,0.13,0.64,0.32,0.94,0.58
				c0.3,0.25,0.62,0.56,0.93,0.93l2.58,2.54v-4.13c0-0.1,0.03-0.17,0.08-0.23c0.05-0.06,0.13-0.09,0.23-0.09h0.54
				c0.09,0,0.16,0.03,0.22,0.09c0.06,0.06,0.09,0.13,0.09,0.23V210.11z"/>
			<path class="st0" d="M1200.77,199.43c0,0.7-0.12,1.29-0.36,1.77c-0.24,0.48-0.56,0.85-0.95,1.1c-0.39,0.25-0.8,0.39-1.23,0.4
				c-0.08,0.01-0.14-0.01-0.19-0.07c-0.05-0.05-0.07-0.12-0.07-0.2v-0.72c0-0.08,0.02-0.15,0.06-0.21c0.04-0.06,0.12-0.11,0.23-0.15
				c0.33-0.09,0.59-0.23,0.8-0.43c0.21-0.2,0.36-0.43,0.45-0.69c0.09-0.26,0.14-0.53,0.14-0.81c0-0.38-0.08-0.73-0.23-1.04
				c-0.15-0.31-0.38-0.56-0.69-0.75c-0.3-0.19-0.67-0.28-1.11-0.28c-0.4,0-0.74,0.09-1.03,0.27c-0.29,0.18-0.51,0.43-0.66,0.74
				c-0.15,0.31-0.23,0.66-0.23,1.05c0,0.29,0.04,0.53,0.11,0.72c0.07,0.18,0.15,0.34,0.25,0.47c0.1,0.13,0.18,0.24,0.25,0.34
				c0.07,0.1,0.11,0.21,0.11,0.34v0.69c0,0.08-0.03,0.15-0.09,0.21c-0.06,0.06-0.13,0.09-0.21,0.08l-4.42-0.42
				c-0.11-0.01-0.19-0.04-0.24-0.1c-0.06-0.06-0.09-0.13-0.09-0.23v-4.62c0-0.09,0.03-0.16,0.09-0.22c0.06-0.06,0.13-0.09,0.22-0.09
				h0.52c0.1,0,0.17,0.03,0.23,0.09c0.05,0.06,0.08,0.13,0.08,0.22v3.81l2.61,0.25c-0.08-0.13-0.17-0.33-0.28-0.6
				c-0.11-0.27-0.17-0.64-0.17-1.12c0-0.44,0.07-0.85,0.2-1.24c0.13-0.38,0.33-0.72,0.58-1.02c0.26-0.3,0.57-0.53,0.93-0.7
				c0.37-0.17,0.79-0.25,1.26-0.25c0.67,0,1.24,0.15,1.71,0.44c0.47,0.29,0.82,0.69,1.07,1.2
				C1200.64,198.19,1200.77,198.78,1200.77,199.43"/>
			<path class="st0" d="M1201.74,194.87c0,0.07-0.03,0.13-0.08,0.19c-0.05,0.05-0.11,0.08-0.19,0.08c-0.04,0-0.1-0.01-0.16-0.04
				l-10.86-4.53c-0.05-0.03-0.11-0.06-0.16-0.11c-0.05-0.05-0.08-0.13-0.08-0.23v-0.52c0-0.07,0.03-0.13,0.08-0.19
				c0.05-0.05,0.11-0.08,0.19-0.08c0.04,0,0.09,0.01,0.16,0.03l10.86,4.54c0.04,0.02,0.09,0.05,0.15,0.11
				c0.06,0.05,0.09,0.13,0.09,0.24V194.87z"/>
			<path class="st0" d="M1200.63,188.33c0,0.09-0.03,0.16-0.09,0.22c-0.06,0.06-0.13,0.09-0.22,0.09h-0.42
				c-0.08,0-0.17-0.02-0.26-0.07c-0.1-0.04-0.2-0.13-0.32-0.26l-2.81-2.81c-0.38-0.45-0.7-0.81-0.97-1.07
				c-0.27-0.26-0.53-0.45-0.78-0.56c-0.25-0.11-0.5-0.17-0.77-0.17c-0.5,0-0.9,0.14-1.2,0.42c-0.3,0.28-0.44,0.7-0.44,1.26
				c0,0.35,0.07,0.66,0.22,0.91c0.15,0.26,0.34,0.45,0.6,0.6c0.25,0.14,0.54,0.24,0.85,0.29c0.11,0.02,0.19,0.06,0.24,0.14
				c0.04,0.07,0.07,0.14,0.07,0.21v0.69c0,0.08-0.02,0.15-0.07,0.2c-0.05,0.05-0.11,0.08-0.18,0.08c-0.34-0.01-0.67-0.08-1.01-0.21
				c-0.34-0.13-0.65-0.33-0.93-0.59c-0.28-0.26-0.5-0.58-0.67-0.97c-0.17-0.38-0.25-0.83-0.25-1.34c0-0.7,0.13-1.27,0.38-1.71
				c0.25-0.45,0.58-0.77,1-0.99c0.41-0.21,0.87-0.32,1.36-0.32c0.39,0,0.74,0.07,1.07,0.2c0.32,0.13,0.64,0.32,0.94,0.58
				c0.3,0.25,0.62,0.56,0.93,0.93l2.58,2.54v-4.13c0-0.1,0.03-0.17,0.08-0.23c0.05-0.06,0.13-0.09,0.23-0.09h0.54
				c0.09,0,0.16,0.03,0.22,0.09c0.06,0.06,0.09,0.13,0.09,0.23V188.33z"/>
			<path class="st0" d="M1200.77,177.32c0,0.61-0.1,1.12-0.28,1.54c-0.19,0.42-0.45,0.76-0.79,1.03c-0.33,0.26-0.72,0.46-1.15,0.58
				c-0.43,0.12-0.89,0.19-1.38,0.21c-0.24,0.01-0.49,0.02-0.75,0.02c-0.26,0-0.53,0-0.81,0c-0.27,0-0.53-0.01-0.78-0.02
				c-0.48-0.01-0.94-0.08-1.38-0.21c-0.43-0.13-0.81-0.32-1.14-0.59c-0.33-0.26-0.59-0.61-0.78-1.03c-0.19-0.42-0.28-0.93-0.28-1.53
				c0-0.61,0.09-1.12,0.28-1.54c0.19-0.42,0.45-0.76,0.78-1.03c0.33-0.26,0.71-0.46,1.14-0.59c0.43-0.13,0.89-0.2,1.38-0.21
				c0.25-0.01,0.51-0.01,0.78-0.02c0.27,0,0.54,0,0.81,0c0.26,0,0.52,0.01,0.75,0.02c0.49,0.01,0.94,0.08,1.38,0.21
				c0.43,0.13,0.82,0.32,1.15,0.58c0.34,0.26,0.6,0.6,0.79,1.02C1200.67,176.18,1200.77,176.7,1200.77,177.32 M1199.63,177.32
				c0-0.69-0.23-1.2-0.68-1.53c-0.45-0.33-1.07-0.5-1.85-0.51c-0.26-0.02-0.51-0.03-0.75-0.03h-0.73c-0.24,0-0.48,0.01-0.72,0.03
				c-0.77,0.01-1.38,0.18-1.85,0.51c-0.46,0.33-0.69,0.84-0.69,1.53c0,0.68,0.23,1.19,0.69,1.52c0.46,0.33,1.08,0.5,1.85,0.52
				c0.24,0,0.48,0,0.72,0.01c0.24,0.01,0.49,0.01,0.73,0c0.24,0,0.49-0.01,0.75-0.01c0.79-0.02,1.4-0.19,1.85-0.53
				C1199.4,178.49,1199.63,177.99,1199.63,177.32"/>
			<path class="st0" d="M1200.63,172.15c0,0.09-0.03,0.16-0.09,0.22c-0.06,0.06-0.13,0.09-0.22,0.09h-0.42
				c-0.08,0-0.17-0.02-0.26-0.07c-0.1-0.04-0.2-0.13-0.32-0.26l-2.81-2.81c-0.38-0.45-0.7-0.81-0.97-1.07
				c-0.27-0.26-0.53-0.45-0.78-0.56c-0.25-0.11-0.5-0.17-0.77-0.17c-0.5,0-0.9,0.14-1.2,0.42c-0.3,0.28-0.44,0.7-0.44,1.26
				c0,0.35,0.07,0.66,0.22,0.91c0.15,0.26,0.34,0.45,0.6,0.6c0.25,0.14,0.54,0.24,0.85,0.29c0.11,0.02,0.19,0.06,0.24,0.14
				c0.04,0.07,0.07,0.14,0.07,0.21v0.69c0,0.08-0.02,0.15-0.07,0.2c-0.05,0.05-0.11,0.08-0.18,0.08c-0.34-0.01-0.67-0.08-1.01-0.21
				c-0.34-0.13-0.65-0.33-0.93-0.59c-0.28-0.26-0.5-0.58-0.67-0.97c-0.17-0.38-0.25-0.83-0.25-1.34c0-0.7,0.13-1.27,0.38-1.71
				c0.25-0.45,0.58-0.77,1-0.99c0.41-0.21,0.87-0.32,1.36-0.32c0.39,0,0.74,0.07,1.07,0.2c0.32,0.13,0.64,0.32,0.94,0.58
				c0.3,0.25,0.62,0.56,0.93,0.93l2.58,2.54v-4.13c0-0.1,0.03-0.17,0.08-0.23c0.05-0.06,0.13-0.09,0.23-0.09h0.54
				c0.09,0,0.16,0.03,0.22,0.09c0.06,0.06,0.09,0.13,0.09,0.23V172.15z"/>
			<path class="st0" d="M1200.77,161.13c0,0.51-0.06,0.98-0.19,1.41c-0.13,0.43-0.32,0.79-0.56,1.1c-0.25,0.3-0.54,0.54-0.88,0.71
				c-0.34,0.17-0.73,0.25-1.16,0.25c-0.54,0-1-0.13-1.39-0.39c-0.39-0.26-0.68-0.61-0.89-1.04c-0.2,0.34-0.47,0.61-0.79,0.81
				c-0.33,0.19-0.71,0.29-1.17,0.29c-0.53,0-0.98-0.13-1.34-0.39c-0.37-0.26-0.65-0.63-0.85-1.1s-0.3-1.02-0.3-1.65
				c0-0.62,0.1-1.16,0.3-1.63c0.2-0.47,0.48-0.84,0.85-1.1c0.37-0.26,0.82-0.39,1.34-0.39c0.45,0,0.84,0.1,1.17,0.29
				c0.33,0.19,0.6,0.46,0.8,0.79c0.2-0.43,0.5-0.78,0.89-1.04c0.39-0.26,0.85-0.39,1.39-0.39c0.57,0,1.07,0.15,1.49,0.44
				c0.42,0.29,0.74,0.7,0.97,1.22C1200.65,159.83,1200.77,160.44,1200.77,161.13 M1195.22,161.13c0-0.34-0.06-0.65-0.19-0.93
				c-0.12-0.29-0.29-0.52-0.5-0.69c-0.21-0.17-0.47-0.26-0.77-0.26c-0.3,0-0.56,0.08-0.78,0.25c-0.22,0.16-0.39,0.39-0.51,0.68
				c-0.12,0.29-0.18,0.61-0.18,0.96c0,0.35,0.06,0.67,0.18,0.96c0.12,0.29,0.29,0.51,0.51,0.68c0.22,0.17,0.48,0.25,0.78,0.25
				c0.31,0,0.57-0.08,0.79-0.25c0.22-0.17,0.38-0.4,0.5-0.68C1195.16,161.8,1195.22,161.48,1195.22,161.13 M1199.71,161.13
				c0-0.41-0.07-0.77-0.21-1.1c-0.14-0.33-0.34-0.59-0.6-0.78c-0.26-0.19-0.57-0.29-0.92-0.29c-0.36,0-0.67,0.1-0.92,0.29
				c-0.25,0.19-0.45,0.46-0.58,0.78c-0.14,0.33-0.21,0.69-0.21,1.1c0,0.41,0.07,0.78,0.21,1.11c0.14,0.33,0.33,0.59,0.58,0.79
				c0.25,0.19,0.56,0.29,0.92,0.29c0.35,0,0.66-0.1,0.92-0.29c0.26-0.19,0.46-0.46,0.6-0.79
				C1199.64,161.9,1199.71,161.53,1199.71,161.13"/>
			<path class="st0" d="M167.27,89.58H177c2.03,0,3.76,0.42,5.19,1.25c1.43,0.83,2.51,1.97,3.24,3.4c0.73,1.43,1.09,3.04,1.09,4.83
				c0,1.79-0.36,3.39-1.09,4.81c-0.73,1.42-1.81,2.54-3.24,3.36c-1.43,0.82-3.16,1.23-5.19,1.23h-3.29v6.15h-6.44V89.58z
				 M176.64,102.25c0.98,0,1.78-0.3,2.41-0.89c0.63-0.6,0.95-1.35,0.95-2.25c0-0.93-0.33-1.71-0.98-2.34
				c-0.66-0.63-1.45-0.95-2.38-0.95h-2.93v6.44H176.64z"/>
			<path class="st0" d="M193.27,89.58H203c3.1,0,5.46,0.72,7.08,2.15c1.62,1.43,2.43,3.45,2.43,6.04c0,1.67-0.37,3.11-1.11,4.31
				c-0.74,1.2-1.84,2.13-3.29,2.77l5.54,9.76h-7.19l-4.9-8.87h-1.86v8.87h-6.44V89.58z M203.07,100.14c1.02,0,1.77-0.17,2.24-0.5
				c0.47-0.33,0.7-0.85,0.7-1.54c0-1.53-0.98-2.29-2.93-2.29h-3.36v4.33H203.07z"/>
			<polygon class="st0" points="220.52,89.58 239.34,89.58 239.34,95.95 226.96,95.95 226.96,98.85 239.34,98.85 239.34,105.21 
				226.96,105.21 226.96,108.25 239.7,108.25 239.7,114.62 220.52,114.62 			"/>
			<polygon class="st0" points="246.99,89.58 265.81,89.58 265.81,95.95 253.43,95.95 253.43,98.85 265.63,98.85 265.63,105.21 
				253.43,105.21 253.43,114.62 246.99,114.62 			"/>
			<polygon class="st0" points="273.03,89.58 291.84,89.58 291.84,95.95 279.47,95.95 279.47,98.85 291.84,98.85 291.84,105.21 
				279.47,105.21 279.47,108.25 292.2,108.25 292.2,114.62 273.03,114.62 			"/>
			<rect x="299.57" y="89.58" class="st0" width="6.44" height="25.04"/>
			<polygon class="st0" points="319.13,95.95 313.02,95.95 313.02,89.58 331.65,89.58 331.65,95.95 325.57,95.95 325.57,114.62 
				319.13,114.62 			"/>
			<path class="st0" d="M344.47,114.21c-1.44-0.51-2.65-1.36-3.63-2.54c-0.98-1.18-1.47-2.72-1.47-4.63V89.58h6.44v16.52
				c0,1.03,0.27,1.79,0.82,2.31c0.55,0.51,1.28,0.77,2.18,0.77c0.91,0,1.65-0.26,2.24-0.77c0.58-0.51,0.88-1.28,0.88-2.31V89.58
				h6.44v17.45c0,1.91-0.5,3.45-1.48,4.63c-0.99,1.18-2.21,2.03-3.67,2.54c-1.46,0.51-2.92,0.77-4.4,0.77
				C347.36,114.98,345.92,114.72,344.47,114.21"/>
			<path class="st0" d="M366.74,89.58h9.73c3.1,0,5.46,0.72,7.08,2.15c1.62,1.43,2.43,3.45,2.43,6.04c0,1.67-0.37,3.11-1.11,4.31
				c-0.74,1.2-1.84,2.13-3.29,2.77l5.54,9.76h-7.19l-4.9-8.87h-1.86v8.87h-6.44V89.58z M376.54,100.14c1.02,0,1.77-0.17,2.24-0.5
				c0.47-0.33,0.7-0.85,0.7-1.54c0-1.53-0.98-2.29-2.93-2.29h-3.36v4.33H376.54z"/>
			<path class="st0" d="M400.79,89.58h7.23l7.44,25.04h-6.8l-1.04-4.22h-6.44l-1,4.22h-6.83L400.79,89.58z M406.19,104.36
				l-1.79-7.33l-1.75,7.33H406.19z"/>
			<polygon class="st0" points="435.12,89.58 443.46,89.58 449.61,103.93 455.58,89.58 463.88,89.58 463.88,114.62 457.44,114.62 
				457.44,100.35 453.22,109.97 446,109.97 441.56,100.21 441.56,114.62 435.12,114.62 			"/>
			<path class="st0" d="M477.35,114.21c-1.44-0.51-2.65-1.36-3.63-2.54c-0.98-1.18-1.47-2.72-1.47-4.63V89.58h6.44v16.52
				c0,1.03,0.27,1.79,0.82,2.31c0.55,0.51,1.28,0.77,2.18,0.77c0.91,0,1.65-0.26,2.24-0.77c0.58-0.51,0.88-1.28,0.88-2.31V89.58
				h6.44v17.45c0,1.91-0.5,3.45-1.48,4.63c-0.99,1.18-2.21,2.03-3.67,2.54c-1.46,0.51-2.92,0.77-4.4,0.77
				C480.24,114.98,478.79,114.72,477.35,114.21"/>
			<polygon class="st0" points="499.61,89.58 505.4,89.58 513.09,102.35 513.09,89.58 519.17,89.58 519.17,114.62 513.42,114.62 
				505.69,101.71 505.69,114.62 499.61,114.62 			"/>
			<rect x="526.83" y="89.58" class="st0" width="6.44" height="25.04"/>
			<path class="st0" d="M546.52,113.53c-1.82-0.97-3.27-2.42-4.35-4.36c-1.07-1.94-1.61-4.31-1.61-7.1c0-2.77,0.54-5.11,1.61-7.05
				c1.07-1.93,2.53-3.38,4.36-4.35c1.84-0.97,3.89-1.45,6.15-1.45c2.53,0,4.66,0.54,6.4,1.61v6.8c-1.76-1.17-3.71-1.75-5.83-1.75
				c-1.84,0-3.3,0.5-4.4,1.5c-1.1,1-1.64,2.6-1.64,4.79c0,2.12,0.52,3.68,1.56,4.67c1.04,0.99,2.46,1.48,4.27,1.48
				c2.27,0,4.36-0.69,6.3-2.07v7.15c-0.79,0.5-1.79,0.89-3,1.16c-1.22,0.27-2.44,0.41-3.68,0.41
				C550.39,114.98,548.34,114.5,546.52,113.53"/>
			<rect x="566.89" y="89.58" class="st0" width="6.44" height="25.04"/>
			<path class="st0" d="M580.98,89.58h9.73c2.03,0,3.76,0.42,5.19,1.25c1.43,0.83,2.51,1.97,3.24,3.4c0.73,1.43,1.09,3.04,1.09,4.83
				c0,1.79-0.36,3.39-1.09,4.81c-0.73,1.42-1.81,2.54-3.24,3.36c-1.43,0.82-3.16,1.23-5.19,1.23h-3.29v6.15h-6.44V89.58z
				 M590.35,102.25c0.98,0,1.78-0.3,2.41-0.89c0.63-0.6,0.95-1.35,0.95-2.25c0-0.93-0.33-1.71-0.98-2.34
				c-0.66-0.63-1.45-0.95-2.38-0.95h-2.93v6.44H590.35z"/>
			<path class="st0" d="M611.09,89.58h7.23l7.44,25.04h-6.8l-1.04-4.22h-6.44l-1,4.22h-6.83L611.09,89.58z M616.49,104.36
				l-1.79-7.33l-1.75,7.33H616.49z"/>
			<polygon class="st0" points="632.7,89.58 639.13,89.58 639.13,108.25 651.87,108.25 651.87,114.62 632.7,114.62 			"/>
			<path class="st0" d="M671.61,89.58h9.16c2.53,0,4.77,0.47,6.72,1.41c1.95,0.94,3.49,2.36,4.61,4.24
				c1.12,1.88,1.68,4.16,1.68,6.83c0,2.69-0.56,4.98-1.68,6.87c-1.12,1.88-2.66,3.3-4.61,4.26c-1.95,0.95-4.2,1.43-6.72,1.43h-9.16
				V89.58z M680.77,108.4c2.03,0,3.61-0.54,4.74-1.61c1.13-1.07,1.7-2.63,1.7-4.69c0-2.07-0.56-3.64-1.68-4.7
				c-1.12-1.06-2.71-1.59-4.76-1.59h-2.72v12.59H680.77z"/>
			<polygon class="st0" points="701.01,89.58 719.82,89.58 719.82,95.95 707.45,95.95 707.45,98.85 719.82,98.85 719.82,105.21 
				707.45,105.21 707.45,108.25 720.18,108.25 720.18,114.62 701.01,114.62 			"/>
			<polygon class="st0" points="271.74,330.23 266.42,330.23 266.42,324.7 282.61,324.7 282.61,330.23 277.33,330.23 277.33,346.44 
				271.74,346.44 			"/>
			<path class="st0" d="M302.42,324.7h8.45c2.69,0,4.74,0.62,6.15,1.86c1.41,1.24,2.11,2.99,2.11,5.25c0,1.45-0.32,2.7-0.96,3.74
				c-0.64,1.05-1.59,1.85-2.86,2.41l4.81,8.48h-6.24l-4.26-7.7h-1.61v7.7h-5.59V324.7z M310.93,333.86c0.89,0,1.54-0.14,1.94-0.43
				c0.4-0.29,0.61-0.73,0.61-1.34c0-1.32-0.85-1.99-2.55-1.99h-2.92v3.76H310.93z"/>
			<path class="st0" d="M345.78,324.7h6.27l6.46,21.74h-5.9l-0.9-3.66h-5.59l-0.87,3.66h-5.93L345.78,324.7z M350.47,337.52
				l-1.55-6.37l-1.52,6.37H350.47z"/>
			<path class="st0" d="M378.33,324.7h8.45c2.61,0,4.53,0.53,5.78,1.6c1.24,1.07,1.86,2.43,1.86,4.08c0,1.12-0.25,2.06-0.76,2.83
				c-0.51,0.77-1.14,1.3-1.91,1.62c1.1,0.29,2.02,0.9,2.78,1.82c0.76,0.92,1.13,2.11,1.13,3.56c0,1.84-0.63,3.34-1.88,4.5
				c-1.25,1.16-3.17,1.74-5.76,1.74h-9.69V324.7z M386.59,333.46c0.7,0,1.25-0.14,1.65-0.42c0.39-0.28,0.59-0.7,0.59-1.26
				c0-1.12-0.78-1.68-2.33-1.68h-2.58v3.35H386.59z M387.46,341.03c0.97,0,1.66-0.13,2.05-0.39c0.39-0.26,0.59-0.65,0.59-1.16
				c0-0.52-0.21-0.9-0.64-1.13c-0.42-0.24-1.15-0.36-2.19-0.36h-3.35v3.04H387.46z"/>
			<path class="st0" d="M420.6,324.7h6.27l6.46,21.74h-5.9l-0.9-3.66h-5.59l-0.87,3.66h-5.93L420.6,324.7z M425.29,337.52
				l-1.55-6.37l-1.52,6.37H425.29z"/>
			<polygon class="st0" points="453.15,324.7 458.74,324.7 458.74,340.91 469.79,340.91 469.79,346.44 453.15,346.44 			"/>
			<polygon class="st0" points="489.67,324.7 495.26,324.7 495.26,332.71 502.43,332.71 502.43,324.7 508.02,324.7 508.02,346.44 
				502.43,346.44 502.43,338.24 495.26,338.24 495.26,346.44 489.67,346.44 			"/>
			<path class="st0" d="M533.23,345.48c-1.56-0.85-2.81-2.12-3.74-3.8c-0.93-1.69-1.4-3.73-1.4-6.13c0-2.4,0.47-4.44,1.4-6.12
				c0.93-1.68,2.18-2.93,3.74-3.77c1.56-0.84,3.28-1.26,5.14-1.26c1.86,0,3.57,0.42,5.12,1.26c1.55,0.84,2.8,2.1,3.73,3.77
				c0.93,1.68,1.4,3.72,1.4,6.12c0,2.4-0.47,4.45-1.4,6.13c-0.93,1.69-2.17,2.96-3.73,3.8c-1.55,0.85-3.26,1.27-5.12,1.27
				C536.51,346.75,534.79,346.32,533.23,345.48 M541.52,339.64c0.88-0.89,1.32-2.25,1.32-4.07c0-1.84-0.43-3.2-1.3-4.08
				c-0.87-0.88-1.93-1.32-3.17-1.32s-2.3,0.44-3.18,1.32c-0.88,0.88-1.32,2.24-1.32,4.08c0,1.82,0.44,3.18,1.32,4.07
				c0.88,0.89,1.94,1.34,3.18,1.34C539.59,340.97,540.64,340.53,541.52,339.64"/>
			<path class="st0" d="M555.06,346.02c-0.47-0.49-0.7-1.07-0.7-1.75s0.24-1.27,0.73-1.76c0.49-0.49,1.07-0.73,1.75-0.73
				c0.68,0,1.27,0.24,1.75,0.73c0.49,0.49,0.73,1.07,0.73,1.76l-2.27,5.96h-1.68l1.27-3.48
				C556.06,346.75,555.53,346.51,555.06,346.02"/>
			<path class="st0" d="M597.82,324.7h7.95c2.19,0,4.14,0.41,5.84,1.23c1.7,0.82,3.03,2.04,4.01,3.68c0.97,1.64,1.46,3.61,1.46,5.93
				c0,2.34-0.49,4.33-1.46,5.96c-0.97,1.64-2.31,2.87-4.01,3.7c-1.7,0.83-3.64,1.24-5.84,1.24h-7.95V324.7z M605.77,341.03
				c1.76,0,3.13-0.47,4.11-1.4c0.98-0.93,1.48-2.29,1.48-4.07c0-1.8-0.49-3.16-1.46-4.08c-0.97-0.92-2.35-1.38-4.13-1.38h-2.36
				v10.93H605.77z"/>
			<rect x="637.2" y="324.7" class="st0" width="5.59" height="21.74"/>
			<path class="st0" d="M669.13,324.7h6.27l6.46,21.74h-5.9l-0.9-3.66h-5.59l-0.87,3.66h-5.93L669.13,324.7z M669.75,321.75
				l1.99-4.72l3.04,2.11l-3.76,3.48L669.75,321.75z M673.82,337.52l-1.55-6.37l-1.52,6.37H673.82z"/>
			<polygon class="st0" points="701.67,324.7 707.26,324.7 707.26,340.91 718.32,340.91 718.32,346.44 701.67,346.44 			"/>
			<path class="st0" d="M742.35,345.48c-1.56-0.85-2.81-2.12-3.74-3.8c-0.93-1.69-1.4-3.73-1.4-6.13c0-2.4,0.47-4.44,1.4-6.12
				c0.93-1.68,2.18-2.93,3.74-3.77c1.56-0.84,3.28-1.26,5.14-1.26c1.86,0,3.57,0.42,5.12,1.26c1.55,0.84,2.8,2.1,3.73,3.77
				c0.93,1.68,1.4,3.72,1.4,6.12c0,2.4-0.47,4.45-1.4,6.13c-0.93,1.69-2.17,2.96-3.73,3.8c-1.55,0.85-3.26,1.27-5.12,1.27
				C745.62,346.75,743.91,346.32,742.35,345.48 M750.64,339.64c0.88-0.89,1.32-2.25,1.32-4.07c0-1.84-0.43-3.2-1.3-4.08
				c-0.87-0.88-1.92-1.32-3.17-1.32c-1.24,0-2.3,0.44-3.18,1.32c-0.88,0.88-1.32,2.24-1.32,4.08c0,1.82,0.44,3.18,1.32,4.07
				c0.88,0.89,1.94,1.34,3.18,1.34C748.71,340.97,749.76,340.53,750.64,339.64"/>
			<path class="st0" d="M782.64,345.48c-1.57-0.85-2.83-2.12-3.76-3.8c-0.93-1.69-1.4-3.73-1.4-6.13s0.47-4.44,1.4-6.12
				c0.93-1.68,2.18-2.93,3.76-3.77c1.57-0.84,3.3-1.26,5.19-1.26c1.64,0,3.13,0.34,4.49,1.01c1.36,0.67,2.5,1.72,3.43,3.15
				l-4.5,3.32c-0.41-0.58-0.93-1.01-1.54-1.29c-0.61-0.28-1.26-0.42-1.94-0.42c-1.24,0-2.3,0.44-3.18,1.32
				c-0.88,0.88-1.32,2.24-1.32,4.08c0,1.86,0.46,3.26,1.37,4.19c0.91,0.93,2.03,1.4,3.35,1.4c1.18,0,2.15-0.35,2.92-1.06v-1.37
				h-4.81v-5.09h9.97v9.07c-0.77,1.12-1.86,2.07-3.28,2.86c-1.42,0.79-3.06,1.18-4.92,1.18
				C785.95,346.75,784.22,346.32,782.64,345.48"/>
			<path class="st0" d="M821.17,345.48c-1.56-0.85-2.81-2.12-3.74-3.8c-0.93-1.69-1.4-3.73-1.4-6.13c0-2.4,0.47-4.44,1.4-6.12
				c0.93-1.68,2.18-2.93,3.74-3.77c1.56-0.84,3.28-1.26,5.14-1.26s3.57,0.42,5.12,1.26c1.55,0.84,2.8,2.1,3.73,3.77
				c0.93,1.68,1.4,3.72,1.4,6.12c0,2.4-0.47,4.45-1.4,6.13c-0.93,1.69-2.17,2.96-3.73,3.8c-1.55,0.85-3.26,1.27-5.12,1.27
				S822.73,346.32,821.17,345.48 M829.46,339.64c0.88-0.89,1.32-2.25,1.32-4.07c0-1.84-0.43-3.2-1.3-4.08
				c-0.87-0.88-1.93-1.32-3.17-1.32c-1.24,0-2.3,0.44-3.18,1.32c-0.88,0.88-1.32,2.24-1.32,4.08c0,1.82,0.44,3.18,1.32,4.07
				c0.88,0.89,1.94,1.34,3.18,1.34C827.53,340.97,828.58,340.53,829.46,339.64"/>
			<polygon class="st0" points="881.47,324.7 897.81,324.7 897.81,330.23 887.06,330.23 887.06,332.74 897.81,332.74 897.81,338.27 
				887.06,338.27 887.06,340.91 898.12,340.91 898.12,346.44 881.47,346.44 			"/>
			<path class="st0" d="M948.2,346.08c-1.25-0.45-2.3-1.18-3.15-2.2c-0.85-1.03-1.27-2.37-1.27-4.02V324.7h5.59v14.35
				c0,0.89,0.24,1.56,0.71,2c0.48,0.45,1.11,0.67,1.89,0.67c0.79,0,1.43-0.22,1.94-0.67c0.51-0.45,0.76-1.11,0.76-2V324.7h5.59
				v15.16c0,1.66-0.43,3-1.29,4.02c-0.86,1.02-1.92,1.76-3.18,2.2c-1.26,0.45-2.54,0.67-3.82,0.67
				C950.71,346.75,949.45,346.53,948.2,346.08"/>
			<polygon class="st0" points="981.32,324.7 986.35,324.7 993.03,335.79 993.03,324.7 998.31,324.7 998.31,346.44 993.31,346.44 
				986.6,335.23 986.6,346.44 981.32,346.44 			"/>
			<rect x="1018.75" y="324.7" class="st0" width="5.59" height="21.74"/>
			<path class="st0" d="M1050.67,324.7h6.27l6.46,21.74h-5.9l-0.9-3.66h-5.59l-0.87,3.66h-5.93L1050.67,324.7z M1051.31,320.35
				c0.34-0.41,0.79-0.62,1.35-0.62c0.43,0,0.9,0.15,1.4,0.43c0.33,0.17,0.57,0.25,0.71,0.25c0.33,0,0.5-0.23,0.5-0.68h1.55
				c0,1.59-0.57,2.39-1.71,2.39c-0.45,0-0.93-0.13-1.43-0.4c-0.12-0.06-0.25-0.12-0.39-0.17c-0.14-0.05-0.25-0.08-0.36-0.08
				c-0.19,0-0.33,0.05-0.42,0.14c-0.09,0.09-0.14,0.27-0.14,0.54h-1.58C1050.8,321.36,1050.97,320.76,1051.31,320.35
				 M1055.36,337.52l-1.55-6.37l-1.52,6.37H1055.36z"/>
			<path class="st0" d="M1086.19,345.48c-1.56-0.85-2.81-2.12-3.74-3.8c-0.93-1.69-1.4-3.73-1.4-6.13c0-2.4,0.47-4.44,1.4-6.12
				c0.93-1.68,2.18-2.93,3.74-3.77c1.56-0.84,3.28-1.26,5.14-1.26c1.86,0,3.57,0.42,5.12,1.26c1.55,0.84,2.8,2.1,3.73,3.77
				c0.93,1.68,1.4,3.72,1.4,6.12c0,2.4-0.47,4.45-1.4,6.13c-0.93,1.69-2.17,2.96-3.73,3.8c-1.55,0.85-3.26,1.27-5.12,1.27
				C1089.46,346.75,1087.75,346.32,1086.19,345.48 M1094.48,339.64c0.88-0.89,1.32-2.25,1.32-4.07c0-1.84-0.43-3.2-1.3-4.08
				c-0.87-0.88-1.92-1.32-3.17-1.32c-1.24,0-2.3,0.44-3.18,1.32c-0.88,0.88-1.32,2.24-1.32,4.08c0,1.82,0.44,3.18,1.32,4.07
				c0.88,0.89,1.94,1.34,3.18,1.34C1092.55,340.97,1093.6,340.53,1094.48,339.64"/>
		</g>
	</g>
	<g>
		<rect x="1254.45" y="104.01" class="st44" width="2.87" height="257.87"/>
		<text transform="matrix(1 0 0 1 1289.877 212.8831)" class="st0 st45 st46">SECRETARIA</text>
		<text transform="matrix(0.583 0 0 0.583 1289.877 288.2787)" class="st0 st45 st47">DE</text>
		<text transform="matrix(1 0 0 1 1329.5693 306.5667)" class="st0 st45 st46"> OBRAS</text>
	</g>
</g>
<g>
	<defs>
		<rect id="SVGID_00000080171078494026525570000012180021216457722038_" x="39.41" y="-425.94" width="1288.53" height="1288.53"/>
	</defs>
	<clipPath id="SVGID_00000001629118656652392780000011465077713413600144_">
		<use xlink:href="#SVGID_00000080171078494026525570000012180021216457722038_"  style="overflow:visible;"/>
	</clipPath>
	<path style="clip-path:url(#SVGID_00000001629118656652392780000011465077713413600144_);fill:#E42521;" d="M874.65,169.8
		c-0.34,0.02-0.68,0.06-1.02,0.08c0.87-0.05,1.75-0.11,2.63-0.12C875.72,169.78,875.19,169.78,874.65,169.8"/>
	<path style="clip-path:url(#SVGID_00000001629118656652392780000011465077713413600144_);fill:#E42521;" d="M863.29,171.7
		c-0.33,0.1-0.65,0.22-0.97,0.33c0.39-0.13,0.78-0.26,1.18-0.38C863.43,171.67,863.36,171.68,863.29,171.7"/>
	<path style="clip-path:url(#SVGID_00000001629118656652392780000011465077713413600144_);fill:#E42521;" d="M867.71,170.61
		c-0.03,0.01-0.07,0.02-0.1,0.03c0.04-0.01,0.08-0.02,0.12-0.03C867.72,170.61,867.71,170.61,867.71,170.61"/>
	<path style="clip-path:url(#SVGID_00000001629118656652392780000011465077713413600144_);fill:#E42521;" d="M870.32,170.22
		c0.36-0.05,0.72-0.11,1.08-0.15C871.03,170.11,870.68,170.17,870.32,170.22"/>
	<path style="clip-path:url(#SVGID_00000001629118656652392780000011465077713413600144_);fill:#E42521;" d="M877.06,169.76h-0.31
		c-0.05,0-0.09,0-0.14,0c0.48,0,0.95,0.03,1.42,0.04C877.7,169.8,877.39,169.76,877.06,169.76"/>
</g>
<polygon class="st3" points="433.11,264.69 433.11,218.75 433.12,218.75 433.13,218.75 433.13,142.25 433.12,142.25 402.37,142.25 
	402.36,142.25 402.36,218.75 402.36,295.25 494.62,295.25 494.62,264.69 "/>
<g>
	<defs>
		<path id="SVGID_00000097500693010087126020000006093249322049850555_" d="M1169.54,291.71h-139.79l6.86-15.35h126.12
			L1169.54,291.71z M1099.81,202.28l-19.27,43.39h38.52L1099.81,202.28z"/>
	</defs>
	<clipPath id="SVGID_00000093139253954260030620000013524485425654301885_">
		<use xlink:href="#SVGID_00000097500693010087126020000006093249322049850555_"  style="overflow:visible;"/>
	</clipPath>
	
		<linearGradient id="SVGID_00000177478211257959056900000013454025253424779159_" gradientUnits="userSpaceOnUse" x1="-2019.9126" y1="1225.6765" x2="-2019.2683" y2="1225.6765" gradientTransform="matrix(0 138.8077 138.8077 0 -169033.7031 280581.7188)">
		<stop  offset="0" style="stop-color:#ECECEC"/>
		<stop  offset="0.4297" style="stop-color:#D5D4D5"/>
		<stop  offset="1" style="stop-color:#B2B2B2"/>
		<stop  offset="1" style="stop-color:#B2B2B2"/>
	</linearGradient>
	
		<rect x="1029.75" y="202.28" style="clip-path:url(#SVGID_00000093139253954260030620000013524485425654301885_);fill:url(#SVGID_00000177478211257959056900000013454025253424779159_);" width="139.79" height="89.43"/>
</g>
<path class="st50" d="M1149.12,245.67l-22.09-49.8l-12.18-27.46l-14.67-33.06h-0.74l-14.67,33.06l-10.83,24.42l-0.61,1.4l-0.75,1.65
	l-22.25,49.8l-13.72,30.69h126.12L1149.12,245.67z M1080.54,245.67l19.27-43.39l19.25,43.39H1080.54z"/>
<g>
	<defs>
		<rect id="SVGID_00000165934957809627140740000017143359285972488365_" x="39.41" y="-425.94" width="1288.53" height="1288.53"/>
	</defs>
	<clipPath id="SVGID_00000167356827987483936820000000189208351919904663_">
		<use xlink:href="#SVGID_00000165934957809627140740000017143359285972488365_"  style="overflow:visible;"/>
	</clipPath>
	<path style="clip-path:url(#SVGID_00000167356827987483936820000000189208351919904663_);fill:#020203;" d="M1014.36,236.4
		c8.66-3.43,12.93-6.61,18.28-14.13c6.43-9.09,9.66-18.78,9.66-29.06v-3.97c0-16.9-5.46-25.36-14.78-34.66
		c-9.21-9.12-22.95-15.55-39.94-15.55h-19.04v30.38h4.54v0.04h12.61c7.38,0,14.96,2.19,18.93,6.05c4.04,4.24,6.07,9.12,6.07,14.69
		c0,11.62-9,21.48-20.17,21.48h-10.25v-0.09h-7.19v0.09h-4.54v12.5l43.85,67.54h37.5L1014.36,236.4z"/>
</g>
<g>
	<defs>
		<path id="SVGID_00000139294418382743546470000014634771979100585091_" d="M937.75,139.03l0.09,152.68h74.53l-43.84-67.54v-12.5
			h4.54v-0.09h7.19v0.09h10.25c11.17,0,20.17-9.86,20.17-21.48c0-5.57-2.03-10.45-6.07-14.69c-3.97-3.86-11.55-6.05-18.93-6.05
			h-12.61v-0.04h-4.54v-30.38H937.75z"/>
	</defs>
	<clipPath id="SVGID_00000180353164952109545420000005106958836846796970_">
		<use xlink:href="#SVGID_00000139294418382743546470000014634771979100585091_"  style="overflow:visible;"/>
	</clipPath>
	
		<linearGradient id="SVGID_00000041985811565131055350000001769729056168989375_" gradientUnits="userSpaceOnUse" x1="-2006.5028" y1="1215.0153" x2="-2005.8586" y2="1215.0153" gradientTransform="matrix(115.8302 0 0 -115.8302 233351.375 140950.8281)">
		<stop  offset="0" style="stop-color:#ECECEC"/>
		<stop  offset="0.4297" style="stop-color:#D5D4D5"/>
		<stop  offset="1" style="stop-color:#B2B2B2"/>
		<stop  offset="1" style="stop-color:#B2B2B2"/>
	</linearGradient>
	
		<rect x="937.75" y="139.03" style="clip-path:url(#SVGID_00000180353164952109545420000005106958836846796970_);fill:url(#SVGID_00000041985811565131055350000001769729056168989375_);" width="74.63" height="152.68"/>
</g>
<g>
	<defs>
		<path id="SVGID_00000168818437750696611920000012971722278790025867_" d="M896.9,174.48c-6.05-2.89-12.66-4.33-19.86-4.33
			c-12.98,0-23.99,4.56-32.97,13.7c-6.93,7.02-11.19,15.03-12.86,24.03h-0.43v0c-0.54,2.91-0.81,5.91-0.81,9.05
			c0,0.43,0,0.84,0.02,1.26h-30.65c0.74,42.32,35.25,76.41,77.75,76.41c42.5,0,77.01-34.09,77.75-76.41h-30.66
			c0.02-0.41,0.02-0.83,0.02-1.26c0-12.95-4.63-24.08-13.85-33.33c-8.61-8.61-18.85-13.16-30.65-13.76
			C885.83,170.26,891.63,171.86,896.9,174.48"/>
	</defs>
	<clipPath id="SVGID_00000160888134817572837690000002845022191177621436_">
		<use xlink:href="#SVGID_00000168818437750696611920000012971722278790025867_"  style="overflow:visible;"/>
	</clipPath>
	
		<linearGradient id="SVGID_00000113352965921734494460000007254127107571514779_" gradientUnits="userSpaceOnUse" x1="-2013.2059" y1="1215.0758" x2="-2012.5616" y2="1215.0758" gradientTransform="matrix(241.3572 0 0 -241.3572 486701.0938 293499.5312)">
		<stop  offset="0" style="stop-color:#ECECEC"/>
		<stop  offset="0.4297" style="stop-color:#D5D4D5"/>
		<stop  offset="1" style="stop-color:#B2B2B2"/>
		<stop  offset="1" style="stop-color:#B2B2B2"/>
	</linearGradient>
	
		<rect x="799.34" y="169.84" style="clip-path:url(#SVGID_00000160888134817572837690000002845022191177621436_);fill:url(#SVGID_00000113352965921734494460000007254127107571514779_);" width="155.5" height="124.76"/>
</g>
<g>
	<defs>
		<rect id="SVGID_00000016050430293825633620000009235220270903418287_" x="39.41" y="-425.94" width="1288.53" height="1288.53"/>
	</defs>
	<clipPath id="SVGID_00000080178747280856087810000005276662457446303919_">
		<use xlink:href="#SVGID_00000016050430293825633620000009235220270903418287_"  style="overflow:visible;"/>
	</clipPath>
	<path style="clip-path:url(#SVGID_00000080178747280856087810000005276662457446303919_);fill:#E52721;" d="M954.87,216.81
		c0-0.49-0.03-0.96-0.04-1.45c0.01,0.51,0.03,1.02,0.03,1.53C954.87,216.87,954.87,216.84,954.87,216.81"/>
	<path style="clip-path:url(#SVGID_00000080178747280856087810000005276662457446303919_);fill:#E52721;" d="M954.75,212.48
		c0.01,0.13,0.02,0.26,0.03,0.39C954.77,212.73,954.75,212.61,954.75,212.48"/>
	<path style="clip-path:url(#SVGID_00000080178747280856087810000005276662457446303919_);fill:#E52721;" d="M799.41,212.87
		c0.01-0.14,0.02-0.28,0.03-0.43C799.43,212.59,799.41,212.73,799.41,212.87"/>
	<path style="clip-path:url(#SVGID_00000080178747280856087810000005276662457446303919_);fill:#E52721;" d="M799.31,216.81
		c0,0.03,0,0.06,0,0.09c0-0.51,0.02-1.01,0.03-1.52C799.33,215.86,799.31,216.33,799.31,216.81"/>
	<path style="clip-path:url(#SVGID_00000080178747280856087810000005276662457446303919_);fill:#0F2B42;" d="M844.08,183.84
		c8.98-9.14,19.99-13.7,32.97-13.7c7.2,0,13.81,1.44,19.86,4.33c-5.27-2.62-11.07-4.22-17.2-4.64c-0.55-0.03-1.1-0.07-1.66-0.08
		c-0.47-0.02-0.95-0.04-1.42-0.04c-0.12,0-0.23,0.01-0.35,0.01c-0.89,0-1.76,0.06-2.63,0.12c-0.75,0.05-1.5,0.1-2.23,0.18
		c-0.36,0.04-0.72,0.1-1.08,0.15c-0.87,0.12-1.74,0.23-2.59,0.39c-0.04,0.01-0.08,0.02-0.12,0.03c-1.39,0.28-2.77,0.61-4.12,1.01
		c-0.4,0.12-0.79,0.26-1.18,0.38c-6.81,2.25-13.01,6.09-18.52,11.61c-7,7.06-11.33,15.14-13,24.28h0.43
		C832.88,198.87,837.15,190.86,844.08,183.84"/>
	<path style="clip-path:url(#SVGID_00000080178747280856087810000005276662457446303919_);fill:#020203;" d="M954.84,215.36
		c-0.02-0.83-0.02-1.67-0.06-2.5c-0.01-0.13-0.02-0.26-0.03-0.39c-0.68-13.11-4.34-25.02-10.98-35.73
		c-3.23-5.2-7.14-10.13-11.77-14.77c-4.68-4.68-9.65-8.64-14.91-11.88c-9.24-5.71-19.38-9.19-30.39-10.45
		c-3.15-0.36-6.36-0.57-9.65-0.57c-2.9,0-5.75,0.15-8.54,0.44c-12.65,1.28-24.14,5.45-34.48,12.53c-4.15,2.84-8.12,6.16-11.9,9.94
		c-4.57,4.61-8.44,9.49-11.63,14.64c-6.68,10.76-10.37,22.7-11.05,35.83c-0.01,0.14-0.02,0.28-0.03,0.43
		c-0.04,0.83-0.05,1.67-0.06,2.51c-0.01,0.51-0.03,1.01-0.03,1.52c0,0.03,0,0.06,0,0.1c0,0.41,0,0.81,0.02,1.2h0.01H830
		c-0.02-0.43-0.02-0.83-0.02-1.26c0-3.14,0.27-6.14,0.81-9.05v0c1.67-9.14,6-17.22,13-24.28c5.51-5.51,11.71-9.36,18.52-11.61
		c0.33-0.11,0.65-0.23,0.98-0.33c0.07-0.02,0.14-0.03,0.21-0.05c1.35-0.39,2.73-0.73,4.12-1.01c0.03-0.01,0.07-0.02,0.1-0.03
		c0.01,0,0.02,0,0.02,0c0.85-0.16,1.72-0.28,2.59-0.39c0.36-0.05,0.72-0.11,1.08-0.15c0.74-0.08,1.49-0.13,2.23-0.18
		c0.34-0.02,0.68-0.07,1.02-0.08c0.54-0.02,1.07-0.03,1.61-0.03c0.12,0,0.23-0.01,0.35-0.01c0.05,0,0.09,0,0.14,0h0.31
		c0.33,0,0.64,0.04,0.97,0.04c0.56,0.01,1.11,0.05,1.66,0.08c11.8,0.59,22.04,5.14,30.65,13.76c9.23,9.25,13.86,20.38,13.86,33.33
		c0,0.43,0,0.86-0.02,1.26h30.65h0.01c0.02-0.38,0.02-0.79,0.02-1.2c0-0.03,0-0.06,0-0.1C954.87,216.38,954.85,215.87,954.84,215.36
		"/>
</g>
<g>
	<defs>
		<path id="SVGID_00000121265112397632200000000016893576849313656978_" d="M689.43,140.91V294h30.69v-30.69h10.27
			c27.62,0,45.61-18.32,45.61-45.99c0-27.42-18.3-45.99-45.9-45.99h-9.97v-30.42H689.43z"/>
	</defs>
	<clipPath id="SVGID_00000165225681249539708910000001435234624082755462_">
		<use xlink:href="#SVGID_00000121265112397632200000000016893576849313656978_"  style="overflow:visible;"/>
	</clipPath>
	
		<linearGradient id="SVGID_00000089560170442427819250000015291719040223113346_" gradientUnits="userSpaceOnUse" x1="-2019.8064" y1="1222.1135" x2="-2019.1621" y2="1222.1135" gradientTransform="matrix(0 237.6115 237.6115 0 -289655.5 480070.0938)">
		<stop  offset="0" style="stop-color:#ECECEC"/>
		<stop  offset="0.4297" style="stop-color:#D5D4D5"/>
		<stop  offset="1" style="stop-color:#B2B2B2"/>
		<stop  offset="1" style="stop-color:#B2B2B2"/>
	</linearGradient>
	
		<rect x="689.43" y="140.91" style="clip-path:url(#SVGID_00000165225681249539708910000001435234624082755462_);fill:url(#SVGID_00000089560170442427819250000015291719040223113346_);" width="86.56" height="153.09"/>
</g>
<g>
	<defs>
		<rect id="SVGID_00000172405518896557752520000003358751401902017198_" x="39.41" y="-425.94" width="1288.53" height="1288.53"/>
	</defs>
	<clipPath id="SVGID_00000173153144992163694900000007668388956653227967_">
		<use xlink:href="#SVGID_00000172405518896557752520000003358751401902017198_"  style="overflow:visible;"/>
	</clipPath>
	<path style="clip-path:url(#SVGID_00000173153144992163694900000007668388956653227967_);fill:#020203;" d="M786.17,163.34
		c-2.64-2.62-5.51-5.1-8.6-7.36c-11.42-8.46-26-14.31-43.48-15.07c-1.29-0.07-2.6-0.09-3.9-0.09v0.09h-10.06v30.42h9.97
		c27.6,0,45.9,18.57,45.9,45.99c0,27.67-17.99,45.99-45.61,45.99h-10.27V294h10.06c18.19,0,33.98-4.99,47.39-15.01
		c2.98-2.21,5.84-4.69,8.6-7.42c13.68-13.61,20.53-31.62,20.53-54.02C806.7,195.16,799.84,177.08,786.17,163.34"/>
</g>
<g>
	<defs>
		<polygon id="SVGID_00000085951423954830130490000011779266294403154621_" points="325.56,171.03 325.56,201.92 371.73,201.92 
			371.73,232.61 294.77,232.61 294.77,294.19 387.14,294.19 387.14,171.03 		"/>
	</defs>
	<clipPath id="SVGID_00000075873893351478128220000000090494247279654050_">
		<use xlink:href="#SVGID_00000085951423954830130490000011779266294403154621_"  style="overflow:visible;"/>
	</clipPath>
	
		<linearGradient id="SVGID_00000087387433354376775170000016290271606247148680_" gradientUnits="userSpaceOnUse" x1="-2006.6198" y1="1215.0897" x2="-2005.9756" y2="1215.0897" gradientTransform="matrix(143.3766 0 0 -143.3766 287997.1562 174448.0938)">
		<stop  offset="0" style="stop-color:#ECECEC"/>
		<stop  offset="0.4297" style="stop-color:#D5D4D5"/>
		<stop  offset="1" style="stop-color:#B2B2B2"/>
		<stop  offset="1" style="stop-color:#B2B2B2"/>
	</linearGradient>
	
		<rect x="294.77" y="171.03" style="clip-path:url(#SVGID_00000075873893351478128220000000090494247279654050_);fill:url(#SVGID_00000087387433354376775170000016290271606247148680_);" width="92.37" height="123.16"/>
</g>
<g>
	<defs>
		<rect id="SVGID_00000041277361775500014330000009260356060156318895_" x="39.41" y="-425.94" width="1288.53" height="1288.53"/>
	</defs>
	<clipPath id="SVGID_00000022552079666188006150000006793210705810623386_">
		<use xlink:href="#SVGID_00000041277361775500014330000009260356060156318895_"  style="overflow:visible;"/>
	</clipPath>
	<polygon style="clip-path:url(#SVGID_00000022552079666188006150000006793210705810623386_);fill:#020203;" points="387.13,170.94 
		387.14,170.94 387.14,140.35 294.76,140.35 294.76,201.98 294.76,232.53 294.76,294.16 387.14,294.16 387.14,263.56 387.13,263.56 
		325.56,263.56 325.56,232.66 371.73,232.66 371.73,232.53 371.73,201.98 371.73,201.84 325.56,201.84 325.56,170.94 	"/>
</g>
<g>
	<defs>
		<path id="SVGID_00000093855104727337504310000003984913633813246382_" d="M199.64,232.61v61.38h-30.7V294h112.61v-0.01h-30.69
			v-61.38H199.64z M168.94,202.15h112.61V140.8H168.94V202.15z"/>
	</defs>
	<clipPath id="SVGID_00000176016863547223136680000014989720686808552629_">
		<use xlink:href="#SVGID_00000093855104727337504310000003984913633813246382_"  style="overflow:visible;"/>
	</clipPath>
	
		<linearGradient id="SVGID_00000140725626801783182730000000797889859222368395_" gradientUnits="userSpaceOnUse" x1="-2019.8063" y1="1223.287" x2="-2019.162" y2="1223.287" gradientTransform="matrix(0 237.7812 237.7812 0 -290649.4062 480412.75)">
		<stop  offset="0" style="stop-color:#ECECEC"/>
		<stop  offset="0.4297" style="stop-color:#D5D4D5"/>
		<stop  offset="1" style="stop-color:#B2B2B2"/>
		<stop  offset="1" style="stop-color:#B2B2B2"/>
	</linearGradient>
	
		<rect x="168.94" y="140.8" style="clip-path:url(#SVGID_00000176016863547223136680000014989720686808552629_);fill:url(#SVGID_00000140725626801783182730000000797889859222368395_);" width="112.61" height="153.19"/>
</g>
<g>
	<defs>
		<rect id="SVGID_00000135678750426108354940000009104834464126016188_" x="39.41" y="-425.94" width="1288.53" height="1288.53"/>
	</defs>
	<clipPath id="SVGID_00000170276992374901124700000009438642297371071161_">
		<use xlink:href="#SVGID_00000135678750426108354940000009104834464126016188_"  style="overflow:visible;"/>
	</clipPath>
	<polygon style="clip-path:url(#SVGID_00000170276992374901124700000009438642297371071161_);fill:#020203;" points="281.56,140.8 
		281.56,140.8 250.87,140.8 250.87,202.15 199.65,202.15 199.65,140.8 168.94,140.8 168.93,140.8 168.93,202.15 168.93,202.15 
		168.93,293.99 168.94,293.99 199.64,293.99 199.64,232.65 250.87,232.65 250.87,293.99 281.55,293.99 281.56,293.99 281.56,232.65 
		281.56,232.65 	"/>
</g>
<g>
	<defs>
		<rect id="SVGID_00000098921289425846815810000012674713537211059628_" x="507.3" y="217.4" width="30.79" height="76.6"/>
	</defs>
	<clipPath id="SVGID_00000142161011866862944630000009578760683145101231_">
		<use xlink:href="#SVGID_00000098921289425846815810000012674713537211059628_"  style="overflow:visible;"/>
	</clipPath>
	
		<linearGradient id="SVGID_00000044864836393180267830000018139807524505407652_" gradientUnits="userSpaceOnUse" x1="-2019.9683" y1="1230.1349" x2="-2019.324" y2="1230.1349" gradientTransform="matrix(0 118.8907 118.8907 0 -145728.8438 240372.75)">
		<stop  offset="0" style="stop-color:#ECECEC"/>
		<stop  offset="0.4297" style="stop-color:#D5D4D5"/>
		<stop  offset="1" style="stop-color:#B2B2B2"/>
		<stop  offset="1" style="stop-color:#B2B2B2"/>
	</linearGradient>
	
		<rect x="507.3" y="217.4" style="clip-path:url(#SVGID_00000142161011866862944630000009578760683145101231_);fill:url(#SVGID_00000044864836393180267830000018139807524505407652_);" width="30.79" height="76.6"/>
</g>
<g>
	<defs>
		<rect id="SVGID_00000123435620187950193540000014531525137674601379_" x="39.41" y="-425.94" width="1288.53" height="1288.53"/>
	</defs>
	<clipPath id="SVGID_00000141420036541408161000000001865508005437233055_">
		<use xlink:href="#SVGID_00000123435620187950193540000014531525137674601379_"  style="overflow:visible;"/>
	</clipPath>
	<polygon style="clip-path:url(#SVGID_00000141420036541408161000000001865508005437233055_);fill:#020203;" points="538.09,140.81 
		507.3,140.81 507.3,140.81 507.3,217.4 507.3,217.4 538.09,217.4 538.1,217.4 538.1,140.81 	"/>
</g>
<g>
	<defs>
		<path id="SVGID_00000031176674537459567260000010192724591006034111_" d="M649.92,173.88c-6.05-2.89-12.66-4.33-19.86-4.33
			c-12.98,0-23.99,4.56-32.97,13.7c-6.93,7.02-11.19,15.03-12.86,24.03h-0.43v0c-0.54,2.91-0.81,5.91-0.81,9.05
			c0,0.43,0,0.84,0.02,1.26h-30.65c0.74,42.32,35.25,76.41,77.75,76.41c42.5,0,77.01-34.09,77.75-76.41H677.2
			c0.02-0.41,0.02-0.83,0.02-1.26c0-12.95-4.63-24.08-13.85-33.33c-8.61-8.61-18.85-13.16-30.65-13.76
			C638.84,169.66,644.64,171.26,649.92,173.88"/>
	</defs>
	<clipPath id="SVGID_00000127007073391060647080000003443930622900562571_">
		<use xlink:href="#SVGID_00000031176674537459567260000010192724591006034111_"  style="overflow:visible;"/>
	</clipPath>
	
		<linearGradient id="SVGID_00000070800681564072587470000006921995790009839775_" gradientUnits="userSpaceOnUse" x1="-2019.8431" y1="1224.0083" x2="-2019.1989" y2="1224.0083" gradientTransform="matrix(0 193.6439 193.6439 0 -236391.5938 391299.5)">
		<stop  offset="0" style="stop-color:#ECECEC"/>
		<stop  offset="0.4297" style="stop-color:#D5D4D5"/>
		<stop  offset="1" style="stop-color:#B2B2B2"/>
		<stop  offset="1" style="stop-color:#B2B2B2"/>
	</linearGradient>
	
		<rect x="552.36" y="169.24" style="clip-path:url(#SVGID_00000127007073391060647080000003443930622900562571_);fill:url(#SVGID_00000070800681564072587470000006921995790009839775_);" width="155.5" height="124.76"/>
</g>
<g>
	<defs>
		<rect id="SVGID_00000011001509699584700130000002212566493853720971_" x="39.41" y="-425.94" width="1288.53" height="1288.53"/>
	</defs>
	<clipPath id="SVGID_00000089536395412349926370000001983046593767040959_">
		<use xlink:href="#SVGID_00000011001509699584700130000002212566493853720971_"  style="overflow:visible;"/>
	</clipPath>
	<path style="clip-path:url(#SVGID_00000089536395412349926370000001983046593767040959_);fill:#E52721;" d="M707.89,216.21
		c0-0.49-0.03-0.96-0.04-1.45c0.01,0.51,0.03,1.02,0.03,1.53C707.89,216.27,707.89,216.24,707.89,216.21"/>
	<path style="clip-path:url(#SVGID_00000089536395412349926370000001983046593767040959_);fill:#E52721;" d="M707.76,211.88
		c0.01,0.13,0.02,0.26,0.03,0.39C707.78,212.14,707.77,212.01,707.76,211.88"/>
	<path style="clip-path:url(#SVGID_00000089536395412349926370000001983046593767040959_);fill:#E52721;" d="M552.42,212.27
		c0.01-0.14,0.02-0.28,0.03-0.43C552.44,211.99,552.43,212.13,552.42,212.27"/>
	<path style="clip-path:url(#SVGID_00000089536395412349926370000001983046593767040959_);fill:#E52721;" d="M552.32,216.21
		c0,0.03,0,0.06,0,0.09c0-0.51,0.02-1.01,0.03-1.52C552.35,215.26,552.32,215.73,552.32,216.21"/>
	<path style="clip-path:url(#SVGID_00000089536395412349926370000001983046593767040959_);fill:#0F2B42;" d="M597.09,183.24
		c8.98-9.14,19.99-13.7,32.97-13.7c7.2,0,13.81,1.44,19.86,4.33c-5.27-2.62-11.07-4.22-17.2-4.64c-0.55-0.03-1.1-0.07-1.66-0.08
		c-0.47-0.02-0.95-0.04-1.42-0.04c-0.12,0-0.23,0.01-0.35,0.01c-0.89,0-1.76,0.06-2.63,0.12c-0.75,0.05-1.5,0.1-2.23,0.18
		c-0.36,0.04-0.72,0.1-1.08,0.15c-0.87,0.12-1.74,0.23-2.59,0.39c-0.04,0.01-0.08,0.02-0.12,0.03c-1.39,0.28-2.77,0.61-4.11,1.01
		c-0.4,0.12-0.79,0.26-1.18,0.38c-6.81,2.25-13.01,6.09-18.52,11.61c-7,7.06-11.33,15.14-13,24.28h0.43
		C585.9,198.27,590.16,190.26,597.09,183.24"/>
	<path style="clip-path:url(#SVGID_00000089536395412349926370000001983046593767040959_);fill:#020203;" d="M707.85,214.76
		c-0.02-0.83-0.02-1.67-0.06-2.5c-0.01-0.13-0.02-0.26-0.03-0.39c-0.68-13.11-4.34-25.02-10.98-35.73
		c-3.23-5.2-7.14-10.13-11.77-14.77c-4.68-4.68-9.65-8.64-14.91-11.88c-9.24-5.71-19.38-9.19-30.39-10.45
		c-3.15-0.36-6.36-0.57-9.65-0.57c-2.9,0-5.75,0.15-8.54,0.44c-12.65,1.28-24.14,5.45-34.48,12.53c-4.15,2.84-8.12,6.16-11.9,9.94
		c-4.57,4.61-8.44,9.49-11.63,14.64c-6.68,10.76-10.37,22.7-11.05,35.83c-0.01,0.14-0.02,0.28-0.03,0.43
		c-0.04,0.83-0.05,1.67-0.06,2.51c-0.01,0.51-0.03,1.01-0.03,1.52c0,0.03,0,0.06,0,0.1c0,0.41,0,0.81,0.02,1.2h0.01h30.65
		c-0.02-0.43-0.02-0.83-0.02-1.26c0-3.14,0.27-6.14,0.81-9.05v0c1.67-9.14,6-17.22,13-24.28c5.51-5.51,11.71-9.36,18.52-11.61
		c0.33-0.11,0.65-0.23,0.98-0.33c0.07-0.02,0.14-0.03,0.21-0.05c1.35-0.39,2.73-0.73,4.12-1.01c0.03-0.01,0.07-0.02,0.1-0.03
		c0.01,0,0.02,0,0.02,0c0.85-0.16,1.72-0.28,2.59-0.39c0.36-0.05,0.72-0.11,1.08-0.15c0.74-0.08,1.49-0.13,2.23-0.18
		c0.34-0.02,0.68-0.07,1.02-0.08c0.54-0.02,1.08-0.03,1.61-0.03c0.12,0,0.23-0.01,0.35-0.01c0.05,0,0.09,0,0.14,0h0.31
		c0.33,0,0.64,0.04,0.97,0.04c0.56,0.01,1.11,0.05,1.66,0.08c11.8,0.6,22.04,5.14,30.65,13.76c9.23,9.25,13.86,20.38,13.86,33.33
		c0,0.43,0,0.86-0.02,1.26h30.65h0.01c0.02-0.38,0.02-0.79,0.02-1.2c0-0.03,0-0.06,0-0.1C707.89,215.78,707.86,215.28,707.85,214.76
		"/>
</g>
<g>
	<defs>
		<path id="SVGID_00000119813606444612317320000010371513333290491832_" d="M401.83,218.77h30.78v45.99h61.58v30.6h-92.36V218.77z
			 M401.82,295.36h92.37V142.17h-92.37V295.36z"/>
	</defs>
	<clipPath id="SVGID_00000086678502339757096350000009332149645702817947_">
		<use xlink:href="#SVGID_00000119813606444612317320000010371513333290491832_"  style="overflow:visible;"/>
	</clipPath>
	
		<linearGradient id="SVGID_00000044178033840014511880000005701915529967007628_" gradientUnits="userSpaceOnUse" x1="-2007.0322" y1="1215.0365" x2="-2006.3879" y2="1215.0365" gradientTransform="matrix(143.3777 0 0 -143.3777 288165.4688 174427.875)">
		<stop  offset="0" style="stop-color:#ECECEC"/>
		<stop  offset="0.4297" style="stop-color:#D5D4D5"/>
		<stop  offset="1" style="stop-color:#B2B2B2"/>
		<stop  offset="1" style="stop-color:#B2B2B2"/>
	</linearGradient>
	
		<rect x="401.82" y="142.17" style="clip-path:url(#SVGID_00000086678502339757096350000009332149645702817947_);fill:url(#SVGID_00000044178033840014511880000005701915529967007628_);" width="92.37" height="153.19"/>
</g>
<g>
	<defs>
		<rect id="SVGID_00000017500340381571301010000013924764441143636912_" x="39.41" y="-425.94" width="1288.53" height="1288.53"/>
	</defs>
	<clipPath id="SVGID_00000005961809795527691510000016081351666550066875_">
		<use xlink:href="#SVGID_00000017500340381571301010000013924764441143636912_"  style="overflow:visible;"/>
	</clipPath>
	<polygon style="clip-path:url(#SVGID_00000005961809795527691510000016081351666550066875_);fill:#020203;" points="432.61,264.76 
		432.61,218.77 432.62,218.77 432.63,218.77 432.63,142.18 432.62,142.18 401.83,142.18 401.83,142.18 401.83,218.77 401.83,295.35 
		494.19,295.35 494.19,264.76 	"/>
</g>
</svg>
