<?xml version="1.0" encoding="utf-8"?>
<!-- Generator: Adobe Illustrator 28.7.3, SVG Export Plug-In . SVG Version: 9.03 Build 54978)  -->
<svg version="1.0" id="Camada_1" xmlns="http://www.w3.org/2000/svg" xmlns:xlink="http://www.w3.org/1999/xlink" x="0px" y="0px"
	 viewBox="0 0 2000 437.18" style="enable-background:new 0 0 2000 437.18;" xml:space="preserve">
<style type="text/css">
	.st0{fill:#010202;}
	.st1{clip-path:url(#SVGID_00000062174247645109111110000016558999674890570375_);fill:#E42521;}
	
		.st2{clip-path:url(#SVGID_00000075143549497111630410000008974840417765497016_);fill:url(#SVGID_00000085218863954402545910000012958907650705833115_);}
	.st3{fill:#0F2B41;}
	.st4{clip-path:url(#SVGID_00000052782653476520688380000000708550037605006496_);fill:#0F2B41;}
	
		.st5{clip-path:url(#SVGID_00000059290379449248286110000014935562215062679481_);fill:url(#SVGID_00000183213843483740518660000014417711304183503037_);}
	
		.st6{clip-path:url(#SVGID_00000097462910526566687300000002996735696395763868_);fill:url(#SVGID_00000059298962973041901190000011346647992914683031_);}
	.st7{clip-path:url(#SVGID_00000036946738580240710920000012627218889960469134_);fill:#E42521;}
	.st8{clip-path:url(#SVGID_00000036946738580240710920000012627218889960469134_);fill:#0F2B41;}
	
		.st9{clip-path:url(#SVGID_00000065044289074121090820000013670934042039173013_);fill:url(#SVGID_00000011022806191583682580000017938895584569041832_);}
	.st10{clip-path:url(#SVGID_00000103973745137141309190000005984877199148257460_);fill:#0F2B41;}
	
		.st11{clip-path:url(#SVGID_00000018952088931131634250000000495293599649136768_);fill:url(#SVGID_00000158734905319038555670000007316017834766931852_);}
	.st12{clip-path:url(#SVGID_00000171712927506600901090000000584353876846003129_);fill:#0F2B41;}
	
		.st13{clip-path:url(#SVGID_00000109735931107077687270000006084062776246606735_);fill:url(#SVGID_00000065034710103389932920000005761728088585841573_);}
	.st14{clip-path:url(#SVGID_00000176014346249952557770000012493226567507737791_);fill:#0F2B41;}
	
		.st15{clip-path:url(#SVGID_00000070831305540031617370000016919666131499402381_);fill:url(#SVGID_00000125565095622343178280000016700611106455476356_);}
	.st16{clip-path:url(#SVGID_00000118369814689316662990000008086716733207659656_);fill:#0F2B41;}
	.st17{clip-path:url(#SVGID_00000118369814689316662990000008086716733207659656_);fill:#E42521;}
	
		.st18{clip-path:url(#SVGID_00000124120964828728026610000012993119773093276338_);fill:url(#SVGID_00000090253014132307478920000008455967879180239281_);}
	.st19{clip-path:url(#SVGID_00000100378739458691962140000009608491341697800124_);fill:#E42521;}
	.st20{clip-path:url(#SVGID_00000100378739458691962140000009608491341697800124_);fill:#0F2B41;}
	
		.st21{clip-path:url(#SVGID_00000022554757916261877810000010213858345116199851_);fill:url(#SVGID_00000100340586048063045060000013786046270201568394_);}
	.st22{fill:#15457C;}
	.st23{fill-rule:evenodd;clip-rule:evenodd;fill:#0F2B41;}
	.st24{clip-path:url(#SVGID_00000095325061840626912840000002660460719748344970_);fill:#E42521;}
	
		.st25{clip-path:url(#SVGID_00000021108832214897398820000016066338979556558985_);fill:url(#SVGID_00000179606694476327937230000011902935761172258732_);}
	.st26{clip-path:url(#SVGID_00000101074078530686106680000004718508671564769470_);fill:#0F2B41;}
	
		.st27{clip-path:url(#SVGID_00000011742727783244210770000002330409184887085196_);fill:url(#SVGID_00000172403977253567445370000013451738763391894698_);}
	
		.st28{clip-path:url(#SVGID_00000085949452362184846720000000736274699114700726_);fill:url(#SVGID_00000156583515753658331070000002112744020241354164_);}
	.st29{clip-path:url(#SVGID_00000013885766284324110160000011218088079589945499_);fill:#E42521;}
	.st30{clip-path:url(#SVGID_00000013885766284324110160000011218088079589945499_);fill:#0F2B41;}
	
		.st31{clip-path:url(#SVGID_00000153679256688870260980000013448658105598890158_);fill:url(#SVGID_00000079449978997044705090000001963391808365776555_);}
	.st32{clip-path:url(#SVGID_00000067216790454364966580000014639988676505938852_);fill:#0F2B41;}
	
		.st33{clip-path:url(#SVGID_00000125563142596156820830000012728692274943757744_);fill:url(#SVGID_00000110432455406658242290000014046404462682096773_);}
	.st34{clip-path:url(#SVGID_00000089533017195688247200000017362563943108701588_);fill:#0F2B41;}
	
		.st35{clip-path:url(#SVGID_00000058565822094218873660000010081130928081739413_);fill:url(#SVGID_00000041255787643470778180000017211368505943362951_);}
	.st36{clip-path:url(#SVGID_00000168103871382979174000000014948533004823253906_);fill:#0F2B41;}
	
		.st37{clip-path:url(#SVGID_00000034793975768228424920000001810885939247806094_);fill:url(#SVGID_00000043456515243372194760000014429953173759029656_);}
	.st38{clip-path:url(#SVGID_00000168081949034464837440000004898449676316368529_);fill:#0F2B41;}
	.st39{clip-path:url(#SVGID_00000168081949034464837440000004898449676316368529_);fill:#E42521;}
	
		.st40{clip-path:url(#SVGID_00000005965002857012960630000000195772439978547900_);fill:url(#SVGID_00000079477682886808637460000012949227254731454392_);}
	.st41{clip-path:url(#SVGID_00000009590985333887403860000009281294742237915532_);fill:#E42521;}
	.st42{clip-path:url(#SVGID_00000009590985333887403860000009281294742237915532_);fill:#0F2B41;}
	
		.st43{clip-path:url(#SVGID_00000012472898601245934440000014104671382697714346_);fill:url(#SVGID_00000032633853635101049720000012148660500231046298_);}
	.st44{fill-rule:evenodd;clip-rule:evenodd;fill:#010202;}
	.st45{clip-path:url(#SVGID_00000061453126318038940130000010453422679051503796_);fill:#E42521;}
	
		.st46{clip-path:url(#SVGID_00000142855621790353434160000002272592854277686196_);fill:url(#SVGID_00000019677108445868987210000003147833328984776585_);}
	.st47{fill:#020203;}
	.st48{clip-path:url(#SVGID_00000000206353789665414430000010484368529451562381_);fill:#020203;}
	
		.st49{clip-path:url(#SVGID_00000065775953482742310660000004242667402613514146_);fill:url(#SVGID_00000152241870997297399100000000559842340386946187_);}
	
		.st50{clip-path:url(#SVGID_00000164503255606374032000000003633839605235711107_);fill:url(#SVGID_00000093878389816466448720000010385661298903411083_);}
	.st51{clip-path:url(#SVGID_00000041256259221455394930000010199517068667281574_);fill:#E52721;}
	.st52{clip-path:url(#SVGID_00000041256259221455394930000010199517068667281574_);fill:#0F2B42;}
	.st53{clip-path:url(#SVGID_00000041256259221455394930000010199517068667281574_);fill:#020203;}
	
		.st54{clip-path:url(#SVGID_00000124162456922930882860000012421840723567041153_);fill:url(#SVGID_00000145743198480738478440000012813147624323670170_);}
	.st55{clip-path:url(#SVGID_00000024693349192229606340000006452984786107456401_);fill:#020203;}
	
		.st56{clip-path:url(#SVGID_00000018226455443088072070000016201795122663032991_);fill:url(#SVGID_00000162315780434124517880000018178839432368892038_);}
	.st57{clip-path:url(#SVGID_00000011017306317681733670000014277559978811489976_);fill:#020203;}
	
		.st58{clip-path:url(#SVGID_00000018204509935399054100000005883400567056398233_);fill:url(#SVGID_00000136400075421613394880000004971353069759975083_);}
	.st59{clip-path:url(#SVGID_00000044876037407454221160000005172483394733304463_);fill:#020203;}
	
		.st60{clip-path:url(#SVGID_00000062904791168491562860000004581185991178092688_);fill:url(#SVGID_00000000223751685806271220000003384216104824638613_);}
	.st61{clip-path:url(#SVGID_00000021120353998441391030000005419195512822016933_);fill:#020203;}
	
		.st62{clip-path:url(#SVGID_00000057129069542674104560000013763580995425291967_);fill:url(#SVGID_00000119823479179505620750000011136142662688426142_);}
	.st63{clip-path:url(#SVGID_00000112611714900065236430000016566986852848110769_);fill:#E52721;}
	.st64{clip-path:url(#SVGID_00000112611714900065236430000016566986852848110769_);fill:#0F2B42;}
	.st65{clip-path:url(#SVGID_00000112611714900065236430000016566986852848110769_);fill:#020203;}
	
		.st66{clip-path:url(#SVGID_00000092448108961235235570000017628147444340166784_);fill:url(#SVGID_00000137845240848074258320000018220079385661526669_);}
	.st67{clip-path:url(#SVGID_00000121962084967205762000000005805202822260231610_);fill:#020203;}
	.st68{clip-path:url(#SVGID_00000181775430844398153100000016933048097593797015_);fill:#E42521;}
	
		.st69{clip-path:url(#SVGID_00000146477290659883291450000004102897011357046704_);fill:url(#SVGID_00000067216513346097290000000011075145608138891671_);}
	.st70{clip-path:url(#SVGID_00000003815139834074387960000002769342677173631663_);fill:#0F2B41;}
	.st71{fill:#FFFFFF;}
	.st72{fill-rule:evenodd;clip-rule:evenodd;fill:#FFFFFF;}
	.st73{clip-path:url(#SVGID_00000139265739419375226860000014975293058262849186_);fill:#E42521;}
	
		.st74{clip-path:url(#SVGID_00000080888048053432102140000010538049092654351489_);fill:url(#SVGID_00000044858871186703719770000003927262807802644608_);}
	.st75{clip-path:url(#SVGID_00000129197925553088734880000004910391520002895536_);fill:#FFFFFF;}
	
		.st76{clip-path:url(#SVGID_00000047767017815222315840000004194690480759099295_);fill:url(#SVGID_00000039843020833757591350000004675175005820268442_);}
	
		.st77{clip-path:url(#SVGID_00000057129393708433187350000007338990865593859975_);fill:url(#SVGID_00000130623379219190944280000006324262137704396711_);}
	.st78{clip-path:url(#SVGID_00000148663050026228868270000001887297202184709527_);fill:#E52721;}
	.st79{clip-path:url(#SVGID_00000148663050026228868270000001887297202184709527_);fill:#0F2B42;}
	.st80{clip-path:url(#SVGID_00000148663050026228868270000001887297202184709527_);fill:#FFFFFF;}
	
		.st81{clip-path:url(#SVGID_00000165934055326658708570000003316291746734961311_);fill:url(#SVGID_00000053512005514400780390000004215830644787293370_);}
	.st82{clip-path:url(#SVGID_00000034789803729324500930000011092153790031514534_);fill:#FFFFFF;}
	
		.st83{clip-path:url(#SVGID_00000129890726249535676060000003864869193706946721_);fill:url(#SVGID_00000011019648822013176980000007485678467713218214_);}
	.st84{clip-path:url(#SVGID_00000005986714368825822880000013645985696670266533_);fill:#FFFFFF;}
	
		.st85{clip-path:url(#SVGID_00000013179148005216753810000007299486243753794711_);fill:url(#SVGID_00000114069847249449224540000012816078819006887317_);}
	.st86{clip-path:url(#SVGID_00000127031504864103875120000003948002613597520528_);fill:#FFFFFF;}
	
		.st87{clip-path:url(#SVGID_00000096037987216880477140000011363971812557692304_);fill:url(#SVGID_00000028282983765230477840000008789438583803109561_);}
	.st88{clip-path:url(#SVGID_00000146494320497005656710000004461996064213059739_);fill:#FFFFFF;}
	
		.st89{clip-path:url(#SVGID_00000039854479903150512760000012767318429578589330_);fill:url(#SVGID_00000170983341228523471290000007284201879538905746_);}
	.st90{clip-path:url(#SVGID_00000163793712299240873910000016224449966148584339_);fill:#E52721;}
	.st91{clip-path:url(#SVGID_00000163793712299240873910000016224449966148584339_);fill:#0F2B42;}
	.st92{clip-path:url(#SVGID_00000163793712299240873910000016224449966148584339_);fill:#FFFFFF;}
	
		.st93{clip-path:url(#SVGID_00000083768980260705524270000000538915632319465101_);fill:url(#SVGID_00000085934379811554793680000011392198023045454005_);}
	.st94{clip-path:url(#SVGID_00000088132379438635930780000015678463136632265393_);fill:#FFFFFF;}
</style>
<g>
	<g>
		<defs>
			<rect id="SVGID_00000097492979886940918160000001736154213236085183_" x="34.97" y="-430.45" width="1298.07" height="1298.07"/>
		</defs>
		<clipPath id="SVGID_00000111176878419627993980000012810271087493615505_">
			<use xlink:href="#SVGID_00000097492979886940918160000001736154213236085183_"  style="overflow:visible;"/>
		</clipPath>
		<path style="clip-path:url(#SVGID_00000111176878419627993980000012810271087493615505_);fill:#E42521;" d="M876.39,169.71
			c-0.35,0.02-0.68,0.06-1.03,0.08c0.88-0.05,1.76-0.11,2.65-0.12C877.48,169.68,876.93,169.69,876.39,169.71"/>
		<path style="clip-path:url(#SVGID_00000111176878419627993980000012810271087493615505_);fill:#E42521;" d="M864.95,171.61
			c-0.33,0.1-0.65,0.23-0.98,0.33c0.4-0.13,0.79-0.27,1.19-0.38C865.09,171.58,865.02,171.59,864.95,171.61"/>
		<path style="clip-path:url(#SVGID_00000111176878419627993980000012810271087493615505_);fill:#E42521;" d="M869.4,170.52
			c-0.03,0.01-0.07,0.02-0.1,0.03c0.04-0.01,0.08-0.02,0.12-0.03C869.42,170.52,869.41,170.52,869.4,170.52"/>
		<path style="clip-path:url(#SVGID_00000111176878419627993980000012810271087493615505_);fill:#E42521;" d="M872.03,170.12
			c0.36-0.05,0.72-0.11,1.09-0.15C872.75,170.02,872.39,170.07,872.03,170.12"/>
		<path style="clip-path:url(#SVGID_00000111176878419627993980000012810271087493615505_);fill:#E42521;" d="M878.82,169.66h-0.32
			c-0.05,0-0.09,0-0.14,0c0.48,0,0.95,0.03,1.43,0.04C879.47,169.7,879.16,169.66,878.82,169.66"/>
	</g>
	<g>
		<defs>
			<path id="SVGID_00000125592080122160269460000013639675877853029303_" d="M1039.36,276.97l-6.9,15.44h140.67l-6.86-15.44H1039.36
				z M1083.57,246.09h38.76l-19.37-43.67L1083.57,246.09z"/>
		</defs>
		<clipPath id="SVGID_00000103985626752517070030000000742544450339760569_">
			<use xlink:href="#SVGID_00000125592080122160269460000013639675877853029303_"  style="overflow:visible;"/>
		</clipPath>
		
			<linearGradient id="SVGID_00000071540375082371688290000004016829901019550115_" gradientUnits="userSpaceOnUse" x1="-2015.4739" y1="1222.3606" x2="-2014.8248" y2="1222.3606" gradientTransform="matrix(87.1939 -151.0243 151.0243 87.1939 -7803.3643 -410656.375)">
			<stop  offset="0" style="stop-color:#168ECE"/>
			<stop  offset="1.065560e-07" style="stop-color:#168ECE"/>
			<stop  offset="0.8384" style="stop-color:#53A3DA"/>
			<stop  offset="1" style="stop-color:#5CA8DD"/>
		</linearGradient>
		
			<polygon style="clip-path:url(#SVGID_00000103985626752517070030000000742544450339760569_);fill:url(#SVGID_00000071540375082371688290000004016829901019550115_);" points="
			1137.96,353.32 1212.09,224.92 1067.62,141.51 993.49,269.92 		"/>
	</g>
	<path class="st3" d="M1152.57,246.09l-22.23-50.11l-12.26-27.63l-14.76-33.27h-0.75l-14.76,33.27l-10.9,24.57l-0.61,1.41
		l-0.75,1.66l-22.39,50.11l-13.81,30.88h126.91L1152.57,246.09z M1083.57,246.09l19.39-43.67l19.37,43.67H1083.57z"/>
	<g>
		<defs>
			<rect id="SVGID_00000174583276957297778650000015069469930139376769_" x="34.97" y="-430.45" width="1298.07" height="1298.07"/>
		</defs>
		<clipPath id="SVGID_00000059268707901727431920000011361613021137800638_">
			<use xlink:href="#SVGID_00000174583276957297778650000015069469930139376769_"  style="overflow:visible;"/>
		</clipPath>
		<path style="clip-path:url(#SVGID_00000059268707901727431920000011361613021137800638_);fill:#0F2B41;" d="M1016.98,236.76
			c8.72-3.45,13.01-6.65,18.39-14.22c6.47-9.15,9.72-18.89,9.72-29.24v-4c0-17.01-5.49-25.52-14.87-34.88
			c-9.26-9.17-23.09-15.64-40.19-15.64h-19.16v30.57h4.57v0.04h12.69c7.42,0,15.05,2.2,19.05,6.08c4.06,4.27,6.11,9.17,6.11,14.78
			c0,11.69-9.06,21.62-20.3,21.62h-10.31v-0.09h-7.24v0.09h-4.57v12.58l44.12,67.96h37.74L1016.98,236.76z"/>
	</g>
	<g>
		<defs>
			<path id="SVGID_00000049189518665022818660000017223471686910363777_" d="M939.89,138.78l0.09,153.63h75l-44.12-67.96v-12.58
				h4.57v-0.09h7.24v0.09h10.31c11.24,0,20.3-9.92,20.3-21.62c0-5.61-2.04-10.51-6.11-14.78c-4-3.88-11.63-6.08-19.05-6.08h-12.69
				v-0.04h-4.57v-30.57H939.89z"/>
		</defs>
		<clipPath id="SVGID_00000145028656855218602840000014763508058277479590_">
			<use xlink:href="#SVGID_00000049189518665022818660000017223471686910363777_"  style="overflow:visible;"/>
		</clipPath>
		
			<linearGradient id="SVGID_00000161624770418856759460000004820425077233434763_" gradientUnits="userSpaceOnUse" x1="-2006.4679" y1="1215.1021" x2="-2005.8188" y2="1215.1021" gradientTransform="matrix(115.6979 0 0 115.6979 233083.9531 -140369.125)">
			<stop  offset="0" style="stop-color:#FDDF2A"/>
			<stop  offset="1" style="stop-color:#FAB619"/>
		</linearGradient>
		
			<rect x="939.89" y="138.78" style="clip-path:url(#SVGID_00000145028656855218602840000014763508058277479590_);fill:url(#SVGID_00000161624770418856759460000004820425077233434763_);" width="75.09" height="153.63"/>
	</g>
	<g>
		<defs>
			<path id="SVGID_00000111176583669266314140000008152877977635784343_" d="M898.78,174.45c-6.09-2.91-12.74-4.36-19.98-4.36
				c-13.06,0-24.14,4.59-33.17,13.78c-6.97,7.06-11.26,15.12-12.94,24.18h-0.43v0c-0.54,2.93-0.82,5.95-0.82,9.11
				c0,0.43,0,0.84,0.02,1.27h-30.85c0.74,42.59,35.47,76.88,78.24,76.88c42.76,0,77.49-34.3,78.23-76.88h-30.85
				c0.02-0.41,0.02-0.84,0.02-1.27c0-13.03-4.66-24.23-13.94-33.54c-8.67-8.67-18.97-13.24-30.84-13.84
				C887.64,170.2,893.48,171.82,898.78,174.45"/>
		</defs>
		<clipPath id="SVGID_00000162318456000218281950000003016532692994387635_">
			<use xlink:href="#SVGID_00000111176583669266314140000008152877977635784343_"  style="overflow:visible;"/>
		</clipPath>
		
			<linearGradient id="SVGID_00000170266425937584743630000001212242796345769913_" gradientUnits="userSpaceOnUse" x1="-2013.1934" y1="1215.0409" x2="-2012.5443" y2="1215.0409" gradientTransform="matrix(241.0811 0 0 241.0811 486143.4062 -292690.7812)">
			<stop  offset="0" style="stop-color:#81BB47"/>
			<stop  offset="0.2724" style="stop-color:#71B447"/>
			<stop  offset="0.7728" style="stop-color:#3FA447"/>
			<stop  offset="1" style="stop-color:#109C47"/>
		</linearGradient>
		
			<rect x="800.61" y="169.78" style="clip-path:url(#SVGID_00000162318456000218281950000003016532692994387635_);fill:url(#SVGID_00000170266425937584743630000001212242796345769913_);" width="156.47" height="125.54"/>
	</g>
	<g>
		<defs>
			<rect id="SVGID_00000114052632870529714650000015719199750372296879_" x="34.97" y="-430.45" width="1298.07" height="1298.07"/>
		</defs>
		<clipPath id="SVGID_00000137849748353490584200000017241819751725432980_">
			<use xlink:href="#SVGID_00000114052632870529714650000015719199750372296879_"  style="overflow:visible;"/>
		</clipPath>
		<path style="clip-path:url(#SVGID_00000137849748353490584200000017241819751725432980_);fill:#E42521;" d="M835.51,151.87
			c-9.6,6.39-17.7,14.84-23.68,24.73c3.22-5.18,7.11-10.09,11.7-14.73C827.34,158.07,831.33,154.74,835.51,151.87"/>
		<path style="clip-path:url(#SVGID_00000137849748353490584200000017241819751725432980_);fill:#E42521;" d="M957.12,217.05
			c0-0.49-0.03-0.97-0.04-1.46c0.01,0.52,0.03,1.02,0.03,1.54C957.11,217.11,957.12,217.08,957.12,217.05"/>
		<path style="clip-path:url(#SVGID_00000137849748353490584200000017241819751725432980_);fill:#E42521;" d="M956.99,212.69
			c0.01,0.13,0.02,0.26,0.03,0.39C957.01,212.95,957,212.82,956.99,212.69"/>
		<path style="clip-path:url(#SVGID_00000137849748353490584200000017241819751725432980_);fill:#E42521;" d="M800.68,213.08
			c0.01-0.14,0.02-0.29,0.03-0.43C800.7,212.8,800.68,212.94,800.68,213.08"/>
		<path style="clip-path:url(#SVGID_00000137849748353490584200000017241819751725432980_);fill:#E42521;" d="M945.94,176.73
			c-6.62-10.99-15.85-20.21-26.85-26.81c5.29,3.27,10.29,7.25,15,11.96C938.75,166.54,942.69,171.5,945.94,176.73"/>
		<path style="clip-path:url(#SVGID_00000137849748353490584200000017241819751725432980_);fill:#E42521;" d="M800.58,217.05
			c0,0.03,0,0.06,0,0.09c0-0.51,0.02-1.02,0.04-1.53C800.6,216.09,800.58,216.57,800.58,217.05"/>
		<path style="clip-path:url(#SVGID_00000137849748353490584200000017241819751725432980_);fill:#0F2B41;" d="M845.63,183.87
			c9.04-9.2,20.12-13.78,33.18-13.78c7.24,0,13.9,1.45,19.98,4.36c-5.31-2.63-11.14-4.25-17.31-4.67c-0.56-0.03-1.11-0.07-1.67-0.08
			c-0.48-0.02-0.95-0.04-1.43-0.04c-0.12,0-0.23,0.01-0.35,0.01c-0.89,0-1.77,0.06-2.65,0.12c-0.75,0.05-1.51,0.1-2.25,0.18
			c-0.37,0.04-0.73,0.1-1.09,0.15c-0.87,0.11-1.75,0.23-2.61,0.4c-0.04,0.01-0.08,0.02-0.12,0.03c-1.39,0.28-2.79,0.62-4.14,1.01
			c-0.4,0.12-0.79,0.26-1.19,0.38c-6.85,2.26-13.09,6.13-18.64,11.68c-7.04,7.11-11.4,15.24-13.08,24.43h0.43
			C834.36,199,838.66,190.94,845.63,183.87"/>
		<path style="clip-path:url(#SVGID_00000137849748353490584200000017241819751725432980_);fill:#0F2B41;" d="M957.08,215.59
			c-0.02-0.84-0.02-1.68-0.06-2.51c-0.01-0.13-0.02-0.26-0.03-0.39c-0.68-13.19-4.37-25.17-11.05-35.96
			c-3.25-5.24-7.19-10.19-11.85-14.86c-4.71-4.71-9.71-8.69-15-11.96c-9.3-5.75-19.5-9.24-30.58-10.52
			c-3.17-0.37-6.4-0.57-9.71-0.57c-2.92,0-5.78,0.16-8.59,0.44c-12.72,1.29-24.29,5.48-34.7,12.61c-4.18,2.86-8.17,6.19-11.98,10
			c-4.6,4.64-8.49,9.55-11.7,14.73c-6.72,10.83-10.43,22.84-11.12,36.05c-0.01,0.14-0.02,0.29-0.03,0.43
			c-0.04,0.83-0.05,1.68-0.06,2.52c-0.01,0.51-0.03,1.02-0.03,1.53c0,0.03,0,0.06,0,0.1c0,0.41,0,0.82,0.02,1.2h0.01h30.85
			c-0.02-0.43-0.02-0.84-0.02-1.27c0-3.16,0.27-6.18,0.82-9.11v0c1.68-9.2,6.04-17.32,13.08-24.43c5.55-5.55,11.78-9.42,18.64-11.68
			c0.33-0.11,0.65-0.23,0.98-0.33c0.07-0.02,0.14-0.03,0.21-0.05c1.36-0.39,2.75-0.74,4.14-1.01c0.03-0.01,0.07-0.02,0.1-0.03
			c0.01,0,0.02,0,0.02,0c0.86-0.16,1.73-0.28,2.61-0.4c0.36-0.05,0.72-0.11,1.09-0.15c0.74-0.08,1.5-0.13,2.25-0.18
			c0.34-0.02,0.68-0.07,1.03-0.08c0.54-0.02,1.08-0.03,1.62-0.04c0.12,0,0.23-0.01,0.35-0.01c0.05,0,0.09,0,0.14,0h0.32
			c0.33,0,0.65,0.04,0.97,0.04c0.57,0.01,1.12,0.05,1.67,0.08c11.88,0.6,22.18,5.18,30.84,13.84c9.29,9.31,13.94,20.5,13.94,33.54
			c0,0.43,0,0.86-0.02,1.27h30.85h0.01c0.02-0.38,0.02-0.79,0.02-1.2c0-0.03,0-0.06,0-0.1
			C957.11,216.62,957.09,216.11,957.08,215.59"/>
	</g>
	<g>
		<defs>
			<path id="SVGID_00000017482496988261424540000001186686278926718352_" d="M690.01,140.68v154.04h30.88v-30.88h10.33
				c27.79,0,45.89-18.44,45.89-46.28c0-27.59-18.42-46.28-46.19-46.28H720.9v-30.61H690.01z"/>
		</defs>
		<clipPath id="SVGID_00000005239204008023252540000008277887300414568122_">
			<use xlink:href="#SVGID_00000017482496988261424540000001186686278926718352_"  style="overflow:visible;"/>
		</clipPath>
		
			<linearGradient id="SVGID_00000117636040894566932960000018320523227371737278_" gradientUnits="userSpaceOnUse" x1="-2019.8414" y1="1222.1243" x2="-2019.1924" y2="1222.1243" gradientTransform="matrix(0 -237.3399 237.3399 0 -289325.2812 -479094.25)">
			<stop  offset="0" style="stop-color:#168ECE"/>
			<stop  offset="1.065560e-07" style="stop-color:#168ECE"/>
			<stop  offset="0.8384" style="stop-color:#53A3DA"/>
			<stop  offset="1" style="stop-color:#5CA8DD"/>
		</linearGradient>
		
			<rect x="690.01" y="140.68" style="clip-path:url(#SVGID_00000005239204008023252540000008277887300414568122_);fill:url(#SVGID_00000117636040894566932960000018320523227371737278_);" width="87.1" height="154.04"/>
	</g>
	<g>
		<defs>
			<rect id="SVGID_00000152967506686479824650000009066558161205351320_" x="34.97" y="-430.45" width="1298.07" height="1298.07"/>
		</defs>
		<clipPath id="SVGID_00000065072633911726461410000009771814166248663188_">
			<use xlink:href="#SVGID_00000152967506686479824650000009066558161205351320_"  style="overflow:visible;"/>
		</clipPath>
		<path style="clip-path:url(#SVGID_00000065072633911726461410000009771814166248663188_);fill:#0F2B41;" d="M787.36,163.25
			c-2.66-2.63-5.54-5.13-8.65-7.4c-11.49-8.51-26.16-14.4-43.76-15.17c-1.29-0.07-2.61-0.09-3.93-0.09v0.09H720.9v30.61h10.04
			c27.77,0,46.19,18.69,46.19,46.28c0,27.84-18.1,46.27-45.89,46.27H720.9v30.88h10.13c18.3,0,34.2-5.02,47.68-15.1
			c3-2.22,5.88-4.72,8.65-7.47c13.76-13.69,20.66-31.81,20.66-54.36C808.02,195.26,801.12,177.07,787.36,163.25"/>
	</g>
	<g>
		<defs>
			<polygon id="SVGID_00000000919605222846245180000010645611915228851628_" points="323.87,170.98 323.87,202.07 370.33,202.07 
				370.33,232.95 292.88,232.95 292.88,294.91 385.83,294.91 385.83,170.98 			"/>
		</defs>
		<clipPath id="SVGID_00000105406466325190549120000018253070569274270399_">
			<use xlink:href="#SVGID_00000000919605222846245180000010645611915228851628_"  style="overflow:visible;"/>
		</clipPath>
		
			<linearGradient id="SVGID_00000176735002502114747660000008638037465299460518_" gradientUnits="userSpaceOnUse" x1="-2006.6249" y1="1215.028" x2="-2005.9758" y2="1215.028" gradientTransform="matrix(143.214 0 0 143.214 287669.6562 -173776.0781)">
			<stop  offset="0" style="stop-color:#FDDF2A"/>
			<stop  offset="1" style="stop-color:#FAB619"/>
		</linearGradient>
		
			<rect x="292.88" y="170.98" style="clip-path:url(#SVGID_00000105406466325190549120000018253070569274270399_);fill:url(#SVGID_00000176735002502114747660000008638037465299460518_);" width="92.95" height="123.93"/>
	</g>
	<g>
		<defs>
			<rect id="SVGID_00000052793701309393141970000017503700168508362905_" x="34.97" y="-430.45" width="1298.07" height="1298.07"/>
		</defs>
		<clipPath id="SVGID_00000071526937790547566560000018096548058797175430_">
			<use xlink:href="#SVGID_00000052793701309393141970000017503700168508362905_"  style="overflow:visible;"/>
		</clipPath>
		<polygon style="clip-path:url(#SVGID_00000071526937790547566560000018096548058797175430_);fill:#0F2B41;" points="385.82,170.9 
			385.83,170.9 385.83,140.11 292.87,140.11 292.87,202.12 292.87,232.86 292.87,294.88 385.83,294.88 385.83,264.09 385.82,264.09 
			323.87,264.09 323.87,233 370.32,233 370.32,232.86 370.32,202.12 370.32,201.98 323.87,201.98 323.87,170.9 		"/>
	</g>
	<g>
		<defs>
			<path id="SVGID_00000069369062648747168250000007444507756641379257_" d="M197.16,232.95v61.76h-30.9v0.01h113.32v-0.01h-30.88
				v-61.76H197.16z M166.27,202.29h113.32v-61.73H166.27V202.29z"/>
		</defs>
		<clipPath id="SVGID_00000057143012886497150490000016901915482407343267_">
			<use xlink:href="#SVGID_00000069369062648747168250000007444507756641379257_"  style="overflow:visible;"/>
		</clipPath>
		
			<linearGradient id="SVGID_00000104705329336382305020000004277892459973114027_" gradientUnits="userSpaceOnUse" x1="-2019.8075" y1="1206.8334" x2="-2019.1584" y2="1206.8334" gradientTransform="matrix(0 237.5099 -237.5099 0 286857.8125 479864.8438)">
			<stop  offset="0" style="stop-color:#81BB47"/>
			<stop  offset="0.2293" style="stop-color:#74B544"/>
			<stop  offset="0.6211" style="stop-color:#4FA73F"/>
			<stop  offset="1" style="stop-color:#009739"/>
			<stop  offset="1" style="stop-color:#009739"/>
		</linearGradient>
		
			<rect x="166.27" y="140.57" style="clip-path:url(#SVGID_00000057143012886497150490000016901915482407343267_);fill:url(#SVGID_00000104705329336382305020000004277892459973114027_);" width="113.32" height="154.15"/>
	</g>
	<g>
		<defs>
			<rect id="SVGID_00000079479495876459479650000017567242451583052986_" x="34.97" y="-430.45" width="1298.07" height="1298.07"/>
		</defs>
		<clipPath id="SVGID_00000163793944370865920750000015493573045705842337_">
			<use xlink:href="#SVGID_00000079479495876459479650000017567242451583052986_"  style="overflow:visible;"/>
		</clipPath>
		<polygon style="clip-path:url(#SVGID_00000163793944370865920750000015493573045705842337_);fill:#0F2B41;" points="
			279.59,140.57 279.59,140.57 248.71,140.57 248.71,202.29 197.16,202.29 197.16,140.57 166.27,140.57 166.26,140.57 
			166.26,202.29 166.26,202.29 166.26,294.71 166.27,294.71 197.16,294.71 197.16,232.98 248.71,232.98 248.71,294.71 
			279.58,294.71 279.59,294.71 279.59,232.98 279.59,232.98 		"/>
	</g>
	<g>
		<defs>
			<rect id="SVGID_00000064313174682585484800000000166534416557365640_" x="506.75" y="217.64" width="30.98" height="77.08"/>
		</defs>
		<clipPath id="SVGID_00000000202378235337834620000007527196540462284209_">
			<use xlink:href="#SVGID_00000064313174682585484800000000166534416557365640_"  style="overflow:visible;"/>
		</clipPath>
		
			<linearGradient id="SVGID_00000172427141552682875390000013777584374999706776_" gradientUnits="userSpaceOnUse" x1="-2019.9659" y1="1199.972" x2="-2019.3169" y2="1199.972" gradientTransform="matrix(0 118.7551 -118.7551 0 143025 240098.8125)">
			<stop  offset="0" style="stop-color:#81BB47"/>
			<stop  offset="0.2724" style="stop-color:#71B447"/>
			<stop  offset="0.7728" style="stop-color:#3FA447"/>
			<stop  offset="1" style="stop-color:#109C47"/>
		</linearGradient>
		
			<rect x="506.75" y="217.64" style="clip-path:url(#SVGID_00000000202378235337834620000007527196540462284209_);fill:url(#SVGID_00000172427141552682875390000013777584374999706776_);" width="30.98" height="77.08"/>
	</g>
	<g>
		<defs>
			<rect id="SVGID_00000166664076549645912960000017573102102650370967_" x="34.97" y="-430.45" width="1298.07" height="1298.07"/>
		</defs>
		<clipPath id="SVGID_00000120529289845612476040000001171017819901095856_">
			<use xlink:href="#SVGID_00000166664076549645912960000017573102102650370967_"  style="overflow:visible;"/>
		</clipPath>
		<polygon style="clip-path:url(#SVGID_00000120529289845612476040000001171017819901095856_);fill:#0F2B41;" points="
			537.73,140.58 506.75,140.58 506.74,140.58 506.74,217.64 506.75,217.64 537.73,217.64 537.74,217.64 537.74,140.58 		"/>
		<path style="clip-path:url(#SVGID_00000120529289845612476040000001171017819901095856_);fill:#E42521;" d="M627.86,169.11
			c-0.35,0.02-0.68,0.06-1.03,0.08c0.88-0.05,1.76-0.11,2.65-0.12C628.95,169.08,628.4,169.09,627.86,169.11"/>
		<path style="clip-path:url(#SVGID_00000120529289845612476040000001171017819901095856_);fill:#E42521;" d="M616.42,171.01
			c-0.33,0.1-0.65,0.23-0.98,0.33c0.4-0.13,0.79-0.27,1.19-0.38C616.56,170.98,616.49,170.99,616.42,171.01"/>
		<path style="clip-path:url(#SVGID_00000120529289845612476040000001171017819901095856_);fill:#E42521;" d="M620.87,169.92
			c-0.03,0.01-0.07,0.02-0.1,0.03c0.04-0.01,0.08-0.02,0.12-0.03C620.89,169.92,620.88,169.92,620.87,169.92"/>
		<path style="clip-path:url(#SVGID_00000120529289845612476040000001171017819901095856_);fill:#E42521;" d="M623.5,169.52
			c0.36-0.05,0.72-0.11,1.09-0.15C624.22,169.41,623.86,169.47,623.5,169.52"/>
		<path style="clip-path:url(#SVGID_00000120529289845612476040000001171017819901095856_);fill:#E42521;" d="M630.29,169.06h-0.32
			c-0.05,0-0.09,0-0.14,0c0.48,0,0.95,0.03,1.43,0.04C630.94,169.1,630.62,169.06,630.29,169.06"/>
	</g>
	<g>
		<defs>
			<path id="SVGID_00000171707922986280344150000014647175065654545805_" d="M650.25,173.85c-6.09-2.91-12.74-4.36-19.98-4.36
				c-13.06,0-24.14,4.59-33.17,13.78c-6.97,7.06-11.26,15.12-12.94,24.18h-0.43v0c-0.55,2.93-0.82,5.95-0.82,9.11
				c0,0.43,0,0.84,0.02,1.27h-30.85c0.74,42.59,35.47,76.89,78.24,76.89c42.76,0,77.49-34.3,78.23-76.89h-30.85
				c0.02-0.41,0.02-0.84,0.02-1.27c0-13.03-4.66-24.23-13.94-33.54c-8.67-8.67-18.97-13.24-30.84-13.84
				C639.11,169.6,644.95,171.22,650.25,173.85"/>
		</defs>
		<clipPath id="SVGID_00000168826544249839373730000007362379324856552582_">
			<use xlink:href="#SVGID_00000171707922986280344150000014647175065654545805_"  style="overflow:visible;"/>
		</clipPath>
		
			<linearGradient id="SVGID_00000047046113479686766080000005585827866752243848_" gradientUnits="userSpaceOnUse" x1="-2019.8436" y1="1206.0977" x2="-2019.1946" y2="1206.0977" gradientTransform="matrix(0 193.4219 -193.4219 0 233916.0625 390851.25)">
			<stop  offset="0" style="stop-color:#FDDF2A"/>
			<stop  offset="1" style="stop-color:#FAB619"/>
		</linearGradient>
		
			<rect x="552.08" y="169.18" style="clip-path:url(#SVGID_00000168826544249839373730000007362379324856552582_);fill:url(#SVGID_00000047046113479686766080000005585827866752243848_);" width="156.47" height="125.54"/>
	</g>
	<g>
		<defs>
			<rect id="SVGID_00000041287985396007909020000017014726873336395187_" x="34.97" y="-430.45" width="1298.07" height="1298.07"/>
		</defs>
		<clipPath id="SVGID_00000004511817171054237940000006195151486595256479_">
			<use xlink:href="#SVGID_00000041287985396007909020000017014726873336395187_"  style="overflow:visible;"/>
		</clipPath>
		<path style="clip-path:url(#SVGID_00000004511817171054237940000006195151486595256479_);fill:#E42521;" d="M586.98,151.27
			c-9.6,6.39-17.7,14.84-23.68,24.73c3.22-5.18,7.11-10.09,11.7-14.73C578.81,157.47,582.8,154.13,586.98,151.27"/>
		<path style="clip-path:url(#SVGID_00000004511817171054237940000006195151486595256479_);fill:#E42521;" d="M708.59,216.45
			c0-0.49-0.03-0.97-0.04-1.46c0.01,0.52,0.03,1.02,0.03,1.54C708.58,216.5,708.59,216.48,708.59,216.45"/>
		<path style="clip-path:url(#SVGID_00000004511817171054237940000006195151486595256479_);fill:#E42521;" d="M708.46,212.09
			c0.01,0.13,0.02,0.26,0.03,0.39C708.48,212.35,708.47,212.22,708.46,212.09"/>
		<path style="clip-path:url(#SVGID_00000004511817171054237940000006195151486595256479_);fill:#E42521;" d="M552.15,212.48
			c0.01-0.14,0.02-0.29,0.03-0.43C552.17,212.2,552.15,212.34,552.15,212.48"/>
		<path style="clip-path:url(#SVGID_00000004511817171054237940000006195151486595256479_);fill:#E42521;" d="M697.41,176.13
			c-6.62-10.99-15.85-20.21-26.85-26.81c5.29,3.27,10.29,7.25,15,11.96C690.22,165.94,694.16,170.89,697.41,176.13"/>
		<path style="clip-path:url(#SVGID_00000004511817171054237940000006195151486595256479_);fill:#E42521;" d="M552.05,216.45
			c0,0.03,0,0.06,0,0.09c0-0.51,0.02-1.02,0.04-1.53C552.07,215.49,552.05,215.96,552.05,216.45"/>
		<path style="clip-path:url(#SVGID_00000004511817171054237940000006195151486595256479_);fill:#0F2B41;" d="M597.1,183.27
			c9.04-9.2,20.12-13.78,33.18-13.78c7.24,0,13.9,1.45,19.98,4.36c-5.31-2.63-11.14-4.25-17.31-4.67c-0.56-0.03-1.11-0.07-1.67-0.08
			c-0.48-0.02-0.95-0.04-1.43-0.04c-0.12,0-0.23,0.01-0.35,0.01c-0.89,0-1.77,0.06-2.65,0.12c-0.75,0.05-1.51,0.1-2.25,0.18
			c-0.37,0.04-0.73,0.1-1.09,0.15c-0.87,0.12-1.75,0.23-2.61,0.4c-0.04,0.01-0.08,0.02-0.12,0.03c-1.39,0.28-2.79,0.62-4.14,1.01
			c-0.4,0.12-0.79,0.26-1.19,0.38c-6.85,2.26-13.09,6.13-18.64,11.68c-7.04,7.11-11.4,15.24-13.08,24.43h0.43
			C585.83,198.4,590.13,190.33,597.1,183.27"/>
		<path style="clip-path:url(#SVGID_00000004511817171054237940000006195151486595256479_);fill:#0F2B41;" d="M708.55,214.99
			c-0.02-0.84-0.02-1.68-0.06-2.51c-0.01-0.13-0.02-0.26-0.03-0.39c-0.68-13.19-4.37-25.17-11.05-35.96
			c-3.25-5.24-7.19-10.19-11.85-14.86c-4.71-4.71-9.71-8.69-15-11.96c-9.3-5.75-19.5-9.24-30.58-10.52
			c-3.17-0.37-6.4-0.57-9.71-0.57c-2.92,0-5.78,0.16-8.59,0.44c-12.73,1.29-24.29,5.48-34.7,12.61c-4.18,2.86-8.17,6.19-11.98,10
			c-4.6,4.64-8.49,9.55-11.7,14.73c-6.72,10.83-10.43,22.84-11.12,36.05c-0.01,0.14-0.02,0.29-0.03,0.43
			c-0.04,0.83-0.05,1.68-0.06,2.52c-0.01,0.51-0.04,1.02-0.04,1.53c0,0.03,0,0.06,0,0.1c0,0.41,0,0.82,0.02,1.2h0.01h30.85
			c-0.02-0.43-0.02-0.84-0.02-1.27c0-3.16,0.27-6.18,0.82-9.11v0c1.68-9.2,6.04-17.32,13.08-24.43c5.55-5.55,11.78-9.42,18.64-11.68
			c0.33-0.11,0.65-0.23,0.98-0.33c0.07-0.02,0.14-0.03,0.21-0.05c1.36-0.39,2.75-0.74,4.14-1.01c0.03-0.01,0.07-0.02,0.1-0.03
			c0.01,0,0.02,0,0.02,0c0.86-0.16,1.73-0.28,2.61-0.4c0.36-0.05,0.72-0.11,1.09-0.15c0.74-0.08,1.5-0.13,2.25-0.18
			c0.34-0.02,0.68-0.07,1.03-0.08c0.54-0.02,1.08-0.03,1.62-0.04c0.12,0,0.23-0.01,0.35-0.01c0.05,0,0.09,0,0.14,0h0.32
			c0.33,0,0.65,0.04,0.97,0.04c0.57,0.01,1.12,0.05,1.67,0.08c11.88,0.6,22.18,5.18,30.84,13.84c9.29,9.31,13.94,20.5,13.94,33.54
			c0,0.43,0,0.86-0.02,1.27h30.85h0.01c0.02-0.38,0.02-0.79,0.02-1.2c0-0.03,0-0.06,0-0.1
			C708.58,216.01,708.56,215.51,708.55,214.99"/>
	</g>
	<g>
		<defs>
			<path id="SVGID_00000125598789328763902390000002664016457812311192_" d="M400.61,219.02h30.97v46.28h61.97v30.79h-92.94V219.02z
				 M400.61,296.09h92.95V141.94h-92.95V296.09z"/>
		</defs>
		<clipPath id="SVGID_00000003791381205711955150000006493386550644570280_">
			<use xlink:href="#SVGID_00000125598789328763902390000002664016457812311192_"  style="overflow:visible;"/>
		</clipPath>
		
			<linearGradient id="SVGID_00000033370688620149982760000016765621082768295824_" gradientUnits="userSpaceOnUse" x1="-2007.0317" y1="1215.0806" x2="-2006.3827" y2="1215.0806" gradientTransform="matrix(143.214 0 0 143.214 287835.625 -173797.5156)">
			<stop  offset="0" style="stop-color:#37A7DF"/>
			<stop  offset="0.8542" style="stop-color:#0A99CE"/>
			<stop  offset="0.9951" style="stop-color:#0097CB"/>
			<stop  offset="1" style="stop-color:#0097CB"/>
		</linearGradient>
		
			<rect x="400.61" y="141.94" style="clip-path:url(#SVGID_00000003791381205711955150000006493386550644570280_);fill:url(#SVGID_00000033370688620149982760000016765621082768295824_);" width="92.95" height="154.15"/>
	</g>
	<g>
		<g>
			<polygon class="st0" points="431.58,265.29 431.58,219.02 431.6,219.02 431.61,219.02 431.61,141.95 431.6,141.95 400.62,141.95 
				400.61,141.95 400.61,219.02 400.61,296.08 493.55,296.08 493.55,265.29 			"/>
			<path class="st0" d="M1200.77,275.48c0,0.79-0.15,1.45-0.44,1.99c-0.29,0.54-0.7,0.96-1.23,1.24c-0.53,0.29-1.15,0.45-1.87,0.48
				c-0.39,0.01-0.8,0.01-1.24,0.01c-0.44,0-0.85,0-1.25-0.01c-0.72-0.04-1.34-0.2-1.86-0.48c-0.53-0.29-0.93-0.7-1.22-1.25
				c-0.29-0.55-0.43-1.21-0.43-1.99c0-0.62,0.09-1.16,0.26-1.62s0.4-0.84,0.67-1.13c0.27-0.3,0.55-0.52,0.84-0.66
				c0.29-0.15,0.55-0.22,0.77-0.23c0.08-0.01,0.14,0.01,0.19,0.07c0.05,0.05,0.07,0.12,0.07,0.21v0.78c0,0.09-0.02,0.15-0.05,0.19
				c-0.04,0.04-0.1,0.08-0.19,0.11c-0.23,0.08-0.45,0.21-0.68,0.39c-0.22,0.18-0.4,0.42-0.55,0.73c-0.15,0.3-0.22,0.69-0.22,1.16
				c0,0.71,0.19,1.27,0.57,1.7c0.38,0.43,1.01,0.66,1.88,0.7c0.79,0.03,1.57,0.03,2.36,0c0.88-0.04,1.52-0.27,1.9-0.7
				c0.38-0.43,0.58-1,0.58-1.69c0-0.47-0.09-0.89-0.26-1.25c-0.18-0.37-0.44-0.66-0.8-0.87c-0.36-0.21-0.81-0.32-1.37-0.32h-0.56
				v1.99c0,0.09-0.03,0.16-0.09,0.22c-0.06,0.06-0.13,0.09-0.23,0.09h-0.42c-0.1,0-0.17-0.03-0.23-0.09
				c-0.06-0.06-0.09-0.13-0.09-0.22v-2.99c0-0.1,0.03-0.17,0.09-0.23c0.06-0.05,0.14-0.08,0.23-0.08h1.27
				c0.72,0,1.36,0.15,1.89,0.44c0.54,0.3,0.96,0.73,1.25,1.29C1200.62,274.03,1200.77,274.7,1200.77,275.48"/>
			<path class="st0" d="M1200.63,269.54c0,0.1-0.03,0.17-0.09,0.22c-0.06,0.05-0.13,0.08-0.22,0.08h-8.65
				c-0.1,0-0.17-0.03-0.23-0.08c-0.06-0.05-0.09-0.13-0.09-0.22v-5.47c0-0.1,0.03-0.17,0.09-0.23c0.06-0.05,0.13-0.08,0.23-0.08h0.5
				c0.1,0,0.17,0.03,0.23,0.08c0.05,0.05,0.08,0.13,0.08,0.23v4.5h2.9v-4.21c0-0.1,0.03-0.17,0.09-0.23
				c0.06-0.05,0.14-0.08,0.23-0.08h0.49c0.09,0,0.16,0.03,0.22,0.08c0.06,0.05,0.09,0.13,0.09,0.23v4.21h3.01v-4.61
				c0-0.1,0.03-0.17,0.08-0.23c0.05-0.05,0.13-0.08,0.23-0.08h0.52c0.09,0,0.16,0.03,0.22,0.08c0.06,0.05,0.09,0.13,0.09,0.23
				V269.54z"/>
			<path class="st0" d="M1200.77,258.84c0,0.77-0.12,1.41-0.36,1.93c-0.24,0.52-0.54,0.92-0.92,1.2c-0.38,0.28-0.77,0.43-1.18,0.44
				c-0.07,0-0.13-0.03-0.19-0.09c-0.06-0.06-0.09-0.13-0.09-0.21v-0.67c0-0.11,0.03-0.19,0.08-0.24c0.05-0.05,0.11-0.09,0.19-0.11
				c0.21-0.05,0.42-0.16,0.63-0.33c0.21-0.17,0.38-0.41,0.52-0.72c0.14-0.31,0.21-0.72,0.21-1.21c0-0.76-0.14-1.32-0.4-1.68
				c-0.27-0.36-0.63-0.54-1.08-0.54c-0.31,0-0.56,0.09-0.75,0.28c-0.19,0.19-0.36,0.48-0.51,0.87c-0.15,0.39-0.31,0.89-0.49,1.51
				c-0.19,0.65-0.39,1.18-0.61,1.6c-0.22,0.42-0.49,0.74-0.82,0.95c-0.33,0.21-0.74,0.31-1.24,0.31c-0.48,0-0.9-0.13-1.28-0.38
				c-0.38-0.26-0.67-0.63-0.89-1.11c-0.22-0.48-0.33-1.07-0.33-1.75c0-0.55,0.07-1.03,0.22-1.44c0.15-0.41,0.34-0.75,0.58-1.03
				c0.24-0.27,0.5-0.48,0.78-0.62c0.28-0.14,0.55-0.22,0.81-0.23c0.06,0,0.12,0.02,0.18,0.07c0.06,0.04,0.09,0.11,0.09,0.21v0.7
				c0,0.06-0.02,0.13-0.05,0.19c-0.04,0.07-0.1,0.12-0.2,0.15c-0.36,0.05-0.67,0.26-0.91,0.61c-0.25,0.35-0.37,0.81-0.37,1.38
				c0,0.57,0.11,1.04,0.33,1.4c0.22,0.36,0.56,0.54,1.03,0.54c0.3,0,0.55-0.08,0.75-0.25c0.2-0.17,0.37-0.43,0.52-0.79
				c0.15-0.36,0.31-0.83,0.48-1.42c0.19-0.71,0.4-1.28,0.62-1.73c0.22-0.45,0.49-0.78,0.81-1c0.32-0.22,0.73-0.32,1.24-0.32
				c0.56,0,1.03,0.15,1.42,0.44c0.39,0.29,0.69,0.7,0.9,1.22C1200.66,257.5,1200.77,258.12,1200.77,258.84"/>
			<path class="st0" d="M1200.63,251.36c0,0.09-0.03,0.16-0.09,0.22c-0.06,0.06-0.13,0.09-0.22,0.09h-7.79v2.54
				c0,0.09-0.03,0.16-0.09,0.22c-0.06,0.06-0.13,0.09-0.22,0.09h-0.56c-0.1,0-0.17-0.03-0.23-0.09c-0.06-0.06-0.09-0.13-0.09-0.22
				v-6.38c0-0.1,0.03-0.17,0.09-0.23c0.06-0.06,0.13-0.09,0.23-0.09h0.56c0.09,0,0.16,0.03,0.22,0.09c0.06,0.06,0.09,0.14,0.09,0.23
				v2.53h7.79c0.09,0,0.16,0.03,0.22,0.09c0.06,0.06,0.09,0.14,0.09,0.23V251.36z"/>
			<path class="st0" d="M1190.77,243.03c0,0.21-0.04,0.39-0.11,0.54c-0.07,0.15-0.15,0.28-0.23,0.4c-0.07,0.12-0.11,0.24-0.11,0.38
				c0,0.11,0.03,0.18,0.09,0.23c0.06,0.05,0.13,0.09,0.19,0.13c0.07,0.04,0.1,0.11,0.1,0.21v0.42c0,0.06-0.02,0.11-0.07,0.16
				c-0.04,0.04-0.09,0.07-0.15,0.07c-0.13,0-0.27-0.02-0.42-0.07c-0.15-0.05-0.28-0.12-0.4-0.23c-0.12-0.1-0.22-0.22-0.3-0.36
				c-0.08-0.14-0.11-0.3-0.11-0.48c0-0.22,0.04-0.41,0.11-0.56c0.08-0.15,0.15-0.29,0.23-0.41c0.07-0.12,0.11-0.25,0.11-0.38
				c0-0.11-0.03-0.18-0.1-0.23c-0.07-0.04-0.13-0.09-0.2-0.13c-0.07-0.04-0.1-0.11-0.1-0.21v-0.42c0-0.08,0.02-0.14,0.07-0.17
				c0.04-0.04,0.1-0.05,0.16-0.05c0.12,0,0.26,0.03,0.4,0.08c0.15,0.05,0.28,0.13,0.4,0.23c0.12,0.1,0.23,0.22,0.3,0.36
				C1190.73,242.69,1190.77,242.85,1190.77,243.03 M1200.63,247.62c0,0.07-0.03,0.13-0.08,0.18c-0.05,0.05-0.11,0.08-0.19,0.08
				c-0.04,0-0.09,0-0.15-0.01l-8.57-3.28c-0.09-0.04-0.16-0.08-0.21-0.15c-0.05-0.06-0.08-0.15-0.08-0.28v-0.9
				c0-0.12,0.03-0.22,0.08-0.28c0.05-0.06,0.12-0.11,0.21-0.15l8.57-3.27c0.05-0.02,0.1-0.03,0.15-0.03c0.07,0,0.13,0.03,0.19,0.08
				c0.05,0.05,0.08,0.11,0.08,0.18v0.68c0,0.11-0.03,0.18-0.08,0.23c-0.05,0.05-0.1,0.08-0.15,0.1l-1.88,0.73v4.34l1.88,0.73
				c0.04,0.01,0.09,0.04,0.15,0.09c0.05,0.05,0.08,0.13,0.08,0.24V247.62z M1197.39,245.5v-3.57l-4.7,1.79L1197.39,245.5z"/>
			<path class="st0" d="M1200.77,234.96c0,0.76-0.13,1.41-0.39,1.95c-0.26,0.54-0.66,0.95-1.2,1.24c-0.54,0.29-1.23,0.45-2.05,0.49
				c-0.39,0.01-0.76,0.01-1.12,0.01c-0.36,0-0.73,0-1.12-0.01c-0.81-0.04-1.49-0.21-2.03-0.51s-0.95-0.73-1.22-1.27
				c-0.27-0.54-0.4-1.18-0.4-1.9c0-0.71,0.14-1.34,0.4-1.89c0.27-0.54,0.68-0.97,1.22-1.28c0.54-0.31,1.22-0.48,2.03-0.5
				c0.39-0.02,0.76-0.03,1.12-0.03c0.36,0,0.73,0.01,1.12,0.03c0.82,0.03,1.5,0.19,2.05,0.48c0.54,0.3,0.94,0.71,1.2,1.25
				S1200.77,234.22,1200.77,234.96 M1199.64,234.96c0-0.67-0.2-1.22-0.61-1.65c-0.41-0.43-1.06-0.66-1.97-0.7
				c-0.4-0.02-0.75-0.03-1.07-0.03c-0.31,0-0.66,0.01-1.05,0.03c-0.61,0.02-1.1,0.13-1.48,0.34c-0.38,0.21-0.66,0.48-0.83,0.83
				c-0.18,0.34-0.26,0.74-0.26,1.18c0,0.44,0.09,0.83,0.26,1.18c0.18,0.34,0.45,0.62,0.83,0.83c0.38,0.21,0.87,0.32,1.48,0.35
				c0.39,0.01,0.74,0.01,1.05,0.01c0.31,0,0.67,0,1.07-0.01c0.91-0.04,1.57-0.27,1.97-0.7
				C1199.44,236.19,1199.64,235.64,1199.64,234.96"/>
			<path class="st0" d="M1200.63,226.29c0,0.09-0.03,0.16-0.09,0.22c-0.06,0.06-0.13,0.09-0.22,0.09h-0.42
				c-0.08,0-0.17-0.02-0.26-0.07c-0.1-0.04-0.2-0.13-0.32-0.26l-2.81-2.81c-0.38-0.45-0.7-0.8-0.97-1.07
				c-0.27-0.26-0.53-0.45-0.78-0.56c-0.25-0.11-0.5-0.17-0.77-0.17c-0.5,0-0.9,0.14-1.2,0.42c-0.3,0.28-0.44,0.7-0.44,1.26
				c0,0.35,0.07,0.66,0.22,0.91c0.15,0.26,0.34,0.45,0.6,0.6c0.25,0.14,0.54,0.24,0.85,0.29c0.11,0.02,0.19,0.06,0.24,0.14
				c0.04,0.08,0.07,0.14,0.07,0.21v0.69c0,0.08-0.02,0.15-0.07,0.2c-0.05,0.05-0.11,0.08-0.18,0.08c-0.34-0.01-0.67-0.08-1.01-0.21
				c-0.34-0.13-0.65-0.33-0.93-0.59c-0.28-0.26-0.5-0.58-0.67-0.97c-0.17-0.38-0.25-0.83-0.25-1.34c0-0.7,0.13-1.27,0.38-1.71
				s0.58-0.77,1-0.99c0.41-0.21,0.87-0.32,1.36-0.32c0.39,0,0.74,0.07,1.07,0.2c0.32,0.13,0.64,0.32,0.94,0.58
				c0.3,0.25,0.62,0.56,0.93,0.93l2.58,2.54v-4.13c0-0.1,0.03-0.17,0.08-0.23c0.05-0.06,0.13-0.09,0.23-0.09h0.54
				c0.09,0,0.16,0.03,0.22,0.09c0.06,0.06,0.09,0.13,0.09,0.23V226.29z"/>
			<path class="st0" d="M1200.77,215.28c0,0.61-0.1,1.12-0.28,1.54c-0.19,0.42-0.45,0.76-0.79,1.03c-0.33,0.27-0.72,0.46-1.15,0.58
				c-0.43,0.12-0.89,0.19-1.38,0.21c-0.24,0.01-0.49,0.02-0.75,0.02c-0.26,0-0.53,0-0.81,0c-0.27,0-0.53-0.01-0.78-0.02
				c-0.48-0.01-0.94-0.08-1.38-0.21c-0.43-0.13-0.81-0.32-1.14-0.59c-0.33-0.26-0.59-0.61-0.78-1.03c-0.19-0.42-0.28-0.93-0.28-1.53
				c0-0.61,0.09-1.12,0.28-1.54c0.19-0.42,0.45-0.76,0.78-1.03c0.33-0.26,0.71-0.46,1.14-0.59c0.43-0.13,0.89-0.2,1.38-0.21
				c0.25-0.01,0.51-0.01,0.78-0.02c0.27,0,0.54,0,0.81,0c0.26,0,0.52,0.01,0.75,0.02c0.49,0.01,0.94,0.08,1.38,0.21
				c0.43,0.13,0.82,0.32,1.15,0.58c0.34,0.26,0.6,0.6,0.79,1.02C1200.67,214.14,1200.77,214.66,1200.77,215.28 M1199.63,215.28
				c0-0.69-0.23-1.2-0.68-1.53c-0.45-0.33-1.07-0.5-1.85-0.51c-0.26-0.02-0.51-0.03-0.75-0.03h-0.73c-0.24,0-0.48,0.01-0.72,0.03
				c-0.77,0.01-1.38,0.18-1.85,0.51c-0.46,0.33-0.69,0.84-0.69,1.53c0,0.68,0.23,1.18,0.69,1.52c0.46,0.33,1.08,0.5,1.85,0.52
				c0.24,0,0.48,0,0.72,0.01s0.49,0,0.73,0c0.24,0,0.49-0.01,0.75-0.01c0.79-0.02,1.4-0.19,1.85-0.53
				C1199.4,216.45,1199.63,215.95,1199.63,215.28"/>
			<path class="st0" d="M1200.63,210.11c0,0.09-0.03,0.16-0.09,0.22c-0.06,0.06-0.13,0.09-0.22,0.09h-0.42
				c-0.08,0-0.17-0.02-0.26-0.07c-0.1-0.04-0.2-0.13-0.32-0.26l-2.81-2.81c-0.38-0.45-0.7-0.81-0.97-1.07
				c-0.27-0.26-0.53-0.45-0.78-0.56c-0.25-0.11-0.5-0.17-0.77-0.17c-0.5,0-0.9,0.14-1.2,0.42c-0.3,0.28-0.44,0.7-0.44,1.26
				c0,0.35,0.07,0.66,0.22,0.91c0.15,0.26,0.34,0.45,0.6,0.6c0.25,0.14,0.54,0.24,0.85,0.29c0.11,0.02,0.19,0.06,0.24,0.14
				c0.04,0.07,0.07,0.14,0.07,0.21v0.69c0,0.08-0.02,0.15-0.07,0.2c-0.05,0.05-0.11,0.08-0.18,0.08c-0.34-0.01-0.67-0.08-1.01-0.21
				c-0.34-0.13-0.65-0.33-0.93-0.59c-0.28-0.26-0.5-0.58-0.67-0.97c-0.17-0.38-0.25-0.83-0.25-1.34c0-0.7,0.13-1.27,0.38-1.71
				c0.25-0.45,0.58-0.77,1-0.99c0.41-0.21,0.87-0.32,1.36-0.32c0.39,0,0.74,0.07,1.07,0.2c0.32,0.13,0.64,0.32,0.94,0.58
				c0.3,0.25,0.62,0.56,0.93,0.93l2.58,2.54v-4.13c0-0.1,0.03-0.17,0.08-0.23c0.05-0.06,0.13-0.09,0.23-0.09h0.54
				c0.09,0,0.16,0.03,0.22,0.09c0.06,0.06,0.09,0.13,0.09,0.23V210.11z"/>
			<path class="st0" d="M1200.77,199.43c0,0.7-0.12,1.29-0.36,1.77c-0.24,0.48-0.56,0.85-0.95,1.1c-0.39,0.25-0.8,0.39-1.23,0.4
				c-0.08,0.01-0.14-0.01-0.19-0.07c-0.05-0.05-0.07-0.12-0.07-0.2v-0.72c0-0.08,0.02-0.15,0.06-0.21c0.04-0.06,0.12-0.11,0.23-0.15
				c0.33-0.09,0.59-0.23,0.8-0.43c0.21-0.2,0.36-0.43,0.45-0.69c0.09-0.26,0.14-0.53,0.14-0.81c0-0.38-0.08-0.73-0.23-1.04
				c-0.15-0.31-0.38-0.56-0.69-0.75c-0.3-0.19-0.67-0.28-1.11-0.28c-0.4,0-0.74,0.09-1.03,0.27c-0.29,0.18-0.51,0.43-0.66,0.74
				c-0.15,0.31-0.23,0.66-0.23,1.05c0,0.29,0.04,0.53,0.11,0.72c0.07,0.18,0.15,0.34,0.25,0.47c0.1,0.13,0.18,0.24,0.25,0.34
				c0.07,0.1,0.11,0.21,0.11,0.34v0.69c0,0.08-0.03,0.15-0.09,0.21c-0.06,0.06-0.13,0.09-0.21,0.08l-4.42-0.42
				c-0.11-0.01-0.19-0.04-0.24-0.1c-0.06-0.06-0.09-0.13-0.09-0.23v-4.62c0-0.09,0.03-0.16,0.09-0.22c0.06-0.06,0.13-0.09,0.22-0.09
				h0.52c0.1,0,0.17,0.03,0.23,0.09c0.05,0.06,0.08,0.13,0.08,0.22v3.81l2.61,0.25c-0.08-0.13-0.17-0.33-0.28-0.6
				c-0.11-0.27-0.17-0.64-0.17-1.12c0-0.44,0.07-0.85,0.2-1.24c0.13-0.38,0.33-0.72,0.58-1.02c0.26-0.3,0.57-0.53,0.93-0.7
				c0.37-0.17,0.79-0.25,1.26-0.25c0.67,0,1.24,0.15,1.71,0.44c0.47,0.29,0.82,0.69,1.07,1.2
				C1200.64,198.19,1200.77,198.78,1200.77,199.43"/>
			<path class="st0" d="M1201.74,194.87c0,0.07-0.03,0.13-0.08,0.19c-0.05,0.05-0.11,0.08-0.19,0.08c-0.04,0-0.1-0.01-0.16-0.04
				l-10.86-4.53c-0.05-0.03-0.11-0.06-0.16-0.11c-0.05-0.05-0.08-0.13-0.08-0.23v-0.52c0-0.07,0.03-0.13,0.08-0.19
				c0.05-0.05,0.11-0.08,0.19-0.08c0.04,0,0.09,0.01,0.16,0.03l10.86,4.54c0.04,0.02,0.09,0.05,0.15,0.11
				c0.06,0.05,0.09,0.13,0.09,0.24V194.87z"/>
			<path class="st0" d="M1200.63,188.33c0,0.09-0.03,0.16-0.09,0.22c-0.06,0.06-0.13,0.09-0.22,0.09h-0.42
				c-0.08,0-0.17-0.02-0.26-0.07c-0.1-0.04-0.2-0.13-0.32-0.26l-2.81-2.81c-0.38-0.45-0.7-0.81-0.97-1.07
				c-0.27-0.26-0.53-0.45-0.78-0.56c-0.25-0.11-0.5-0.17-0.77-0.17c-0.5,0-0.9,0.14-1.2,0.42c-0.3,0.28-0.44,0.7-0.44,1.26
				c0,0.35,0.07,0.66,0.22,0.91c0.15,0.26,0.34,0.45,0.6,0.6c0.25,0.14,0.54,0.24,0.85,0.29c0.11,0.02,0.19,0.06,0.24,0.14
				c0.04,0.07,0.07,0.14,0.07,0.21v0.69c0,0.08-0.02,0.15-0.07,0.2c-0.05,0.05-0.11,0.08-0.18,0.08c-0.34-0.01-0.67-0.08-1.01-0.21
				c-0.34-0.13-0.65-0.33-0.93-0.59c-0.28-0.26-0.5-0.58-0.67-0.97c-0.17-0.38-0.25-0.83-0.25-1.34c0-0.7,0.13-1.27,0.38-1.71
				c0.25-0.45,0.58-0.77,1-0.99c0.41-0.21,0.87-0.32,1.36-0.32c0.39,0,0.74,0.07,1.07,0.2c0.32,0.13,0.64,0.32,0.94,0.58
				c0.3,0.25,0.62,0.56,0.93,0.93l2.58,2.54v-4.13c0-0.1,0.03-0.17,0.08-0.23c0.05-0.06,0.13-0.09,0.23-0.09h0.54
				c0.09,0,0.16,0.03,0.22,0.09c0.06,0.06,0.09,0.13,0.09,0.23V188.33z"/>
			<path class="st0" d="M1200.77,177.32c0,0.61-0.1,1.12-0.28,1.54c-0.19,0.42-0.45,0.76-0.79,1.03c-0.33,0.26-0.72,0.46-1.15,0.58
				c-0.43,0.12-0.89,0.19-1.38,0.21c-0.24,0.01-0.49,0.02-0.75,0.02c-0.26,0-0.53,0-0.81,0c-0.27,0-0.53-0.01-0.78-0.02
				c-0.48-0.01-0.94-0.08-1.38-0.21c-0.43-0.13-0.81-0.32-1.14-0.59c-0.33-0.26-0.59-0.61-0.78-1.03c-0.19-0.42-0.28-0.93-0.28-1.53
				c0-0.61,0.09-1.12,0.28-1.54c0.19-0.42,0.45-0.76,0.78-1.03c0.33-0.26,0.71-0.46,1.14-0.59c0.43-0.13,0.89-0.2,1.38-0.21
				c0.25-0.01,0.51-0.01,0.78-0.02c0.27,0,0.54,0,0.81,0c0.26,0,0.52,0.01,0.75,0.02c0.49,0.01,0.94,0.08,1.38,0.21
				c0.43,0.13,0.82,0.32,1.15,0.58c0.34,0.26,0.6,0.6,0.79,1.02C1200.67,176.18,1200.77,176.7,1200.77,177.32 M1199.63,177.32
				c0-0.69-0.23-1.2-0.68-1.53c-0.45-0.33-1.07-0.5-1.85-0.51c-0.26-0.02-0.51-0.03-0.75-0.03h-0.73c-0.24,0-0.48,0.01-0.72,0.03
				c-0.77,0.01-1.38,0.18-1.85,0.51c-0.46,0.33-0.69,0.84-0.69,1.53c0,0.68,0.23,1.19,0.69,1.52c0.46,0.33,1.08,0.5,1.85,0.52
				c0.24,0,0.48,0,0.72,0.01c0.24,0.01,0.49,0.01,0.73,0c0.24,0,0.49-0.01,0.75-0.01c0.79-0.02,1.4-0.19,1.85-0.53
				C1199.4,178.49,1199.63,177.99,1199.63,177.32"/>
			<path class="st0" d="M1200.63,172.15c0,0.09-0.03,0.16-0.09,0.22c-0.06,0.06-0.13,0.09-0.22,0.09h-0.42
				c-0.08,0-0.17-0.02-0.26-0.07c-0.1-0.04-0.2-0.13-0.32-0.26l-2.81-2.81c-0.38-0.45-0.7-0.81-0.97-1.07
				c-0.27-0.26-0.53-0.45-0.78-0.56c-0.25-0.11-0.5-0.17-0.77-0.17c-0.5,0-0.9,0.14-1.2,0.42c-0.3,0.28-0.44,0.7-0.44,1.26
				c0,0.35,0.07,0.66,0.22,0.91c0.15,0.26,0.34,0.45,0.6,0.6c0.25,0.14,0.54,0.24,0.85,0.29c0.11,0.02,0.19,0.06,0.24,0.14
				c0.04,0.07,0.07,0.14,0.07,0.21v0.69c0,0.08-0.02,0.15-0.07,0.2c-0.05,0.05-0.11,0.08-0.18,0.08c-0.34-0.01-0.67-0.08-1.01-0.21
				c-0.34-0.13-0.65-0.33-0.93-0.59c-0.28-0.26-0.5-0.58-0.67-0.97c-0.17-0.38-0.25-0.83-0.25-1.34c0-0.7,0.13-1.27,0.38-1.71
				c0.25-0.45,0.58-0.77,1-0.99c0.41-0.21,0.87-0.32,1.36-0.32c0.39,0,0.74,0.07,1.07,0.2c0.32,0.13,0.64,0.32,0.94,0.58
				c0.3,0.25,0.62,0.56,0.93,0.93l2.58,2.54v-4.13c0-0.1,0.03-0.17,0.08-0.23c0.05-0.06,0.13-0.09,0.23-0.09h0.54
				c0.09,0,0.16,0.03,0.22,0.09c0.06,0.06,0.09,0.13,0.09,0.23V172.15z"/>
			<path class="st0" d="M1200.77,161.13c0,0.51-0.06,0.98-0.19,1.41c-0.13,0.43-0.32,0.79-0.56,1.1c-0.25,0.3-0.54,0.54-0.88,0.71
				c-0.34,0.17-0.73,0.25-1.16,0.25c-0.54,0-1-0.13-1.39-0.39c-0.39-0.26-0.68-0.61-0.89-1.04c-0.2,0.34-0.47,0.61-0.79,0.81
				c-0.33,0.19-0.71,0.29-1.17,0.29c-0.53,0-0.98-0.13-1.34-0.39c-0.37-0.26-0.65-0.63-0.85-1.1s-0.3-1.02-0.3-1.65
				c0-0.62,0.1-1.16,0.3-1.63c0.2-0.47,0.48-0.84,0.85-1.1c0.37-0.26,0.82-0.39,1.34-0.39c0.45,0,0.84,0.1,1.17,0.29
				c0.33,0.19,0.6,0.46,0.8,0.79c0.2-0.43,0.5-0.78,0.89-1.04c0.39-0.26,0.85-0.39,1.39-0.39c0.57,0,1.07,0.15,1.49,0.44
				c0.42,0.29,0.74,0.7,0.97,1.22C1200.65,159.83,1200.77,160.44,1200.77,161.13 M1195.22,161.13c0-0.34-0.06-0.65-0.19-0.93
				c-0.12-0.29-0.29-0.52-0.5-0.69c-0.21-0.17-0.47-0.26-0.77-0.26c-0.3,0-0.56,0.08-0.78,0.25c-0.22,0.16-0.39,0.39-0.51,0.68
				c-0.12,0.29-0.18,0.61-0.18,0.96c0,0.35,0.06,0.67,0.18,0.96c0.12,0.29,0.29,0.51,0.51,0.68c0.22,0.17,0.48,0.25,0.78,0.25
				c0.31,0,0.57-0.08,0.79-0.25c0.22-0.17,0.38-0.4,0.5-0.68C1195.16,161.8,1195.22,161.48,1195.22,161.13 M1199.71,161.13
				c0-0.41-0.07-0.77-0.21-1.1c-0.14-0.33-0.34-0.59-0.6-0.78c-0.26-0.19-0.57-0.29-0.92-0.29c-0.36,0-0.67,0.1-0.92,0.29
				c-0.25,0.19-0.45,0.46-0.58,0.78c-0.14,0.33-0.21,0.69-0.21,1.1c0,0.41,0.07,0.78,0.21,1.11c0.14,0.33,0.33,0.59,0.58,0.79
				c0.25,0.19,0.56,0.29,0.92,0.29c0.35,0,0.66-0.1,0.92-0.29c0.26-0.19,0.46-0.46,0.6-0.79
				C1199.64,161.9,1199.71,161.53,1199.71,161.13"/>
			<path class="st0" d="M167.27,89.58H177c2.03,0,3.76,0.42,5.19,1.25c1.43,0.83,2.51,1.97,3.24,3.4c0.73,1.43,1.09,3.04,1.09,4.83
				c0,1.79-0.36,3.39-1.09,4.81c-0.73,1.42-1.81,2.54-3.24,3.36c-1.43,0.82-3.16,1.23-5.19,1.23h-3.29v6.15h-6.44V89.58z
				 M176.64,102.25c0.98,0,1.78-0.3,2.41-0.89c0.63-0.6,0.95-1.35,0.95-2.25c0-0.93-0.33-1.71-0.98-2.34
				c-0.66-0.63-1.45-0.95-2.38-0.95h-2.93v6.44H176.64z"/>
			<path class="st0" d="M193.27,89.58H203c3.1,0,5.46,0.72,7.08,2.15c1.62,1.43,2.43,3.45,2.43,6.04c0,1.67-0.37,3.11-1.11,4.31
				c-0.74,1.2-1.84,2.13-3.29,2.77l5.54,9.76h-7.19l-4.9-8.87h-1.86v8.87h-6.44V89.58z M203.07,100.14c1.02,0,1.77-0.17,2.24-0.5
				c0.47-0.33,0.7-0.85,0.7-1.54c0-1.53-0.98-2.29-2.93-2.29h-3.36v4.33H203.07z"/>
			<polygon class="st0" points="220.52,89.58 239.34,89.58 239.34,95.95 226.96,95.95 226.96,98.85 239.34,98.85 239.34,105.21 
				226.96,105.21 226.96,108.25 239.7,108.25 239.7,114.62 220.52,114.62 			"/>
			<polygon class="st0" points="246.99,89.58 265.81,89.58 265.81,95.95 253.43,95.95 253.43,98.85 265.63,98.85 265.63,105.21 
				253.43,105.21 253.43,114.62 246.99,114.62 			"/>
			<polygon class="st0" points="273.03,89.58 291.84,89.58 291.84,95.95 279.47,95.95 279.47,98.85 291.84,98.85 291.84,105.21 
				279.47,105.21 279.47,108.25 292.2,108.25 292.2,114.62 273.03,114.62 			"/>
			<rect x="299.57" y="89.58" class="st0" width="6.44" height="25.04"/>
			<polygon class="st0" points="319.13,95.95 313.02,95.95 313.02,89.58 331.65,89.58 331.65,95.95 325.57,95.95 325.57,114.62 
				319.13,114.62 			"/>
			<path class="st0" d="M344.47,114.21c-1.44-0.51-2.65-1.36-3.63-2.54c-0.98-1.18-1.47-2.72-1.47-4.63V89.58h6.44v16.52
				c0,1.03,0.27,1.79,0.82,2.31c0.55,0.51,1.28,0.77,2.18,0.77c0.91,0,1.65-0.26,2.24-0.77c0.58-0.51,0.88-1.28,0.88-2.31V89.58
				h6.44v17.45c0,1.91-0.5,3.45-1.48,4.63c-0.99,1.18-2.21,2.03-3.67,2.54c-1.46,0.51-2.92,0.77-4.4,0.77
				C347.36,114.98,345.92,114.72,344.47,114.21"/>
			<path class="st0" d="M366.74,89.58h9.73c3.1,0,5.46,0.72,7.08,2.15c1.62,1.43,2.43,3.45,2.43,6.04c0,1.67-0.37,3.11-1.11,4.31
				c-0.74,1.2-1.84,2.13-3.29,2.77l5.54,9.76h-7.19l-4.9-8.87h-1.86v8.87h-6.44V89.58z M376.54,100.14c1.02,0,1.77-0.17,2.24-0.5
				c0.47-0.33,0.7-0.85,0.7-1.54c0-1.53-0.98-2.29-2.93-2.29h-3.36v4.33H376.54z"/>
			<path class="st0" d="M400.79,89.58h7.23l7.44,25.04h-6.8l-1.04-4.22h-6.44l-1,4.22h-6.83L400.79,89.58z M406.19,104.36
				l-1.79-7.33l-1.75,7.33H406.19z"/>
			<polygon class="st0" points="435.12,89.58 443.46,89.58 449.61,103.93 455.58,89.58 463.88,89.58 463.88,114.62 457.44,114.62 
				457.44,100.35 453.22,109.97 446,109.97 441.56,100.21 441.56,114.62 435.12,114.62 			"/>
			<path class="st0" d="M477.35,114.21c-1.44-0.51-2.65-1.36-3.63-2.54c-0.98-1.18-1.47-2.72-1.47-4.63V89.58h6.44v16.52
				c0,1.03,0.27,1.79,0.82,2.31c0.55,0.51,1.28,0.77,2.18,0.77c0.91,0,1.65-0.26,2.24-0.77c0.58-0.51,0.88-1.28,0.88-2.31V89.58
				h6.44v17.45c0,1.91-0.5,3.45-1.48,4.63c-0.99,1.18-2.21,2.03-3.67,2.54c-1.46,0.51-2.92,0.77-4.4,0.77
				C480.24,114.98,478.79,114.72,477.35,114.21"/>
			<polygon class="st0" points="499.61,89.58 505.4,89.58 513.09,102.35 513.09,89.58 519.17,89.58 519.17,114.62 513.42,114.62 
				505.69,101.71 505.69,114.62 499.61,114.62 			"/>
			<rect x="526.83" y="89.58" class="st0" width="6.44" height="25.04"/>
			<path class="st0" d="M546.52,113.53c-1.82-0.97-3.27-2.42-4.35-4.36c-1.07-1.94-1.61-4.31-1.61-7.1c0-2.77,0.54-5.11,1.61-7.05
				c1.07-1.93,2.53-3.38,4.36-4.35c1.84-0.97,3.89-1.45,6.15-1.45c2.53,0,4.66,0.54,6.4,1.61v6.8c-1.76-1.17-3.71-1.75-5.83-1.75
				c-1.84,0-3.3,0.5-4.4,1.5c-1.1,1-1.64,2.6-1.64,4.79c0,2.12,0.52,3.68,1.56,4.67c1.04,0.99,2.46,1.48,4.27,1.48
				c2.27,0,4.36-0.69,6.3-2.07v7.15c-0.79,0.5-1.79,0.89-3,1.16c-1.22,0.27-2.44,0.41-3.68,0.41
				C550.39,114.98,548.34,114.5,546.52,113.53"/>
			<rect x="566.89" y="89.58" class="st0" width="6.44" height="25.04"/>
			<path class="st0" d="M580.98,89.58h9.73c2.03,0,3.76,0.42,5.19,1.25c1.43,0.83,2.51,1.97,3.24,3.4c0.73,1.43,1.09,3.04,1.09,4.83
				c0,1.79-0.36,3.39-1.09,4.81c-0.73,1.42-1.81,2.54-3.24,3.36c-1.43,0.82-3.16,1.23-5.19,1.23h-3.29v6.15h-6.44V89.58z
				 M590.35,102.25c0.98,0,1.78-0.3,2.41-0.89c0.63-0.6,0.95-1.35,0.95-2.25c0-0.93-0.33-1.71-0.98-2.34
				c-0.66-0.63-1.45-0.95-2.38-0.95h-2.93v6.44H590.35z"/>
			<path class="st0" d="M611.09,89.58h7.23l7.44,25.04h-6.8l-1.04-4.22h-6.44l-1,4.22h-6.83L611.09,89.58z M616.49,104.36
				l-1.79-7.33l-1.75,7.33H616.49z"/>
			<polygon class="st0" points="632.7,89.58 639.13,89.58 639.13,108.25 651.87,108.25 651.87,114.62 632.7,114.62 			"/>
			<path class="st0" d="M671.61,89.58h9.16c2.53,0,4.77,0.47,6.72,1.41c1.95,0.94,3.49,2.36,4.61,4.24
				c1.12,1.88,1.68,4.16,1.68,6.83c0,2.69-0.56,4.98-1.68,6.87c-1.12,1.88-2.66,3.3-4.61,4.26c-1.95,0.95-4.2,1.43-6.72,1.43h-9.16
				V89.58z M680.77,108.4c2.03,0,3.61-0.54,4.74-1.61c1.13-1.07,1.7-2.63,1.7-4.69c0-2.07-0.56-3.64-1.68-4.7
				c-1.12-1.06-2.71-1.59-4.76-1.59h-2.72v12.59H680.77z"/>
			<polygon class="st0" points="701.01,89.58 719.82,89.58 719.82,95.95 707.45,95.95 707.45,98.85 719.82,98.85 719.82,105.21 
				707.45,105.21 707.45,108.25 720.18,108.25 720.18,114.62 701.01,114.62 			"/>
			<polygon class="st0" points="271.74,330.23 266.42,330.23 266.42,324.7 282.61,324.7 282.61,330.23 277.33,330.23 277.33,346.44 
				271.74,346.44 			"/>
			<path class="st0" d="M302.42,324.7h8.45c2.69,0,4.74,0.62,6.15,1.86c1.41,1.24,2.11,2.99,2.11,5.25c0,1.45-0.32,2.7-0.96,3.74
				c-0.64,1.05-1.59,1.85-2.86,2.41l4.81,8.48h-6.24l-4.26-7.7h-1.61v7.7h-5.59V324.7z M310.93,333.86c0.89,0,1.54-0.14,1.94-0.43
				c0.4-0.29,0.61-0.73,0.61-1.34c0-1.32-0.85-1.99-2.55-1.99h-2.92v3.76H310.93z"/>
			<path class="st0" d="M345.78,324.7h6.27l6.46,21.74h-5.9l-0.9-3.66h-5.59l-0.87,3.66h-5.93L345.78,324.7z M350.47,337.52
				l-1.55-6.37l-1.52,6.37H350.47z"/>
			<path class="st0" d="M378.33,324.7h8.45c2.61,0,4.53,0.53,5.78,1.6c1.24,1.07,1.86,2.43,1.86,4.08c0,1.12-0.25,2.06-0.76,2.83
				c-0.51,0.77-1.14,1.3-1.91,1.62c1.1,0.29,2.02,0.9,2.78,1.82c0.76,0.92,1.13,2.11,1.13,3.56c0,1.84-0.63,3.34-1.88,4.5
				c-1.25,1.16-3.17,1.74-5.76,1.74h-9.69V324.7z M386.59,333.46c0.7,0,1.25-0.14,1.65-0.42c0.39-0.28,0.59-0.7,0.59-1.26
				c0-1.12-0.78-1.68-2.33-1.68h-2.58v3.35H386.59z M387.46,341.03c0.97,0,1.66-0.13,2.05-0.39c0.39-0.26,0.59-0.65,0.59-1.16
				c0-0.52-0.21-0.9-0.64-1.13c-0.42-0.24-1.15-0.36-2.19-0.36h-3.35v3.04H387.46z"/>
			<path class="st0" d="M420.6,324.7h6.27l6.46,21.74h-5.9l-0.9-3.66h-5.59l-0.87,3.66h-5.93L420.6,324.7z M425.29,337.52
				l-1.55-6.37l-1.52,6.37H425.29z"/>
			<polygon class="st0" points="453.15,324.7 458.74,324.7 458.74,340.91 469.79,340.91 469.79,346.44 453.15,346.44 			"/>
			<polygon class="st0" points="489.67,324.7 495.26,324.7 495.26,332.71 502.43,332.71 502.43,324.7 508.02,324.7 508.02,346.44 
				502.43,346.44 502.43,338.24 495.26,338.24 495.26,346.44 489.67,346.44 			"/>
			<path class="st0" d="M533.23,345.48c-1.56-0.85-2.81-2.12-3.74-3.8c-0.93-1.69-1.4-3.73-1.4-6.13c0-2.4,0.47-4.44,1.4-6.12
				c0.93-1.68,2.18-2.93,3.74-3.77c1.56-0.84,3.28-1.26,5.14-1.26c1.86,0,3.57,0.42,5.12,1.26c1.55,0.84,2.8,2.1,3.73,3.77
				c0.93,1.68,1.4,3.72,1.4,6.12c0,2.4-0.47,4.45-1.4,6.13c-0.93,1.69-2.17,2.96-3.73,3.8c-1.55,0.85-3.26,1.27-5.12,1.27
				C536.51,346.75,534.79,346.32,533.23,345.48 M541.52,339.64c0.88-0.89,1.32-2.25,1.32-4.07c0-1.84-0.43-3.2-1.3-4.08
				c-0.87-0.88-1.93-1.32-3.17-1.32s-2.3,0.44-3.18,1.32c-0.88,0.88-1.32,2.24-1.32,4.08c0,1.82,0.44,3.18,1.32,4.07
				c0.88,0.89,1.94,1.34,3.18,1.34C539.59,340.97,540.64,340.53,541.52,339.64"/>
			<path class="st0" d="M555.06,346.02c-0.47-0.49-0.7-1.07-0.7-1.75s0.24-1.27,0.73-1.76c0.49-0.49,1.07-0.73,1.75-0.73
				c0.68,0,1.27,0.24,1.75,0.73c0.49,0.49,0.73,1.07,0.73,1.76l-2.27,5.96h-1.68l1.27-3.48
				C556.06,346.75,555.53,346.51,555.06,346.02"/>
			<path class="st0" d="M597.82,324.7h7.95c2.19,0,4.14,0.41,5.84,1.23c1.7,0.82,3.03,2.04,4.01,3.68c0.97,1.64,1.46,3.61,1.46,5.93
				c0,2.34-0.49,4.33-1.46,5.96c-0.97,1.64-2.31,2.87-4.01,3.7c-1.7,0.83-3.64,1.24-5.84,1.24h-7.95V324.7z M605.77,341.03
				c1.76,0,3.13-0.47,4.11-1.4c0.98-0.93,1.48-2.29,1.48-4.07c0-1.8-0.49-3.16-1.46-4.08c-0.97-0.92-2.35-1.38-4.13-1.38h-2.36
				v10.93H605.77z"/>
			<rect x="637.2" y="324.7" class="st0" width="5.59" height="21.74"/>
			<path class="st0" d="M669.13,324.7h6.27l6.46,21.74h-5.9l-0.9-3.66h-5.59l-0.87,3.66h-5.93L669.13,324.7z M669.75,321.75
				l1.99-4.72l3.04,2.11l-3.76,3.48L669.75,321.75z M673.82,337.52l-1.55-6.37l-1.52,6.37H673.82z"/>
			<polygon class="st0" points="701.67,324.7 707.26,324.7 707.26,340.91 718.32,340.91 718.32,346.44 701.67,346.44 			"/>
			<path class="st0" d="M742.35,345.48c-1.56-0.85-2.81-2.12-3.74-3.8c-0.93-1.69-1.4-3.73-1.4-6.13c0-2.4,0.47-4.44,1.4-6.12
				c0.93-1.68,2.18-2.93,3.74-3.77c1.56-0.84,3.28-1.26,5.14-1.26c1.86,0,3.57,0.42,5.12,1.26c1.55,0.84,2.8,2.1,3.73,3.77
				c0.93,1.68,1.4,3.72,1.4,6.12c0,2.4-0.47,4.45-1.4,6.13c-0.93,1.69-2.17,2.96-3.73,3.8c-1.55,0.85-3.26,1.27-5.12,1.27
				C745.62,346.75,743.91,346.32,742.35,345.48 M750.64,339.64c0.88-0.89,1.32-2.25,1.32-4.07c0-1.84-0.43-3.2-1.3-4.08
				c-0.87-0.88-1.92-1.32-3.17-1.32c-1.24,0-2.3,0.44-3.18,1.32c-0.88,0.88-1.32,2.24-1.32,4.08c0,1.82,0.44,3.18,1.32,4.07
				c0.88,0.89,1.94,1.34,3.18,1.34C748.71,340.97,749.76,340.53,750.64,339.64"/>
			<path class="st0" d="M782.64,345.48c-1.57-0.85-2.83-2.12-3.76-3.8c-0.93-1.69-1.4-3.73-1.4-6.13s0.47-4.44,1.4-6.12
				c0.93-1.68,2.18-2.93,3.76-3.77c1.57-0.84,3.3-1.26,5.19-1.26c1.64,0,3.13,0.34,4.49,1.01c1.36,0.67,2.5,1.72,3.43,3.15
				l-4.5,3.32c-0.41-0.58-0.93-1.01-1.54-1.29c-0.61-0.28-1.26-0.42-1.94-0.42c-1.24,0-2.3,0.44-3.18,1.32
				c-0.88,0.88-1.32,2.24-1.32,4.08c0,1.86,0.46,3.26,1.37,4.19c0.91,0.93,2.03,1.4,3.35,1.4c1.18,0,2.15-0.35,2.92-1.06v-1.37
				h-4.81v-5.09h9.97v9.07c-0.77,1.12-1.86,2.07-3.28,2.86c-1.42,0.79-3.06,1.18-4.92,1.18
				C785.95,346.75,784.22,346.32,782.64,345.48"/>
			<path class="st0" d="M821.17,345.48c-1.56-0.85-2.81-2.12-3.74-3.8c-0.93-1.69-1.4-3.73-1.4-6.13c0-2.4,0.47-4.44,1.4-6.12
				c0.93-1.68,2.18-2.93,3.74-3.77c1.56-0.84,3.28-1.26,5.14-1.26s3.57,0.42,5.12,1.26c1.55,0.84,2.8,2.1,3.73,3.77
				c0.93,1.68,1.4,3.72,1.4,6.12c0,2.4-0.47,4.45-1.4,6.13c-0.93,1.69-2.17,2.96-3.73,3.8c-1.55,0.85-3.26,1.27-5.12,1.27
				S822.73,346.32,821.17,345.48 M829.46,339.64c0.88-0.89,1.32-2.25,1.32-4.07c0-1.84-0.43-3.2-1.3-4.08
				c-0.87-0.88-1.93-1.32-3.17-1.32c-1.24,0-2.3,0.44-3.18,1.32c-0.88,0.88-1.32,2.24-1.32,4.08c0,1.82,0.44,3.18,1.32,4.07
				c0.88,0.89,1.94,1.34,3.18,1.34C827.53,340.97,828.58,340.53,829.46,339.64"/>
			<polygon class="st0" points="881.47,324.7 897.81,324.7 897.81,330.23 887.06,330.23 887.06,332.74 897.81,332.74 897.81,338.27 
				887.06,338.27 887.06,340.91 898.12,340.91 898.12,346.44 881.47,346.44 			"/>
			<path class="st0" d="M948.2,346.08c-1.25-0.45-2.3-1.18-3.15-2.2c-0.85-1.03-1.27-2.37-1.27-4.02V324.7h5.59v14.35
				c0,0.89,0.24,1.56,0.71,2c0.48,0.45,1.11,0.67,1.89,0.67c0.79,0,1.43-0.22,1.94-0.67c0.51-0.45,0.76-1.11,0.76-2V324.7h5.59
				v15.16c0,1.66-0.43,3-1.29,4.02c-0.86,1.02-1.92,1.76-3.18,2.2c-1.26,0.45-2.54,0.67-3.82,0.67
				C950.71,346.75,949.45,346.53,948.2,346.08"/>
			<polygon class="st0" points="981.32,324.7 986.35,324.7 993.03,335.79 993.03,324.7 998.31,324.7 998.31,346.44 993.31,346.44 
				986.6,335.23 986.6,346.44 981.32,346.44 			"/>
			<rect x="1018.75" y="324.7" class="st0" width="5.59" height="21.74"/>
			<path class="st0" d="M1050.67,324.7h6.27l6.46,21.74h-5.9l-0.9-3.66h-5.59l-0.87,3.66h-5.93L1050.67,324.7z M1051.31,320.35
				c0.34-0.41,0.79-0.62,1.35-0.62c0.43,0,0.9,0.15,1.4,0.43c0.33,0.17,0.57,0.25,0.71,0.25c0.33,0,0.5-0.23,0.5-0.68h1.55
				c0,1.59-0.57,2.39-1.71,2.39c-0.45,0-0.93-0.13-1.43-0.4c-0.12-0.06-0.25-0.12-0.39-0.17c-0.14-0.05-0.25-0.08-0.36-0.08
				c-0.19,0-0.33,0.05-0.42,0.14c-0.09,0.09-0.14,0.27-0.14,0.54h-1.58C1050.8,321.36,1050.97,320.76,1051.31,320.35
				 M1055.36,337.52l-1.55-6.37l-1.52,6.37H1055.36z"/>
			<path class="st0" d="M1086.19,345.48c-1.56-0.85-2.81-2.12-3.74-3.8c-0.93-1.69-1.4-3.73-1.4-6.13c0-2.4,0.47-4.44,1.4-6.12
				c0.93-1.68,2.18-2.93,3.74-3.77c1.56-0.84,3.28-1.26,5.14-1.26c1.86,0,3.57,0.42,5.12,1.26c1.55,0.84,2.8,2.1,3.73,3.77
				c0.93,1.68,1.4,3.72,1.4,6.12c0,2.4-0.47,4.45-1.4,6.13c-0.93,1.69-2.17,2.96-3.73,3.8c-1.55,0.85-3.26,1.27-5.12,1.27
				C1089.46,346.75,1087.75,346.32,1086.19,345.48 M1094.48,339.64c0.88-0.89,1.32-2.25,1.32-4.07c0-1.84-0.43-3.2-1.3-4.08
				c-0.87-0.88-1.92-1.32-3.17-1.32c-1.24,0-2.3,0.44-3.18,1.32c-0.88,0.88-1.32,2.24-1.32,4.08c0,1.82,0.44,3.18,1.32,4.07
				c0.88,0.89,1.94,1.34,3.18,1.34C1092.55,340.97,1093.6,340.53,1094.48,339.64"/>
		</g>
	</g>
	<g>
		<rect x="1254.45" y="104.01" class="st44" width="2.87" height="257.87"/>
		<g>
			<path class="st0" d="M1320.25,146.85c4.3,0,8.16,0.51,11.58,1.53c3.42,1.02,6.33,2.48,8.72,4.39c2.39,1.91,4.22,4.23,5.48,6.98
				c1.27,2.74,1.9,5.85,1.9,9.32h-15.92c0-1.4-0.28-2.66-0.85-3.78c-0.57-1.12-1.37-2.06-2.42-2.84c-1.05-0.78-2.31-1.38-3.79-1.8
				c-1.48-0.42-3.13-0.63-4.95-0.63c-1.51,0-2.94,0.15-4.31,0.44c-1.37,0.29-2.57,0.73-3.61,1.3c-1.04,0.57-1.87,1.29-2.48,2.14
				c-0.61,0.85-0.92,1.84-0.92,2.95c0,1.13,0.27,2.04,0.83,2.74c0.55,0.69,1.38,1.26,2.5,1.71c1.12,0.44,2.52,0.82,4.21,1.12
				c1.69,0.3,3.67,0.62,5.95,0.95l2.28,0.32c1.34,0.2,2.74,0.41,4.18,0.64s2.89,0.52,4.34,0.85c1.45,0.33,2.87,0.74,4.27,1.21
				c1.4,0.48,2.74,1.05,4,1.72c1.27,0.67,2.43,1.47,3.5,2.39c1.07,0.92,1.99,1.99,2.77,3.2c0.78,1.21,1.38,2.6,1.82,4.16
				c0.44,1.56,0.66,3.32,0.66,5.28c0,3.41-0.68,6.43-2.04,9.06c-1.36,2.63-3.3,4.84-5.83,6.63c-2.53,1.79-5.6,3.14-9.21,4.06
				c-3.61,0.92-7.67,1.38-12.18,1.38c-4.81,0-9.06-0.52-12.75-1.56c-3.69-1.04-6.79-2.54-9.29-4.49c-2.5-1.95-4.39-4.34-5.68-7.16
				c-1.28-2.82-1.92-6.02-1.92-9.59h15.92c0,1.51,0.31,2.86,0.94,4.06c0.63,1.2,1.53,2.21,2.7,3.03c1.18,0.82,2.6,1.45,4.29,1.89
				c1.68,0.44,3.58,0.66,5.71,0.66c1.81,0,3.49-0.16,5.05-0.47c1.56-0.32,2.91-0.79,4.05-1.41c1.14-0.63,2.04-1.4,2.69-2.33
				c0.66-0.93,0.98-2,0.98-3.22c0-1.22-0.28-2.2-0.85-2.94s-1.4-1.34-2.51-1.81s-2.49-0.84-4.15-1.12
				c-1.66-0.28-3.57-0.56-5.74-0.85l-3.03-0.43c-1.73-0.24-3.56-0.51-5.47-0.81c-1.91-0.3-3.8-0.72-5.65-1.24
				c-1.85-0.53-3.62-1.21-5.3-2.05c-1.68-0.84-3.16-1.9-4.44-3.19s-2.3-2.85-3.05-4.68c-0.75-1.83-1.13-4.01-1.13-6.55
				c0-2.29,0.32-4.4,0.96-6.33s1.55-3.67,2.74-5.23c1.18-1.56,2.62-2.94,4.31-4.13c1.69-1.19,3.57-2.19,5.65-3
				c2.08-0.81,4.34-1.41,6.78-1.82C1314.98,147.06,1317.55,146.85,1320.25,146.85z"/>
			<path class="st0" d="M1399.95,148.21v13.84h-28.49v12.1h25.92v12.89h-25.92v12.01h29.26v13.84h-45.95v-64.67H1399.95z"/>
			<path class="st0" d="M1420.05,180.55c0,3.23,0.33,6.07,0.98,8.54c0.66,2.46,1.62,4.52,2.89,6.17c1.27,1.65,2.85,2.9,4.73,3.74
				c1.88,0.84,4.03,1.27,6.46,1.27c3.84,0,6.91-1.15,9.2-3.45c2.29-2.3,3.81-5.76,4.54-10.39h16.55c-0.57,4.31-1.7,8.19-3.38,11.62
				c-1.68,3.44-3.83,6.35-6.43,8.75c-2.61,2.4-5.64,4.24-9.1,5.52c-3.46,1.28-7.26,1.92-11.41,1.92c-3.09,0-6.03-0.36-8.81-1.07
				s-5.35-1.76-7.71-3.12s-4.49-3.03-6.38-4.99c-1.89-1.96-3.5-4.19-4.83-6.68c-1.33-2.5-2.35-5.24-3.06-8.23
				c-0.72-2.99-1.07-6.19-1.07-9.6s0.36-6.61,1.07-9.6c0.72-2.99,1.74-5.74,3.06-8.23c1.33-2.5,2.94-4.72,4.83-6.68
				c1.89-1.96,4.02-3.62,6.38-4.99s4.93-2.4,7.71-3.12c2.78-0.72,5.72-1.07,8.81-1.07c2.76,0,5.37,0.29,7.84,0.86
				c2.46,0.57,4.76,1.41,6.87,2.51c2.12,1.1,4.05,2.45,5.8,4.06c1.75,1.61,3.29,3.44,4.61,5.5c1.33,2.06,2.43,4.33,3.3,6.83
				c0.88,2.5,1.51,5.18,1.9,8.06h-16.55c-0.74-4.64-2.25-8.11-4.54-10.4c-2.29-2.29-5.36-3.44-9.2-3.44c-2.43,0-4.58,0.42-6.46,1.25
				c-1.88,0.84-3.45,2.08-4.73,3.74c-1.27,1.66-2.24,3.72-2.89,6.17C1420.37,174.46,1420.05,177.31,1420.05,180.55z"/>
			<path class="st0" d="M1470.29,212.88v-64.7h32.31c3.84,0,7.26,0.46,10.25,1.37c2.99,0.91,5.52,2.22,7.58,3.92
				c2.06,1.7,3.62,3.78,4.69,6.23c1.07,2.45,1.61,5.21,1.61,8.29c0,2.67-0.42,5.09-1.27,7.27c-0.84,2.18-2.05,4.05-3.61,5.61
				c-1.56,1.56-3.44,2.79-5.65,3.67c-2.21,0.89-4.68,1.38-7.41,1.47c2.64,0.18,4.97,1.12,6.99,2.82s3.75,4.16,5.2,7.38l7.49,16.67
				h-18.57l-7.62-16.64c-0.59-1.3-1.15-2.36-1.67-3.2c-0.53-0.84-1.1-1.5-1.71-1.98s-1.3-0.82-2.06-1.01
				c-0.76-0.19-1.68-0.28-2.75-0.28h-7.12v23.11H1470.29z M1500.77,176.88c1.48,0,2.79-0.17,3.94-0.52
				c1.15-0.35,2.11-0.85,2.91-1.52c0.79-0.66,1.39-1.48,1.8-2.45c0.41-0.97,0.61-2.08,0.61-3.31c0-2.49-0.79-4.38-2.37-5.68
				c-1.58-1.3-3.88-1.94-6.9-1.94h-13.77v15.42H1500.77z"/>
			<path class="st0" d="M1577.71,148.21v13.84h-28.49v12.1h25.92v12.89h-25.92v12.01h29.26v13.84h-45.95v-64.67H1577.71z"/>
			<path class="st0" d="M1634.92,162.05h-19.13v50.83h-16.69v-50.83h-19.13v-13.84h54.95V162.05z"/>
			<path class="st0" d="M1627.05,212.88l21.39-64.67h22.93l21.08,64.67h-17.8l-3.62-13.23h-22.86l-3.69,13.23H1627.05z
				 M1667.43,186.45l-7.73-28.29l-7.87,28.29H1667.43z"/>
			<path class="st0" d="M1694.51,212.88v-64.7h32.31c3.84,0,7.26,0.46,10.25,1.37c2.99,0.91,5.52,2.22,7.58,3.92
				c2.06,1.7,3.62,3.78,4.69,6.23c1.07,2.45,1.61,5.21,1.61,8.29c0,2.67-0.42,5.09-1.27,7.27c-0.84,2.18-2.05,4.05-3.61,5.61
				c-1.56,1.56-3.44,2.79-5.65,3.67c-2.21,0.89-4.68,1.38-7.41,1.47c2.64,0.18,4.97,1.12,6.99,2.82s3.75,4.16,5.2,7.38l7.49,16.67
				h-18.57l-7.62-16.64c-0.59-1.3-1.15-2.36-1.67-3.2c-0.53-0.84-1.1-1.5-1.71-1.98s-1.3-0.82-2.06-1.01
				c-0.76-0.19-1.68-0.28-2.75-0.28h-7.12v23.11H1694.51z M1724.99,176.88c1.48,0,2.79-0.17,3.94-0.52
				c1.15-0.35,2.11-0.85,2.91-1.52c0.79-0.66,1.39-1.48,1.8-2.45c0.41-0.97,0.61-2.08,0.61-3.31c0-2.49-0.79-4.38-2.37-5.68
				c-1.58-1.3-3.88-1.94-6.9-1.94h-13.77v15.42H1724.99z"/>
			<path class="st0" d="M1773.38,212.88h-16.69v-64.67h16.69V212.88z"/>
			<path class="st0" d="M1775.45,212.88l21.39-64.67h22.93l21.08,64.67h-17.8l-3.62-13.23h-22.86l-3.69,13.23H1775.45z
				 M1815.83,186.45l-7.73-28.29l-7.87,28.29H1815.83z"/>
			<path class="st0" d="M1290.85,265.39h8.76c1.14,0,2.21,0.12,3.22,0.36c1.01,0.24,1.94,0.59,2.79,1.05
				c0.85,0.46,1.62,1.02,2.29,1.69c0.67,0.67,1.25,1.42,1.72,2.27s0.84,1.78,1.09,2.8c0.25,1.02,0.38,2.11,0.38,3.27
				s-0.13,2.25-0.38,3.27c-0.25,1.02-0.61,1.95-1.09,2.8s-1.05,1.61-1.72,2.27c-0.68,0.67-1.44,1.23-2.29,1.69
				c-0.85,0.46-1.78,0.81-2.79,1.05s-2.08,0.36-3.22,0.36h-8.76V265.39z M1299.44,283.33c0.92,0,1.73-0.14,2.44-0.42
				c0.71-0.28,1.31-0.69,1.79-1.23c0.48-0.54,0.85-1.22,1.1-2.03c0.25-0.81,0.38-1.75,0.38-2.82s-0.13-2.01-0.38-2.82
				c-0.25-0.81-0.62-1.49-1.1-2.03c-0.48-0.54-1.08-0.96-1.79-1.23c-0.71-0.28-1.52-0.42-2.44-0.42h-2.71v13H1299.44z"/>
			<path class="st0" d="M1329.08,265.39v4.9h-10.08v4.28h9.17v4.56h-9.17v4.25h10.36v4.9h-16.26v-22.89H1329.08z"/>
			<path class="st0" d="M1399.21,241.89v13.84h-28.49v12.1h25.92v12.89h-25.92v12.01h29.26v13.84h-45.95v-64.67H1399.21z"/>
			<path class="st0" d="M1405.6,241.89h24.74c3.21,0,6.24,0.34,9.09,1.03c2.85,0.69,5.48,1.68,7.89,2.97
				c2.41,1.3,4.57,2.89,6.48,4.77c1.91,1.88,3.53,4.03,4.87,6.42c1.34,2.4,2.37,5.03,3.08,7.9c0.71,2.87,1.06,5.95,1.06,9.24
				s-0.35,6.37-1.06,9.24c-0.71,2.87-1.73,5.51-3.08,7.9c-1.34,2.4-2.97,4.54-4.87,6.42c-1.91,1.88-4.07,3.48-6.48,4.77
				c-2.41,1.3-5.04,2.29-7.89,2.97c-2.85,0.69-5.88,1.03-9.09,1.03h-24.74V241.89z M1429.87,292.59c2.59,0,4.89-0.39,6.9-1.18
				c2-0.78,3.69-1.94,5.05-3.48c1.36-1.54,2.4-3.45,3.11-5.74c0.71-2.29,1.06-4.94,1.06-7.96s-0.35-5.67-1.06-7.96
				c-0.71-2.29-1.75-4.21-3.11-5.74c-1.36-1.54-3.05-2.7-5.05-3.48c-2-0.78-4.3-1.18-6.9-1.18h-7.67v36.72H1429.87z"/>
			<path class="st0" d="M1467.21,241.89h16.69v37.4c0,2.56,0.26,4.77,0.77,6.61c0.51,1.85,1.27,3.37,2.27,4.56
				c1,1.19,2.24,2.07,3.72,2.63c1.48,0.56,3.17,0.85,5.09,0.85c1.93,0,3.63-0.28,5.11-0.85c1.48-0.57,2.71-1.44,3.71-2.63
				c1-1.19,1.75-2.71,2.26-4.56s0.77-4.05,0.77-6.61v-37.4h16.69v38.89c0,4.36-0.7,8.22-2.1,11.59c-1.4,3.37-3.37,6.21-5.89,8.51
				s-5.53,4.06-9.02,5.25s-7.33,1.79-11.52,1.79c-2.79,0-5.43-0.27-7.92-0.8c-2.49-0.54-4.79-1.32-6.91-2.36
				c-2.12-1.04-4.02-2.33-5.71-3.87c-1.69-1.54-3.13-3.31-4.32-5.33c-1.19-2.01-2.1-4.25-2.74-6.72c-0.63-2.46-0.95-5.15-0.95-8.06
				V241.89z"/>
			<path class="st0" d="M1545.67,274.23c0,3.23,0.33,6.07,0.98,8.54c0.66,2.46,1.62,4.52,2.89,6.17c1.27,1.65,2.85,2.9,4.73,3.74
				c1.88,0.84,4.03,1.27,6.46,1.27c3.84,0,6.91-1.15,9.2-3.45c2.29-2.3,3.81-5.76,4.54-10.39h16.55c-0.57,4.31-1.7,8.19-3.38,11.62
				c-1.68,3.44-3.83,6.35-6.43,8.75c-2.61,2.4-5.64,4.24-9.1,5.52c-3.46,1.28-7.26,1.92-11.41,1.92c-3.09,0-6.03-0.36-8.81-1.07
				s-5.35-1.76-7.71-3.12s-4.49-3.03-6.38-4.99c-1.89-1.96-3.5-4.19-4.83-6.68c-1.33-2.49-2.35-5.24-3.06-8.23
				c-0.72-2.99-1.07-6.19-1.07-9.6s0.36-6.61,1.07-9.6c0.72-2.99,1.74-5.74,3.06-8.23c1.33-2.49,2.94-4.72,4.83-6.68
				c1.89-1.96,4.02-3.62,6.38-4.99s4.93-2.4,7.71-3.12c2.78-0.72,5.72-1.07,8.81-1.07c2.76,0,5.37,0.29,7.84,0.86
				c2.46,0.57,4.76,1.41,6.87,2.51s4.05,2.45,5.8,4.06c1.75,1.61,3.29,3.44,4.61,5.5c1.33,2.06,2.43,4.33,3.3,6.83
				c0.88,2.5,1.51,5.18,1.9,8.06h-16.55c-0.74-4.64-2.25-8.11-4.54-10.4c-2.29-2.29-5.36-3.44-9.2-3.44c-2.43,0-4.58,0.42-6.46,1.25
				s-3.45,2.08-4.73,3.74c-1.27,1.66-2.24,3.72-2.89,6.17C1546,268.14,1545.67,270.99,1545.67,274.23z"/>
			<path class="st0" d="M1588.97,306.57l21.39-64.67h22.93l21.08,64.67h-17.8l-3.62-13.23h-22.86l-3.69,13.23H1588.97z
				 M1629.36,280.13l-7.73-28.29l-7.87,28.29H1629.36z"/>
			<path class="st0" d="M1668.99,274.23c0,3.23,0.33,6.07,0.98,8.54c0.66,2.46,1.62,4.52,2.89,6.17c1.27,1.65,2.85,2.9,4.73,3.74
				c1.88,0.84,4.03,1.27,6.46,1.27c3.84,0,6.91-1.15,9.2-3.45c2.29-2.3,3.81-5.76,4.54-10.39h16.55c-0.57,4.31-1.7,8.19-3.38,11.62
				c-1.68,3.44-3.83,6.35-6.43,8.75c-2.61,2.4-5.64,4.24-9.1,5.52c-3.46,1.28-7.26,1.92-11.41,1.92c-3.09,0-6.03-0.36-8.81-1.07
				s-5.35-1.76-7.71-3.12s-4.49-3.03-6.38-4.99c-1.89-1.96-3.5-4.19-4.83-6.68c-1.33-2.49-2.35-5.24-3.06-8.23
				c-0.72-2.99-1.07-6.19-1.07-9.6s0.36-6.61,1.07-9.6c0.72-2.99,1.74-5.74,3.06-8.23c1.33-2.49,2.94-4.72,4.83-6.68
				c1.89-1.96,4.02-3.62,6.38-4.99s4.93-2.4,7.71-3.12c2.78-0.72,5.72-1.07,8.81-1.07c2.76,0,5.37,0.29,7.84,0.86
				c2.46,0.57,4.76,1.41,6.87,2.51s4.05,2.45,5.8,4.06c1.75,1.61,3.29,3.44,4.61,5.5c1.33,2.06,2.43,4.33,3.3,6.83
				c0.88,2.5,1.51,5.18,1.9,8.06h-16.55c-0.74-4.64-2.25-8.11-4.54-10.4c-2.29-2.29-5.36-3.44-9.2-3.44c-2.43,0-4.58,0.42-6.46,1.25
				s-3.45,2.08-4.73,3.74c-1.27,1.66-2.24,3.72-2.89,6.17C1669.31,268.14,1668.99,270.99,1668.99,274.23z M1686.69,306.39
				l-0.68,3.62c1.66,0.03,3.16,0.21,4.5,0.54c1.34,0.33,2.48,0.8,3.43,1.39c0.94,0.59,1.67,1.31,2.18,2.14
				c0.51,0.83,0.77,1.76,0.77,2.78c0,1.1-0.3,2.11-0.89,3.02s-1.44,1.69-2.52,2.34c-1.08,0.65-2.38,1.15-3.9,1.5
				c-1.51,0.35-3.2,0.53-5.05,0.53c-1.75,0-3.61-0.17-5.59-0.5v-5.92c1.61,0.33,3.08,0.5,4.41,0.5c1.64,0,2.91-0.21,3.8-0.64
				c0.89-0.43,1.33-0.98,1.33-1.64c0-0.39-0.17-0.76-0.5-1.11c-0.33-0.35-0.83-0.65-1.5-0.91c-0.67-0.26-1.5-0.46-2.5-0.61
				s-2.16-0.23-3.48-0.23l1.22-6.81H1686.69z"/>
			<path class="st0" d="M1712.29,306.57l21.39-64.67h22.93l21.08,64.67h-17.8l-3.62-13.23h-22.86l-3.69,13.23H1712.29z
				 M1759.03,224.8c0,2.35-0.14,4.37-0.42,6.05s-0.72,3.06-1.32,4.14c-0.6,1.08-1.38,1.87-2.32,2.38c-0.94,0.51-2.07,0.77-3.38,0.77
				c-0.75,0-1.46-0.07-2.1-0.21c-0.65-0.14-1.24-0.32-1.79-0.53c-0.54-0.21-1.03-0.44-1.46-0.68s-0.8-0.46-1.12-0.66l-1.38-0.79
				c-0.23-0.14-0.49-0.29-0.78-0.45s-0.61-0.32-0.95-0.45c-0.34-0.14-0.69-0.25-1.06-0.35s-0.74-0.15-1.12-0.15
				c-0.81,0-1.43,0.27-1.84,0.81c-0.42,0.54-0.62,1.5-0.62,2.87v0.14h-5.38v-0.23c0-4.57,0.63-7.95,1.89-10.14
				c1.26-2.19,3.19-3.29,5.8-3.29c0.68,0,1.31,0.06,1.9,0.19c0.59,0.13,1.12,0.29,1.61,0.49c0.48,0.2,0.92,0.4,1.3,0.61
				c0.38,0.21,0.72,0.41,1.01,0.59l1.31,0.79c0.26,0.15,0.55,0.32,0.88,0.51s0.7,0.36,1.1,0.52c0.4,0.16,0.82,0.29,1.25,0.41
				s0.89,0.17,1.36,0.17c0.74,0,1.32-0.26,1.74-0.79c0.42-0.53,0.63-1.43,0.63-2.71v-0.34h5.27V224.8z M1752.67,280.13l-7.73-28.29
				l-7.87,28.29H1752.67z"/>
			<path class="st0" d="M1775.48,274.23c0-3.41,0.36-6.61,1.07-9.6c0.72-2.99,1.74-5.74,3.06-8.23c1.33-2.49,2.94-4.72,4.83-6.68
				c1.89-1.96,4.02-3.62,6.38-4.99s4.93-2.4,7.71-3.12c2.78-0.72,5.72-1.07,8.83-1.07s6.05,0.36,8.82,1.07
				c2.77,0.72,5.34,1.76,7.71,3.12c2.37,1.36,4.5,3.03,6.39,4.99s3.5,4.19,4.83,6.68c1.33,2.5,2.35,5.24,3.06,8.23
				c0.72,2.99,1.07,6.19,1.07,9.6s-0.36,6.61-1.07,9.6c-0.72,2.99-1.74,5.74-3.06,8.23c-1.33,2.5-2.94,4.72-4.83,6.68
				s-4.02,3.62-6.39,4.99c-2.37,1.36-4.94,2.4-7.72,3.12c-2.78,0.72-5.72,1.07-8.81,1.07c-3.11,0-6.05-0.36-8.83-1.07
				s-5.35-1.76-7.71-3.12s-4.49-3.03-6.38-4.99c-1.89-1.96-3.5-4.19-4.83-6.68c-1.33-2.49-2.35-5.24-3.06-8.23
				C1775.84,280.84,1775.48,277.64,1775.48,274.23z M1792.3,274.23c0,3.23,0.33,6.07,0.98,8.54c0.66,2.46,1.62,4.52,2.89,6.17
				c1.27,1.65,2.85,2.9,4.73,3.74c1.88,0.84,4.03,1.27,6.46,1.27c2.43,0,4.58-0.42,6.45-1.27c1.87-0.84,3.44-2.09,4.73-3.74
				c1.28-1.65,2.25-3.71,2.91-6.17c0.66-2.46,0.98-5.31,0.98-8.54c0-3.24-0.33-6.09-0.98-8.55c-0.66-2.46-1.62-4.51-2.91-6.17
				c-1.28-1.66-2.86-2.91-4.73-3.74s-4.02-1.25-6.45-1.25c-2.43,0-4.58,0.42-6.46,1.25s-3.45,2.08-4.73,3.74
				c-1.27,1.66-2.24,3.72-2.89,6.17C1792.63,268.14,1792.3,270.99,1792.3,274.23z"/>
		</g>
	</g>
</g>
<g>
	<defs>
		<rect id="SVGID_00000141454279296055974920000006383637667241733776_" x="39.41" y="-425.94" width="1288.53" height="1288.53"/>
	</defs>
	<clipPath id="SVGID_00000004513263737547198370000017160475076075196350_">
		<use xlink:href="#SVGID_00000141454279296055974920000006383637667241733776_"  style="overflow:visible;"/>
	</clipPath>
	<path style="clip-path:url(#SVGID_00000004513263737547198370000017160475076075196350_);fill:#E42521;" d="M874.65,169.8
		c-0.34,0.02-0.68,0.06-1.02,0.08c0.87-0.05,1.75-0.11,2.63-0.12C875.72,169.78,875.19,169.78,874.65,169.8"/>
	<path style="clip-path:url(#SVGID_00000004513263737547198370000017160475076075196350_);fill:#E42521;" d="M863.29,171.7
		c-0.33,0.1-0.65,0.22-0.97,0.33c0.39-0.13,0.78-0.26,1.18-0.38C863.43,171.67,863.36,171.68,863.29,171.7"/>
	<path style="clip-path:url(#SVGID_00000004513263737547198370000017160475076075196350_);fill:#E42521;" d="M867.71,170.61
		c-0.03,0.01-0.07,0.02-0.1,0.03c0.04-0.01,0.08-0.02,0.12-0.03C867.72,170.61,867.71,170.61,867.71,170.61"/>
	<path style="clip-path:url(#SVGID_00000004513263737547198370000017160475076075196350_);fill:#E42521;" d="M870.32,170.22
		c0.36-0.05,0.72-0.11,1.08-0.15C871.03,170.11,870.68,170.17,870.32,170.22"/>
	<path style="clip-path:url(#SVGID_00000004513263737547198370000017160475076075196350_);fill:#E42521;" d="M877.06,169.76h-0.31
		c-0.05,0-0.09,0-0.14,0c0.48,0,0.95,0.03,1.42,0.04C877.7,169.8,877.39,169.76,877.06,169.76"/>
</g>
<polygon class="st3" points="433.11,264.69 433.11,218.75 433.12,218.75 433.13,218.75 433.13,142.25 433.12,142.25 402.37,142.25 
	402.36,142.25 402.36,218.75 402.36,295.25 494.62,295.25 494.62,264.69 "/>
<g>
	<defs>
		<path id="SVGID_00000091012341931292563350000009370112547666622867_" d="M1169.54,291.71h-139.79l6.86-15.35h126.12
			L1169.54,291.71z M1099.81,202.28l-19.27,43.39h38.52L1099.81,202.28z"/>
	</defs>
	<clipPath id="SVGID_00000139293420684251286230000018256055597455955873_">
		<use xlink:href="#SVGID_00000091012341931292563350000009370112547666622867_"  style="overflow:visible;"/>
	</clipPath>
	
		<linearGradient id="SVGID_00000135674937264250764100000003776456184188424337_" gradientUnits="userSpaceOnUse" x1="-2019.9126" y1="1225.6765" x2="-2019.2683" y2="1225.6765" gradientTransform="matrix(0 138.8077 138.8077 0 -169033.7031 280581.7188)">
		<stop  offset="0" style="stop-color:#ECECEC"/>
		<stop  offset="0.4297" style="stop-color:#D5D4D5"/>
		<stop  offset="1" style="stop-color:#B2B2B2"/>
		<stop  offset="1" style="stop-color:#B2B2B2"/>
	</linearGradient>
	
		<rect x="1029.75" y="202.28" style="clip-path:url(#SVGID_00000139293420684251286230000018256055597455955873_);fill:url(#SVGID_00000135674937264250764100000003776456184188424337_);" width="139.79" height="89.43"/>
</g>
<path class="st47" d="M1149.12,245.67l-22.09-49.8l-12.18-27.46l-14.67-33.06h-0.74l-14.67,33.06l-10.83,24.42l-0.61,1.4l-0.75,1.65
	l-22.25,49.8l-13.72,30.69h126.12L1149.12,245.67z M1080.54,245.67l19.27-43.39l19.25,43.39H1080.54z"/>
<g>
	<defs>
		<rect id="SVGID_00000167384753602001816960000008437394573483601797_" x="39.41" y="-425.94" width="1288.53" height="1288.53"/>
	</defs>
	<clipPath id="SVGID_00000134210870230722265570000010240140032664191156_">
		<use xlink:href="#SVGID_00000167384753602001816960000008437394573483601797_"  style="overflow:visible;"/>
	</clipPath>
	<path style="clip-path:url(#SVGID_00000134210870230722265570000010240140032664191156_);fill:#020203;" d="M1014.36,236.4
		c8.66-3.43,12.93-6.61,18.28-14.13c6.43-9.09,9.66-18.78,9.66-29.06v-3.97c0-16.9-5.46-25.36-14.78-34.66
		c-9.21-9.12-22.95-15.55-39.94-15.55h-19.04v30.38h4.54v0.04h12.61c7.38,0,14.96,2.19,18.93,6.05c4.04,4.24,6.07,9.12,6.07,14.69
		c0,11.62-9,21.48-20.17,21.48h-10.25v-0.09h-7.19v0.09h-4.54v12.5l43.85,67.54h37.5L1014.36,236.4z"/>
</g>
<g>
	<defs>
		<path id="SVGID_00000016062184667050730280000017520823566701886606_" d="M937.75,139.03l0.09,152.68h74.53l-43.84-67.54v-12.5
			h4.54v-0.09h7.19v0.09h10.25c11.17,0,20.17-9.86,20.17-21.48c0-5.57-2.03-10.45-6.07-14.69c-3.97-3.86-11.55-6.05-18.93-6.05
			h-12.61v-0.04h-4.54v-30.38H937.75z"/>
	</defs>
	<clipPath id="SVGID_00000058558041895522214930000008016534424411584142_">
		<use xlink:href="#SVGID_00000016062184667050730280000017520823566701886606_"  style="overflow:visible;"/>
	</clipPath>
	
		<linearGradient id="SVGID_00000160879786559590087170000010156811713037636268_" gradientUnits="userSpaceOnUse" x1="-2006.5028" y1="1215.0153" x2="-2005.8586" y2="1215.0153" gradientTransform="matrix(115.8302 0 0 -115.8302 233351.375 140950.8281)">
		<stop  offset="0" style="stop-color:#ECECEC"/>
		<stop  offset="0.4297" style="stop-color:#D5D4D5"/>
		<stop  offset="1" style="stop-color:#B2B2B2"/>
		<stop  offset="1" style="stop-color:#B2B2B2"/>
	</linearGradient>
	
		<rect x="937.75" y="139.03" style="clip-path:url(#SVGID_00000058558041895522214930000008016534424411584142_);fill:url(#SVGID_00000160879786559590087170000010156811713037636268_);" width="74.63" height="152.68"/>
</g>
<g>
	<defs>
		<path id="SVGID_00000178171054737061341140000005060336359061080756_" d="M896.9,174.48c-6.05-2.89-12.66-4.33-19.86-4.33
			c-12.98,0-23.99,4.56-32.97,13.7c-6.93,7.02-11.19,15.03-12.86,24.03h-0.43v0c-0.54,2.91-0.81,5.91-0.81,9.05
			c0,0.43,0,0.84,0.02,1.26h-30.65c0.74,42.32,35.25,76.41,77.75,76.41c42.5,0,77.01-34.09,77.75-76.41h-30.66
			c0.02-0.41,0.02-0.83,0.02-1.26c0-12.95-4.63-24.08-13.85-33.33c-8.61-8.61-18.85-13.16-30.65-13.76
			C885.83,170.26,891.63,171.86,896.9,174.48"/>
	</defs>
	<clipPath id="SVGID_00000036223829795722226550000005983499638664958118_">
		<use xlink:href="#SVGID_00000178171054737061341140000005060336359061080756_"  style="overflow:visible;"/>
	</clipPath>
	
		<linearGradient id="SVGID_00000042696135065378250510000009341530207432355774_" gradientUnits="userSpaceOnUse" x1="-2013.2059" y1="1215.0758" x2="-2012.5616" y2="1215.0758" gradientTransform="matrix(241.3572 0 0 -241.3572 486701.0938 293499.5312)">
		<stop  offset="0" style="stop-color:#ECECEC"/>
		<stop  offset="0.4297" style="stop-color:#D5D4D5"/>
		<stop  offset="1" style="stop-color:#B2B2B2"/>
		<stop  offset="1" style="stop-color:#B2B2B2"/>
	</linearGradient>
	
		<rect x="799.34" y="169.84" style="clip-path:url(#SVGID_00000036223829795722226550000005983499638664958118_);fill:url(#SVGID_00000042696135065378250510000009341530207432355774_);" width="155.5" height="124.76"/>
</g>
<g>
	<defs>
		<rect id="SVGID_00000091708859132465739250000009153309998694299831_" x="39.41" y="-425.94" width="1288.53" height="1288.53"/>
	</defs>
	<clipPath id="SVGID_00000140734375785543554850000013688723812983394446_">
		<use xlink:href="#SVGID_00000091708859132465739250000009153309998694299831_"  style="overflow:visible;"/>
	</clipPath>
	<path style="clip-path:url(#SVGID_00000140734375785543554850000013688723812983394446_);fill:#E52721;" d="M954.87,216.81
		c0-0.49-0.03-0.96-0.04-1.45c0.01,0.51,0.03,1.02,0.03,1.53C954.87,216.87,954.87,216.84,954.87,216.81"/>
	<path style="clip-path:url(#SVGID_00000140734375785543554850000013688723812983394446_);fill:#E52721;" d="M954.75,212.48
		c0.01,0.13,0.02,0.26,0.03,0.39C954.77,212.73,954.75,212.61,954.75,212.48"/>
	<path style="clip-path:url(#SVGID_00000140734375785543554850000013688723812983394446_);fill:#E52721;" d="M799.41,212.87
		c0.01-0.14,0.02-0.28,0.03-0.43C799.43,212.59,799.41,212.73,799.41,212.87"/>
	<path style="clip-path:url(#SVGID_00000140734375785543554850000013688723812983394446_);fill:#E52721;" d="M799.31,216.81
		c0,0.03,0,0.06,0,0.09c0-0.51,0.02-1.01,0.03-1.52C799.33,215.86,799.31,216.33,799.31,216.81"/>
	<path style="clip-path:url(#SVGID_00000140734375785543554850000013688723812983394446_);fill:#0F2B42;" d="M844.08,183.84
		c8.98-9.14,19.99-13.7,32.97-13.7c7.2,0,13.81,1.44,19.86,4.33c-5.27-2.62-11.07-4.22-17.2-4.64c-0.55-0.03-1.1-0.07-1.66-0.08
		c-0.47-0.02-0.95-0.04-1.42-0.04c-0.12,0-0.23,0.01-0.35,0.01c-0.89,0-1.76,0.06-2.63,0.12c-0.75,0.05-1.5,0.1-2.23,0.18
		c-0.36,0.04-0.72,0.1-1.08,0.15c-0.87,0.12-1.74,0.23-2.59,0.39c-0.04,0.01-0.08,0.02-0.12,0.03c-1.39,0.28-2.77,0.61-4.12,1.01
		c-0.4,0.12-0.79,0.26-1.18,0.38c-6.81,2.25-13.01,6.09-18.52,11.61c-7,7.06-11.33,15.14-13,24.28h0.43
		C832.88,198.87,837.15,190.86,844.08,183.84"/>
	<path style="clip-path:url(#SVGID_00000140734375785543554850000013688723812983394446_);fill:#020203;" d="M954.84,215.36
		c-0.02-0.83-0.02-1.67-0.06-2.5c-0.01-0.13-0.02-0.26-0.03-0.39c-0.68-13.11-4.34-25.02-10.98-35.73
		c-3.23-5.2-7.14-10.13-11.77-14.77c-4.68-4.68-9.65-8.64-14.91-11.88c-9.24-5.71-19.38-9.19-30.39-10.45
		c-3.15-0.36-6.36-0.57-9.65-0.57c-2.9,0-5.75,0.15-8.54,0.44c-12.65,1.28-24.14,5.45-34.48,12.53c-4.15,2.84-8.12,6.16-11.9,9.94
		c-4.57,4.61-8.44,9.49-11.63,14.64c-6.68,10.76-10.37,22.7-11.05,35.83c-0.01,0.14-0.02,0.28-0.03,0.43
		c-0.04,0.83-0.05,1.67-0.06,2.51c-0.01,0.51-0.03,1.01-0.03,1.52c0,0.03,0,0.06,0,0.1c0,0.41,0,0.81,0.02,1.2h0.01H830
		c-0.02-0.43-0.02-0.83-0.02-1.26c0-3.14,0.27-6.14,0.81-9.05v0c1.67-9.14,6-17.22,13-24.28c5.51-5.51,11.71-9.36,18.52-11.61
		c0.33-0.11,0.65-0.23,0.98-0.33c0.07-0.02,0.14-0.03,0.21-0.05c1.35-0.39,2.73-0.73,4.12-1.01c0.03-0.01,0.07-0.02,0.1-0.03
		c0.01,0,0.02,0,0.02,0c0.85-0.16,1.72-0.28,2.59-0.39c0.36-0.05,0.72-0.11,1.08-0.15c0.74-0.08,1.49-0.13,2.23-0.18
		c0.34-0.02,0.68-0.07,1.02-0.08c0.54-0.02,1.07-0.03,1.61-0.03c0.12,0,0.23-0.01,0.35-0.01c0.05,0,0.09,0,0.14,0h0.31
		c0.33,0,0.64,0.04,0.97,0.04c0.56,0.01,1.11,0.05,1.66,0.08c11.8,0.59,22.04,5.14,30.65,13.76c9.23,9.25,13.86,20.38,13.86,33.33
		c0,0.43,0,0.86-0.02,1.26h30.65h0.01c0.02-0.38,0.02-0.79,0.02-1.2c0-0.03,0-0.06,0-0.1C954.87,216.38,954.85,215.87,954.84,215.36
		"/>
</g>
<g>
	<defs>
		<path id="SVGID_00000091013168877571411620000009315472511522744496_" d="M689.43,140.91V294h30.69v-30.69h10.27
			c27.62,0,45.61-18.32,45.61-45.99c0-27.42-18.3-45.99-45.9-45.99h-9.97v-30.42H689.43z"/>
	</defs>
	<clipPath id="SVGID_00000057140410739116494410000002048948432233558719_">
		<use xlink:href="#SVGID_00000091013168877571411620000009315472511522744496_"  style="overflow:visible;"/>
	</clipPath>
	
		<linearGradient id="SVGID_00000024711116070020651390000004747194636376563332_" gradientUnits="userSpaceOnUse" x1="-2019.8064" y1="1222.1135" x2="-2019.1621" y2="1222.1135" gradientTransform="matrix(0 237.6115 237.6115 0 -289655.5 480070.0938)">
		<stop  offset="0" style="stop-color:#ECECEC"/>
		<stop  offset="0.4297" style="stop-color:#D5D4D5"/>
		<stop  offset="1" style="stop-color:#B2B2B2"/>
		<stop  offset="1" style="stop-color:#B2B2B2"/>
	</linearGradient>
	
		<rect x="689.43" y="140.91" style="clip-path:url(#SVGID_00000057140410739116494410000002048948432233558719_);fill:url(#SVGID_00000024711116070020651390000004747194636376563332_);" width="86.56" height="153.09"/>
</g>
<g>
	<defs>
		<rect id="SVGID_00000046306036549086379850000017214949429429627830_" x="39.41" y="-425.94" width="1288.53" height="1288.53"/>
	</defs>
	<clipPath id="SVGID_00000033333290145567770020000008333234373046782907_">
		<use xlink:href="#SVGID_00000046306036549086379850000017214949429429627830_"  style="overflow:visible;"/>
	</clipPath>
	<path style="clip-path:url(#SVGID_00000033333290145567770020000008333234373046782907_);fill:#020203;" d="M786.17,163.34
		c-2.64-2.62-5.51-5.1-8.6-7.36c-11.42-8.46-26-14.31-43.48-15.07c-1.29-0.07-2.6-0.09-3.9-0.09v0.09h-10.06v30.42h9.97
		c27.6,0,45.9,18.57,45.9,45.99c0,27.67-17.99,45.99-45.61,45.99h-10.27V294h10.06c18.19,0,33.98-4.99,47.39-15.01
		c2.98-2.21,5.84-4.69,8.6-7.42c13.68-13.61,20.53-31.62,20.53-54.02C806.7,195.16,799.84,177.08,786.17,163.34"/>
</g>
<g>
	<defs>
		<polygon id="SVGID_00000133522874597773221040000005226849943532945825_" points="325.56,171.03 325.56,201.92 371.73,201.92 
			371.73,232.61 294.77,232.61 294.77,294.19 387.14,294.19 387.14,171.03 		"/>
	</defs>
	<clipPath id="SVGID_00000163040318543086010260000012506564001158914966_">
		<use xlink:href="#SVGID_00000133522874597773221040000005226849943532945825_"  style="overflow:visible;"/>
	</clipPath>
	
		<linearGradient id="SVGID_00000175303343158942063660000007244954685535005873_" gradientUnits="userSpaceOnUse" x1="-2006.6198" y1="1215.0897" x2="-2005.9756" y2="1215.0897" gradientTransform="matrix(143.3766 0 0 -143.3766 287997.1562 174448.0938)">
		<stop  offset="0" style="stop-color:#ECECEC"/>
		<stop  offset="0.4297" style="stop-color:#D5D4D5"/>
		<stop  offset="1" style="stop-color:#B2B2B2"/>
		<stop  offset="1" style="stop-color:#B2B2B2"/>
	</linearGradient>
	
		<rect x="294.77" y="171.03" style="clip-path:url(#SVGID_00000163040318543086010260000012506564001158914966_);fill:url(#SVGID_00000175303343158942063660000007244954685535005873_);" width="92.37" height="123.16"/>
</g>
<g>
	<defs>
		<rect id="SVGID_00000062910897274367417870000009439824808224098204_" x="39.41" y="-425.94" width="1288.53" height="1288.53"/>
	</defs>
	<clipPath id="SVGID_00000138533118496907454790000010233171478298724538_">
		<use xlink:href="#SVGID_00000062910897274367417870000009439824808224098204_"  style="overflow:visible;"/>
	</clipPath>
	<polygon style="clip-path:url(#SVGID_00000138533118496907454790000010233171478298724538_);fill:#020203;" points="387.13,170.94 
		387.14,170.94 387.14,140.35 294.76,140.35 294.76,201.98 294.76,232.53 294.76,294.16 387.14,294.16 387.14,263.56 387.13,263.56 
		325.56,263.56 325.56,232.66 371.73,232.66 371.73,232.53 371.73,201.98 371.73,201.84 325.56,201.84 325.56,170.94 	"/>
</g>
<g>
	<defs>
		<path id="SVGID_00000119085093354336220860000011573153530949628846_" d="M199.64,232.61v61.38h-30.7V294h112.61v-0.01h-30.69
			v-61.38H199.64z M168.94,202.15h112.61V140.8H168.94V202.15z"/>
	</defs>
	<clipPath id="SVGID_00000067220657538314891880000005231810748414215341_">
		<use xlink:href="#SVGID_00000119085093354336220860000011573153530949628846_"  style="overflow:visible;"/>
	</clipPath>
	
		<linearGradient id="SVGID_00000168831006533719439550000003070880081262163853_" gradientUnits="userSpaceOnUse" x1="-2019.8063" y1="1223.287" x2="-2019.162" y2="1223.287" gradientTransform="matrix(0 237.7812 237.7812 0 -290649.4062 480412.75)">
		<stop  offset="0" style="stop-color:#ECECEC"/>
		<stop  offset="0.4297" style="stop-color:#D5D4D5"/>
		<stop  offset="1" style="stop-color:#B2B2B2"/>
		<stop  offset="1" style="stop-color:#B2B2B2"/>
	</linearGradient>
	
		<rect x="168.94" y="140.8" style="clip-path:url(#SVGID_00000067220657538314891880000005231810748414215341_);fill:url(#SVGID_00000168831006533719439550000003070880081262163853_);" width="112.61" height="153.19"/>
</g>
<g>
	<defs>
		<rect id="SVGID_00000127737466258031373310000006513079389892994964_" x="39.41" y="-425.94" width="1288.53" height="1288.53"/>
	</defs>
	<clipPath id="SVGID_00000005964311496364116140000015517840555361524405_">
		<use xlink:href="#SVGID_00000127737466258031373310000006513079389892994964_"  style="overflow:visible;"/>
	</clipPath>
	<polygon style="clip-path:url(#SVGID_00000005964311496364116140000015517840555361524405_);fill:#020203;" points="281.56,140.8 
		281.56,140.8 250.87,140.8 250.87,202.15 199.65,202.15 199.65,140.8 168.94,140.8 168.93,140.8 168.93,202.15 168.93,202.15 
		168.93,293.99 168.94,293.99 199.64,293.99 199.64,232.65 250.87,232.65 250.87,293.99 281.55,293.99 281.56,293.99 281.56,232.65 
		281.56,232.65 	"/>
</g>
<g>
	<defs>
		<rect id="SVGID_00000181789348227977629240000011116941099640226447_" x="507.3" y="217.4" width="30.79" height="76.6"/>
	</defs>
	<clipPath id="SVGID_00000013166000545589337700000003835874795802250629_">
		<use xlink:href="#SVGID_00000181789348227977629240000011116941099640226447_"  style="overflow:visible;"/>
	</clipPath>
	
		<linearGradient id="SVGID_00000144318582433907651450000016993340761241366453_" gradientUnits="userSpaceOnUse" x1="-2019.9683" y1="1230.1349" x2="-2019.324" y2="1230.1349" gradientTransform="matrix(0 118.8907 118.8907 0 -145728.8438 240372.75)">
		<stop  offset="0" style="stop-color:#ECECEC"/>
		<stop  offset="0.4297" style="stop-color:#D5D4D5"/>
		<stop  offset="1" style="stop-color:#B2B2B2"/>
		<stop  offset="1" style="stop-color:#B2B2B2"/>
	</linearGradient>
	
		<rect x="507.3" y="217.4" style="clip-path:url(#SVGID_00000013166000545589337700000003835874795802250629_);fill:url(#SVGID_00000144318582433907651450000016993340761241366453_);" width="30.79" height="76.6"/>
</g>
<g>
	<defs>
		<rect id="SVGID_00000023961873564322954690000011029527095805333421_" x="39.41" y="-425.94" width="1288.53" height="1288.53"/>
	</defs>
	<clipPath id="SVGID_00000176740847194811280150000003708531382075135888_">
		<use xlink:href="#SVGID_00000023961873564322954690000011029527095805333421_"  style="overflow:visible;"/>
	</clipPath>
	<polygon style="clip-path:url(#SVGID_00000176740847194811280150000003708531382075135888_);fill:#020203;" points="538.09,140.81 
		507.3,140.81 507.3,140.81 507.3,217.4 507.3,217.4 538.09,217.4 538.1,217.4 538.1,140.81 	"/>
</g>
<g>
	<defs>
		<path id="SVGID_00000175285960332402796260000004427466232991782286_" d="M649.92,173.88c-6.05-2.89-12.66-4.33-19.86-4.33
			c-12.98,0-23.99,4.56-32.97,13.7c-6.93,7.02-11.19,15.03-12.86,24.03h-0.43v0c-0.54,2.91-0.81,5.91-0.81,9.05
			c0,0.43,0,0.84,0.02,1.26h-30.65c0.74,42.32,35.25,76.41,77.75,76.41c42.5,0,77.01-34.09,77.75-76.41H677.2
			c0.02-0.41,0.02-0.83,0.02-1.26c0-12.95-4.63-24.08-13.85-33.33c-8.61-8.61-18.85-13.16-30.65-13.76
			C638.84,169.66,644.64,171.26,649.92,173.88"/>
	</defs>
	<clipPath id="SVGID_00000041274055390674969630000004743351412438771100_">
		<use xlink:href="#SVGID_00000175285960332402796260000004427466232991782286_"  style="overflow:visible;"/>
	</clipPath>
	
		<linearGradient id="SVGID_00000023976833794143888920000010419740290073583021_" gradientUnits="userSpaceOnUse" x1="-2019.8431" y1="1224.0083" x2="-2019.1989" y2="1224.0083" gradientTransform="matrix(0 193.6439 193.6439 0 -236391.5938 391299.5)">
		<stop  offset="0" style="stop-color:#ECECEC"/>
		<stop  offset="0.4297" style="stop-color:#D5D4D5"/>
		<stop  offset="1" style="stop-color:#B2B2B2"/>
		<stop  offset="1" style="stop-color:#B2B2B2"/>
	</linearGradient>
	
		<rect x="552.36" y="169.24" style="clip-path:url(#SVGID_00000041274055390674969630000004743351412438771100_);fill:url(#SVGID_00000023976833794143888920000010419740290073583021_);" width="155.5" height="124.76"/>
</g>
<g>
	<defs>
		<rect id="SVGID_00000059309582942491854910000012651633793808007571_" x="39.41" y="-425.94" width="1288.53" height="1288.53"/>
	</defs>
	<clipPath id="SVGID_00000121993416358957046460000000619025162014690688_">
		<use xlink:href="#SVGID_00000059309582942491854910000012651633793808007571_"  style="overflow:visible;"/>
	</clipPath>
	<path style="clip-path:url(#SVGID_00000121993416358957046460000000619025162014690688_);fill:#E52721;" d="M707.89,216.21
		c0-0.49-0.03-0.96-0.04-1.45c0.01,0.51,0.03,1.02,0.03,1.53C707.89,216.27,707.89,216.24,707.89,216.21"/>
	<path style="clip-path:url(#SVGID_00000121993416358957046460000000619025162014690688_);fill:#E52721;" d="M707.76,211.88
		c0.01,0.13,0.02,0.26,0.03,0.39C707.78,212.14,707.77,212.01,707.76,211.88"/>
	<path style="clip-path:url(#SVGID_00000121993416358957046460000000619025162014690688_);fill:#E52721;" d="M552.42,212.27
		c0.01-0.14,0.02-0.28,0.03-0.43C552.44,211.99,552.43,212.13,552.42,212.27"/>
	<path style="clip-path:url(#SVGID_00000121993416358957046460000000619025162014690688_);fill:#E52721;" d="M552.32,216.21
		c0,0.03,0,0.06,0,0.09c0-0.51,0.02-1.01,0.03-1.52C552.35,215.26,552.32,215.73,552.32,216.21"/>
	<path style="clip-path:url(#SVGID_00000121993416358957046460000000619025162014690688_);fill:#0F2B42;" d="M597.09,183.24
		c8.98-9.14,19.99-13.7,32.97-13.7c7.2,0,13.81,1.44,19.86,4.33c-5.27-2.62-11.07-4.22-17.2-4.64c-0.55-0.03-1.1-0.07-1.66-0.08
		c-0.47-0.02-0.95-0.04-1.42-0.04c-0.12,0-0.23,0.01-0.35,0.01c-0.89,0-1.76,0.06-2.63,0.12c-0.75,0.05-1.5,0.1-2.23,0.18
		c-0.36,0.04-0.72,0.1-1.08,0.15c-0.87,0.12-1.74,0.23-2.59,0.39c-0.04,0.01-0.08,0.02-0.12,0.03c-1.39,0.28-2.77,0.61-4.11,1.01
		c-0.4,0.12-0.79,0.26-1.18,0.38c-6.81,2.25-13.01,6.09-18.52,11.61c-7,7.06-11.33,15.14-13,24.28h0.43
		C585.9,198.27,590.16,190.26,597.09,183.24"/>
	<path style="clip-path:url(#SVGID_00000121993416358957046460000000619025162014690688_);fill:#020203;" d="M707.85,214.76
		c-0.02-0.83-0.02-1.67-0.06-2.5c-0.01-0.13-0.02-0.26-0.03-0.39c-0.68-13.11-4.34-25.02-10.98-35.73
		c-3.23-5.2-7.14-10.13-11.77-14.77c-4.68-4.68-9.65-8.64-14.91-11.88c-9.24-5.71-19.38-9.19-30.39-10.45
		c-3.15-0.36-6.36-0.57-9.65-0.57c-2.9,0-5.75,0.15-8.54,0.44c-12.65,1.28-24.14,5.45-34.48,12.53c-4.15,2.84-8.12,6.16-11.9,9.94
		c-4.57,4.61-8.44,9.49-11.63,14.64c-6.68,10.76-10.37,22.7-11.05,35.83c-0.01,0.14-0.02,0.28-0.03,0.43
		c-0.04,0.83-0.05,1.67-0.06,2.51c-0.01,0.51-0.03,1.01-0.03,1.52c0,0.03,0,0.06,0,0.1c0,0.41,0,0.81,0.02,1.2h0.01h30.65
		c-0.02-0.43-0.02-0.83-0.02-1.26c0-3.14,0.27-6.14,0.81-9.05v0c1.67-9.14,6-17.22,13-24.28c5.51-5.51,11.71-9.36,18.52-11.61
		c0.33-0.11,0.65-0.23,0.98-0.33c0.07-0.02,0.14-0.03,0.21-0.05c1.35-0.39,2.73-0.73,4.12-1.01c0.03-0.01,0.07-0.02,0.1-0.03
		c0.01,0,0.02,0,0.02,0c0.85-0.16,1.72-0.28,2.59-0.39c0.36-0.05,0.72-0.11,1.08-0.15c0.74-0.08,1.49-0.13,2.23-0.18
		c0.34-0.02,0.68-0.07,1.02-0.08c0.54-0.02,1.08-0.03,1.61-0.03c0.12,0,0.23-0.01,0.35-0.01c0.05,0,0.09,0,0.14,0h0.31
		c0.33,0,0.64,0.04,0.97,0.04c0.56,0.01,1.11,0.05,1.66,0.08c11.8,0.6,22.04,5.14,30.65,13.76c9.23,9.25,13.86,20.38,13.86,33.33
		c0,0.43,0,0.86-0.02,1.26h30.65h0.01c0.02-0.38,0.02-0.79,0.02-1.2c0-0.03,0-0.06,0-0.1C707.89,215.78,707.86,215.28,707.85,214.76
		"/>
</g>
<g>
	<defs>
		<path id="SVGID_00000043446810512039093980000008175584227698841780_" d="M401.83,218.77h30.78v45.99h61.58v30.6h-92.36V218.77z
			 M401.82,295.36h92.37V142.17h-92.37V295.36z"/>
	</defs>
	<clipPath id="SVGID_00000140731348059591084750000013428557164119243167_">
		<use xlink:href="#SVGID_00000043446810512039093980000008175584227698841780_"  style="overflow:visible;"/>
	</clipPath>
	
		<linearGradient id="SVGID_00000155146081466808492920000005107372242216073123_" gradientUnits="userSpaceOnUse" x1="-2007.0322" y1="1215.0365" x2="-2006.3879" y2="1215.0365" gradientTransform="matrix(143.3777 0 0 -143.3777 288165.4688 174427.875)">
		<stop  offset="0" style="stop-color:#ECECEC"/>
		<stop  offset="0.4297" style="stop-color:#D5D4D5"/>
		<stop  offset="1" style="stop-color:#B2B2B2"/>
		<stop  offset="1" style="stop-color:#B2B2B2"/>
	</linearGradient>
	
		<rect x="401.82" y="142.17" style="clip-path:url(#SVGID_00000140731348059591084750000013428557164119243167_);fill:url(#SVGID_00000155146081466808492920000005107372242216073123_);" width="92.37" height="153.19"/>
</g>
<g>
	<defs>
		<rect id="SVGID_00000156551876672487457760000014097986093506831537_" x="39.41" y="-425.94" width="1288.53" height="1288.53"/>
	</defs>
	<clipPath id="SVGID_00000180355125011890418180000007941387919474785962_">
		<use xlink:href="#SVGID_00000156551876672487457760000014097986093506831537_"  style="overflow:visible;"/>
	</clipPath>
	<polygon style="clip-path:url(#SVGID_00000180355125011890418180000007941387919474785962_);fill:#020203;" points="432.61,264.76 
		432.61,218.77 432.62,218.77 432.63,218.77 432.63,142.18 432.62,142.18 401.83,142.18 401.83,142.18 401.83,218.77 401.83,295.35 
		494.19,295.35 494.19,264.76 	"/>
</g>
</svg>
