<?xml version="1.0" encoding="UTF-8" standalone="no"?>
<!DOCTYPE svg PUBLIC "-//W3C//DTD SVG 1.0//EN" "http://www.w3.org/TR/2001/REC-SVG-20010904/DTD/svg10.dtd">
<svg xmlns="http://www.w3.org/2000/svg" version="1.0" viewBox="0.00 0.00 843.00 596.00">
<g>
<path fill="#ffffff" d="
  M 340.50 225.34
  C 340.59 229.48 344.08 229.58 347.66 227.88
  C 347.81 227.81 347.98 227.92 347.98 228.08
  L 347.98 232.18
  C 347.98 232.29 347.91 232.40 347.80 232.43
  C 341.42 234.73 336.38 232.19 336.23 225.43
  C 336.08 218.67 341.00 215.91 347.48 217.92
  C 347.59 217.95 347.66 218.05 347.67 218.17
  L 347.85 222.26
  C 347.86 222.42 347.69 222.54 347.54 222.48
  C 343.89 220.94 340.41 221.19 340.50 225.34
  Z"
/>
<path fill="#ffffff" d="
  M 107.18 217.47
  C 109.72 218.12 114.35 216.12 117.09 219.33
  C 120.88 223.74 117.33 230.19 111.46 229.20
  C 111.09 229.14 110.75 229.42 110.75 229.79
  L 110.75 232.55
  C 110.75 232.80 110.55 233.00 110.30 233.00
  L 107.01 233.00
  C 106.72 233.00 106.49 232.76 106.49 232.47
  L 106.51 217.98
  C 106.51 217.64 106.84 217.38 107.18 217.47
  Z
  M 110.75 221.93
  L 110.73 224.81
  C 110.73 225.06 110.93 225.25 111.17 225.26
  L 111.55 225.26
  C 113.00 225.26 114.18 224.48 114.18 223.52
  L 114.18 223.26
  C 114.18 222.29 113.01 221.50 111.57 221.50
  L 111.19 221.50
  C 110.94 221.49 110.75 221.69 110.75 221.93
  Z"
/>
<path fill="#ffffff" d="
  M 122.53 218.21
  C 122.54 217.80 122.86 217.47 123.27 217.46
  C 126.06 217.36 132.69 216.65 134.02 220.10
  C 135.13 222.94 134.57 225.12 132.35 226.63
  C 132.01 226.85 131.93 227.31 132.15 227.66
  L 135.17 232.33
  C 135.36 232.62 135.15 233.01 134.80 233.01
  L 131.21 233.01
  C 130.95 233.01 130.71 232.87 130.56 232.65
  L 127.53 227.96
  C 127.29 227.59 126.72 227.76 126.72 228.20
  L 126.71 232.61
  C 126.71 232.84 126.52 233.03 126.29 233.03
  L 123.00 233.03
  C 122.74 233.03 122.52 232.81 122.52 232.55
  L 122.53 218.21
  Z
  M 126.74 221.94
  L 126.74 223.50
  C 126.75 223.76 126.96 223.97 127.22 223.97
  L 128.15 223.96
  C 129.28 223.96 130.20 223.44 130.20 222.81
  L 130.20 222.59
  C 130.20 221.96 129.27 221.46 128.13 221.46
  L 127.20 221.47
  C 126.94 221.47 126.73 221.68 126.74 221.94
  Z"
/>
<path fill="#ffffff" d="
  M 139.25 225.32
  C 139.21 221.22 139.18 218.87 139.18 218.29
  C 139.18 217.91 139.48 217.59 139.86 217.59
  L 150.53 217.39
  C 150.79 217.39 151.01 217.60 151.01 217.86
  L 151.07 221.00
  C 151.07 221.24 150.88 221.44 150.64 221.44
  L 143.91 221.56
  C 143.53 221.57 143.23 221.89 143.24 222.27
  L 143.25 222.61
  C 143.25 222.97 143.55 223.25 143.90 223.24
  L 150.29 223.13
  C 150.64 223.12 150.93 223.39 150.95 223.73
  C 150.97 223.94 150.98 224.42 150.99 225.19
  C 151.00 225.95 151.00 226.44 150.99 226.65
  C 150.97 226.99 150.68 227.26 150.34 227.27
  L 143.95 227.29
  C 143.59 227.30 143.31 227.59 143.31 227.94
  L 143.31 228.28
  C 143.31 228.66 143.62 228.97 144.00 228.97
  L 150.73 228.94
  C 150.97 228.94 151.16 229.13 151.16 229.37
  L 151.18 232.52
  C 151.18 232.78 150.97 232.99 150.71 232.99
  L 140.03 233.04
  C 139.66 233.04 139.34 232.74 139.34 232.36
  C 139.33 231.77 139.30 229.43 139.25 225.32
  Z"
/>
<path fill="#ffffff" d="
  M 159.75 227.60
  L 159.75 232.63
  C 159.75 232.82 159.59 232.98 159.40 232.98
  L 155.85 232.98
  C 155.66 232.98 155.50 232.82 155.50 232.63
  L 155.50 217.89
  C 155.50 217.70 155.66 217.54 155.85 217.54
  L 166.90 217.54
  C 167.09 217.54 167.25 217.70 167.25 217.89
  L 167.25 221.14
  C 167.25 221.33 167.09 221.49 166.90 221.49
  L 160.07 221.49
  C 159.88 221.49 159.72 221.65 159.72 221.84
  L 159.72 222.90
  C 159.72 223.09 159.88 223.25 160.07 223.25
  L 166.89 223.25
  C 167.08 223.25 167.24 223.41 167.24 223.60
  L 167.24 226.90
  C 167.24 227.09 167.08 227.25 166.89 227.25
  L 160.10 227.25
  C 159.91 227.25 159.75 227.41 159.75 227.60
  Z"
/>
<path fill="#ffffff" d="
  M 183.20 225.24
  C 183.20 226.00 183.20 226.48 183.19 226.69
  C 183.17 227.03 182.88 227.30 182.54 227.30
  L 176.18 227.30
  C 175.83 227.30 175.54 227.59 175.54 227.94
  L 175.54 228.28
  C 175.54 228.66 175.84 228.97 176.22 228.97
  L 182.92 228.97
  C 183.16 228.97 183.35 229.16 183.35 229.40
  L 183.35 232.53
  C 183.35 232.79 183.14 233.00 182.88 233.00
  L 172.26 233.00
  C 171.88 233.00 171.58 232.70 171.57 232.32
  C 171.56 231.74 171.54 229.40 171.52 225.32
  C 171.49 221.23 171.47 218.90 171.47 218.31
  C 171.47 217.94 171.78 217.63 172.15 217.62
  L 182.77 217.48
  C 183.03 217.47 183.25 217.68 183.25 217.94
  L 183.29 221.07
  C 183.30 221.31 183.11 221.50 182.87 221.51
  L 176.17 221.60
  C 175.79 221.60 175.49 221.92 175.50 222.30
  L 175.50 222.64
  C 175.51 222.99 175.80 223.27 176.15 223.27
  L 182.51 223.18
  C 182.85 223.18 183.14 223.44 183.17 223.79
  C 183.18 223.99 183.19 224.48 183.20 225.24
  Z"
/>
<rect fill="#ffffff" x="-1.98" y="-7.74" transform="translate(189.99,225.22) rotate(-0.1)" width="3.96" height="15.48" rx="0.57"/>
<path fill="#ffffff" d="
  M 202.00 217.52
  C 203.84 217.55 205.47 217.54 206.87 217.48
  C 207.36 217.46 207.77 217.85 207.77 218.35
  L 207.77 220.95
  C 207.77 221.30 207.49 221.58 207.14 221.58
  L 204.66 221.58
  C 204.33 221.58 204.07 221.85 204.07 222.18
  L 204.07 232.18
  C 204.07 232.61 203.72 232.96 203.29 232.96
  C 203.02 232.96 202.59 232.97 202.00 232.97
  C 201.42 232.97 201.00 232.97 200.73 232.96
  C 200.30 232.96 199.95 232.61 199.95 232.18
  L 199.93 222.18
  C 199.93 221.85 199.66 221.58 199.34 221.58
  L 196.86 221.59
  C 196.51 221.59 196.23 221.31 196.23 220.96
  L 196.22 218.36
  C 196.22 217.86 196.63 217.47 197.13 217.49
  C 198.52 217.55 200.15 217.56 202.00 217.52
  Z"
/>
<path fill="#ffffff" d="
  M 218.28 229.41
  C 219.28 229.40 219.82 228.91 219.90 227.93
  C 220.06 226.05 220.08 222.73 219.95 217.97
  C 219.94 217.69 220.17 217.46 220.45 217.46
  L 223.70 217.46
  C 223.94 217.46 224.14 217.66 224.15 217.90
  C 224.26 222.95 224.28 226.58 224.21 228.78
  C 224.12 231.78 220.96 233.29 218.31 233.30
  C 215.67 233.32 212.50 231.84 212.37 228.84
  C 212.28 226.64 212.27 223.02 212.32 217.96
  C 212.33 217.72 212.52 217.52 212.77 217.52
  L 216.02 217.48
  C 216.30 217.48 216.53 217.71 216.52 217.99
  C 216.45 222.75 216.50 226.07 216.68 227.95
  C 216.77 228.93 217.30 229.41 218.28 229.41
  Z"
/>
<path fill="#ffffff" d="
  M 230.00 217.47
  C 232.79 217.37 239.42 216.65 240.76 220.10
  C 241.87 222.94 241.31 225.12 239.09 226.63
  C 238.76 226.86 238.67 227.31 238.89 227.66
  L 241.92 232.33
  C 242.11 232.62 241.90 233.01 241.55 233.01
  L 237.96 233.01
  C 237.70 233.01 237.45 232.87 237.31 232.65
  L 234.27 227.97
  C 234.03 227.60 233.46 227.77 233.46 228.21
  L 233.46 232.62
  C 233.46 232.85 233.27 233.04 233.04 233.04
  L 229.75 233.04
  C 229.48 233.04 229.27 232.83 229.27 232.56
  L 229.27 218.22
  C 229.27 217.81 229.59 217.48 230.00 217.47
  Z
  M 233.49 221.91
  L 233.49 223.51
  C 233.49 223.77 233.70 223.98 233.96 223.98
  L 234.54 223.98
  C 235.88 223.98 236.97 223.46 236.97 222.83
  L 236.97 222.59
  C 236.97 221.95 235.88 221.44 234.54 221.44
  L 233.96 221.44
  C 233.70 221.44 233.49 221.65 233.49 221.91
  Z"
/>
<path fill="#ffffff" d="
  M 252.51 217.44
  C 253.22 217.44 253.83 217.46 254.32 217.52
  C 254.66 217.56 254.94 217.79 255.04 218.12
  L 259.28 232.41
  C 259.37 232.71 259.14 233.02 258.82 233.02
  L 255.59 233.02
  C 255.25 233.02 254.94 232.80 254.85 232.47
  L 254.49 231.26
  C 254.37 230.86 254.02 230.57 253.60 230.53
  C 253.24 230.50 252.88 230.49 252.51 230.49
  C 252.14 230.49 251.77 230.50 251.41 230.53
  C 250.99 230.57 250.64 230.86 250.52 231.26
  L 250.16 232.47
  C 250.07 232.80 249.77 233.02 249.42 233.02
  L 246.19 233.02
  C 245.87 233.02 245.64 232.71 245.73 232.41
  L 249.98 218.12
  C 250.07 217.79 250.36 217.56 250.69 217.52
  C 251.19 217.46 251.80 217.44 252.51 217.44
  Z
  M 252.58 226.53
  C 252.75 226.52 252.85 226.51 252.87 226.51
  C 253.15 226.43 253.32 226.16 253.27 225.88
  C 252.98 224.32 252.71 223.54 252.46 223.55
  C 252.21 223.56 252.01 224.36 251.84 225.94
  C 251.81 226.22 252.00 226.48 252.28 226.53
  C 252.31 226.53 252.41 226.53 252.58 226.53
  Z"
/>
<path fill="#ffffff" d="
  M 284.59 225.81
  L 282.83 229.76
  C 282.70 230.06 282.40 230.26 282.07 230.26
  L 278.60 230.26
  C 278.11 230.26 277.69 229.94 277.55 229.47
  C 277.22 228.40 276.67 227.16 275.89 225.77
  C 275.77 225.57 275.46 225.65 275.46 225.88
  L 275.46 232.58
  C 275.46 232.81 275.28 232.99 275.06 232.99
  L 271.66 232.99
  C 271.43 232.99 271.24 232.80 271.24 232.57
  L 271.24 218.12
  C 271.24 217.78 271.52 217.50 271.86 217.50
  L 275.95 217.50
  C 276.37 217.50 276.75 217.75 276.92 218.13
  L 280.09 225.27
  C 280.17 225.45 280.43 225.45 280.51 225.27
  L 283.77 217.97
  C 283.89 217.69 284.17 217.51 284.48 217.51
  L 288.68 217.51
  C 288.99 217.51 289.25 217.77 289.25 218.08
  L 289.25 232.54
  C 289.25 232.79 289.04 233.00 288.79 233.00
  L 285.42 233.00
  C 285.17 233.00 284.97 232.80 284.97 232.55
  L 284.97 225.89
  C 284.97 225.67 284.68 225.61 284.59 225.81
  Z"
/>
<path fill="#ffffff" d="
  M 300.10 233.26
  C 297.47 233.27 294.32 231.79 294.20 228.81
  C 294.12 226.62 294.11 223.01 294.18 217.99
  C 294.18 217.74 294.38 217.55 294.62 217.55
  L 297.85 217.52
  C 298.13 217.52 298.36 217.75 298.36 218.02
  C 298.27 222.76 298.31 226.06 298.48 227.93
  C 298.57 228.90 299.12 229.39 300.11 229.38
  C 301.08 229.38 301.61 228.89 301.69 227.92
  C 301.85 226.05 301.88 222.75 301.76 218.02
  C 301.76 217.74 301.98 217.51 302.26 217.51
  L 305.50 217.52
  C 305.74 217.52 305.94 217.71 305.94 217.96
  C 306.04 222.98 306.05 226.59 305.98 228.78
  C 305.88 231.76 302.73 233.25 300.10 233.26
  Z"
/>
<path fill="#ffffff" d="
  M 319.57 217.49
  L 322.93 217.49
  C 323.10 217.49 323.23 217.62 323.23 217.79
  L 323.23 232.71
  C 323.23 232.88 323.10 233.01 322.93 233.01
  L 319.77 233.01
  C 319.67 233.01 319.58 232.96 319.52 232.87
  L 315.53 226.73
  C 315.37 226.48 314.98 226.59 314.98 226.89
  L 314.98 232.71
  C 314.98 232.88 314.85 233.01 314.68 233.01
  L 311.32 233.01
  C 311.15 233.01 311.02 232.88 311.02 232.71
  L 311.02 217.79
  C 311.02 217.62 311.15 217.49 311.32 217.49
  L 314.49 217.49
  C 314.59 217.49 314.68 217.54 314.74 217.63
  L 318.72 223.77
  C 318.88 224.02 319.27 223.90 319.27 223.61
  L 319.27 217.79
  C 319.27 217.62 319.40 217.49 319.57 217.49
  Z"
/>
<rect fill="#ffffff" x="-2.12" y="-7.74" transform="translate(329.87,225.25) rotate(0.1)" width="4.24" height="15.48" rx="0.35"/>
<rect fill="#ffffff" x="352.24" y="217.51" width="4.26" height="15.48" rx="0.35"/>
<path fill="#ffffff" d="
  M 361.00 217.98
  C 361.00 217.63 361.33 217.38 361.67 217.47
  C 364.21 218.11 368.84 216.11 371.58 219.32
  C 375.38 223.73 371.83 230.18 365.96 229.20
  C 365.59 229.13 365.25 229.41 365.25 229.79
  L 365.25 232.55
  C 365.25 232.79 365.05 233.00 364.80 233.00
  L 361.51 233.00
  C 361.22 233.00 360.99 232.76 360.99 232.47
  L 361.00 217.98
  Z
  M 365.29 222.03
  L 365.23 224.69
  C 365.23 225.01 365.48 225.27 365.80 225.28
  L 365.94 225.28
  C 367.45 225.31 368.68 224.51 368.70 223.50
  L 368.70 223.34
  C 368.72 222.33 367.52 221.49 366.02 221.46
  L 365.88 221.46
  C 365.56 221.45 365.29 221.71 365.29 222.03
  Z"
/>
<path fill="#ffffff" d="
  M 381.91 230.48
  C 381.54 230.48 381.18 230.50 380.82 230.53
  C 380.40 230.57 380.05 230.86 379.93 231.25
  L 379.57 232.46
  C 379.48 232.79 379.17 233.01 378.83 233.01
  L 375.60 233.01
  C 375.28 233.01 375.05 232.71 375.14 232.41
  L 379.37 218.13
  C 379.47 217.80 379.75 217.56 380.09 217.52
  C 380.59 217.47 381.19 217.44 381.91 217.44
  C 382.62 217.44 383.22 217.47 383.72 217.52
  C 384.06 217.56 384.34 217.80 384.43 218.12
  L 388.68 232.40
  C 388.77 232.70 388.54 233.01 388.22 233.01
  L 384.99 233.01
  C 384.65 233.01 384.35 232.79 384.25 232.46
  L 383.89 231.25
  C 383.77 230.85 383.42 230.57 383.01 230.53
  C 382.65 230.50 382.28 230.48 381.91 230.48
  Z
  M 381.96 226.77
  C 382.31 226.76 382.47 226.50 382.45 225.99
  C 382.38 224.25 382.19 223.38 381.87 223.39
  C 381.55 223.40 381.40 224.27 381.42 226.01
  C 381.42 226.52 381.60 226.77 381.96 226.77
  Z"
/>
<path fill="#ffffff" d="
  M 397.43 228.88
  L 404.46 228.88
  C 404.68 228.88 404.86 229.06 404.86 229.28
  L 404.86 232.67
  C 404.86 232.89 404.68 233.07 404.46 233.07
  L 393.18 233.07
  C 392.96 233.07 392.78 232.89 392.78 232.67
  L 392.78 217.88
  C 392.78 217.66 392.96 217.48 393.18 217.48
  L 396.63 217.48
  C 396.85 217.48 397.03 217.66 397.03 217.88
  L 397.03 228.48
  C 397.03 228.70 397.21 228.88 397.43 228.88
  Z"
/>
<path fill="#ffffff" d="
  M 416.76 217.89
  C 416.76 217.66 416.95 217.48 417.17 217.48
  L 423.41 217.49
  C 427.47 217.50 430.76 220.79 430.75 224.85
  L 430.75 225.69
  C 430.74 229.75 427.45 233.04 423.39 233.03
  L 417.15 233.02
  C 416.92 233.02 416.74 232.83 416.74 232.61
  L 416.76 217.89
  Z
  M 421.02 221.86
  L 421.00 228.66
  C 421.00 228.86 421.17 229.03 421.37 229.03
  L 422.83 229.03
  C 424.78 229.03 426.37 227.43 426.37 225.45
  L 426.37 225.07
  C 426.37 223.10 424.80 221.49 422.85 221.49
  L 421.39 221.49
  C 421.18 221.49 421.02 221.65 421.02 221.86
  Z"
/>
<path fill="#ffffff" d="
  M 434.99 225.31
  C 434.96 221.21 434.94 218.86 434.93 218.28
  C 434.93 217.90 435.24 217.59 435.62 217.58
  L 446.29 217.41
  C 446.55 217.40 446.76 217.61 446.77 217.87
  L 446.82 221.02
  C 446.82 221.26 446.63 221.45 446.39 221.46
  L 439.66 221.56
  C 439.28 221.57 438.98 221.89 438.99 222.27
  L 438.99 222.61
  C 439.00 222.97 439.29 223.25 439.65 223.24
  L 446.04 223.14
  C 446.38 223.13 446.67 223.40 446.70 223.75
  C 446.71 223.95 446.72 224.44 446.73 225.20
  C 446.74 225.97 446.74 226.45 446.72 226.66
  C 446.70 227.01 446.42 227.28 446.08 227.28
  L 439.69 227.29
  C 439.33 227.30 439.04 227.58 439.04 227.94
  L 439.04 228.28
  C 439.05 228.66 439.35 228.97 439.73 228.97
  L 446.46 228.96
  C 446.70 228.96 446.89 229.15 446.90 229.39
  L 446.90 232.53
  C 446.90 232.79 446.69 233.00 446.43 233.01
  L 435.76 233.03
  C 435.38 233.03 435.07 232.73 435.06 232.35
  C 435.06 231.76 435.03 229.42 434.99 225.31
  Z"
/>
<path fill="#ffffff" d="
  M 582.09 326.51
  C 572.61 337.17 561.15 342.90 547.72 343.71
  C 526.78 344.96 508.73 333.97 499.78 315.07
  C 499.69 314.89 499.43 314.90 499.35 315.09
  C 493.56 329.52 481.54 339.61 466.67 343.11
  C 461.92 344.22 455.60 344.71 447.69 344.58
  C 441.79 344.48 435.45 344.46 428.66 344.51
  C 428.38 344.51 428.16 344.29 428.16 344.01
  L 428.16 328.38
  C 428.16 328.15 427.88 328.04 427.72 328.20
  C 414.96 341.11 399.69 345.90 381.90 342.58
  C 376.60 341.59 371.45 339.51 366.44 336.34
  C 354.73 328.91 347.37 318.16 344.37 304.09
  C 343.94 302.09 344.14 299.56 343.94 298.10
  C 343.91 297.85 343.76 297.63 343.54 297.50
  C 342.93 297.14 342.66 296.21 342.71 294.72
  C 343.24 278.57 349.89 265.54 362.66 255.61
  C 368.59 251.00 375.20 248.08 382.51 246.85
  C 400.41 243.82 415.48 248.63 427.72 261.29
  C 427.88 261.46 428.16 261.34 428.16 261.11
  L 428.16 248.20
  C 428.16 247.82 428.48 247.50 428.86 247.51
  C 434.80 247.55 441.21 247.52 448.10 247.42
  C 456.75 247.29 463.14 247.79 467.25 248.92
  C 481.54 252.82 493.10 262.00 499.06 276.04
  C 499.16 276.27 499.48 276.28 499.59 276.05
  C 509.00 256.27 527.51 244.56 549.54 246.52
  C 562.48 247.67 573.26 253.19 581.89 263.07
  C 582.07 263.27 582.39 263.14 582.39 262.88
  L 582.39 247.85
  C 582.39 247.42 582.74 247.08 583.16 247.09
  C 586.53 247.14 594.48 247.16 606.99 247.16
  C 615.41 247.16 621.34 247.72 624.77 248.85
  C 635.08 252.25 644.87 260.86 646.85 271.75
  C 649.38 285.63 644.73 301.99 630.82 307.57
  C 630.50 307.69 630.38 308.09 630.57 308.38
  L 644.48 329.82
  C 644.56 329.94 644.75 329.93 644.81 329.79
  L 682.36 245.49
  C 682.57 245.02 683.24 245.02 683.45 245.49
  L 726.04 341.35
  C 726.18 341.66 725.95 342.00 725.62 342.00
  L 582.76 342.00
  C 582.55 342.00 582.38 341.83 582.38 341.62
  L 582.38 326.62
  C 582.38 326.47 582.19 326.40 582.09 326.51
  Z
  M 428.15 294.59
  L 428.15 265.93
  C 428.15 265.47 427.98 265.03 427.68 264.69
  C 403.10 236.88 359.78 245.56 347.33 280.55
  C 346.05 284.15 345.29 288.76 345.05 294.38
  C 345.03 294.72 345.31 295.00 345.65 295.00
  L 361.09 295.00
  C 361.45 295.00 361.75 294.72 361.76 294.36
  C 362.85 266.30 396.63 254.97 414.87 275.27
  C 419.72 280.66 422.20 287.08 422.33 294.53
  C 422.34 294.79 422.55 295.00 422.82 295.00
  L 427.74 295.00
  C 427.97 295.00 428.15 294.82 428.15 294.59
  Z
  M 582.07 295.25
  C 582.24 295.25 582.37 295.12 582.37 294.95
  L 582.37 268.38
  C 582.37 267.61 582.10 266.86 581.61 266.27
  C 572.98 255.94 562.52 250.15 550.22 248.88
  C 528.44 246.63 509.74 258.58 501.23 278.17
  C 500.72 279.34 500.61 280.64 500.92 281.87
  C 501.92 285.92 502.45 290.17 502.52 294.61
  C 502.53 294.97 502.82 295.25 503.18 295.25
  L 514.08 295.25
  C 514.42 295.25 514.70 294.98 514.72 294.64
  C 515.64 268.96 545.23 256.26 564.62 272.51
  C 571.31 278.11 574.90 285.58 575.39 294.92
  C 575.40 295.11 575.55 295.25 575.74 295.25
  L 582.07 295.25
  Z
  M 603.75 250.17
  L 603.75 263.46
  C 603.75 263.81 604.05 264.09 604.40 264.07
  C 608.57 263.83 612.54 263.96 616.29 264.45
  C 622.09 265.22 626.09 267.87 628.30 272.38
  C 631.02 277.94 630.03 285.04 626.03 289.58
  C 620.45 295.90 613.22 294.50 604.36 294.52
  C 604.02 294.52 603.75 294.79 603.75 295.13
  L 603.75 298.99
  C 603.75 299.26 603.83 299.52 603.97 299.74
  L 629.59 339.22
  C 629.80 339.55 630.17 339.75 630.57 339.75
  L 639.50 339.75
  C 639.90 339.75 640.25 339.52 640.41 339.17
  L 643.07 333.18
  C 643.28 332.72 643.24 332.20 642.97 331.78
  L 627.15 307.42
  C 626.87 306.98 627.08 306.39 627.58 306.23
  C 643.37 301.28 648.02 283.43 643.66 268.76
  C 643.04 266.65 641.74 264.39 639.75 261.97
  C 633.20 253.97 624.70 249.83 614.25 249.54
  C 611.30 249.46 608.00 249.46 604.36 249.54
  C 604.02 249.55 603.75 249.83 603.75 250.17
  Z
  M 483.50 295.97
  C 483.49 311.97 474.38 323.13 458.50 325.42
  C 456.69 325.68 453.71 325.78 449.55 325.73
  C 449.24 325.72 448.98 325.98 448.98 326.29
  L 448.98 341.46
  C 448.98 341.80 449.24 342.08 449.57 342.10
  C 459.12 342.80 467.80 341.24 475.59 337.41
  C 492.13 329.29 500.24 314.26 500.24 295.98
  C 500.25 277.69 492.15 262.66 475.62 254.52
  C 467.83 250.69 459.16 249.12 449.61 249.81
  C 449.28 249.84 449.02 250.12 449.02 250.45
  L 449.01 265.62
  C 449.01 265.94 449.26 266.19 449.58 266.18
  C 453.74 266.13 456.72 266.24 458.53 266.50
  C 474.40 268.80 483.51 279.98 483.50 295.97
  Z
  M 647.40 329.79
  C 647.30 330.00 647.46 330.25 647.70 330.25
  L 718.04 330.25
  C 718.28 330.25 718.44 330.00 718.34 329.79
  L 683.17 250.68
  C 683.06 250.42 682.68 250.42 682.57 250.68
  L 647.40 329.79
  Z"
/>
<path fill="#ffffff" d="
  M 241.76 343.09
  C 241.76 343.32 241.58 343.50 241.35 343.50
  L 184.65 343.50
  C 184.42 343.50 184.24 343.32 184.24 343.09
  L 184.24 248.41
  C 184.24 248.18 184.42 248.00 184.65 248.00
  L 241.35 248.00
  C 241.58 248.00 241.76 248.18 241.76 248.41
  L 241.76 343.09
  Z
  M 186.50 295.81
  C 186.49 325.56 186.50 340.63 186.51 341.03
  C 186.52 341.19 186.65 341.31 186.81 341.31
  L 238.82 341.32
  C 239.20 341.32 239.50 341.02 239.50 340.65
  L 239.50 327.30
  C 239.50 326.97 239.23 326.70 238.90 326.70
  L 201.86 326.70
  C 201.66 326.70 201.50 326.53 201.50 326.33
  L 201.50 303.79
  C 201.50 303.46 201.76 303.20 202.09 303.20
  L 229.37 303.18
  C 229.69 303.18 229.96 302.93 229.98 302.61
  C 229.99 302.48 230.00 300.21 230.00 295.82
  C 230.00 291.42 229.99 289.16 229.98 289.03
  C 229.97 288.71 229.70 288.46 229.37 288.46
  L 202.09 288.43
  C 201.77 288.43 201.50 288.16 201.50 287.84
  L 201.51 265.30
  C 201.51 265.09 201.67 264.93 201.87 264.93
  L 238.91 264.94
  C 239.24 264.94 239.51 264.67 239.51 264.34
  L 239.52 250.99
  C 239.52 250.62 239.21 250.32 238.84 250.32
  L 186.83 250.31
  C 186.67 250.31 186.54 250.44 186.53 250.59
  C 186.51 250.99 186.50 266.06 186.50 295.81
  Z"
/>
<path fill="#ffffff" d="
  M 176.50 342.88
  C 176.50 343.23 176.21 343.52 175.86 343.52
  L 107.14 343.52
  C 106.79 343.52 106.50 343.23 106.50 342.88
  L 106.50 249.12
  C 106.50 248.77 106.79 248.48 107.14 248.48
  L 175.86 248.48
  C 176.21 248.48 176.50 248.77 176.50 249.12
  L 176.50 342.88
  Z
  M 108.75 296.00
  C 108.75 324.08 108.76 338.93 108.77 340.54
  C 108.77 340.93 109.09 341.25 109.48 341.25
  L 123.19 341.25
  C 123.36 341.25 123.50 341.11 123.50 340.94
  L 123.50 303.72
  C 123.50 303.51 123.67 303.33 123.88 303.32
  C 124.97 303.27 130.84 303.24 141.50 303.24
  C 152.15 303.24 158.03 303.27 159.11 303.32
  C 159.32 303.33 159.49 303.51 159.49 303.72
  L 159.50 340.94
  C 159.50 341.11 159.63 341.25 159.81 341.25
  L 173.52 341.25
  C 173.91 341.25 174.23 340.93 174.23 340.53
  C 174.24 338.93 174.24 324.08 174.24 296.00
  C 174.24 267.91 174.23 253.06 174.23 251.46
  C 174.22 251.06 173.90 250.74 173.51 250.74
  L 159.80 250.74
  C 159.63 250.74 159.49 250.88 159.49 251.05
  L 159.49 288.27
  C 159.49 288.49 159.32 288.66 159.11 288.67
  C 158.03 288.72 152.15 288.75 141.50 288.75
  C 130.84 288.75 124.97 288.72 123.88 288.67
  C 123.67 288.66 123.50 288.49 123.50 288.27
  L 123.50 251.05
  C 123.50 250.88 123.36 250.74 123.19 250.74
  L 109.48 250.75
  C 109.08 250.75 108.77 251.06 108.76 251.46
  C 108.76 253.07 108.75 267.91 108.75 296.00
  Z"
/>
<path fill="#ffffff" d="
  M 335.4223 343.2931
  C 335.42 343.54 335.23 343.73 334.9831 343.7338
  L 316.5231 343.7660
  C 316.28 343.77 316.08 343.57 316.0824 343.3268
  L 315.9177 248.9669
  C 315.92 248.72 316.11 248.53 316.3569 248.5262
  L 334.8169 248.4940
  C 335.06 248.49 335.26 248.69 335.2576 248.9332
  L 335.4223 343.2931
  Z
  M 333.00 251.09
  C 333.00 250.90 332.84 250.74 332.65 250.74
  L 318.59 250.74
  C 318.40 250.74 318.24 250.90 318.24 251.09
  L 318.24 293.39
  C 318.24 293.58 318.40 293.74 318.59 293.74
  L 332.65 293.74
  C 332.84 293.74 333.00 293.58 333.00 293.39
  L 333.00 251.09
  Z"
/>
<path fill="#ffffff" d="
  M 308.00 343.82
  C 308.00 344.06 307.81 344.25 307.57 344.25
  L 250.93 344.25
  C 250.69 344.25 250.50 344.06 250.50 343.82
  L 250.50 249.68
  C 250.50 249.44 250.69 249.25 250.93 249.25
  L 307.57 249.25
  C 307.81 249.25 308.00 249.44 308.00 249.68
  L 308.00 343.82
  Z
  M 268.17 327.75
  C 267.94 327.75 267.75 327.56 267.75 327.33
  L 267.75 251.92
  C 267.75 251.69 267.56 251.50 267.33 251.50
  L 253.17 251.50
  C 252.94 251.50 252.75 251.69 252.75 251.92
  L 252.75 341.58
  C 252.75 341.81 252.94 342.00 253.17 342.00
  L 305.33 342.00
  C 305.56 342.00 305.75 341.81 305.75 341.58
  L 305.75 328.17
  C 305.75 327.94 305.56 327.75 305.33 327.75
  L 268.17 327.75
  Z"
/>
<path fill="#ffffff" d="
  M 741.26 263.84
  C 740.75 263.84 740.28 263.72 739.85 263.49
  C 739.59 263.34 739.27 263.30 738.98 263.39
  C 738.91 263.41 738.86 263.43 738.81 263.44
  C 737.64 263.78 736.48 263.02 736.50 261.94
  C 736.53 260.53 736.96 259.78 737.77 259.69
  C 739.16 259.54 740.29 259.52 741.15 259.63
  C 742.76 259.84 743.03 261.09 741.98 263.38
  C 741.85 263.66 741.57 263.85 741.26 263.84
  Z
  M 740.87 262.74
  C 741.44 262.65 741.69 262.17 741.62 261.31
  C 741.56 260.62 740.74 260.29 740.25 260.76
  C 739.96 261.05 739.92 261.58 740.15 262.35
  C 740.25 262.67 740.49 262.80 740.87 262.74
  Z
  M 738.4513 260.6901
  C 738.06 260.61 737.65 260.94 737.5460 261.4382
  C 737.44 261.94 737.67 262.41 738.0687 262.4899
  C 738.46 262.57 738.87 262.24 738.9740 261.7418
  C 739.08 261.24 738.85 260.77 738.4513 260.6901
  Z"
/>
<path fill="#ffffff" d="
  M 741.42 266.19
  C 741.49 265.11 741.60 264.52 741.77 264.40
  C 742.02 264.20 742.39 264.37 742.41 264.69
  L 742.57 268.10
  C 742.59 268.62 741.96 268.90 741.59 268.53
  C 740.02 266.93 739.13 266.07 738.93 265.95
  C 738.36 265.64 737.92 265.72 737.60 266.19
  C 737.50 266.32 737.50 266.50 737.60 266.63
  C 738.45 267.73 738.86 268.30 738.80 268.34
  C 738.19 268.82 737.21 268.44 736.77 267.54
  C 736.21 266.40 736.60 264.80 737.97 264.61
  C 738.99 264.46 739.99 265.03 740.96 266.32
  C 741.10 266.51 741.41 266.42 741.42 266.19
  Z"
/>
<path fill="#ffffff" d="
  M 742.7298 271.4814
  C 742.75 272.76 741.34 273.82 739.5983 273.8398
  C 737.85 273.86 736.43 272.84 736.4102 271.5586
  C 736.39 270.28 737.80 269.22 739.5417 269.2002
  C 741.29 269.18 742.71 270.20 742.7298 271.4814
  Z
  M 737.5800 271.5735
  C 737.58 272.21 738.47 272.72 739.5720 272.7200
  C 740.67 272.72 741.56 272.20 741.5600 271.5665
  C 741.56 270.93 740.67 270.42 739.5680 270.4200
  C 738.47 270.42 737.58 270.94 737.5800 271.5735
  Z"
/>
<path fill="#ffffff" d="
  M 741.34 276.12
  C 741.41 275.04 741.52 274.44 741.69 274.32
  C 741.94 274.12 742.32 274.29 742.33 274.62
  L 742.49 278.03
  C 742.52 278.56 741.88 278.84 741.52 278.47
  C 739.94 276.86 739.04 276.00 738.84 275.89
  C 738.27 275.57 737.82 275.65 737.50 276.12
  C 737.40 276.25 737.41 276.43 737.50 276.56
  C 738.36 277.67 738.77 278.24 738.71 278.28
  C 738.10 278.77 737.11 278.38 736.67 277.48
  C 736.11 276.34 736.50 274.73 737.87 274.54
  C 738.90 274.38 739.91 274.96 740.88 276.25
  C 741.02 276.44 741.32 276.35 741.34 276.12
  Z"
/>
<rect fill="#ffffff" x="-3.85" y="-0.50" transform="translate(739.62,280.77) rotate(22.5)" width="7.70" height="1.00" rx="0.48"/>
<path fill="#ffffff" d="
  M 739.54 286.94
  L 737.17 286.94
  C 736.77 286.94 736.44 286.60 736.46 286.20
  L 736.58 283.64
  C 736.59 283.40 736.80 283.21 737.04 283.21
  C 737.28 283.22 737.48 283.42 737.48 283.66
  L 737.48 285.29
  C 737.48 285.57 737.70 285.79 737.98 285.79
  L 738.29 285.79
  C 738.49 285.79 738.65 285.64 738.66 285.44
  C 738.69 284.81 738.77 284.35 738.90 284.04
  C 739.49 282.70 741.34 282.54 742.16 283.76
  C 742.73 284.59 742.74 285.59 742.20 286.75
  C 742.15 286.85 742.08 286.93 741.98 287.00
  C 741.68 287.19 741.38 287.26 741.08 287.19
  C 740.77 287.11 740.68 286.72 740.92 286.51
  C 741.61 285.92 741.82 285.37 741.55 284.86
  C 741.07 283.97 740.51 283.82 739.87 284.42
  C 739.56 284.71 739.61 285.32 740.00 286.23
  C 740.14 286.57 739.90 286.94 739.54 286.94
  Z"
/>
<path fill="#ffffff" d="
  M 741.46 289.60
  C 741.54 288.52 741.66 287.92 741.83 287.81
  C 742.09 287.61 742.46 287.79 742.47 288.11
  L 742.59 291.53
  C 742.61 292.05 741.97 292.33 741.61 291.95
  C 740.05 290.33 739.17 289.46 738.96 289.34
  C 738.39 289.02 737.95 289.09 737.62 289.56
  C 737.52 289.69 737.52 289.87 737.62 290.00
  C 738.47 291.11 738.86 291.69 738.81 291.73
  C 738.19 292.21 737.21 291.81 736.78 290.91
  C 736.23 289.76 736.64 288.16 738.01 287.98
  C 739.04 287.84 740.04 288.42 741.00 289.73
  C 741.14 289.92 741.44 289.84 741.46 289.60
  Z"
/>
<path fill="#ffffff" d="
  M 742.5354 295.2965
  C 742.52 296.26 741.73 297.04 740.7641 297.0250
  L 738.2843 296.9947
  C 737.32 296.98 736.54 296.19 736.5558 295.2234
  L 736.5646 294.5035
  C 736.58 293.54 737.37 292.76 738.3359 292.7750
  L 740.8157 292.8053
  C 741.78 292.82 742.56 293.61 742.5442 294.5766
  L 742.5354 295.2965
  Z
  M 741.5998 294.8751
  C 741.59 294.24 740.67 293.74 739.5460 293.7501
  C 738.42 293.76 737.51 294.29 737.5202 294.9249
  C 737.53 295.56 738.45 296.06 739.5740 296.0499
  C 740.70 296.04 741.61 295.51 741.5998 294.8751
  Z"
/>
<path fill="#ffffff" d="
  M 741.46 299.56
  C 741.54 298.49 741.67 297.90 741.83 297.79
  C 742.09 297.59 742.46 297.77 742.47 298.09
  L 742.57 301.49
  C 742.58 302.01 741.95 302.28 741.59 301.90
  C 740.05 300.28 739.18 299.41 738.97 299.29
  C 738.41 298.97 737.97 299.04 737.64 299.50
  C 737.55 299.63 737.54 299.81 737.64 299.94
  C 738.47 301.05 738.86 301.63 738.81 301.66
  C 738.20 302.14 737.22 301.74 736.80 300.84
  C 736.26 299.69 736.68 298.11 738.04 297.93
  C 739.07 297.80 740.05 298.39 741.00 299.69
  C 741.14 299.88 741.44 299.80 741.46 299.56
  Z"
/>
<path fill="#ffffff" d="
  M 742.6799 306.9827
  C 742.69 308.37 741.30 309.51 739.5720 309.5299
  C 737.84 309.54 736.43 308.43 736.4201 307.0373
  C 736.41 305.65 737.80 304.51 739.5280 304.4901
  C 741.26 304.48 742.67 305.59 742.6799 306.9827
  Z
  M 737.4902 306.9850
  C 737.48 307.72 738.39 308.34 739.5236 308.3499
  C 740.66 308.36 741.58 307.78 741.5898 307.0350
  C 741.60 306.30 740.69 305.68 739.5564 305.6701
  C 738.42 305.66 737.50 306.24 737.4902 306.9850
  Z"
/>
<path fill="#ffffff" d="
  M 736.23 313.47
  C 736.14 313.64 736.01 313.70 735.85 313.66
  C 735.62 313.61 735.49 313.55 735.46 313.47
  C 735.35 313.17 735.26 312.59 735.19 311.73
  C 735.17 311.46 735.45 311.27 735.70 311.39
  C 736.25 311.66 736.69 311.73 737.02 311.61
  C 739.28 310.79 740.93 310.17 741.97 309.76
  C 742.18 309.67 742.42 309.78 742.50 309.99
  C 742.54 310.11 742.53 310.24 742.47 310.37
  C 742.39 310.53 742.34 310.62 742.31 310.63
  C 741.18 311.20 740.87 312.11 741.38 313.37
  C 741.50 313.68 741.73 313.93 742.03 314.07
  C 742.35 314.23 742.51 314.32 742.52 314.33
  C 742.74 314.73 742.34 315.18 741.92 315.02
  L 737.05 313.18
  C 736.74 313.06 736.39 313.18 736.23 313.47
  Z
  M 738.77 312.86
  C 739.48 312.92 739.86 312.94 739.91 312.93
  C 740.49 312.76 740.50 311.93 739.92 311.85
  C 739.43 311.78 738.99 311.93 738.58 312.30
  C 738.37 312.49 738.49 312.84 738.77 312.86
  Z"
/>
<path fill="#ffffff" d="
  M 742.62 316.90
  C 742.61 317.48 741.17 317.66 738.30 317.43
  C 737.90 317.40 737.55 317.68 737.51 318.08
  C 737.45 318.58 737.37 318.89 737.27 319.01
  C 737.07 319.24 736.69 319.15 736.62 318.85
  C 736.53 318.50 736.50 317.83 736.51 316.82
  C 736.52 315.81 736.58 315.14 736.67 314.79
  C 736.75 314.50 737.13 314.41 737.33 314.65
  C 737.42 314.77 737.50 315.08 737.54 315.59
  C 737.58 315.98 737.92 316.28 738.31 316.26
  C 741.19 316.10 742.63 316.31 742.62 316.90
  Z"
/>
<path fill="#ffffff" d="
  M 742.01 324.23
  L 741.13 323.82
  C 740.80 323.67 740.71 323.25 740.95 322.98
  C 741.43 322.43 741.65 321.84 741.61 321.22
  C 741.57 320.55 740.65 320.38 740.38 321.00
  C 740.30 321.19 740.03 321.80 739.58 322.83
  C 739.09 323.96 737.62 324.21 736.94 323.28
  C 736.15 322.21 736.33 320.99 737.48 319.63
  C 737.52 319.58 737.59 319.56 737.66 319.58
  L 738.47 319.80
  C 738.68 319.86 738.73 320.13 738.56 320.26
  C 737.75 320.88 737.42 321.52 737.55 322.18
  C 737.67 322.80 738.53 322.86 738.75 322.27
  C 739.21 321.02 739.50 320.31 739.63 320.14
  C 740.05 319.59 740.49 319.34 740.94 319.41
  C 742.13 319.58 742.91 320.71 742.60 321.81
  C 742.37 322.60 742.18 323.41 742.01 324.23
  Z"
/>
<path fill="#ffffff" d="
  M 742.01 324.23
  C 742.58 325.31 742.72 326.56 742.43 327.98
  C 742.36 328.31 742.07 328.54 741.74 328.54
  L 737.16 328.54
  C 736.82 328.54 736.54 328.27 736.54 327.93
  L 736.54 324.62
  C 736.54 324.25 737.05 324.13 737.21 324.47
  C 737.49 325.05 737.59 325.87 737.51 326.93
  C 737.48 327.27 737.73 327.57 738.06 327.60
  L 738.35 327.60
  C 738.70 327.60 738.99 327.31 738.99 326.95
  L 738.99 325.07
  C 738.99 324.89 739.14 324.74 739.33 324.74
  L 739.69 324.74
  C 739.88 324.74 740.04 324.90 740.04 325.09
  L 740.04 326.96
  C 740.04 327.33 740.34 327.63 740.70 327.63
  L 741.01 327.63
  C 741.28 327.63 741.49 327.39 741.46 327.12
  C 741.37 326.15 741.55 325.18 742.01 324.23
  Z"
/>
<path fill="#ffffff" d="
  M 742.54 332.36
  C 742.54 333.42 741.68 334.28 740.62 334.28
  L 738.50 334.28
  C 737.44 334.28 736.58 333.42 736.58 332.36
  L 736.58 331.48
  C 736.58 330.42 737.44 329.56 738.50 329.56
  L 740.62 329.56
  C 741.68 329.56 742.54 330.42 742.54 331.48
  L 742.54 332.36
  Z
  M 737.83 331.04
  C 737.49 331.43 737.41 331.99 737.61 332.47
  C 737.75 332.93 738.38 333.20 739.50 333.28
  C 740.43 333.35 741.12 332.97 741.56 332.13
  C 741.78 331.71 741.66 331.19 741.27 330.91
  C 740.88 330.64 740.35 330.69 740.02 331.04
  C 739.99 331.07 739.90 331.28 739.74 331.69
  C 739.61 332.00 739.15 331.92 739.15 331.58
  L 739.15 330.37
  C 739.15 330.09 738.81 329.95 738.62 330.16
  L 737.83 331.04
  Z"
/>
<path fill="#ffffff" d="
  M 418.64 358.39
  C 418.82 358.51 418.87 358.76 418.75 358.94
  L 418.67 359.07
  C 417.77 360.40 416.65 361.22 416.16 360.89
  L 416.06 360.82
  C 415.57 360.50 415.89 359.15 416.79 357.81
  L 416.87 357.69
  C 416.99 357.50 417.24 357.45 417.43 357.58
  L 418.64 358.39
  Z"
/>
<path fill="#ffffff" d="
  M 650.46 360.61
  C 650.19 360.61 650.01 360.33 650.12 360.08
  L 650.24 359.80
  C 650.43 359.37 650.85 359.10 651.32 359.10
  L 653.57 359.10
  C 653.83 359.10 654.00 359.37 653.89 359.60
  L 653.73 359.96
  C 653.55 360.36 653.16 360.61 652.73 360.61
  L 650.46 360.61
  Z"
/>
<path fill="#ffffff" d="
  M 172.60 375.79
  C 172.08 375.79 171.70 375.79 171.46 375.79
  C 171.07 375.79 170.76 375.47 170.76 375.09
  L 170.75 366.16
  C 170.75 365.87 170.52 365.63 170.23 365.63
  L 168.01 365.63
  C 167.70 365.63 167.45 365.38 167.45 365.07
  L 167.45 362.75
  C 167.45 362.31 167.81 361.95 168.25 361.97
  C 169.50 362.03 170.95 362.04 172.60 362.01
  C 174.25 362.04 175.70 362.03 176.95 361.97
  C 177.39 361.95 177.75 362.31 177.75 362.75
  L 177.75 365.07
  C 177.75 365.38 177.50 365.63 177.19 365.63
  L 174.97 365.63
  C 174.68 365.63 174.45 365.87 174.45 366.16
  L 174.44 375.09
  C 174.44 375.47 174.13 375.79 173.74 375.79
  C 173.50 375.79 173.12 375.79 172.60 375.79
  Z"
/>
<path fill="#ffffff" d="
  M 189.73 362.70
  C 189.74 362.35 190.02 362.06 190.38 362.05
  C 192.82 361.98 198.62 361.40 199.77 364.42
  C 200.72 366.91 200.22 368.81 198.27 370.12
  C 197.97 370.32 197.89 370.72 198.08 371.02
  L 200.70 375.13
  C 200.87 375.38 200.68 375.72 200.37 375.72
  L 197.24 375.69
  C 197.01 375.69 196.79 375.57 196.67 375.37
  L 194.04 371.26
  C 193.84 370.94 193.33 371.08 193.33 371.47
  L 193.30 375.32
  C 193.30 375.53 193.14 375.69 192.93 375.69
  L 190.06 375.67
  C 189.82 375.66 189.64 375.48 189.64 375.24
  L 189.73 362.70
  Z
  M 196.2677 366.4796
  C 196.24 366.01 195.83 365.66 195.3646 365.6862
  L 193.9476 365.7779
  C 193.48 365.81 193.12 366.21 193.1542 366.6810
  L 193.1723 366.9604
  C 193.20 367.43 193.61 367.78 194.0754 367.7538
  L 195.4924 367.6621
  C 195.96 367.63 196.32 367.23 196.2858 366.7590
  L 196.2677 366.4796
  Z"
/>
<path fill="#ffffff" d="
  M 218.37 373.53
  C 218.04 373.53 217.72 373.54 217.40 373.57
  C 217.03 373.61 216.73 373.86 216.62 374.21
  L 216.30 375.28
  C 216.22 375.57 215.95 375.76 215.65 375.76
  L 212.80 375.77
  C 212.52 375.77 212.32 375.50 212.40 375.23
  L 216.12 362.63
  C 216.21 362.34 216.45 362.13 216.75 362.10
  C 217.19 362.05 217.72 362.02 218.35 362.02
  C 218.98 362.02 219.51 362.05 219.95 362.09
  C 220.25 362.13 220.50 362.33 220.58 362.62
  L 224.34 375.21
  C 224.42 375.48 224.22 375.75 223.94 375.75
  L 221.09 375.76
  C 220.79 375.76 220.52 375.56 220.43 375.27
  L 220.12 374.21
  C 220.01 373.86 219.70 373.60 219.33 373.57
  C 219.01 373.54 218.69 373.53 218.37 373.53
  Z
  M 218.43 367.64
  L 217.75 369.39
  C 217.65 369.65 217.80 369.94 218.07 370.01
  C 218.16 370.04 218.29 370.04 218.48 370.01
  C 218.76 369.96 218.96 369.73 218.98 369.45
  C 219.00 369.16 218.92 368.56 218.75 367.66
  C 218.72 367.50 218.49 367.48 218.43 367.64
  Z"
/>
<path fill="#ffffff" d="
  M 245.61 368.84
  C 246.83 369.73 247.37 370.96 247.22 372.53
  C 246.81 376.80 239.82 375.75 236.91 375.77
  C 236.54 375.78 236.24 375.47 236.24 375.10
  L 236.24 362.68
  C 236.24 362.31 236.54 362.01 236.91 362.00
  C 239.40 361.96 245.58 361.26 246.37 364.72
  C 246.66 365.96 246.37 367.11 245.52 368.16
  C 245.35 368.37 245.40 368.67 245.61 368.84
  Z
  M 239.97 366.76
  C 240.42 368.09 242.37 367.85 242.43 366.46
  C 242.44 366.14 241.88 365.88 240.74 365.69
  C 240.39 365.64 240.06 365.89 240.02 366.24
  C 239.99 366.58 239.97 366.75 239.97 366.76
  Z
  M 240.03 370.75
  L 240.10 372.11
  C 240.10 372.23 240.21 372.33 240.34 372.32
  L 240.49 372.32
  C 242.15 372.23 243.49 371.81 243.46 371.38
  L 243.45 371.12
  C 243.43 370.69 242.06 370.41 240.40 370.50
  L 240.25 370.51
  C 240.12 370.51 240.02 370.62 240.03 370.75
  Z"
/>
<path fill="#ffffff" d="
  M 264.40 373.50
  C 264.08 373.51 263.75 373.52 263.44 373.55
  C 263.07 373.58 262.76 373.84 262.66 374.19
  L 262.34 375.25
  C 262.26 375.54 261.99 375.74 261.69 375.74
  L 258.85 375.74
  C 258.57 375.74 258.37 375.48 258.44 375.21
  L 262.15 362.63
  C 262.24 362.34 262.48 362.13 262.78 362.10
  C 263.22 362.05 263.75 362.02 264.38 362.02
  C 265.01 362.02 265.54 362.04 265.98 362.09
  C 266.27 362.12 266.52 362.33 266.61 362.62
  L 270.36 375.19
  C 270.44 375.45 270.24 375.72 269.96 375.72
  L 267.12 375.73
  C 266.82 375.73 266.55 375.53 266.47 375.25
  L 266.15 374.18
  C 266.04 373.83 265.73 373.58 265.36 373.55
  C 265.05 373.52 264.73 373.50 264.40 373.50
  Z
  M 265.01 369.55
  C 265.01 368.90 264.92 368.29 264.74 367.72
  C 264.69 367.58 264.50 367.56 264.44 367.70
  L 263.70 369.36
  C 263.61 369.57 263.69 369.82 263.88 369.93
  C 264.17 370.11 264.48 370.10 264.81 369.89
  C 264.93 369.81 265.00 369.69 265.01 369.55
  Z"
/>
<path fill="#ffffff" d="
  M 282.65 362.02
  L 285.62 362.02
  C 285.83 362.02 285.99 362.19 285.99 362.39
  L 285.97 371.54
  C 285.97 371.83 286.20 372.05 286.48 372.06
  L 292.39 372.07
  C 292.62 372.07 292.81 372.26 292.82 372.49
  L 292.82 375.32
  C 292.81 375.55 292.63 375.73 292.40 375.73
  L 282.78 375.72
  C 282.47 375.71 282.22 375.47 282.22 375.16
  L 282.25 362.42
  C 282.25 362.20 282.43 362.02 282.65 362.02
  Z"
/>
<path fill="#ffffff" d="
  M 310.62 367.00
  C 311.41 367.00 311.92 366.99 312.16 366.98
  C 312.49 366.97 312.76 366.69 312.76 366.35
  L 312.76 362.54
  C 312.76 362.23 313.02 361.97 313.34 361.97
  L 316.10 362.00
  C 316.38 362.00 316.58 362.27 316.51 362.54
  C 316.50 362.58 316.50 364.69 316.50 368.87
  C 316.50 373.04 316.50 375.15 316.51 375.19
  C 316.59 375.46 316.38 375.73 316.10 375.73
  L 313.34 375.76
  C 313.02 375.76 312.76 375.50 312.76 375.19
  L 312.76 371.38
  C 312.76 371.04 312.50 370.77 312.16 370.75
  C 311.92 370.74 311.41 370.74 310.62 370.74
  C 309.84 370.74 309.33 370.74 309.09 370.75
  C 308.75 370.77 308.49 371.04 308.49 371.38
  L 308.49 375.19
  C 308.49 375.50 308.23 375.76 307.91 375.76
  L 305.15 375.73
  C 304.87 375.73 304.66 375.46 304.74 375.19
  C 304.75 375.15 304.75 373.05 304.75 368.87
  C 304.75 364.69 304.74 362.58 304.73 362.55
  C 304.66 362.28 304.86 362.01 305.15 362.01
  L 307.91 361.98
  C 308.23 361.98 308.49 362.23 308.49 362.54
  L 308.49 366.35
  C 308.49 366.69 308.75 366.97 309.09 366.98
  C 309.32 366.99 309.84 367.00 310.62 367.00
  Z"
/>
<path fill="#ffffff" d="
  M 341.2339 370.0931
  C 341.22 373.30 338.61 375.88 335.4037 375.8626
  L 334.3637 375.8572
  C 331.16 375.84 328.58 373.23 328.5941 370.0269
  L 328.6061 367.7469
  C 328.62 364.54 331.23 361.96 334.4363 361.9774
  L 335.4763 361.9828
  C 338.68 362.00 341.26 364.61 341.2459 367.8131
  L 341.2339 370.0931
  Z
  M 334.9088 365.8701
  C 333.42 365.88 332.23 367.25 332.2401 368.9288
  C 332.25 370.61 333.47 371.96 334.9512 371.9499
  C 336.44 371.94 337.63 370.57 337.6199 368.8912
  C 337.61 367.21 336.39 365.86 334.9088 365.8701
  Z"
/>
<path fill="#ffffff" d="
  M 371.50 362.44
  C 371.50 362.21 371.69 362.03 371.91 362.03
  L 376.98 362.04
  C 380.60 362.05 383.54 364.98 383.53 368.60
  L 383.53 369.22
  C 383.52 372.84 380.58 375.77 376.96 375.76
  L 371.89 375.75
  C 371.66 375.75 371.48 375.57 371.48 375.34
  L 371.50 362.44
  Z
  M 374.99 366.07
  L 375.02 371.81
  C 375.02 372.03 375.20 372.21 375.42 372.21
  L 376.52 372.20
  C 378.32 372.20 379.77 370.80 379.76 369.08
  L 379.76 368.76
  C 379.75 367.04 378.28 365.66 376.48 365.66
  L 375.38 365.67
  C 375.16 365.67 374.98 365.85 374.99 366.07
  Z"
/>
<rect fill="#ffffff" x="395.50" y="362.01" width="3.74" height="13.74" rx="0.30"/>
<path fill="#ffffff" d="
  M 417.33 373.50
  C 417.00 373.50 416.68 373.52 416.36 373.54
  C 416.00 373.58 415.69 373.83 415.58 374.18
  L 415.27 375.25
  C 415.19 375.53 414.92 375.73 414.62 375.73
  L 411.78 375.73
  C 411.50 375.74 411.29 375.47 411.37 375.20
  L 415.09 362.63
  C 415.17 362.34 415.42 362.13 415.71 362.10
  C 416.15 362.05 416.68 362.03 417.31 362.03
  C 417.94 362.03 418.47 362.05 418.91 362.10
  C 419.20 362.13 419.45 362.34 419.54 362.62
  L 423.28 375.18
  C 423.36 375.45 423.16 375.72 422.88 375.72
  L 420.04 375.72
  C 419.74 375.72 419.47 375.53 419.39 375.24
  L 419.07 374.18
  C 418.96 373.83 418.66 373.58 418.29 373.54
  C 417.97 373.51 417.65 373.50 417.33 373.50
  Z
  M 417.21 367.87
  C 417.05 368.12 416.87 368.66 416.66 369.49
  C 416.61 369.69 416.68 369.83 416.88 369.92
  C 417.10 370.02 417.37 370.04 417.70 369.97
  C 417.98 369.92 418.16 369.62 418.07 369.34
  L 417.66 367.94
  C 417.60 367.74 417.33 367.69 417.21 367.87
  Z"
/>
<path fill="#ffffff" d="
  M 435.65 362.02
  L 438.62 362.02
  C 438.82 362.02 438.99 362.19 438.99 362.39
  L 438.97 371.54
  C 438.97 371.82 439.19 372.05 439.48 372.06
  L 445.39 372.07
  C 445.62 372.07 445.81 372.26 445.82 372.49
  L 445.81 375.32
  C 445.81 375.55 445.63 375.73 445.40 375.73
  L 435.77 375.72
  C 435.47 375.71 435.22 375.47 435.22 375.16
  L 435.25 362.42
  C 435.25 362.20 435.43 362.02 435.65 362.02
  Z"
/>
<path fill="#ffffff" d="
  M 469.9478 370.0157
  C 469.97 373.22 467.39 375.83 464.1884 375.8561
  L 463.1085 375.8636
  C 459.91 375.89 457.29 373.31 457.2681 370.1042
  L 457.2522 367.8243
  C 457.23 364.62 459.81 362.01 463.0116 361.9839
  L 464.0915 361.9764
  C 467.29 361.95 469.91 364.53 469.9319 367.7358
  L 469.9478 370.0157
  Z
  M 463.6000 365.9100
  C 462.10 365.91 460.89 367.26 460.8900 368.9300
  C 460.89 370.60 462.10 371.95 463.6000 371.9500
  C 465.10 371.95 466.31 370.60 466.3100 368.9300
  C 466.31 367.26 465.10 365.91 463.6000 365.9100
  Z"
/>
<path fill="#ffffff" d="
  M 493.02 365.12
  L 490.93 366.47
  C 490.68 366.63 490.36 366.62 490.13 366.45
  C 487.93 364.86 485.71 366.63 485.74 369.04
  C 485.77 371.47 487.91 372.65 489.99 371.73
  C 490.35 371.57 490.23 371.04 489.84 371.04
  L 487.91 371.04
  C 487.54 371.04 487.24 370.74 487.24 370.37
  L 487.24 368.19
  C 487.24 367.81 487.54 367.51 487.92 367.51
  L 492.90 367.51
  C 493.23 367.51 493.50 367.78 493.50 368.11
  L 493.50 372.97
  C 493.50 373.31 493.36 373.63 493.12 373.86
  C 491.64 375.23 490.46 375.92 489.59 375.94
  C 483.95 376.06 481.46 373.25 482.12 367.52
  C 482.61 363.25 485.31 361.45 490.24 362.13
  C 490.87 362.22 491.83 362.90 493.12 364.19
  C 493.39 364.46 493.34 364.91 493.02 365.12
  Z"
/>
<path fill="#ffffff" d="
  M 518.4478 370.0158
  C 518.47 373.22 515.89 375.83 512.6884 375.8561
  L 511.6285 375.8635
  C 508.43 375.89 505.81 373.31 505.7881 370.1042
  L 505.7722 367.8242
  C 505.75 364.62 508.33 362.01 511.5316 361.9839
  L 512.5915 361.9765
  C 515.79 361.95 518.41 364.53 518.4319 367.7358
  L 518.4478 370.0158
  Z
  M 512.0157 365.9012
  C 510.53 365.94 509.35 367.33 509.4011 368.9954
  C 509.45 370.66 510.69 371.98 512.1843 371.9388
  C 513.67 371.90 514.85 370.51 514.7989 368.8446
  C 514.75 367.18 513.51 365.86 512.0157 365.9012
  Z"
/>
<path fill="#ffffff" d="
  M 545.98 368.92
  C 545.94 365.31 545.92 363.24 545.92 362.73
  C 545.92 362.39 546.19 362.12 546.52 362.11
  L 555.91 361.95
  C 556.14 361.94 556.33 362.13 556.33 362.36
  L 556.38 365.12
  C 556.38 365.33 556.22 365.51 556.01 365.51
  L 550.08 365.61
  C 549.75 365.62 549.49 365.90 549.49 366.24
  L 549.50 366.54
  C 549.50 366.85 549.76 367.10 550.07 367.09
  L 555.70 366.99
  C 556.00 366.99 556.25 367.22 556.28 367.52
  C 556.29 367.71 556.30 368.13 556.31 368.81
  C 556.32 369.48 556.32 369.91 556.31 370.09
  C 556.29 370.39 556.04 370.63 555.74 370.63
  L 550.11 370.66
  C 549.80 370.66 549.55 370.91 549.55 371.22
  L 549.55 371.53
  C 549.55 371.86 549.82 372.13 550.15 372.13
  L 556.08 372.11
  C 556.29 372.11 556.46 372.28 556.46 372.49
  L 556.47 375.26
  C 556.47 375.49 556.29 375.67 556.06 375.67
  L 546.67 375.71
  C 546.33 375.71 546.06 375.44 546.05 375.11
  C 546.05 374.60 546.02 372.53 545.98 368.92
  Z"
/>
<path fill="#ffffff" d="
  M 589.46 375.91
  C 587.13 375.89 584.35 374.57 584.27 371.94
  C 584.21 370.01 584.23 366.82 584.32 362.38
  C 584.32 362.17 584.50 362.00 584.72 362.00
  L 587.57 362.00
  C 587.81 361.99 588.01 362.20 588.01 362.44
  C 587.90 366.62 587.92 369.54 588.06 371.19
  C 588.13 372.05 588.61 372.48 589.49 372.48
  C 590.34 372.49 590.81 372.06 590.89 371.20
  C 591.05 369.55 591.09 366.64 591.02 362.46
  C 591.02 362.21 591.22 362.01 591.46 362.01
  L 594.32 362.04
  C 594.53 362.04 594.70 362.22 594.71 362.43
  C 594.76 366.87 594.75 370.05 594.67 371.99
  C 594.56 374.62 591.78 375.92 589.46 375.91
  Z"
/>
<path fill="#ffffff" d="
  M 611.19 369.85
  C 611.07 369.65 610.75 369.74 610.75 369.98
  L 610.80 375.27
  C 610.80 375.51 610.60 375.71 610.36 375.71
  L 607.69 375.71
  C 607.45 375.71 607.26 375.52 607.26 375.28
  L 607.26 362.51
  C 607.26 362.21 607.49 361.97 607.79 361.98
  L 610.12 362.00
  C 610.43 362.00 610.72 362.17 610.87 362.43
  L 614.12 367.86
  C 614.24 368.05 614.53 367.97 614.53 367.74
  L 614.52 362.40
  C 614.52 362.18 614.70 362.00 614.92 362.00
  L 617.58 361.98
  C 617.83 361.98 618.03 362.19 618.03 362.43
  L 618.04 375.21
  C 618.04 375.49 617.81 375.72 617.52 375.72
  L 615.13 375.69
  C 614.85 375.69 614.58 375.54 614.43 375.30
  L 611.19 369.85
  Z"
/>
<rect fill="#ffffff" x="630.50" y="362.02" width="3.50" height="13.74" rx="0.34"/>
<path fill="#ffffff" d="
  M 652.09 373.50
  C 651.76 373.50 651.44 373.51 651.12 373.54
  C 650.76 373.58 650.45 373.83 650.34 374.18
  L 650.03 375.24
  C 649.94 375.53 649.68 375.73 649.38 375.73
  L 646.54 375.73
  C 646.25 375.73 646.05 375.46 646.13 375.19
  L 649.86 362.62
  C 649.95 362.34 650.19 362.13 650.49 362.09
  C 650.93 362.05 651.46 362.02 652.09 362.02
  C 652.72 362.02 653.25 362.05 653.68 362.09
  C 653.98 362.13 654.23 362.34 654.31 362.62
  L 658.04 375.19
  C 658.12 375.46 657.92 375.73 657.64 375.73
  L 654.80 375.73
  C 654.50 375.73 654.23 375.53 654.15 375.24
  L 653.83 374.18
  C 653.72 373.83 653.42 373.58 653.05 373.54
  C 652.73 373.51 652.41 373.50 652.09 373.50
  Z
  M 652.01 367.45
  L 651.43 369.23
  C 651.42 369.26 651.41 369.30 651.41 369.33
  C 651.40 369.87 651.76 370.06 652.48 369.89
  C 652.72 369.84 652.87 369.59 652.80 369.35
  L 652.24 367.46
  C 652.21 367.35 652.05 367.34 652.01 367.45
  Z"
/>
<path fill="#ffffff" d="
  M 681.4819 370.1042
  C 681.46 373.31 678.84 375.89 675.6415 375.8635
  L 674.5816 375.8561
  C 671.38 375.83 668.80 373.22 668.8222 370.0158
  L 668.8381 367.7358
  C 668.86 364.53 671.48 361.95 674.6785 361.9765
  L 675.7384 361.9839
  C 678.94 362.01 681.52 364.62 681.4978 367.8242
  L 681.4819 370.1042
  Z
  M 675.1015 365.8908
  C 673.62 365.92 672.44 367.30 672.4807 368.9710
  C 672.52 370.64 673.75 371.96 675.2385 371.9292
  C 676.72 371.90 677.90 370.52 677.8593 368.8490
  C 677.82 367.18 676.59 365.86 675.1015 365.8908
  Z"
/>
<path fill="#ffffff" d="
  M 345.35 377.38
  C 346.04 376.55 346.01 375.88 345.28 375.37
  C 344.00 374.47 344.88 372.48 346.45 372.71
  C 347.66 372.89 348.17 373.80 347.74 375.00
  C 347.50 375.67 347.13 376.60 346.63 377.77
  C 346.59 377.87 346.50 377.93 346.40 377.93
  L 345.60 377.93
  C 345.32 377.93 345.17 377.60 345.35 377.38
  Z"
/>
</g>
<path fill="#ffffff" d="
  M 667.91 315.06
  L 682.62 281.89
  C 682.73 281.63 683.09 281.63 683.20 281.89
  L 697.91 315.06
  C 698.00 315.27 697.85 315.51 697.62 315.51
  L 668.20 315.51
  C 667.97 315.51 667.82 315.27 667.91 315.06
  Z"
/>
</svg>
