<?xml version="1.0" encoding="utf-8"?>
<!-- Generator: Adobe Illustrator 28.7.3, SVG Export Plug-In . SVG Version: 9.03 Build 54978)  -->
<svg version="1.0" id="Camada_1" xmlns="http://www.w3.org/2000/svg" xmlns:xlink="http://www.w3.org/1999/xlink" x="0px" y="0px"
	 viewBox="0 0 2000 2000" style="enable-background:new 0 0 2000 2000;" xml:space="preserve">
<style type="text/css">
	.st0{fill:none;}
	.st1{clip-path:url(#SVGID_00000002374748723933593820000008756111814931822215_);fill:#E42521;}
	.st2{clip-path:url(#SVGID_00000151513457437631115820000003961520402767615142_);fill:#0F2B41;}
	.st3{clip-path:url(#SVGID_00000151513457437631115820000003961520402767615142_);fill:#15457C;}
	.st4{fill:url(#SVGID_00000095305383925343577370000008888039082029964704_);}
	.st5{fill:#020203;}
	.st6{fill:url(#SVGID_00000024716356245899889610000006479588070055691946_);}
	.st7{fill:url(#SVGID_00000011031651287624244780000004842217442561949878_);}
	.st8{fill:#E52621;}
	.st9{fill:#0F2B42;}
	.st10{fill:url(#SVGID_00000043434140179066179600000006391384221969408899_);}
	.st11{fill:url(#SVGID_00000029011016765580213510000012499028293370451328_);}
	.st12{fill:url(#SVGID_00000112609494143951460320000015316223246993878675_);}
	.st13{fill:url(#SVGID_00000169524779896659990790000002565009731744199355_);}
	.st14{fill:url(#SVGID_00000176735510646316553470000017184241288992335266_);}
	.st15{fill:url(#SVGID_00000067233378372208921450000001362296834928935566_);}
</style>
<rect class="st0" width="2000" height="2000"/>
<g>
	<g>
		<defs>
			<rect id="SVGID_1_" width="2000" height="2000"/>
		</defs>
		<clipPath id="SVGID_00000146500575074338400790000013665587156825846421_">
			<use xlink:href="#SVGID_1_"  style="overflow:visible;"/>
		</clipPath>
		<path style="clip-path:url(#SVGID_00000146500575074338400790000013665587156825846421_);fill:#E42521;" d="M1296.43,924.68
			c-0.53,0.03-1.06,0.09-1.58,0.13c1.36-0.08,2.71-0.18,4.08-0.18C1298.09,924.64,1297.26,924.66,1296.43,924.68"/>
		<path style="clip-path:url(#SVGID_00000146500575074338400790000013665587156825846421_);fill:#E42521;" d="M1278.8,927.62
			c-0.51,0.16-1.01,0.35-1.51,0.51c0.61-0.2,1.21-0.41,1.83-0.59C1279.01,927.57,1278.9,927.59,1278.8,927.62"/>
		<path style="clip-path:url(#SVGID_00000146500575074338400790000013665587156825846421_);fill:#E42521;" d="M1285.65,925.94
			c-0.05,0.01-0.1,0.03-0.16,0.04c0.06-0.01,0.13-0.03,0.19-0.04C1285.68,925.94,1285.66,925.94,1285.65,925.94"/>
		<path style="clip-path:url(#SVGID_00000146500575074338400790000013665587156825846421_);fill:#E42521;" d="M1289.7,925.33
			c0.56-0.08,1.11-0.17,1.68-0.23C1290.82,925.16,1290.26,925.25,1289.7,925.33"/>
		<path style="clip-path:url(#SVGID_00000146500575074338400790000013665587156825846421_);fill:#E42521;" d="M1300.17,924.61h-0.49
			c-0.07,0-0.14,0-0.21,0c0.74,0,1.47,0.04,2.2,0.06C1301.17,924.67,1300.68,924.61,1300.17,924.61"/>
	</g>
	<g>
		<g>
			<defs>
				<rect id="SVGID_00000174565992219413808280000005301718765662350724_" width="2000" height="2000"/>
			</defs>
			<clipPath id="SVGID_00000137833318288683334260000000010213512014254767_">
				<use xlink:href="#SVGID_00000174565992219413808280000005301718765662350724_"  style="overflow:visible;"/>
			</clipPath>
			<polygon style="clip-path:url(#SVGID_00000137833318288683334260000000010213512014254767_);fill:#0F2B41;" points="
				611.09,1071.96 611.09,1000.66 611.11,1000.66 611.12,1000.66 611.12,881.92 611.11,881.92 563.38,881.92 563.37,881.92 
				563.37,1000.66 563.37,1119.4 706.56,1119.4 706.56,1071.96 			"/>
			<path style="clip-path:url(#SVGID_00000137833318288683334260000000010213512014254767_);fill:#15457C;" d="M1796.2,1087.65
				c0,1.21-0.23,2.23-0.67,3.07c-0.45,0.84-1.08,1.48-1.9,1.92c-0.82,0.44-1.77,0.69-2.88,0.74c-0.6,0.01-1.23,0.02-1.91,0.02
				c-0.67,0-1.32-0.01-1.93-0.02c-1.1-0.05-2.06-0.3-2.87-0.74c-0.81-0.44-1.43-1.08-1.88-1.93c-0.44-0.84-0.66-1.86-0.66-3.06
				c0-0.95,0.14-1.78,0.41-2.49s0.61-1.29,1.03-1.74c0.41-0.46,0.85-0.8,1.29-1.02c0.45-0.22,0.84-0.34,1.18-0.36
				c0.12-0.01,0.22,0.02,0.3,0.1c0.08,0.08,0.11,0.19,0.11,0.33v1.2c0,0.14-0.03,0.23-0.08,0.3c-0.05,0.06-0.15,0.12-0.29,0.17
				c-0.35,0.12-0.7,0.32-1.04,0.6c-0.34,0.28-0.62,0.65-0.85,1.12c-0.22,0.47-0.34,1.06-0.34,1.78c0,1.09,0.29,1.96,0.88,2.62
				c0.58,0.66,1.55,1.02,2.9,1.07c1.21,0.04,2.42,0.04,3.63,0c1.36-0.05,2.34-0.41,2.93-1.08c0.59-0.67,0.89-1.54,0.89-2.61
				c0-0.72-0.14-1.36-0.41-1.93s-0.68-1.01-1.23-1.34c-0.55-0.33-1.26-0.49-2.11-0.49h-0.86v3.06c0,0.14-0.04,0.25-0.13,0.34
				c-0.09,0.09-0.21,0.13-0.36,0.13h-0.65c-0.15,0-0.27-0.04-0.36-0.13c-0.09-0.09-0.13-0.2-0.13-0.34v-4.61
				c0-0.15,0.04-0.27,0.13-0.35c0.09-0.08,0.21-0.12,0.36-0.12h1.96c1.12,0,2.09,0.23,2.92,0.68c0.83,0.46,1.47,1.12,1.93,1.99
				C1795.97,1085.42,1796.2,1086.46,1796.2,1087.65"/>
			<path style="clip-path:url(#SVGID_00000137833318288683334260000000010213512014254767_);fill:#15457C;" d="M1796,1078.49
				c0,0.15-0.04,0.27-0.13,0.35c-0.09,0.08-0.2,0.12-0.34,0.12h-13.32c-0.15,0-0.27-0.04-0.36-0.12c-0.09-0.08-0.13-0.2-0.13-0.35
				v-8.42c0-0.15,0.04-0.27,0.13-0.35c0.09-0.08,0.21-0.12,0.36-0.12h0.78c0.15,0,0.27,0.04,0.35,0.12c0.08,0.08,0.12,0.2,0.12,0.35
				v6.94h4.47v-6.49c0-0.15,0.04-0.27,0.13-0.35c0.09-0.08,0.21-0.12,0.36-0.12h0.76c0.14,0,0.25,0.04,0.34,0.12
				c0.09,0.08,0.13,0.2,0.13,0.35v6.49h4.63v-7.1c0-0.15,0.04-0.27,0.12-0.35c0.08-0.08,0.2-0.12,0.35-0.12h0.8
				c0.14,0,0.25,0.04,0.34,0.12c0.09,0.08,0.13,0.2,0.13,0.35V1078.49z"/>
			<path style="clip-path:url(#SVGID_00000137833318288683334260000000010213512014254767_);fill:#15457C;" d="M1796.2,1062.01
				c0,1.18-0.18,2.18-0.55,2.98c-0.37,0.8-0.84,1.42-1.42,1.85c-0.58,0.43-1.19,0.66-1.82,0.68c-0.11,0-0.21-0.04-0.3-0.13
				c-0.09-0.09-0.13-0.19-0.13-0.32v-1.04c0-0.16,0.04-0.29,0.12-0.37c0.08-0.08,0.18-0.14,0.29-0.16c0.33-0.08,0.65-0.25,0.97-0.51
				c0.32-0.26,0.58-0.63,0.8-1.11c0.21-0.48,0.32-1.1,0.32-1.87c0-1.17-0.21-2.03-0.62-2.58c-0.41-0.55-0.97-0.83-1.66-0.83
				c-0.48,0-0.86,0.15-1.15,0.44c-0.29,0.29-0.55,0.74-0.78,1.34c-0.23,0.6-0.48,1.37-0.76,2.33c-0.29,0.99-0.6,1.82-0.94,2.47
				c-0.34,0.65-0.76,1.14-1.27,1.46c-0.5,0.32-1.14,0.48-1.92,0.48c-0.73,0-1.39-0.2-1.97-0.59c-0.58-0.39-1.04-0.97-1.38-1.71
				c-0.34-0.75-0.51-1.64-0.51-2.69c0-0.84,0.11-1.58,0.34-2.21c0.22-0.63,0.52-1.16,0.9-1.58c0.38-0.42,0.78-0.74,1.2-0.96
				c0.43-0.22,0.85-0.33,1.25-0.35c0.1,0,0.19,0.03,0.28,0.1c0.09,0.07,0.13,0.18,0.13,0.33v1.08c0,0.1-0.03,0.19-0.08,0.3
				c-0.05,0.1-0.16,0.18-0.31,0.23c-0.56,0.08-1.03,0.39-1.41,0.94c-0.38,0.54-0.57,1.25-0.57,2.12c0,0.88,0.17,1.6,0.51,2.15
				c0.34,0.55,0.87,0.83,1.59,0.83c0.46,0,0.85-0.13,1.15-0.39c0.31-0.26,0.58-0.67,0.81-1.22c0.23-0.56,0.48-1.28,0.73-2.18
				c0.3-1.09,0.62-1.98,0.95-2.67c0.33-0.69,0.75-1.21,1.24-1.54c0.5-0.33,1.13-0.5,1.91-0.5c0.86,0,1.59,0.23,2.19,0.67
				c0.61,0.45,1.07,1.08,1.39,1.89C1796.04,1059.95,1796.2,1060.91,1796.2,1062.01"/>
			<path style="clip-path:url(#SVGID_00000137833318288683334260000000010213512014254767_);fill:#15457C;" d="M1796,1050.48
				c0,0.14-0.04,0.25-0.13,0.34c-0.09,0.09-0.2,0.13-0.34,0.13h-11.99v3.92c0,0.14-0.04,0.25-0.13,0.34
				c-0.09,0.09-0.2,0.13-0.34,0.13h-0.86c-0.15,0-0.27-0.04-0.36-0.13c-0.09-0.09-0.13-0.2-0.13-0.34v-9.83
				c0-0.15,0.04-0.27,0.13-0.36c0.09-0.09,0.21-0.13,0.36-0.13h0.86c0.14,0,0.25,0.04,0.34,0.13c0.09,0.09,0.13,0.21,0.13,0.36v3.9
				h11.99c0.14,0,0.25,0.04,0.34,0.13c0.09,0.09,0.13,0.21,0.13,0.36V1050.48z"/>
			<path style="clip-path:url(#SVGID_00000137833318288683334260000000010213512014254767_);fill:#15457C;" d="M1780.8,1037.65
				c0,0.33-0.06,0.6-0.17,0.84c-0.11,0.23-0.23,0.44-0.35,0.62c-0.11,0.18-0.17,0.38-0.17,0.58c0,0.16,0.05,0.28,0.14,0.36
				c0.1,0.08,0.19,0.14,0.3,0.2c0.1,0.06,0.15,0.17,0.15,0.32v0.65c0,0.1-0.03,0.18-0.1,0.24c-0.07,0.07-0.14,0.1-0.22,0.1
				c-0.2,0-0.42-0.04-0.64-0.11c-0.22-0.08-0.43-0.19-0.62-0.35c-0.19-0.16-0.34-0.34-0.46-0.56c-0.12-0.22-0.17-0.46-0.17-0.73
				c0-0.34,0.06-0.63,0.17-0.86s0.23-0.44,0.35-0.63c0.11-0.19,0.17-0.39,0.17-0.59c0-0.16-0.05-0.28-0.15-0.35
				c-0.1-0.07-0.2-0.13-0.31-0.19c-0.1-0.06-0.15-0.17-0.15-0.32v-0.65c0-0.12,0.03-0.21,0.1-0.27c0.07-0.05,0.15-0.08,0.24-0.08
				c0.19,0,0.4,0.04,0.62,0.12c0.22,0.08,0.43,0.2,0.62,0.36c0.19,0.16,0.35,0.34,0.47,0.56
				C1780.74,1037.14,1780.8,1037.38,1780.8,1037.65 M1796,1044.73c0,0.11-0.04,0.2-0.12,0.28c-0.08,0.08-0.18,0.12-0.29,0.12
				c-0.07,0-0.14-0.01-0.22-0.02l-13.2-5.06c-0.14-0.05-0.24-0.13-0.33-0.22c-0.08-0.1-0.12-0.24-0.12-0.43v-1.39
				c0-0.19,0.04-0.33,0.12-0.43c0.08-0.09,0.19-0.17,0.33-0.22l13.2-5.04c0.08-0.03,0.16-0.04,0.22-0.04c0.11,0,0.2,0.04,0.29,0.12
				c0.08,0.08,0.12,0.18,0.12,0.28v1.04c0,0.16-0.04,0.28-0.12,0.36c-0.08,0.08-0.16,0.12-0.22,0.15l-2.9,1.12v6.69l2.9,1.12
				c0.07,0.01,0.14,0.06,0.22,0.14c0.08,0.08,0.12,0.2,0.12,0.37V1044.73z M1791,1041.47v-5.51l-7.24,2.75L1791,1041.47z"/>
			<path style="clip-path:url(#SVGID_00000137833318288683334260000000010213512014254767_);fill:#15457C;" d="M1796.2,1025.23
				c0,1.17-0.2,2.17-0.6,3c-0.4,0.83-1.02,1.47-1.86,1.92c-0.84,0.45-1.89,0.7-3.15,0.75c-0.6,0.01-1.17,0.02-1.72,0.02
				c-0.55,0-1.12-0.01-1.72-0.02c-1.25-0.05-2.29-0.32-3.13-0.79c-0.84-0.47-1.46-1.12-1.88-1.96c-0.41-0.84-0.62-1.81-0.62-2.93
				c0-1.1,0.21-2.07,0.62-2.91c0.41-0.84,1.04-1.49,1.88-1.97c0.84-0.48,1.88-0.73,3.13-0.77c0.6-0.03,1.17-0.04,1.72-0.04
				c0.55,0,1.13,0.01,1.72,0.04c1.26,0.04,2.32,0.29,3.15,0.74c0.84,0.46,1.46,1.1,1.86,1.93S1796.2,1024.07,1796.2,1025.23
				 M1794.47,1025.23c0-1.03-0.31-1.88-0.94-2.54c-0.63-0.66-1.64-1.02-3.04-1.07c-0.61-0.03-1.16-0.04-1.64-0.04
				c-0.48,0-1.02,0.01-1.62,0.04c-0.94,0.03-1.7,0.2-2.29,0.52c-0.58,0.32-1.01,0.74-1.28,1.28c-0.27,0.53-0.41,1.13-0.41,1.81
				c0,0.68,0.14,1.29,0.41,1.82c0.27,0.53,0.7,0.96,1.28,1.27c0.59,0.32,1.35,0.5,2.29,0.54c0.6,0.01,1.14,0.02,1.62,0.02
				c0.48,0,1.03-0.01,1.64-0.02c1.4-0.05,2.41-0.41,3.04-1.08C1794.16,1027.11,1794.47,1026.26,1794.47,1025.23"/>
			<path style="clip-path:url(#SVGID_00000137833318288683334260000000010213512014254767_);fill:#15457C;" d="M1796,1011.87
				c0,0.14-0.04,0.25-0.13,0.34c-0.09,0.09-0.2,0.13-0.34,0.13h-0.65c-0.12,0-0.26-0.03-0.41-0.1c-0.15-0.07-0.31-0.2-0.49-0.41
				l-4.32-4.33c-0.58-0.69-1.08-1.24-1.5-1.64c-0.42-0.4-0.81-0.69-1.19-0.86c-0.38-0.17-0.77-0.26-1.18-0.26
				c-0.78,0-1.39,0.22-1.85,0.65c-0.46,0.44-0.68,1.08-0.68,1.94c0,0.54,0.11,1.01,0.34,1.41c0.22,0.4,0.53,0.7,0.92,0.92
				c0.39,0.22,0.83,0.37,1.32,0.45c0.18,0.03,0.3,0.1,0.37,0.21c0.07,0.12,0.1,0.22,0.1,0.32v1.06c0,0.12-0.04,0.22-0.11,0.31
				c-0.08,0.08-0.17,0.12-0.28,0.12c-0.52-0.01-1.04-0.12-1.56-0.33c-0.52-0.2-1-0.51-1.43-0.91c-0.43-0.4-0.77-0.9-1.03-1.49
				c-0.26-0.59-0.39-1.28-0.39-2.07c0-1.08,0.19-1.96,0.58-2.64c0.39-0.69,0.9-1.19,1.54-1.52c0.64-0.33,1.34-0.49,2.1-0.49
				c0.6,0,1.15,0.1,1.64,0.31c0.5,0.2,0.98,0.5,1.45,0.89c0.47,0.39,0.95,0.87,1.44,1.44l3.98,3.92v-6.36
				c0-0.15,0.04-0.27,0.12-0.36c0.08-0.09,0.2-0.13,0.35-0.13h0.84c0.14,0,0.25,0.04,0.34,0.13c0.09,0.09,0.13,0.21,0.13,0.36
				V1011.87z"/>
			<path style="clip-path:url(#SVGID_00000137833318288683334260000000010213512014254767_);fill:#15457C;" d="M1796.2,994.9
				c0,0.94-0.15,1.73-0.44,2.38s-0.7,1.17-1.21,1.58c-0.52,0.41-1.11,0.7-1.77,0.89c-0.67,0.18-1.37,0.29-2.12,0.32
				c-0.37,0.01-0.76,0.02-1.16,0.03c-0.41,0.01-0.82,0.01-1.24,0c-0.42-0.01-0.82-0.02-1.2-0.03c-0.75-0.01-1.46-0.12-2.12-0.32
				c-0.67-0.2-1.25-0.5-1.76-0.91c-0.51-0.41-0.91-0.93-1.2-1.58c-0.29-0.64-0.44-1.43-0.44-2.36c0-0.94,0.15-1.73,0.44-2.38
				c0.29-0.65,0.69-1.17,1.2-1.58c0.51-0.41,1.1-0.71,1.76-0.91c0.67-0.2,1.38-0.3,2.12-0.32c0.38-0.01,0.78-0.02,1.2-0.03
				c0.42-0.01,0.84-0.01,1.24,0c0.41,0.01,0.8,0.02,1.16,0.03c0.75,0.01,1.45,0.12,2.12,0.32c0.67,0.2,1.26,0.5,1.77,0.9
				c0.52,0.4,0.92,0.92,1.21,1.57S1796.2,993.94,1796.2,994.9 M1794.45,994.9c0-1.06-0.35-1.85-1.04-2.36
				c-0.69-0.51-1.65-0.77-2.86-0.79c-0.39-0.03-0.78-0.04-1.15-0.04h-1.12c-0.37,0-0.74,0.01-1.11,0.04
				c-1.18,0.01-2.13,0.28-2.85,0.79c-0.71,0.51-1.07,1.29-1.07,2.36c0,1.05,0.36,1.83,1.07,2.34c0.71,0.51,1.66,0.78,2.85,0.81
				c0.37,0,0.74,0,1.11,0.01c0.37,0.01,0.75,0.01,1.12,0s0.76-0.01,1.15-0.01c1.21-0.03,2.16-0.3,2.86-0.82
				C1794.1,996.71,1794.45,995.93,1794.45,994.9"/>
			<path style="clip-path:url(#SVGID_00000137833318288683334260000000010213512014254767_);fill:#15457C;" d="M1796,986.94
				c0,0.14-0.04,0.25-0.13,0.34c-0.09,0.09-0.2,0.13-0.34,0.13h-0.65c-0.12,0-0.26-0.03-0.41-0.1c-0.15-0.07-0.31-0.2-0.49-0.41
				l-4.32-4.33c-0.58-0.69-1.08-1.24-1.5-1.64c-0.42-0.4-0.81-0.69-1.19-0.86c-0.38-0.17-0.77-0.26-1.18-0.26
				c-0.78,0-1.39,0.22-1.85,0.65c-0.46,0.44-0.68,1.08-0.68,1.94c0,0.54,0.11,1.01,0.34,1.41c0.22,0.39,0.53,0.7,0.92,0.92
				c0.39,0.22,0.83,0.37,1.32,0.45c0.18,0.03,0.3,0.1,0.37,0.21c0.07,0.11,0.1,0.22,0.1,0.32v1.06c0,0.12-0.04,0.22-0.11,0.31
				c-0.08,0.08-0.17,0.12-0.28,0.12c-0.52-0.01-1.04-0.12-1.56-0.33c-0.52-0.2-1-0.51-1.43-0.91c-0.43-0.4-0.77-0.9-1.03-1.49
				c-0.26-0.59-0.39-1.28-0.39-2.07c0-1.07,0.19-1.95,0.58-2.64c0.39-0.69,0.9-1.19,1.54-1.52c0.64-0.33,1.34-0.49,2.1-0.49
				c0.6,0,1.15,0.1,1.64,0.31c0.5,0.2,0.98,0.5,1.45,0.89c0.47,0.39,0.95,0.87,1.44,1.44l3.98,3.92v-6.36
				c0-0.15,0.04-0.27,0.12-0.36c0.08-0.09,0.2-0.13,0.35-0.13h0.84c0.14,0,0.25,0.04,0.34,0.13c0.09,0.09,0.13,0.21,0.13,0.36
				V986.94z"/>
			<path style="clip-path:url(#SVGID_00000137833318288683334260000000010213512014254767_);fill:#15457C;" d="M1796.2,970.48
				c0,1.07-0.19,1.98-0.56,2.72c-0.37,0.74-0.86,1.31-1.46,1.69c-0.6,0.39-1.23,0.59-1.9,0.62c-0.12,0.01-0.22-0.02-0.3-0.1
				c-0.07-0.08-0.11-0.18-0.11-0.31v-1.1c0-0.12,0.03-0.23,0.09-0.33c0.06-0.09,0.18-0.17,0.36-0.22c0.5-0.14,0.92-0.36,1.23-0.66
				s0.55-0.66,0.69-1.06c0.14-0.4,0.21-0.82,0.21-1.25c0-0.58-0.12-1.12-0.36-1.6c-0.24-0.48-0.59-0.87-1.06-1.15
				s-1.04-0.43-1.7-0.43c-0.61,0-1.14,0.14-1.58,0.42c-0.44,0.28-0.78,0.66-1.02,1.14c-0.24,0.48-0.36,1.02-0.36,1.62
				c0,0.45,0.05,0.82,0.16,1.1c0.11,0.29,0.24,0.53,0.39,0.72c0.15,0.2,0.28,0.37,0.39,0.53c0.11,0.16,0.16,0.33,0.16,0.52v1.06
				c0,0.12-0.04,0.23-0.13,0.33c-0.09,0.1-0.19,0.14-0.32,0.12l-6.81-0.65c-0.16-0.01-0.29-0.06-0.38-0.15
				c-0.09-0.09-0.13-0.21-0.13-0.36v-7.12c0-0.14,0.04-0.25,0.13-0.34c0.09-0.09,0.2-0.13,0.34-0.13h0.8c0.15,0,0.27,0.05,0.35,0.13
				c0.08,0.09,0.12,0.2,0.12,0.34v5.88l4.02,0.39c-0.12-0.2-0.27-0.51-0.44-0.93c-0.17-0.42-0.26-0.99-0.26-1.72
				c0-0.68,0.1-1.32,0.31-1.91c0.2-0.59,0.5-1.11,0.9-1.57c0.39-0.46,0.87-0.81,1.44-1.07c0.57-0.26,1.21-0.39,1.95-0.39
				c1.03,0,1.91,0.22,2.63,0.67c0.72,0.45,1.27,1.07,1.64,1.86C1796.02,968.57,1796.2,969.47,1796.2,970.48"/>
			<path style="clip-path:url(#SVGID_00000137833318288683334260000000010213512014254767_);fill:#15457C;" d="M1797.71,963.46
				c0,0.11-0.04,0.2-0.12,0.29c-0.08,0.08-0.18,0.12-0.29,0.12c-0.07,0-0.15-0.02-0.24-0.06l-16.73-6.98
				c-0.08-0.04-0.16-0.1-0.24-0.17c-0.08-0.07-0.12-0.19-0.12-0.36v-0.8c0-0.11,0.04-0.2,0.12-0.29c0.08-0.08,0.18-0.12,0.29-0.12
				c0.05,0,0.14,0.01,0.24,0.04l16.73,7c0.07,0.03,0.15,0.08,0.23,0.16c0.09,0.08,0.13,0.2,0.13,0.37V963.46z"/>
			<path style="clip-path:url(#SVGID_00000137833318288683334260000000010213512014254767_);fill:#15457C;" d="M1796,953.38
				c0,0.14-0.04,0.25-0.13,0.34c-0.09,0.09-0.2,0.13-0.34,0.13h-0.65c-0.12,0-0.26-0.03-0.41-0.1c-0.15-0.07-0.31-0.2-0.49-0.41
				l-4.32-4.32c-0.58-0.69-1.08-1.24-1.5-1.64c-0.42-0.4-0.81-0.69-1.19-0.86c-0.38-0.17-0.77-0.26-1.18-0.26
				c-0.78,0-1.39,0.22-1.85,0.65c-0.46,0.44-0.68,1.08-0.68,1.94c0,0.54,0.11,1.01,0.34,1.41c0.22,0.39,0.53,0.7,0.92,0.92
				c0.39,0.22,0.83,0.37,1.32,0.45c0.18,0.03,0.3,0.1,0.37,0.21c0.07,0.11,0.1,0.22,0.1,0.32v1.06c0,0.12-0.04,0.22-0.11,0.31
				c-0.08,0.08-0.17,0.12-0.28,0.12c-0.52-0.01-1.04-0.12-1.56-0.33c-0.52-0.2-1-0.51-1.43-0.91c-0.43-0.4-0.77-0.9-1.03-1.49
				c-0.26-0.59-0.39-1.28-0.39-2.07c0-1.07,0.19-1.95,0.58-2.64c0.39-0.69,0.9-1.19,1.54-1.52c0.64-0.33,1.34-0.49,2.1-0.49
				c0.6,0,1.15,0.1,1.64,0.31c0.5,0.2,0.98,0.5,1.45,0.89c0.47,0.39,0.95,0.87,1.44,1.44l3.98,3.92v-6.36
				c0-0.15,0.04-0.27,0.12-0.36c0.08-0.09,0.2-0.13,0.35-0.13h0.84c0.14,0,0.25,0.04,0.34,0.13c0.09,0.09,0.13,0.21,0.13,0.36
				V953.38z"/>
			<path style="clip-path:url(#SVGID_00000137833318288683334260000000010213512014254767_);fill:#15457C;" d="M1796.2,936.41
				c0,0.94-0.15,1.73-0.44,2.38c-0.29,0.65-0.7,1.17-1.21,1.58c-0.52,0.41-1.11,0.7-1.77,0.89c-0.67,0.18-1.37,0.29-2.12,0.32
				c-0.37,0.01-0.76,0.02-1.16,0.03c-0.41,0.01-0.82,0.01-1.24,0c-0.42-0.01-0.82-0.02-1.2-0.03c-0.75-0.01-1.46-0.12-2.12-0.32
				c-0.67-0.2-1.25-0.5-1.76-0.91c-0.51-0.41-0.91-0.93-1.2-1.58c-0.29-0.65-0.44-1.43-0.44-2.36c0-0.94,0.15-1.73,0.44-2.38
				c0.29-0.65,0.69-1.17,1.2-1.58c0.51-0.41,1.1-0.71,1.76-0.91c0.67-0.2,1.38-0.3,2.12-0.32c0.38-0.01,0.78-0.02,1.2-0.03
				c0.42-0.01,0.84-0.01,1.24,0c0.41,0.01,0.8,0.02,1.16,0.03c0.75,0.01,1.45,0.12,2.12,0.32c0.67,0.2,1.26,0.5,1.77,0.9
				c0.52,0.4,0.92,0.92,1.21,1.57S1796.2,935.46,1796.2,936.41 M1794.45,936.41c0-1.06-0.35-1.85-1.04-2.36
				c-0.69-0.51-1.65-0.77-2.86-0.79c-0.39-0.03-0.78-0.04-1.15-0.04h-1.12c-0.37,0-0.74,0.01-1.11,0.04
				c-1.18,0.01-2.13,0.28-2.85,0.79c-0.71,0.51-1.07,1.3-1.07,2.36c0,1.05,0.36,1.83,1.07,2.34c0.71,0.51,1.66,0.78,2.85,0.81
				c0.37,0,0.74,0,1.11,0.01c0.37,0.01,0.75,0.01,1.12,0c0.37-0.01,0.76-0.01,1.15-0.01c1.21-0.03,2.16-0.3,2.86-0.82
				C1794.1,938.22,1794.45,937.44,1794.45,936.41"/>
			<path style="clip-path:url(#SVGID_00000137833318288683334260000000010213512014254767_);fill:#15457C;" d="M1796,928.46
				c0,0.14-0.04,0.25-0.13,0.34c-0.09,0.09-0.2,0.13-0.34,0.13h-0.65c-0.12,0-0.26-0.03-0.41-0.1c-0.15-0.07-0.31-0.2-0.49-0.41
				l-4.32-4.32c-0.58-0.69-1.08-1.24-1.5-1.64c-0.42-0.4-0.81-0.69-1.19-0.86c-0.38-0.17-0.77-0.26-1.18-0.26
				c-0.78,0-1.39,0.22-1.85,0.65c-0.46,0.44-0.68,1.08-0.68,1.94c0,0.54,0.11,1.01,0.34,1.41c0.22,0.39,0.53,0.7,0.92,0.92
				c0.39,0.22,0.83,0.37,1.32,0.45c0.18,0.03,0.3,0.1,0.37,0.21c0.07,0.11,0.1,0.22,0.1,0.32v1.06c0,0.12-0.04,0.22-0.11,0.31
				c-0.08,0.08-0.17,0.12-0.28,0.12c-0.52-0.01-1.04-0.12-1.56-0.33c-0.52-0.2-1-0.51-1.43-0.91c-0.43-0.4-0.77-0.9-1.03-1.49
				c-0.26-0.59-0.39-1.28-0.39-2.07c0-1.07,0.19-1.95,0.58-2.64c0.39-0.69,0.9-1.19,1.54-1.52c0.64-0.33,1.34-0.49,2.1-0.49
				c0.6,0,1.15,0.1,1.64,0.31c0.5,0.2,0.98,0.5,1.45,0.89c0.47,0.39,0.95,0.87,1.44,1.44l3.98,3.92v-6.36
				c0-0.15,0.04-0.27,0.12-0.36c0.08-0.09,0.2-0.13,0.35-0.13h0.84c0.14,0,0.25,0.04,0.34,0.13c0.09,0.09,0.13,0.21,0.13,0.36
				V928.46z"/>
			<path style="clip-path:url(#SVGID_00000137833318288683334260000000010213512014254767_);fill:#15457C;" d="M1796.2,911.46
				c0,0.79-0.1,1.51-0.3,2.17c-0.2,0.66-0.49,1.22-0.87,1.69c-0.38,0.47-0.83,0.83-1.36,1.09c-0.52,0.26-1.12,0.39-1.79,0.39
				c-0.83,0-1.54-0.2-2.14-0.6c-0.6-0.4-1.05-0.93-1.37-1.6c-0.31,0.53-0.72,0.94-1.22,1.24c-0.5,0.3-1.1,0.45-1.8,0.45
				c-0.82,0-1.51-0.2-2.07-0.6c-0.56-0.4-1-0.96-1.31-1.69s-0.47-1.57-0.47-2.54c0-0.95,0.15-1.79,0.46-2.52
				c0.31-0.73,0.74-1.29,1.32-1.69c0.57-0.4,1.26-0.6,2.06-0.6c0.69,0,1.3,0.15,1.81,0.45c0.51,0.3,0.92,0.71,1.23,1.22
				c0.31-0.67,0.77-1.2,1.37-1.6c0.6-0.4,1.31-0.6,2.14-0.6c0.88,0,1.65,0.22,2.3,0.67c0.65,0.45,1.14,1.07,1.49,1.88
				C1796.03,909.47,1796.2,910.4,1796.2,911.46 M1787.65,911.46c0-0.52-0.09-1-0.29-1.44c-0.19-0.44-0.45-0.8-0.78-1.06
				c-0.33-0.27-0.72-0.4-1.18-0.4c-0.46,0-0.86,0.13-1.2,0.38c-0.34,0.25-0.6,0.6-0.79,1.04c-0.18,0.44-0.28,0.93-0.28,1.48
				c0,0.54,0.09,1.04,0.28,1.48c0.18,0.44,0.45,0.79,0.79,1.05c0.34,0.26,0.74,0.39,1.2,0.39c0.48,0,0.88-0.13,1.21-0.39
				c0.33-0.26,0.59-0.61,0.77-1.05C1787.57,912.5,1787.65,912.01,1787.65,911.46 M1794.57,911.46c0-0.62-0.11-1.19-0.33-1.69
				c-0.22-0.5-0.53-0.9-0.93-1.2c-0.4-0.3-0.87-0.45-1.42-0.45c-0.56,0-1.03,0.15-1.42,0.45c-0.39,0.3-0.69,0.7-0.9,1.2
				c-0.21,0.5-0.32,1.07-0.32,1.69c0,0.63,0.11,1.19,0.32,1.7c0.21,0.51,0.51,0.92,0.9,1.21c0.39,0.3,0.86,0.45,1.42,0.45
				c0.54,0,1.02-0.15,1.42-0.45c0.4-0.3,0.71-0.7,0.93-1.21C1794.46,912.66,1794.57,912.09,1794.57,911.46"/>
			<path style="clip-path:url(#SVGID_00000137833318288683334260000000010213512014254767_);fill:#0F2B41;" d="M203.84,801.23h14.99
				c3.12,0,5.79,0.64,7.99,1.93c2.2,1.29,3.87,3.03,4.99,5.23c1.12,2.2,1.68,4.69,1.68,7.44c0,2.76-0.56,5.23-1.68,7.41
				c-1.12,2.19-2.78,3.91-4.99,5.18c-2.21,1.27-4.87,1.9-7.99,1.9h-5.07v9.48h-9.92V801.23z M218.28,820.74
				c1.51,0,2.75-0.46,3.72-1.38c0.97-0.92,1.46-2.07,1.46-3.47c0-1.43-0.51-2.63-1.51-3.61c-1.01-0.97-2.23-1.46-3.66-1.46h-4.52
				v9.92H218.28z"/>
			<path style="clip-path:url(#SVGID_00000137833318288683334260000000010213512014254767_);fill:#0F2B41;" d="M243.91,801.23h14.99
				c4.77,0,8.41,1.1,10.91,3.31c2.5,2.2,3.75,5.31,3.75,9.31c0,2.57-0.57,4.79-1.71,6.64c-1.14,1.86-2.83,3.28-5.07,4.27l8.54,15.04
				h-11.08l-7.55-13.67h-2.87v13.67h-9.92V801.23z M259.01,817.49c1.58,0,2.73-0.26,3.44-0.77c0.72-0.51,1.08-1.3,1.08-2.37
				c0-2.35-1.51-3.53-4.52-3.53h-5.18v6.67H259.01z"/>
			<polygon style="clip-path:url(#SVGID_00000137833318288683334260000000010213512014254767_);fill:#0F2B41;" points="
				285.9,801.23 314.89,801.23 314.89,811.04 295.82,811.04 295.82,815.51 314.89,815.51 314.89,825.32 295.82,825.32 295.82,830 
				315.44,830 315.44,839.81 285.9,839.81 			"/>
			<polygon style="clip-path:url(#SVGID_00000137833318288683334260000000010213512014254767_);fill:#0F2B41;" points="
				326.68,801.23 355.67,801.23 355.67,811.04 336.6,811.04 336.6,815.51 355.39,815.51 355.39,825.32 336.6,825.32 336.6,839.81 
				326.68,839.81 			"/>
			<polygon style="clip-path:url(#SVGID_00000137833318288683334260000000010213512014254767_);fill:#0F2B41;" points="
				366.8,801.23 395.78,801.23 395.78,811.04 376.72,811.04 376.72,815.51 395.78,815.51 395.78,825.32 376.72,825.32 376.72,830 
				396.33,830 396.33,839.81 366.8,839.81 			"/>
			
				<rect x="407.69" y="801.23" style="clip-path:url(#SVGID_00000137833318288683334260000000010213512014254767_);fill:#0F2B41;" width="9.92" height="38.57"/>
			<polygon style="clip-path:url(#SVGID_00000137833318288683334260000000010213512014254767_);fill:#0F2B41;" points="
				437.83,811.04 428.41,811.04 428.41,801.23 457.12,801.23 457.12,811.04 447.75,811.04 447.75,839.81 437.83,839.81 			"/>
			<path style="clip-path:url(#SVGID_00000137833318288683334260000000010213512014254767_);fill:#0F2B41;" d="M476.87,839.18
				c-2.22-0.79-4.09-2.09-5.59-3.91c-1.51-1.82-2.26-4.2-2.26-7.14v-26.89h9.92v25.46c0,1.58,0.42,2.76,1.27,3.55
				c0.85,0.79,1.96,1.18,3.36,1.18s2.54-0.4,3.45-1.18c0.9-0.79,1.35-1.97,1.35-3.55v-25.46h9.92v26.89c0,2.94-0.76,5.32-2.29,7.14
				c-1.52,1.82-3.41,3.12-5.65,3.91c-2.24,0.79-4.5,1.19-6.78,1.19C481.33,840.36,479.09,839.97,476.87,839.18"/>
			<path style="clip-path:url(#SVGID_00000137833318288683334260000000010213512014254767_);fill:#0F2B41;" d="M511.18,801.23h14.99
				c4.78,0,8.41,1.1,10.91,3.31c2.5,2.2,3.75,5.31,3.75,9.31c0,2.57-0.57,4.79-1.71,6.64c-1.14,1.86-2.83,3.28-5.07,4.27l8.54,15.04
				h-11.08l-7.55-13.67h-2.87v13.67h-9.92V801.23z M526.28,817.49c1.58,0,2.73-0.26,3.44-0.77c0.72-0.51,1.08-1.3,1.08-2.37
				c0-2.35-1.51-3.53-4.52-3.53h-5.18v6.67H526.28z"/>
			<path style="clip-path:url(#SVGID_00000137833318288683334260000000010213512014254767_);fill:#0F2B41;" d="M563.64,801.23h11.13
				l11.46,38.57h-10.47l-1.6-6.5h-9.92l-1.54,6.5h-10.52L563.64,801.23z M571.96,823.99l-2.76-11.3l-2.7,11.3H571.96z"/>
			<polygon style="clip-path:url(#SVGID_00000137833318288683334260000000010213512014254767_);fill:#0F2B41;" points="
				616.54,801.23 629.38,801.23 638.86,823.33 648.06,801.23 660.85,801.23 660.85,839.81 650.93,839.81 650.93,817.82 
				644.42,832.65 633.29,832.65 626.46,817.6 626.46,839.81 616.54,839.81 			"/>
			<path style="clip-path:url(#SVGID_00000137833318288683334260000000010213512014254767_);fill:#0F2B41;" d="M681.59,839.18
				c-2.22-0.79-4.09-2.09-5.59-3.91c-1.51-1.82-2.26-4.2-2.26-7.14v-26.89h9.92v25.46c0,1.58,0.42,2.76,1.27,3.55
				c0.84,0.79,1.96,1.18,3.36,1.18s2.54-0.4,3.45-1.18c0.9-0.79,1.35-1.97,1.35-3.55v-25.46H703v26.89c0,2.94-0.76,5.32-2.29,7.14
				c-1.52,1.82-3.41,3.12-5.65,3.91c-2.24,0.79-4.5,1.19-6.78,1.19C686.05,840.36,683.82,839.97,681.59,839.18"/>
			<polygon style="clip-path:url(#SVGID_00000137833318288683334260000000010213512014254767_);fill:#0F2B41;" points="
				715.9,801.23 724.83,801.23 736.67,820.91 736.67,801.23 746.04,801.23 746.04,839.81 737.17,839.81 725.27,819.92 
				725.27,839.81 715.9,839.81 			"/>
			
				<rect x="757.84" y="801.23" style="clip-path:url(#SVGID_00000137833318288683334260000000010213512014254767_);fill:#0F2B41;" width="9.92" height="38.57"/>
			<path style="clip-path:url(#SVGID_00000137833318288683334260000000010213512014254767_);fill:#0F2B41;" d="M788.17,838.13
				c-2.81-1.49-5.04-3.73-6.7-6.72c-1.65-2.99-2.48-6.64-2.48-10.94c0-4.26,0.83-7.88,2.48-10.86c1.65-2.98,3.89-5.21,6.72-6.7
				c2.83-1.49,5.99-2.23,9.48-2.23c3.89,0,7.18,0.83,9.86,2.48v10.47c-2.72-1.8-5.71-2.7-8.98-2.7c-2.83,0-5.09,0.77-6.78,2.31
				c-1.69,1.54-2.53,4.01-2.53,7.39c0,3.27,0.8,5.67,2.4,7.19c1.6,1.53,3.79,2.29,6.58,2.29c3.49,0,6.72-1.06,9.7-3.2v11.02
				c-1.21,0.77-2.76,1.37-4.63,1.79c-1.87,0.42-3.77,0.63-5.68,0.63C794.13,840.36,790.98,839.62,788.17,838.13"/>
			
				<rect x="819.55" y="801.23" style="clip-path:url(#SVGID_00000137833318288683334260000000010213512014254767_);fill:#0F2B41;" width="9.92" height="38.57"/>
			<path style="clip-path:url(#SVGID_00000137833318288683334260000000010213512014254767_);fill:#0F2B41;" d="M841.27,801.23h14.99
				c3.12,0,5.79,0.64,7.99,1.93c2.2,1.29,3.87,3.03,4.99,5.23c1.12,2.2,1.68,4.69,1.68,7.44c0,2.76-0.56,5.23-1.68,7.41
				c-1.12,2.19-2.78,3.91-4.99,5.18c-2.21,1.27-4.87,1.9-7.99,1.9h-5.07v9.48h-9.92V801.23z M855.7,820.74
				c1.51,0,2.75-0.46,3.72-1.38c0.97-0.92,1.46-2.07,1.46-3.47c0-1.43-0.51-2.63-1.52-3.61c-1.01-0.97-2.23-1.46-3.66-1.46h-4.52
				v9.92H855.7z"/>
			<path style="clip-path:url(#SVGID_00000137833318288683334260000000010213512014254767_);fill:#0F2B41;" d="M887.67,801.23h11.13
				l11.46,38.57h-10.47l-1.6-6.5h-9.92l-1.54,6.5h-10.52L887.67,801.23z M895.99,823.99l-2.76-11.3l-2.7,11.3H895.99z"/>
			<polygon style="clip-path:url(#SVGID_00000137833318288683334260000000010213512014254767_);fill:#0F2B41;" points="
				920.95,801.23 930.87,801.23 930.87,830 950.49,830 950.49,839.81 920.95,839.81 			"/>
			<path style="clip-path:url(#SVGID_00000137833318288683334260000000010213512014254767_);fill:#0F2B41;" d="M980.91,801.23h14.11
				c3.89,0,7.35,0.72,10.36,2.18c3.01,1.45,5.38,3.63,7.11,6.53c1.73,2.9,2.59,6.41,2.59,10.53c0,4.15-0.86,7.68-2.59,10.58
				c-1.73,2.9-4.1,5.09-7.11,6.56c-3.01,1.47-6.47,2.2-10.36,2.2h-14.11V801.23z M995.02,830.22c3.12,0,5.56-0.83,7.3-2.48
				c1.75-1.65,2.62-4.06,2.62-7.22c0-3.2-0.86-5.61-2.59-7.25c-1.73-1.63-4.17-2.45-7.33-2.45h-4.19v19.4H995.02z"/>
			<polygon style="clip-path:url(#SVGID_00000137833318288683334260000000010213512014254767_);fill:#0F2B41;" points="
				1026.21,801.23 1055.19,801.23 1055.19,811.04 1036.12,811.04 1036.12,815.51 1055.19,815.51 1055.19,825.32 1036.12,825.32 
				1036.12,830 1055.74,830 1055.74,839.81 1026.21,839.81 			"/>
			<polygon style="clip-path:url(#SVGID_00000137833318288683334260000000010213512014254767_);fill:#0F2B41;" points="364.8,1172 
				356.62,1172 356.62,1163.48 381.55,1163.48 381.55,1172 373.42,1172 373.42,1196.98 364.8,1196.98 			"/>
			<path style="clip-path:url(#SVGID_00000137833318288683334260000000010213512014254767_);fill:#0F2B41;" d="M412.08,1163.48
				h13.02c4.15,0,7.3,0.96,9.48,2.87c2.17,1.91,3.25,4.61,3.25,8.09c0,2.23-0.5,4.16-1.48,5.77c-0.99,1.61-2.46,2.85-4.4,3.71
				l7.42,13.06h-9.62l-6.56-11.87h-2.49v11.87h-8.61V1163.48z M425.19,1177.6c1.37,0,2.37-0.22,2.99-0.67
				c0.62-0.45,0.93-1.13,0.93-2.06c0-2.04-1.31-3.06-3.92-3.06h-4.5v5.79H425.19z"/>
			<path style="clip-path:url(#SVGID_00000137833318288683334260000000010213512014254767_);fill:#0F2B41;" d="M478.88,1163.48h9.67
				l9.95,33.5h-9.09l-1.39-5.65h-8.61l-1.34,5.65h-9.14L478.88,1163.48z M486.11,1183.25l-2.39-9.81l-2.34,9.81H486.11z"/>
			<path style="clip-path:url(#SVGID_00000137833318288683334260000000010213512014254767_);fill:#0F2B41;" d="M529.03,1163.48
				h13.02c4.02,0,6.99,0.82,8.9,2.46c1.91,1.64,2.87,3.74,2.87,6.29c0,1.72-0.39,3.17-1.17,4.35c-0.78,1.18-1.76,2.01-2.94,2.49
				c1.69,0.45,3.12,1.38,4.28,2.8c1.16,1.42,1.75,3.25,1.75,5.48c0,2.84-0.97,5.15-2.9,6.94c-1.93,1.79-4.89,2.68-8.88,2.68h-14.93
				V1163.48z M541.76,1176.98c1.08,0,1.93-0.21,2.54-0.65c0.61-0.43,0.91-1.08,0.91-1.94c0-1.72-1.2-2.58-3.59-2.58h-3.97v5.17
				H541.76z M543.1,1188.66c1.5,0,2.55-0.2,3.16-0.6c0.61-0.4,0.91-1,0.91-1.79c0-0.8-0.33-1.38-0.98-1.75
				c-0.65-0.37-1.78-0.55-3.37-0.55h-5.17v4.69H543.1z"/>
			<path style="clip-path:url(#SVGID_00000137833318288683334260000000010213512014254767_);fill:#0F2B41;" d="M594.16,1163.48h9.67
				l9.95,33.5h-9.09l-1.39-5.65h-8.61l-1.34,5.65h-9.14L594.16,1163.48z M601.39,1183.25l-2.39-9.81l-2.34,9.81H601.39z"/>
			<polygon style="clip-path:url(#SVGID_00000137833318288683334260000000010213512014254767_);fill:#0F2B41;" points="
				644.31,1163.48 652.92,1163.48 652.92,1188.46 669.96,1188.46 669.96,1196.98 644.31,1196.98 			"/>
			<polygon style="clip-path:url(#SVGID_00000137833318288683334260000000010213512014254767_);fill:#0F2B41;" points="
				700.58,1163.48 709.2,1163.48 709.2,1175.83 720.25,1175.83 720.25,1163.48 728.86,1163.48 728.86,1196.98 720.25,1196.98 
				720.25,1184.35 709.2,1184.35 709.2,1196.98 700.58,1196.98 			"/>
			<path style="clip-path:url(#SVGID_00000137833318288683334260000000010213512014254767_);fill:#0F2B41;" d="M767.7,1195.5
				c-2.41-1.31-4.33-3.26-5.77-5.86c-1.44-2.6-2.15-5.75-2.15-9.45c0-3.7,0.72-6.84,2.15-9.43s3.36-4.52,5.77-5.81
				c2.41-1.29,5.05-1.94,7.92-1.94c2.87,0,5.5,0.65,7.9,1.94c2.39,1.29,4.31,3.23,5.74,5.81c1.44,2.58,2.15,5.73,2.15,9.43
				c0,3.7-0.72,6.85-2.15,9.45c-1.43,2.6-3.35,4.55-5.74,5.86c-2.39,1.31-5.02,1.96-7.9,1.96
				C772.75,1197.46,770.11,1196.81,767.7,1195.5 M780.47,1186.5c1.35-1.37,2.03-3.46,2.03-6.27c0-2.84-0.67-4.94-2.01-6.29
				c-1.34-1.36-2.97-2.03-4.88-2.03s-3.55,0.68-4.9,2.03c-1.36,1.36-2.03,3.45-2.03,6.29c0,2.81,0.68,4.9,2.03,6.27
				c1.36,1.37,2.99,2.06,4.9,2.06C777.5,1188.56,779.12,1187.87,780.47,1186.5"/>
			<path style="clip-path:url(#SVGID_00000137833318288683334260000000010213512014254767_);fill:#0F2B41;" d="M801.34,1196.33
				c-0.72-0.75-1.08-1.65-1.08-2.7s0.38-1.95,1.12-2.7c0.75-0.75,1.65-1.12,2.7-1.12c1.05,0,1.96,0.38,2.7,1.12
				c0.75,0.75,1.12,1.65,1.12,2.7l-3.49,9.19h-2.58l1.96-5.36C802.88,1197.46,802.06,1197.08,801.34,1196.33"/>
			<path style="clip-path:url(#SVGID_00000137833318288683334260000000010213512014254767_);fill:#0F2B41;" d="M867.21,1163.48
				h12.25c3.38,0,6.38,0.63,9,1.89c2.62,1.26,4.67,3.15,6.17,5.67c1.5,2.52,2.25,5.57,2.25,9.14c0,3.6-0.75,6.67-2.25,9.19
				c-1.5,2.52-3.56,4.42-6.17,5.69c-2.62,1.28-5.61,1.91-9,1.91h-12.25V1163.48z M879.46,1188.66c2.71,0,4.82-0.72,6.34-2.15
				c1.52-1.44,2.27-3.53,2.27-6.27c0-2.78-0.75-4.87-2.25-6.29c-1.5-1.42-3.62-2.13-6.36-2.13h-3.64v16.84H879.46z"/>
			
				<rect x="927.89" y="1163.48" style="clip-path:url(#SVGID_00000137833318288683334260000000010213512014254767_);fill:#0F2B41;" width="8.61" height="33.5"/>
			<path style="clip-path:url(#SVGID_00000137833318288683334260000000010213512014254767_);fill:#0F2B41;" d="M977.08,1163.48h9.67
				l9.95,33.5h-9.09l-1.39-5.65h-8.61l-1.34,5.65h-9.14L977.08,1163.48z M978.04,1158.94l3.06-7.27l4.69,3.25l-5.79,5.36
				L978.04,1158.94z M984.31,1183.25l-2.39-9.81l-2.34,9.81H984.31z"/>
			<polygon style="clip-path:url(#SVGID_00000137833318288683334260000000010213512014254767_);fill:#0F2B41;" points="
				1027.23,1163.48 1035.84,1163.48 1035.84,1188.46 1052.88,1188.46 1052.88,1196.98 1027.23,1196.98 			"/>
			<path style="clip-path:url(#SVGID_00000137833318288683334260000000010213512014254767_);fill:#0F2B41;" d="M1089.89,1195.5
				c-2.41-1.31-4.33-3.26-5.77-5.86c-1.44-2.6-2.15-5.75-2.15-9.45c0-3.7,0.72-6.84,2.15-9.43c1.44-2.58,3.36-4.52,5.77-5.81
				c2.41-1.29,5.05-1.94,7.92-1.94s5.5,0.65,7.9,1.94s4.31,3.23,5.74,5.81c1.44,2.58,2.15,5.73,2.15,9.43c0,3.7-0.72,6.85-2.15,9.45
				c-1.43,2.6-3.35,4.55-5.74,5.86c-2.39,1.31-5.02,1.96-7.9,1.96S1092.3,1196.81,1089.89,1195.5 M1102.67,1186.5
				c1.35-1.37,2.03-3.46,2.03-6.27c0-2.84-0.67-4.94-2.01-6.29c-1.34-1.36-2.97-2.03-4.88-2.03c-1.91,0-3.55,0.68-4.91,2.03
				c-1.36,1.36-2.03,3.45-2.03,6.29c0,2.81,0.68,4.9,2.03,6.27c1.36,1.37,2.99,2.06,4.91,2.06
				C1099.69,1188.56,1101.31,1187.87,1102.67,1186.5"/>
			<path style="clip-path:url(#SVGID_00000137833318288683334260000000010213512014254767_);fill:#0F2B41;" d="M1151.98,1195.5
				c-2.43-1.31-4.35-3.26-5.79-5.86c-1.44-2.6-2.15-5.75-2.15-9.45c0-3.7,0.72-6.84,2.15-9.43s3.36-4.52,5.79-5.81
				c2.42-1.29,5.09-1.94,7.99-1.94c2.52,0,4.82,0.52,6.91,1.55c2.09,1.04,3.85,2.66,5.29,4.86l-6.94,5.12
				c-0.64-0.89-1.43-1.56-2.37-1.99c-0.94-0.43-1.94-0.65-2.99-0.65c-1.92,0-3.55,0.68-4.91,2.03c-1.36,1.36-2.03,3.45-2.03,6.29
				c0,2.87,0.7,5.03,2.11,6.46c1.4,1.44,3.13,2.15,5.17,2.15c1.82,0,3.32-0.54,4.5-1.63v-2.11h-7.42v-7.85h15.36v13.97
				c-1.18,1.72-2.86,3.19-5.05,4.4c-2.19,1.21-4.71,1.82-7.58,1.82C1157.08,1197.46,1154.4,1196.81,1151.98,1195.5"/>
			<path style="clip-path:url(#SVGID_00000137833318288683334260000000010213512014254767_);fill:#0F2B41;" d="M1211.34,1195.5
				c-2.41-1.31-4.33-3.26-5.77-5.86c-1.44-2.6-2.15-5.75-2.15-9.45c0-3.7,0.72-6.84,2.15-9.43c1.44-2.58,3.36-4.52,5.77-5.81
				c2.41-1.29,5.05-1.94,7.92-1.94s5.5,0.65,7.9,1.94s4.31,3.23,5.74,5.81c1.44,2.58,2.15,5.73,2.15,9.43c0,3.7-0.72,6.85-2.15,9.45
				c-1.43,2.6-3.35,4.55-5.74,5.86c-2.39,1.31-5.02,1.96-7.9,1.96S1213.75,1196.81,1211.34,1195.5 M1224.12,1186.5
				c1.35-1.37,2.03-3.46,2.03-6.27c0-2.84-0.67-4.94-2.01-6.29c-1.34-1.36-2.97-2.03-4.88-2.03c-1.91,0-3.55,0.68-4.91,2.03
				c-1.36,1.36-2.03,3.45-2.03,6.29c0,2.81,0.68,4.9,2.03,6.27c1.36,1.37,2.99,2.06,4.91,2.06
				C1221.14,1188.56,1222.76,1187.87,1224.12,1186.5"/>
			<polygon style="clip-path:url(#SVGID_00000137833318288683334260000000010213512014254767_);fill:#0F2B41;" points="
				1304.25,1163.48 1329.42,1163.48 1329.42,1172 1312.86,1172 1312.86,1175.88 1329.42,1175.88 1329.42,1184.4 1312.86,1184.4 
				1312.86,1188.46 1329.9,1188.46 1329.9,1196.98 1304.25,1196.98 			"/>
			<path style="clip-path:url(#SVGID_00000137833318288683334260000000010213512014254767_);fill:#0F2B41;" d="M1407.06,1196.43
				c-1.93-0.69-3.55-1.82-4.86-3.4c-1.31-1.58-1.96-3.64-1.96-6.2v-23.35h8.61v22.11c0,1.37,0.37,2.4,1.1,3.09
				c0.73,0.69,1.71,1.03,2.92,1.03c1.21,0,2.21-0.34,2.99-1.03c0.78-0.69,1.17-1.71,1.17-3.09v-22.11h8.61v23.35
				c0,2.55-0.66,4.62-1.99,6.2c-1.32,1.58-2.96,2.71-4.9,3.4c-1.95,0.69-3.91,1.03-5.89,1.03
				C1410.93,1197.46,1408.99,1197.12,1407.06,1196.43"/>
			<polygon style="clip-path:url(#SVGID_00000137833318288683334260000000010213512014254767_);fill:#0F2B41;" points="
				1458.09,1163.48 1465.85,1163.48 1476.14,1180.57 1476.14,1163.48 1484.27,1163.48 1484.27,1196.98 1476.57,1196.98 
				1466.23,1179.71 1466.23,1196.98 1458.09,1196.98 			"/>
			
				<rect x="1515.76" y="1163.48" style="clip-path:url(#SVGID_00000137833318288683334260000000010213512014254767_);fill:#0F2B41;" width="8.61" height="33.5"/>
			<path style="clip-path:url(#SVGID_00000137833318288683334260000000010213512014254767_);fill:#0F2B41;" d="M1564.95,1163.48
				h9.67l9.95,33.5h-9.09l-1.39-5.65h-8.61l-1.34,5.65H1555L1564.95,1163.48z M1565.93,1156.79c0.53-0.64,1.22-0.96,2.08-0.96
				c0.67,0,1.39,0.22,2.15,0.67c0.51,0.26,0.88,0.38,1.1,0.38c0.51,0,0.77-0.35,0.77-1.05h2.39c0,2.46-0.88,3.68-2.63,3.68
				c-0.7,0-1.44-0.21-2.2-0.62c-0.19-0.1-0.39-0.18-0.6-0.26c-0.21-0.08-0.39-0.12-0.55-0.12c-0.29,0-0.5,0.07-0.65,0.21
				c-0.14,0.14-0.22,0.42-0.22,0.84h-2.44C1565.14,1158.35,1565.4,1157.42,1565.93,1156.79 M1572.18,1183.25l-2.39-9.81l-2.34,9.81
				H1572.18z"/>
			<path style="clip-path:url(#SVGID_00000137833318288683334260000000010213512014254767_);fill:#0F2B41;" d="M1619.67,1195.5
				c-2.41-1.31-4.33-3.26-5.77-5.86c-1.44-2.6-2.15-5.75-2.15-9.45c0-3.7,0.72-6.84,2.15-9.43c1.44-2.58,3.36-4.52,5.77-5.81
				c2.41-1.29,5.05-1.94,7.92-1.94s5.5,0.65,7.9,1.94s4.31,3.23,5.74,5.81c1.44,2.58,2.15,5.73,2.15,9.43c0,3.7-0.72,6.85-2.15,9.45
				c-1.43,2.6-3.35,4.55-5.74,5.86c-2.39,1.31-5.02,1.96-7.9,1.96S1622.08,1196.81,1619.67,1195.5 M1632.45,1186.5
				c1.35-1.37,2.03-3.46,2.03-6.27c0-2.84-0.67-4.94-2.01-6.29c-1.34-1.36-2.97-2.03-4.88-2.03c-1.91,0-3.55,0.68-4.91,2.03
				c-1.36,1.36-2.03,3.45-2.03,6.29c0,2.81,0.68,4.9,2.03,6.27c1.36,1.37,2.99,2.06,4.91,2.06
				C1629.47,1188.56,1631.09,1187.87,1632.45,1186.5"/>
		</g>
	</g>
	<g>
		
			<linearGradient id="SVGID_00000167386315198817232250000003694768033330900400_" gradientUnits="userSpaceOnUse" x1="1645.6527" y1="975.0889" x2="1645.6527" y2="1113.8966">
			<stop  offset="0" style="stop-color:#ECECEC"/>
			<stop  offset="0.4297" style="stop-color:#D5D4D5"/>
			<stop  offset="1" style="stop-color:#B2B2B2"/>
		</linearGradient>
		<path style="fill:url(#SVGID_00000167386315198817232250000003694768033330900400_);" d="M1754.14,1113.9h-216.98l10.65-23.82
			h195.76L1754.14,1113.9z M1645.91,975.09l-29.91,67.36h59.79L1645.91,975.09z"/>
		<path class="st5" d="M1722.45,1042.44l-34.29-77.3l-18.91-42.63l-22.77-51.31h-1.16l-22.77,51.31l-16.81,37.9l-0.95,2.17
			l-1.16,2.56l-34.53,77.3l-21.3,47.63h195.76L1722.45,1042.44z M1616,1042.44l29.91-67.36l29.88,67.36H1616z"/>
		<path class="st5" d="M1513.29,1028.05c13.45-5.33,20.07-10.26,28.37-21.93c9.98-14.12,14.99-29.14,14.99-45.11v-6.17
			c0-26.23-8.48-39.37-22.94-53.8c-14.29-14.15-35.62-24.13-62-24.13h-29.56v47.16h7.05v0.06h19.57c11.45,0,23.22,3.4,29.39,9.39
			c6.27,6.58,9.42,14.15,9.42,22.8c0,18.04-13.97,33.34-31.31,33.34h-15.9v-0.14h-11.16v0.14h-7.05v19.41l68.05,104.83h58.21
			L1513.29,1028.05z"/>
		
			<linearGradient id="SVGID_00000164513084055889486770000006819800422680659876_" gradientUnits="userSpaceOnUse" x1="1394.3773" y1="995.4067" x2="1510.2075" y2="995.4067">
			<stop  offset="0" style="stop-color:#ECECEC"/>
			<stop  offset="0.4297" style="stop-color:#D5D4D5"/>
			<stop  offset="1" style="stop-color:#B2B2B2"/>
		</linearGradient>
		<path style="fill:url(#SVGID_00000164513084055889486770000006819800422680659876_);" d="M1442.15,989.66h7.05v-0.14h11.16v0.14
			h15.9c17.34,0,31.31-15.31,31.31-33.34c0-8.65-3.15-16.22-9.42-22.8c-6.17-5.99-17.93-9.39-29.39-9.39h-19.57v-0.06h-7.05v-47.16
			h-47.78l0.14,236.98h115.69l-68.05-104.83V989.66z"/>
		
			<linearGradient id="SVGID_00000026866961109701250870000008287115847315393696_" gradientUnits="userSpaceOnUse" x1="1179.5383" y1="1021.5596" x2="1420.8956" y2="1021.5596">
			<stop  offset="0" style="stop-color:#ECECEC"/>
			<stop  offset="0.4297" style="stop-color:#D5D4D5"/>
			<stop  offset="1" style="stop-color:#B2B2B2"/>
		</linearGradient>
		<path style="fill:url(#SVGID_00000026866961109701250870000008287115847315393696_);" d="M1373.35,997.82
			c0-20.11-7.18-37.37-21.51-51.73c-13.37-13.37-29.26-20.43-47.58-21.35c9.51,0.65,18.52,3.14,26.7,7.2
			c-9.39-4.48-19.65-6.73-30.82-6.73c-20.14,0-37.23,7.08-51.17,21.26c-10.75,10.89-17.37,23.33-19.96,37.3h-0.66v0
			c-0.84,4.52-1.26,9.18-1.26,14.04c0,0.66,0,1.3,0.04,1.96h-47.58c1.15,65.69,54.72,118.6,120.68,118.6
			c65.96,0,119.53-52.91,120.68-118.6h-47.58C1373.35,999.16,1373.35,998.49,1373.35,997.82z"/>
		<path class="st8" d="M1420.95,997.65c0-0.75-0.04-1.5-0.06-2.25c0.01,0.8,0.05,1.58,0.05,2.38
			C1420.95,997.74,1420.95,997.69,1420.95,997.65z"/>
		<path class="st8" d="M1420.75,990.92c0.01,0.2,0.03,0.4,0.04,0.6C1420.78,991.32,1420.76,991.12,1420.75,990.92z"/>
		<path class="st8" d="M1179.64,991.53c0.01-0.22,0.03-0.44,0.05-0.66C1179.67,991.09,1179.65,991.31,1179.64,991.53z"/>
		<path class="st8" d="M1179.48,997.65c0,0.05,0,0.09,0,0.13c0-0.79,0.04-1.57,0.05-2.36
			C1179.53,996.17,1179.48,996.9,1179.48,997.65z"/>
		<path class="st9" d="M1248.97,946.48c13.94-14.18,31.03-21.26,51.17-21.26c11.17,0,21.44,2.24,30.82,6.73
			c-8.19-4.06-17.19-6.55-26.7-7.2c-0.86-0.04-1.71-0.1-2.58-0.12c-0.73-0.02-1.47-0.06-2.21-0.06c-0.18,0-0.36,0.01-0.54,0.01
			c-1.38,0.01-2.73,0.1-4.09,0.18c-1.16,0.08-2.32,0.16-3.47,0.28c-0.56,0.06-1.12,0.15-1.68,0.23c-1.35,0.18-2.7,0.36-4.02,0.61
			c-0.07,0.01-0.13,0.03-0.19,0.04c-2.15,0.43-4.3,0.95-6.39,1.56c-0.62,0.18-1.22,0.4-1.83,0.59
			c-10.57,3.48-20.19,9.46-28.75,18.01c-10.86,10.97-17.58,23.5-20.17,37.69h0.66C1231.6,969.8,1238.22,957.37,1248.97,946.48z"/>
		<path class="st5" d="M1420.89,995.4c-0.02-1.3-0.04-2.6-0.1-3.88c-0.01-0.2-0.03-0.4-0.04-0.6c-1.05-20.34-6.74-38.83-17.05-55.46
			c-5.01-8.08-11.09-15.72-18.28-22.92c-7.27-7.27-14.98-13.41-23.13-18.44c-14.35-8.87-30.08-14.26-47.17-16.23
			c-4.89-0.57-9.87-0.88-14.98-0.88c-4.51,0-8.92,0.24-13.25,0.68c-19.63,1.99-37.47,8.46-53.52,19.45
			c-6.45,4.41-12.61,9.55-18.48,15.42c-7.09,7.15-13.09,14.73-18.05,22.72c-10.37,16.7-16.09,35.23-17.16,55.61
			c-0.01,0.22-0.04,0.44-0.05,0.66c-0.06,1.29-0.07,2.59-0.1,3.89c-0.02,0.79-0.05,1.57-0.05,2.36c0,0.05,0,0.1,0,0.15
			c0,0.63,0,1.26,0.03,1.86h0.02h47.58c-0.04-0.66-0.04-1.3-0.04-1.96c0-4.87,0.42-9.53,1.26-14.04v0
			c2.59-14.18,9.32-26.72,20.17-37.69c8.56-8.56,18.18-14.53,28.75-18.01c0.51-0.17,1-0.36,1.51-0.51c0.11-0.03,0.22-0.05,0.32-0.08
			c2.09-0.61,4.24-1.13,6.39-1.56c0.05-0.01,0.1-0.03,0.16-0.04c0.01,0,0.02,0,0.04,0c1.32-0.25,2.67-0.43,4.02-0.61
			c0.56-0.08,1.12-0.17,1.68-0.23c1.14-0.13,2.31-0.21,3.47-0.28c0.53-0.04,1.05-0.1,1.59-0.13c0.83-0.03,1.67-0.04,2.5-0.05
			c0.18,0,0.36-0.01,0.54-0.01c0.07,0,0.14,0,0.21,0h0.49c0.51,0,1,0.06,1.5,0.07c0.87,0.02,1.72,0.07,2.58,0.12
			c18.32,0.92,34.21,7.98,47.58,21.35c14.32,14.36,21.51,31.63,21.51,51.73c0,0.66,0,1.33-0.04,1.96h47.58h0.02
			c0.04-0.59,0.04-1.23,0.04-1.86c0-0.05,0-0.1,0-0.15C1420.95,996.98,1420.91,996.19,1420.89,995.4z"/>
		
			<linearGradient id="SVGID_00000138552555588949661030000015503864208969747369_" gradientUnits="userSpaceOnUse" x1="1076.1189" y1="879.8414" x2="1076.1189" y2="1117.4529">
			<stop  offset="0" style="stop-color:#ECECEC"/>
			<stop  offset="0.4297" style="stop-color:#D5D4D5"/>
			<stop  offset="1" style="stop-color:#B2B2B2"/>
		</linearGradient>
		<path style="fill:url(#SVGID_00000138552555588949661030000015503864208969747369_);" d="M1072.51,1069.82
			c42.87,0,70.79-28.44,70.79-71.38c0-42.56-28.41-71.38-71.24-71.38h-15.48v-47.21h-47.63v237.61h47.63v-47.63H1072.51z"/>
		<path class="st5" d="M1159.09,914.66c-4.1-4.06-8.55-7.92-13.34-11.42c-17.72-13.13-40.35-22.21-67.49-23.4
			c-2-0.11-4.03-0.14-6.06-0.14v0.14h-15.62v47.21h15.48c42.84,0,71.24,28.82,71.24,71.38c0,42.94-27.92,71.38-70.79,71.38h-15.94
			v47.63h15.62c28.23,0,52.75-7.74,73.55-23.29c4.62-3.43,9.07-7.28,13.34-11.52c21.23-21.12,31.87-49.07,31.87-83.85
			C1190.97,964.04,1180.32,935.99,1159.09,914.66z"/>
		
			<linearGradient id="SVGID_00000066515014604179418350000001670439262705149629_" gradientUnits="userSpaceOnUse" x1="396.3593" y1="1022.1693" x2="539.736" y2="1022.1693">
			<stop  offset="0" style="stop-color:#ECECEC"/>
			<stop  offset="0.4297" style="stop-color:#D5D4D5"/>
			<stop  offset="1" style="stop-color:#B2B2B2"/>
		</linearGradient>
		<path style="fill:url(#SVGID_00000066515014604179418350000001670439262705149629_);" d="M515.82,974.54h-71.66v-47.95h95.57
			v191.17H396.36v-95.59h119.47V974.54z"/>
		<polygon class="st5" points="539.73,926.46 539.74,926.46 539.74,878.96 396.34,878.96 396.34,974.62 396.34,1022.04 
			396.34,1117.7 539.74,1117.7 539.74,1070.21 539.73,1070.21 444.15,1070.21 444.15,1022.26 515.81,1022.26 515.81,1022.04 
			515.81,974.62 515.81,974.41 444.15,974.41 444.15,926.46 		"/>
		
			<linearGradient id="SVGID_00000131361934617057051240000010035948515971007368_" gradientUnits="userSpaceOnUse" x1="288.4521" y1="879.6717" x2="288.4521" y2="1117.4529">
			<stop  offset="0" style="stop-color:#ECECEC"/>
			<stop  offset="0.4297" style="stop-color:#D5D4D5"/>
			<stop  offset="1" style="stop-color:#B2B2B2"/>
		</linearGradient>
		<path style="fill:url(#SVGID_00000131361934617057051240000010035948515971007368_);" d="M328.22,1117.44h47.63v0.01h-174.8v-0.01
			h47.66v-95.27h79.51V1117.44z M201.05,879.67v95.21h174.8v-95.21H201.05z"/>
		<polygon class="st5" points="375.86,879.67 375.85,879.67 328.22,879.67 328.22,974.88 248.72,974.88 248.72,879.67 
			201.06,879.67 201.05,879.67 201.05,974.88 201.04,974.88 201.04,1117.44 201.05,1117.44 248.71,1117.44 248.71,1022.23 
			328.22,1022.23 328.22,1117.44 375.85,1117.44 375.85,1117.44 375.85,1022.23 375.86,1022.23 		"/>
		
			<linearGradient id="SVGID_00000032636589897715856840000001441018509831823537_" gradientUnits="userSpaceOnUse" x1="750.1454" y1="998.5622" x2="750.1454" y2="1117.4529">
			<stop  offset="0" style="stop-color:#ECECEC"/>
			<stop  offset="0.4297" style="stop-color:#D5D4D5"/>
			<stop  offset="1" style="stop-color:#B2B2B2"/>
		</linearGradient>
		
			<rect x="726.25" y="998.56" style="fill:url(#SVGID_00000032636589897715856840000001441018509831823537_);" width="47.79" height="118.89"/>
		<polygon class="st5" points="774.04,879.69 726.25,879.69 726.24,879.69 726.24,998.56 726.25,998.56 774.04,998.56 
			774.05,998.56 774.05,879.69 		"/>
		
			<linearGradient id="SVGID_00000163055959782910530430000013664593958001696664_" gradientUnits="userSpaceOnUse" x1="916.8568" y1="923.809" x2="916.8568" y2="1117.4529">
			<stop  offset="0" style="stop-color:#ECECEC"/>
			<stop  offset="0.4297" style="stop-color:#D5D4D5"/>
			<stop  offset="1" style="stop-color:#B2B2B2"/>
		</linearGradient>
		<path style="fill:url(#SVGID_00000163055959782910530430000013664593958001696664_);" d="M989.99,996.9
			c0-20.11-7.18-37.37-21.51-51.73c-13.37-13.37-29.26-20.43-47.58-21.35c9.51,0.65,18.52,3.14,26.7,7.2
			c-9.39-4.48-19.65-6.73-30.82-6.73c-20.14,0-37.23,7.08-51.17,21.26c-10.75,10.89-17.37,23.33-19.96,37.3h-0.66v0
			c-0.84,4.52-1.26,9.18-1.26,14.04c0,0.66,0,1.3,0.04,1.96h-47.58c1.15,65.69,54.72,118.6,120.68,118.6
			c65.96,0,119.53-52.91,120.68-118.6h-47.58C989.99,998.23,989.99,997.56,989.99,996.9z"/>
		<path class="st8" d="M1037.59,996.72c0-0.75-0.04-1.5-0.06-2.25c0.01,0.8,0.05,1.58,0.05,2.38
			C1037.59,996.81,1037.59,996.77,1037.59,996.72z"/>
		<path class="st8" d="M1037.39,989.99c0.01,0.2,0.03,0.4,0.04,0.6C1037.42,990.39,1037.4,990.19,1037.39,989.99z"/>
		<path class="st8" d="M796.28,990.6c0.01-0.22,0.03-0.44,0.05-0.66C796.31,990.16,796.29,990.38,796.28,990.6z"/>
		<path class="st8" d="M796.12,996.72c0,0.05,0,0.09,0,0.13c0-0.79,0.04-1.57,0.05-2.36C796.17,995.24,796.12,995.97,796.12,996.72z
			"/>
		<path class="st9" d="M865.61,945.55c13.94-14.18,31.03-21.26,51.17-21.26c11.17,0,21.44,2.24,30.82,6.73
			c-8.19-4.06-17.19-6.55-26.7-7.2c-0.86-0.04-1.71-0.1-2.58-0.12c-0.73-0.02-1.47-0.06-2.21-0.06c-0.18,0-0.36,0.01-0.54,0.01
			c-1.38,0.01-2.73,0.1-4.09,0.18c-1.16,0.08-2.32,0.16-3.47,0.28c-0.56,0.06-1.12,0.15-1.68,0.23c-1.35,0.18-2.7,0.36-4.02,0.61
			c-0.07,0.01-0.13,0.03-0.19,0.04c-2.15,0.43-4.3,0.95-6.39,1.56c-0.62,0.18-1.22,0.4-1.83,0.59
			c-10.57,3.48-20.19,9.46-28.75,18.01c-10.86,10.97-17.58,23.5-20.17,37.69h0.66C848.24,968.87,854.86,956.44,865.61,945.55z"/>
		<path class="st5" d="M1037.53,994.47c-0.02-1.3-0.04-2.6-0.1-3.88c-0.01-0.2-0.03-0.4-0.04-0.6
			c-1.05-20.34-6.74-38.83-17.05-55.46c-5.01-8.08-11.09-15.72-18.28-22.92c-7.27-7.27-14.98-13.41-23.13-18.44
			c-14.35-8.87-30.08-14.26-47.17-16.23c-4.89-0.57-9.87-0.88-14.98-0.88c-4.51,0-8.92,0.24-13.25,0.68
			c-19.63,1.99-37.47,8.46-53.52,19.45c-6.45,4.41-12.61,9.55-18.48,15.42c-7.09,7.15-13.09,14.73-18.05,22.72
			c-10.37,16.7-16.09,35.23-17.15,55.61c-0.01,0.22-0.04,0.44-0.05,0.66c-0.06,1.29-0.07,2.59-0.1,3.89
			c-0.02,0.79-0.05,1.57-0.05,2.36c0,0.05,0,0.1,0,0.15c0,0.63,0,1.26,0.03,1.86h0.02h47.58c-0.04-0.66-0.04-1.3-0.04-1.96
			c0-4.87,0.42-9.53,1.26-14.04v0c2.59-14.18,9.32-26.72,20.17-37.69c8.56-8.56,18.18-14.53,28.75-18.01c0.51-0.17,1-0.36,1.51-0.51
			c0.11-0.03,0.22-0.05,0.32-0.08c2.09-0.61,4.24-1.13,6.39-1.56c0.05-0.01,0.1-0.03,0.16-0.04c0.01,0,0.02,0,0.04,0
			c1.32-0.25,2.67-0.43,4.02-0.61c0.56-0.08,1.12-0.17,1.68-0.23c1.15-0.13,2.31-0.21,3.47-0.28c0.53-0.04,1.05-0.1,1.59-0.13
			c0.83-0.03,1.67-0.04,2.5-0.05c0.18,0,0.36-0.01,0.54-0.01c0.07,0,0.14,0,0.21,0h0.49c0.51,0,1,0.06,1.5,0.07
			c0.87,0.02,1.72,0.07,2.58,0.12c18.32,0.92,34.21,7.98,47.58,21.35c14.32,14.36,21.51,31.63,21.51,51.73c0,0.66,0,1.33-0.04,1.96
			h47.58h0.02c0.04-0.59,0.04-1.23,0.04-1.86c0-0.05,0-0.1,0-0.15C1037.59,996.05,1037.55,995.27,1037.53,994.47z"/>
		
			<linearGradient id="SVGID_00000071517754616959226650000014474843189833188484_" gradientUnits="userSpaceOnUse" x1="562.5309" y1="1000.6826" x2="705.9086" y2="1000.6826">
			<stop  offset="0" style="stop-color:#ECECEC"/>
			<stop  offset="0.4297" style="stop-color:#D5D4D5"/>
			<stop  offset="1" style="stop-color:#B2B2B2"/>
		</linearGradient>
		<path style="fill:url(#SVGID_00000071517754616959226650000014474843189833188484_);" d="M562.53,881.79v237.78h143.38V881.79
			H562.53z M705.89,1119.56H562.53v-118.88h47.78v71.38h95.58V1119.56z"/>
		<polygon class="st5" points="610.31,1072.06 610.31,1000.68 610.33,1000.68 610.34,1000.68 610.34,881.81 610.33,881.81 
			562.54,881.81 562.53,881.81 562.53,1000.68 562.53,1119.56 705.89,1119.56 705.89,1072.06 		"/>
	</g>
</g>
</svg>
