<?xml version="1.0" encoding="utf-8"?>
<!-- Generator: Adobe Illustrator 28.7.3, SVG Export Plug-In . SVG Version: 9.03 Build 54978)  -->
<svg version="1.0" id="Camada_1" xmlns="http://www.w3.org/2000/svg" xmlns:xlink="http://www.w3.org/1999/xlink" x="0px" y="0px"
	 viewBox="0 0 2000 2000" style="enable-background:new 0 0 2000 2000;" xml:space="preserve">
<style type="text/css">
	.st0{fill:none;}
	.st1{clip-path:url(#SVGID_00000157271084963736630390000012847905499147690396_);fill:#E42521;}
	
		.st2{clip-path:url(#SVGID_00000142892394241261284580000011426990580563336345_);fill:url(#SVGID_00000129897149899606931670000002435675432450865832_);}
	.st3{fill:#0F2B41;}
	
		.st4{clip-path:url(#SVGID_00000103978314097493252280000011321179891028553370_);fill:url(#SVGID_00000018201140410479709780000009366521489540248217_);}
	
		.st5{clip-path:url(#SVGID_00000149368111715095819480000017881951313525688198_);fill:url(#SVGID_00000046300576891130608600000018351114478903021968_);}
	.st6{clip-path:url(#SVGID_00000137128551739093776510000012386696883960988803_);fill:#E42521;}
	.st7{clip-path:url(#SVGID_00000137128551739093776510000012386696883960988803_);fill:#0F2B41;}
	
		.st8{clip-path:url(#SVGID_00000026128150524020085270000006181354897850510219_);fill:url(#SVGID_00000047042336563920501800000011973085696401798538_);}
	.st9{clip-path:url(#SVGID_00000067915146368353102930000011550423541904090002_);fill:#0F2B41;}
	
		.st10{clip-path:url(#SVGID_00000177470500655708092350000005813485981681063314_);fill:url(#SVGID_00000056398355199221770140000018229208884698318470_);}
	.st11{clip-path:url(#SVGID_00000070837511083996022960000017507731064629729694_);fill:#0F2B41;}
	
		.st12{clip-path:url(#SVGID_00000064312524638364458380000015701020510393669564_);fill:url(#SVGID_00000129890526408146848140000009879039482312424113_);}
	.st13{clip-path:url(#SVGID_00000155826611672068241060000015104593450438078633_);fill:#0F2B41;}
	
		.st14{clip-path:url(#SVGID_00000075853300788251057450000007873666520046179228_);fill:url(#SVGID_00000121996881506163251030000001768951011455066814_);}
	.st15{clip-path:url(#SVGID_00000050649816091384744590000002651220080901685390_);fill:#0F2B41;}
	.st16{clip-path:url(#SVGID_00000050649816091384744590000002651220080901685390_);fill:#E42521;}
	
		.st17{clip-path:url(#SVGID_00000026153789166466883040000008742142367026414723_);fill:url(#SVGID_00000031186344666122921050000003362527824075481247_);}
	.st18{clip-path:url(#SVGID_00000062167165284842299480000006021162934247099025_);fill:#E42521;}
	.st19{clip-path:url(#SVGID_00000062167165284842299480000006021162934247099025_);fill:#0F2B41;}
	
		.st20{clip-path:url(#SVGID_00000165944354647036818180000013178397312224344722_);fill:url(#SVGID_00000034800969681726567330000008838789636939667094_);}
	.st21{clip-path:url(#SVGID_00000087409798626442654710000007192116232649377971_);fill:#0F2B41;}
	.st22{clip-path:url(#SVGID_00000087409798626442654710000007192116232649377971_);fill:#15457C;}
</style>
<rect class="st0" width="2000" height="2000"/>
<g>
	<defs>
		<rect id="SVGID_1_" width="2000" height="2000"/>
	</defs>
	<clipPath id="SVGID_00000006685897133141215890000010152241942881695622_">
		<use xlink:href="#SVGID_1_"  style="overflow:visible;"/>
	</clipPath>
	<path style="clip-path:url(#SVGID_00000006685897133141215890000010152241942881695622_);fill:#E42521;" d="M1296.43,924.68
		c-0.53,0.03-1.06,0.09-1.58,0.13c1.36-0.08,2.71-0.18,4.08-0.18C1298.09,924.64,1297.26,924.66,1296.43,924.68"/>
	<path style="clip-path:url(#SVGID_00000006685897133141215890000010152241942881695622_);fill:#E42521;" d="M1278.8,927.62
		c-0.51,0.16-1.01,0.35-1.51,0.51c0.61-0.2,1.21-0.41,1.83-0.59C1279.01,927.57,1278.9,927.59,1278.8,927.62"/>
	<path style="clip-path:url(#SVGID_00000006685897133141215890000010152241942881695622_);fill:#E42521;" d="M1285.65,925.94
		c-0.05,0.01-0.1,0.03-0.16,0.04c0.06-0.01,0.13-0.03,0.19-0.04C1285.68,925.94,1285.66,925.94,1285.65,925.94"/>
	<path style="clip-path:url(#SVGID_00000006685897133141215890000010152241942881695622_);fill:#E42521;" d="M1289.7,925.33
		c0.56-0.08,1.11-0.17,1.68-0.23C1290.82,925.16,1290.26,925.25,1289.7,925.33"/>
	<path style="clip-path:url(#SVGID_00000006685897133141215890000010152241942881695622_);fill:#E42521;" d="M1300.17,924.61h-0.49
		c-0.07,0-0.14,0-0.21,0c0.74,0,1.47,0.04,2.2,0.06C1301.17,924.67,1300.68,924.61,1300.17,924.61"/>
</g>
<g>
	<g>
		<defs>
			<path id="SVGID_00000070815742915966312100000014884162787639429517_" d="M1753.61,1113.74h-216.73l10.64-23.79h195.53
				L1753.61,1113.74z M1645.51,975.09l-29.88,67.28h59.72L1645.51,975.09z"/>
		</defs>
		<clipPath id="SVGID_00000145766984325987257810000002469637360963990418_">
			<use xlink:href="#SVGID_00000070815742915966312100000014884162787639429517_"  style="overflow:visible;"/>
		</clipPath>
		
			<linearGradient id="SVGID_00000163769626270500768500000011664510587599208608_" gradientUnits="userSpaceOnUse" x1="-2.300828e-06" y1="2000.191" x2="1" y2="2000.191" gradientTransform="matrix(87.1939 -151.0243 -151.0243 -87.1939 303665.625 175547.8594)">
			<stop  offset="0" style="stop-color:#168ECE"/>
			<stop  offset="1.065560e-07" style="stop-color:#168ECE"/>
			<stop  offset="0.8384" style="stop-color:#53A3DA"/>
			<stop  offset="1" style="stop-color:#5CA8DD"/>
		</linearGradient>
		
			<polygon style="clip-path:url(#SVGID_00000145766984325987257810000002469637360963990418_);fill:url(#SVGID_00000163769626270500768500000011664510587599208608_);" points="
			1476.84,1079.08 1591.06,881.25 1813.65,1009.76 1699.43,1207.59 		"/>
	</g>
	<path class="st3" d="M1721.95,1042.37l-34.25-77.21l-18.89-42.58l-22.74-51.26h-1.15l-22.74,51.26l-16.79,37.85l-0.94,2.17
		l-1.16,2.55l-34.5,77.21l-21.27,47.58h195.53L1721.95,1042.37z M1615.63,1042.37l29.88-67.28l29.84,67.28H1615.63z"/>
	<path class="st3" d="M1513.04,1028c13.43-5.32,20.05-10.25,28.34-21.9c9.97-14.1,14.97-29.11,14.97-45.06v-6.16
		c0-26.2-8.46-39.32-22.91-53.74c-14.28-14.14-35.58-24.1-61.93-24.1h-29.53v47.1h7.04v0.06h19.55c11.44,0,23.19,3.39,29.35,9.38
		c6.26,6.58,9.41,14.13,9.41,22.78c0,18.02-13.96,33.3-31.28,33.3h-15.89v-0.14h-11.15v0.14h-7.04v19.38l67.98,104.71h58.14
		L1513.04,1028z"/>
	<g>
		<defs>
			<path id="SVGID_00000091015807479520511130000007688362938510843010_" d="M1394.26,877.03l0.14,236.71h115.56l-67.98-104.71
				v-19.38h7.04v-0.14h11.15v0.14h15.88c17.32,0,31.28-15.29,31.28-33.31c0-8.64-3.15-16.2-9.41-22.78
				c-6.16-5.98-17.91-9.38-29.35-9.38h-19.55v-0.06h-7.04v-47.1H1394.26z"/>
		</defs>
		<clipPath id="SVGID_00000021090196578931294180000006269654654933912229_">
			<use xlink:href="#SVGID_00000091015807479520511130000007688362938510843010_"  style="overflow:visible;"/>
		</clipPath>
		
			<linearGradient id="SVGID_00000090280405960943784650000003392936856251620787_" gradientUnits="userSpaceOnUse" x1="0" y1="2000" x2="1" y2="2000" gradientTransform="matrix(115.6978 0 0 -115.6978 1394.26 232391.0156)">
			<stop  offset="0" style="stop-color:#FDDF2A"/>
			<stop  offset="1" style="stop-color:#FAB619"/>
		</linearGradient>
		
			<rect x="1394.26" y="877.03" style="clip-path:url(#SVGID_00000021090196578931294180000006269654654933912229_);fill:url(#SVGID_00000090280405960943784650000003392936856251620787_);" width="115.7" height="236.71"/>
	</g>
	<g>
		<defs>
			<path id="SVGID_00000150060169944463901510000017299253950622102194_" d="M1330.92,931.99c-9.38-4.48-19.63-6.72-30.79-6.72
				c-20.12,0-37.19,7.07-51.11,21.23c-10.74,10.88-17.35,23.3-19.94,37.26h-0.66v0c-0.84,4.51-1.26,9.17-1.26,14.03
				c0,0.66,0,1.3,0.04,1.96h-47.53c1.14,65.61,54.66,118.46,120.54,118.46c65.89,0,119.4-52.85,120.54-118.46h-47.53
				c0.03-0.63,0.03-1.3,0.03-1.96c0-20.08-7.17-37.33-21.48-51.67c-13.35-13.35-29.23-20.41-47.52-21.33
				C1313.75,925.45,1322.75,927.94,1330.92,931.99"/>
		</defs>
		<clipPath id="SVGID_00000114075006122246125060000003058395568657719205_">
			<use xlink:href="#SVGID_00000150060169944463901510000017299253950622102194_"  style="overflow:visible;"/>
		</clipPath>
		
			<linearGradient id="SVGID_00000031196513785169939270000003556011439432047752_" gradientUnits="userSpaceOnUse" x1="1.519034e-06" y1="2000" x2="1" y2="2000" gradientTransform="matrix(241.0814 0 0 -241.0814 1179.6666 483184.2188)">
			<stop  offset="0" style="stop-color:#81BB47"/>
			<stop  offset="0.2724" style="stop-color:#71B447"/>
			<stop  offset="0.7728" style="stop-color:#3FA447"/>
			<stop  offset="1" style="stop-color:#109C47"/>
		</linearGradient>
		
			<rect x="1179.67" y="924.8" style="clip-path:url(#SVGID_00000114075006122246125060000003058395568657719205_);fill:url(#SVGID_00000031196513785169939270000003556011439432047752_);" width="241.08" height="193.42"/>
	</g>
	<g>
		<defs>
			<rect id="SVGID_00000002372107609972041110000010027912671932823425_" width="2000" height="2000"/>
		</defs>
		<clipPath id="SVGID_00000034787556138310569700000016910252755701150655_">
			<use xlink:href="#SVGID_00000002372107609972041110000010027912671932823425_"  style="overflow:visible;"/>
		</clipPath>
		<path style="clip-path:url(#SVGID_00000034787556138310569700000016910252755701150655_);fill:#E42521;" d="M1233.44,897.21
			c-14.79,9.85-27.28,22.87-36.49,38.1c4.96-7.98,10.95-15.55,18.03-22.7C1220.85,906.75,1227,901.62,1233.44,897.21"/>
		<path style="clip-path:url(#SVGID_00000034787556138310569700000016910252755701150655_);fill:#E42521;" d="M1420.8,997.63
			c0-0.75-0.04-1.49-0.06-2.25c0.01,0.79,0.05,1.58,0.05,2.38C1420.8,997.71,1420.8,997.67,1420.8,997.63"/>
		<path style="clip-path:url(#SVGID_00000034787556138310569700000016910252755701150655_);fill:#E42521;" d="M1420.61,990.91
			c0.01,0.2,0.03,0.4,0.04,0.6C1420.64,991.31,1420.62,991.11,1420.61,990.91"/>
		<path style="clip-path:url(#SVGID_00000034787556138310569700000016910252755701150655_);fill:#E42521;" d="M1179.77,991.52
			c0.01-0.22,0.03-0.44,0.05-0.66C1179.8,991.08,1179.78,991.3,1179.77,991.52"/>
		<path style="clip-path:url(#SVGID_00000034787556138310569700000016910252755701150655_);fill:#E42521;" d="M1403.58,935.51
			c-10.19-16.93-24.43-31.14-41.36-41.31c8.15,5.03,15.85,11.16,23.11,18.42C1392.51,919.8,1398.58,927.44,1403.58,935.51"/>
		<path style="clip-path:url(#SVGID_00000034787556138310569700000016910252755701150655_);fill:#E42521;" d="M1179.61,997.63
			c0,0.05,0,0.09,0,0.13c0-0.79,0.04-1.57,0.05-2.36C1179.66,996.15,1179.61,996.88,1179.61,997.63"/>
		<path style="clip-path:url(#SVGID_00000034787556138310569700000016910252755701150655_);fill:#0F2B41;" d="M1249.02,946.51
			c13.92-14.17,31-21.23,51.11-21.23c11.16,0,21.41,2.24,30.79,6.72c-8.18-4.06-17.17-6.55-26.67-7.2c-0.86-0.04-1.71-0.1-2.58-0.12
			c-0.73-0.02-1.46-0.06-2.2-0.06c-0.18,0-0.36,0.01-0.54,0.01c-1.37,0.01-2.73,0.1-4.08,0.18c-1.16,0.08-2.32,0.16-3.46,0.28
			c-0.56,0.06-1.12,0.15-1.68,0.23c-1.35,0.18-2.69,0.36-4.01,0.61c-0.07,0.01-0.13,0.03-0.19,0.04c-2.15,0.43-4.29,0.95-6.38,1.56
			c-0.62,0.18-1.22,0.4-1.83,0.59c-10.56,3.48-20.17,9.45-28.71,17.99c-10.85,10.95-17.56,23.48-20.15,37.64h0.66
			C1231.67,969.81,1238.28,957.39,1249.02,946.51"/>
		<path style="clip-path:url(#SVGID_00000034787556138310569700000016910252755701150655_);fill:#0F2B41;" d="M1420.75,995.38
			c-0.03-1.29-0.04-2.59-0.1-3.87c-0.01-0.2-0.03-0.4-0.04-0.6c-1.05-20.32-6.73-38.79-17.03-55.4c-5-8.07-11.07-15.7-18.25-22.89
			c-7.26-7.26-14.96-13.39-23.11-18.42c-14.33-8.86-30.05-14.24-47.11-16.21c-4.88-0.56-9.86-0.88-14.97-0.88
			c-4.5,0-8.91,0.24-13.24,0.68c-19.61,1.98-37.43,8.45-53.46,19.43c-6.44,4.41-12.59,9.54-18.46,15.41
			c-7.08,7.14-13.08,14.71-18.03,22.7c-10.36,16.68-16.07,35.19-17.14,55.54c-0.01,0.22-0.04,0.44-0.05,0.66
			c-0.06,1.28-0.07,2.59-0.1,3.88c-0.02,0.79-0.05,1.57-0.05,2.36c0,0.05,0,0.1,0,0.15c0,0.63,0,1.26,0.03,1.85h0.02h47.53
			c-0.03-0.66-0.03-1.29-0.03-1.96c0-4.86,0.42-9.52,1.26-14.03v0c2.59-14.17,9.3-26.69,20.15-37.64
			c8.55-8.55,18.16-14.51,28.72-17.99c0.51-0.17,1-0.36,1.51-0.51c0.1-0.03,0.21-0.05,0.32-0.08c2.09-0.61,4.23-1.13,6.38-1.56
			c0.05-0.01,0.1-0.03,0.16-0.04c0.01,0,0.02,0,0.04-0.01c1.32-0.25,2.67-0.43,4.01-0.61c0.56-0.08,1.12-0.17,1.68-0.23
			c1.14-0.13,2.3-0.21,3.46-0.28c0.53-0.03,1.05-0.1,1.58-0.13c0.83-0.03,1.67-0.04,2.5-0.05c0.18,0,0.36-0.01,0.54-0.01
			c0.07,0,0.14,0,0.21,0h0.49c0.51,0,1,0.06,1.5,0.07c0.87,0.02,1.72,0.08,2.58,0.12c18.3,0.92,34.17,7.97,47.52,21.33
			c14.31,14.34,21.48,31.59,21.48,51.67c0,0.66,0,1.33-0.04,1.96h47.53h0.02c0.03-0.59,0.03-1.22,0.03-1.85c0-0.05,0-0.1,0-0.15
			C1420.8,996.96,1420.76,996.18,1420.75,995.38"/>
	</g>
	<g>
		<defs>
			<path id="SVGID_00000083083328768263818880000009748020523908821928_" d="M1009.26,879.95v237.34h47.58v-47.58h15.92
				c42.82,0,70.71-28.41,70.71-71.3c0-42.51-28.37-71.3-71.16-71.3h-15.46v-47.16H1009.26z"/>
		</defs>
		<clipPath id="SVGID_00000031916061024097730220000012775512728187171472_">
			<use xlink:href="#SVGID_00000083083328768263818880000009748020523908821928_"  style="overflow:visible;"/>
		</clipPath>
		
			<linearGradient id="SVGID_00000109001448612374531330000012545296652705762711_" gradientUnits="userSpaceOnUse" x1="0" y1="2000" x2="1" y2="2000" gradientTransform="matrix(0 -237.3399 -237.3399 0 475756.1875 1117.2949)">
			<stop  offset="0" style="stop-color:#168ECE"/>
			<stop  offset="1.065560e-07" style="stop-color:#168ECE"/>
			<stop  offset="0.8384" style="stop-color:#53A3DA"/>
			<stop  offset="1" style="stop-color:#5CA8DD"/>
		</linearGradient>
		
			<rect x="1009.26" y="879.96" style="clip-path:url(#SVGID_00000031916061024097730220000012775512728187171472_);fill:url(#SVGID_00000109001448612374531330000012545296652705762711_);" width="134.2" height="237.34"/>
	</g>
	<g>
		<defs>
			<rect id="SVGID_00000037674097654850874300000015516740709896692397_" width="2000" height="2000"/>
		</defs>
		<clipPath id="SVGID_00000181782505615353125290000009463175868685782207_">
			<use xlink:href="#SVGID_00000037674097654850874300000015516740709896692397_"  style="overflow:visible;"/>
		</clipPath>
		<path style="clip-path:url(#SVGID_00000181782505615353125290000009463175868685782207_);fill:#0F2B41;" d="M1159.24,914.73
			c-4.09-4.06-8.54-7.91-13.33-11.41c-17.7-13.12-40.3-22.18-67.42-23.37c-1.99-0.1-4.02-0.14-6.05-0.14v0.14h-15.6v47.16h15.46
			c42.79,0,71.16,28.79,71.16,71.3c0,42.89-27.88,71.3-70.71,71.3h-15.92v47.58h15.6c28.2,0,52.69-7.73,73.47-23.27
			c4.62-3.43,9.06-7.28,13.33-11.51c21.2-21.1,31.84-49.02,31.84-83.76C1191.08,964.06,1180.45,936.04,1159.24,914.73"/>
	</g>
	<g>
		<defs>
			<polygon id="SVGID_00000034051257899070978230000016525226158619013567_" points="445.13,926.65 445.13,974.54 516.71,974.54 
				516.71,1022.12 397.38,1022.12 397.38,1117.6 540.6,1117.6 540.6,926.65 			"/>
		</defs>
		<clipPath id="SVGID_00000091699532033947901230000008656975499130397570_">
			<use xlink:href="#SVGID_00000034051257899070978230000016525226158619013567_"  style="overflow:visible;"/>
		</clipPath>
		
			<linearGradient id="SVGID_00000106862357834543588860000003707469454982708904_" gradientUnits="userSpaceOnUse" x1="-5.327314e-06" y1="2000" x2="1" y2="2000" gradientTransform="matrix(143.2128 0 0 -143.2128 397.3827 287447.6562)">
			<stop  offset="0" style="stop-color:#FDDF2A"/>
			<stop  offset="1" style="stop-color:#FAB619"/>
		</linearGradient>
		
			<rect x="397.38" y="926.65" style="clip-path:url(#SVGID_00000091699532033947901230000008656975499130397570_);fill:url(#SVGID_00000106862357834543588860000003707469454982708904_);" width="143.21" height="190.95"/>
	</g>
	<g>
		<defs>
			<rect id="SVGID_00000072992138188001214500000017997397967304599224_" width="2000" height="2000"/>
		</defs>
		<clipPath id="SVGID_00000142868467901894864080000013582099239828472966_">
			<use xlink:href="#SVGID_00000072992138188001214500000017997397967304599224_"  style="overflow:visible;"/>
		</clipPath>
		<polygon style="clip-path:url(#SVGID_00000142868467901894864080000013582099239828472966_);fill:#0F2B41;" points="
			540.59,926.52 540.6,926.52 540.6,879.08 397.37,879.08 397.37,974.63 397.37,1021.99 397.37,1117.54 540.6,1117.54 540.6,1070.1 
			540.59,1070.1 445.12,1070.1 445.12,1022.21 516.7,1022.21 516.7,1021.99 516.7,974.63 516.7,974.41 445.12,974.41 445.12,926.52 
					"/>
	</g>
	<g>
		<defs>
			<path id="SVGID_00000078009204478871229960000014871225534963394695_" d="M249.9,1022.12v95.16h-47.6v0.01h174.6v-0.01h-47.58
				v-95.16H249.9z M202.3,974.89h174.6v-95.1H202.3V974.89z"/>
		</defs>
		<clipPath id="SVGID_00000118395815863167258410000006009598105819040669_">
			<use xlink:href="#SVGID_00000078009204478871229960000014871225534963394695_"  style="overflow:visible;"/>
		</clipPath>
		
			<linearGradient id="SVGID_00000157279117225614532140000015425905377826395565_" gradientUnits="userSpaceOnUse" x1="-2.055839e-06" y1="2000" x2="1" y2="2000" gradientTransform="matrix(0 237.5094 237.5094 0 -474729.2812 879.7856)">
			<stop  offset="0" style="stop-color:#81BB47"/>
			<stop  offset="0.2293" style="stop-color:#74B544"/>
			<stop  offset="0.6211" style="stop-color:#4FA73F"/>
			<stop  offset="1" style="stop-color:#009739"/>
			<stop  offset="1" style="stop-color:#009739"/>
		</linearGradient>
		
			<rect x="202.3" y="879.79" style="clip-path:url(#SVGID_00000118395815863167258410000006009598105819040669_);fill:url(#SVGID_00000157279117225614532140000015425905377826395565_);" width="174.6" height="237.51"/>
	</g>
	<g>
		<defs>
			<rect id="SVGID_00000028289420639360211890000011730315946735168400_" width="2000" height="2000"/>
		</defs>
		<clipPath id="SVGID_00000151532689245330963450000016378643303083362195_">
			<use xlink:href="#SVGID_00000028289420639360211890000011730315946735168400_"  style="overflow:visible;"/>
		</clipPath>
		<polygon style="clip-path:url(#SVGID_00000151532689245330963450000016378643303083362195_);fill:#0F2B41;" points="
			376.91,879.79 376.9,879.79 329.33,879.79 329.33,974.89 249.91,974.89 249.91,879.79 202.31,879.79 202.29,879.79 202.29,974.89 
			202.29,974.89 202.29,1117.28 202.3,1117.28 249.91,1117.28 249.91,1022.18 329.32,1022.18 329.32,1117.28 376.9,1117.28 
			376.9,1117.28 376.9,1022.18 376.91,1022.18 		"/>
	</g>
	<g>
		<defs>
			<rect id="SVGID_00000139263505078225884700000006300333622551770538_" x="726.9" y="998.54" width="47.74" height="118.76"/>
		</defs>
		<clipPath id="SVGID_00000147904925069016298400000013162392397216332207_">
			<use xlink:href="#SVGID_00000139263505078225884700000006300333622551770538_"  style="overflow:visible;"/>
		</clipPath>
		
			<linearGradient id="SVGID_00000167369684441908925930000016711723292769972128_" gradientUnits="userSpaceOnUse" x1="-2.055839e-06" y1="2000" x2="1" y2="2000" gradientTransform="matrix(0 118.7548 118.7548 0 -236758.7812 998.5402)">
			<stop  offset="0" style="stop-color:#81BB47"/>
			<stop  offset="0.2724" style="stop-color:#71B447"/>
			<stop  offset="0.7728" style="stop-color:#3FA447"/>
			<stop  offset="1" style="stop-color:#109C47"/>
		</linearGradient>
		
			<rect x="726.9" y="998.54" style="clip-path:url(#SVGID_00000147904925069016298400000013162392397216332207_);fill:url(#SVGID_00000167369684441908925930000016711723292769972128_);" width="47.74" height="118.76"/>
	</g>
	<g>
		<defs>
			<rect id="SVGID_00000085946464943887926220000011160467683566213802_" width="2000" height="2000"/>
		</defs>
		<clipPath id="SVGID_00000049908048260250276220000009695526746906102186_">
			<use xlink:href="#SVGID_00000085946464943887926220000011160467683566213802_"  style="overflow:visible;"/>
		</clipPath>
		<polygon style="clip-path:url(#SVGID_00000049908048260250276220000009695526746906102186_);fill:#0F2B41;" points="774.63,879.8 
			726.9,879.8 726.89,879.8 726.89,998.54 726.9,998.54 774.63,998.54 774.64,998.54 774.64,879.8 		"/>
		<path style="clip-path:url(#SVGID_00000049908048260250276220000009695526746906102186_);fill:#E42521;" d="M913.51,923.76
			c-0.53,0.03-1.06,0.09-1.58,0.13c1.35-0.08,2.71-0.18,4.08-0.18C915.17,923.71,914.34,923.73,913.51,923.76"/>
		<path style="clip-path:url(#SVGID_00000049908048260250276220000009695526746906102186_);fill:#E42521;" d="M895.87,926.69
			c-0.51,0.16-1.01,0.35-1.51,0.51c0.61-0.2,1.21-0.41,1.83-0.59C896.09,926.65,895.98,926.66,895.87,926.69"/>
		<path style="clip-path:url(#SVGID_00000049908048260250276220000009695526746906102186_);fill:#E42521;" d="M902.73,925.01
			c-0.05,0.01-0.1,0.03-0.16,0.04c0.06-0.01,0.13-0.03,0.19-0.04C902.75,925.01,902.74,925.01,902.73,925.01"/>
		<path style="clip-path:url(#SVGID_00000049908048260250276220000009695526746906102186_);fill:#E42521;" d="M906.78,924.4
			c0.56-0.08,1.11-0.17,1.68-0.23C907.9,924.23,907.34,924.32,906.78,924.4"/>
		<path style="clip-path:url(#SVGID_00000049908048260250276220000009695526746906102186_);fill:#E42521;" d="M917.25,923.69h-0.49
			c-0.07,0-0.14,0-0.21,0c0.74,0,1.47,0.04,2.2,0.06C918.25,923.74,917.76,923.69,917.25,923.69"/>
	</g>
	<g>
		<defs>
			<path id="SVGID_00000104689200572536908650000006069658708665740732_" d="M948,931.07c-9.38-4.48-19.63-6.72-30.79-6.72
				c-20.12,0-37.19,7.07-51.11,21.23c-10.74,10.88-17.35,23.3-19.94,37.26h-0.66v0c-0.84,4.51-1.26,9.17-1.26,14.03
				c0,0.66,0,1.29,0.03,1.96h-47.53c1.14,65.61,54.66,118.46,120.54,118.46c65.89,0,119.4-52.85,120.54-118.46H990.3
				c0.04-0.63,0.04-1.29,0.04-1.96c0-20.08-7.17-37.33-21.48-51.68c-13.35-13.35-29.23-20.4-47.52-21.33
				C930.83,924.52,939.83,927.01,948,931.07"/>
		</defs>
		<clipPath id="SVGID_00000110439477751655078630000013433123073629346477_">
			<use xlink:href="#SVGID_00000104689200572536908650000006069658708665740732_"  style="overflow:visible;"/>
		</clipPath>
		
			<linearGradient id="SVGID_00000096745432124156971720000004469767289207387028_" gradientUnits="userSpaceOnUse" x1="3.155535e-06" y1="2000" x2="1" y2="2000" gradientTransform="matrix(0 193.4226 193.4226 0 -385927.8438 923.8724)">
			<stop  offset="0" style="stop-color:#FDDF2A"/>
			<stop  offset="1" style="stop-color:#FAB619"/>
		</linearGradient>
		
			<rect x="796.74" y="923.87" style="clip-path:url(#SVGID_00000110439477751655078630000013433123073629346477_);fill:url(#SVGID_00000096745432124156971720000004469767289207387028_);" width="241.08" height="193.42"/>
	</g>
	<g>
		<defs>
			<rect id="SVGID_00000142878069908842806780000016209173380598580893_" width="2000" height="2000"/>
		</defs>
		<clipPath id="SVGID_00000108290674075276824100000000803396338362531719_">
			<use xlink:href="#SVGID_00000142878069908842806780000016209173380598580893_"  style="overflow:visible;"/>
		</clipPath>
		<path style="clip-path:url(#SVGID_00000108290674075276824100000000803396338362531719_);fill:#E42521;" d="M850.52,896.28
			c-14.79,9.85-27.28,22.87-36.49,38.1c4.96-7.98,10.95-15.55,18.03-22.7C837.93,905.82,844.08,900.69,850.52,896.28"/>
		<path style="clip-path:url(#SVGID_00000108290674075276824100000000803396338362531719_);fill:#E42521;" d="M1037.88,996.7
			c0-0.75-0.04-1.49-0.06-2.25c0.01,0.79,0.05,1.58,0.05,2.38C1037.88,996.79,1037.88,996.75,1037.88,996.7"/>
		<path style="clip-path:url(#SVGID_00000108290674075276824100000000803396338362531719_);fill:#E42521;" d="M1037.68,989.98
			c0.01,0.2,0.03,0.4,0.04,0.6C1037.71,990.38,1037.69,990.18,1037.68,989.98"/>
		<path style="clip-path:url(#SVGID_00000108290674075276824100000000803396338362531719_);fill:#E42521;" d="M796.85,990.59
			c0.01-0.22,0.03-0.44,0.05-0.66C796.88,990.15,796.86,990.37,796.85,990.59"/>
		<path style="clip-path:url(#SVGID_00000108290674075276824100000000803396338362531719_);fill:#E42521;" d="M1020.66,934.58
			c-10.19-16.93-24.43-31.14-41.36-41.31c8.15,5.03,15.85,11.16,23.11,18.42C1009.58,918.88,1015.66,926.51,1020.66,934.58"/>
		<path style="clip-path:url(#SVGID_00000108290674075276824100000000803396338362531719_);fill:#E42521;" d="M796.69,996.7
			c0,0.05,0,0.09,0,0.13c0-0.79,0.04-1.57,0.05-2.36C796.73,995.22,796.69,995.96,796.69,996.7"/>
		<path style="clip-path:url(#SVGID_00000108290674075276824100000000803396338362531719_);fill:#0F2B41;" d="M866.1,945.58
			c13.92-14.17,31-21.23,51.11-21.23c11.16,0,21.41,2.24,30.79,6.72c-8.18-4.06-17.17-6.55-26.67-7.2c-0.86-0.04-1.71-0.1-2.58-0.12
			c-0.73-0.03-1.46-0.06-2.2-0.06c-0.18,0-0.36,0.01-0.54,0.01c-1.37,0.01-2.73,0.1-4.08,0.18c-1.16,0.08-2.32,0.16-3.46,0.28
			c-0.56,0.06-1.12,0.15-1.68,0.23c-1.35,0.18-2.7,0.36-4.01,0.61c-0.07,0.01-0.13,0.03-0.19,0.04c-2.15,0.43-4.29,0.95-6.38,1.56
			c-0.62,0.18-1.22,0.4-1.83,0.59c-10.56,3.48-20.17,9.45-28.71,17.99c-10.85,10.95-17.56,23.48-20.15,37.64h0.66
			C848.75,968.89,855.36,956.47,866.1,945.58"/>
		<path style="clip-path:url(#SVGID_00000108290674075276824100000000803396338362531719_);fill:#0F2B41;" d="M1037.82,994.45
			c-0.03-1.29-0.04-2.59-0.1-3.87c-0.01-0.2-0.03-0.4-0.04-0.6c-1.05-20.32-6.73-38.79-17.03-55.4c-5-8.07-11.07-15.7-18.25-22.89
			c-7.26-7.26-14.96-13.39-23.11-18.42c-14.33-8.86-30.05-14.24-47.11-16.21c-4.88-0.56-9.86-0.88-14.97-0.88
			c-4.5,0-8.91,0.24-13.24,0.68c-19.61,1.98-37.43,8.45-53.46,19.43c-6.44,4.41-12.59,9.54-18.46,15.41
			c-7.08,7.14-13.08,14.71-18.03,22.7c-10.36,16.68-16.07,35.19-17.14,55.54c-0.01,0.22-0.04,0.44-0.05,0.66
			c-0.06,1.28-0.07,2.59-0.1,3.88c-0.02,0.79-0.05,1.57-0.05,2.36c0,0.05,0,0.1,0,0.15c0,0.63,0,1.26,0.03,1.85h0.02h47.53
			c-0.03-0.66-0.03-1.29-0.03-1.96c0-4.86,0.42-9.52,1.26-14.03v0c2.59-14.17,9.3-26.69,20.15-37.64
			c8.55-8.55,18.16-14.51,28.72-17.99c0.51-0.17,1-0.36,1.51-0.51c0.1-0.03,0.21-0.05,0.32-0.08c2.09-0.61,4.23-1.13,6.38-1.56
			c0.05-0.01,0.1-0.03,0.16-0.04c0.01,0,0.02,0,0.04-0.01c1.32-0.25,2.67-0.43,4.01-0.61c0.56-0.08,1.12-0.17,1.68-0.23
			c1.14-0.13,2.3-0.21,3.46-0.28c0.53-0.03,1.05-0.1,1.58-0.13c0.83-0.03,1.67-0.04,2.5-0.05c0.18,0,0.36-0.01,0.54-0.01
			c0.07,0,0.14,0,0.21,0h0.49c0.51,0,1,0.06,1.5,0.07c0.87,0.02,1.72,0.07,2.58,0.12c18.3,0.92,34.17,7.97,47.52,21.33
			c14.31,14.34,21.48,31.59,21.48,51.67c0,0.66,0,1.33-0.04,1.96h47.53h0.02c0.03-0.59,0.03-1.22,0.03-1.85c0-0.05,0-0.1,0-0.15
			C1037.88,996.03,1037.84,995.25,1037.82,994.45"/>
	</g>
	<g>
		<defs>
			<path id="SVGID_00000127753362246275953300000001868579454364095109_" d="M563.37,1000.66h47.72v71.3h95.48v47.44h-143.2V1000.66
				z M563.36,1119.41h143.21V881.9H563.36V1119.41z"/>
		</defs>
		<clipPath id="SVGID_00000134223446205050755780000017389254184118309031_">
			<use xlink:href="#SVGID_00000127753362246275953300000001868579454364095109_"  style="overflow:visible;"/>
		</clipPath>
		
			<linearGradient id="SVGID_00000096059378441833665970000009457122399448036261_" gradientUnits="userSpaceOnUse" x1="-2.557093e-06" y1="2000" x2="1" y2="2000" gradientTransform="matrix(143.2138 0 0 -143.2138 563.3644 287428.3125)">
			<stop  offset="0" style="stop-color:#37A7DF"/>
			<stop  offset="0.8542" style="stop-color:#0A99CE"/>
			<stop  offset="0.9951" style="stop-color:#0097CB"/>
			<stop  offset="1" style="stop-color:#0097CB"/>
		</linearGradient>
		
			<rect x="563.36" y="881.9" style="clip-path:url(#SVGID_00000134223446205050755780000017389254184118309031_);fill:url(#SVGID_00000096059378441833665970000009457122399448036261_);" width="143.21" height="237.51"/>
	</g>
	<g>
		<defs>
			<rect id="SVGID_00000157274122461134203990000009426308665317654912_" width="2000" height="2000"/>
		</defs>
		<clipPath id="SVGID_00000141441459288161478280000001203740807578229929_">
			<use xlink:href="#SVGID_00000157274122461134203990000009426308665317654912_"  style="overflow:visible;"/>
		</clipPath>
		<polygon style="clip-path:url(#SVGID_00000141441459288161478280000001203740807578229929_);fill:#0F2B41;" points="
			611.09,1071.96 611.09,1000.66 611.11,1000.66 611.12,1000.66 611.12,881.92 611.11,881.92 563.38,881.92 563.37,881.92 
			563.37,1000.66 563.37,1119.4 706.56,1119.4 706.56,1071.96 		"/>
		<path style="clip-path:url(#SVGID_00000141441459288161478280000001203740807578229929_);fill:#15457C;" d="M1796.2,1087.65
			c0,1.21-0.23,2.23-0.67,3.07c-0.45,0.84-1.08,1.48-1.9,1.92c-0.82,0.44-1.77,0.69-2.88,0.74c-0.6,0.01-1.23,0.02-1.91,0.02
			c-0.67,0-1.32-0.01-1.93-0.02c-1.1-0.05-2.06-0.3-2.87-0.74c-0.81-0.44-1.43-1.08-1.88-1.93c-0.44-0.84-0.66-1.86-0.66-3.06
			c0-0.95,0.14-1.78,0.41-2.49s0.61-1.29,1.03-1.74c0.41-0.46,0.85-0.8,1.29-1.02c0.45-0.22,0.84-0.34,1.18-0.36
			c0.12-0.01,0.22,0.02,0.3,0.1c0.08,0.08,0.11,0.19,0.11,0.33v1.2c0,0.14-0.03,0.23-0.08,0.3c-0.05,0.06-0.15,0.12-0.29,0.17
			c-0.35,0.12-0.7,0.32-1.04,0.6c-0.34,0.28-0.62,0.65-0.85,1.12c-0.22,0.47-0.34,1.06-0.34,1.78c0,1.09,0.29,1.96,0.88,2.62
			c0.58,0.66,1.55,1.02,2.9,1.07c1.21,0.04,2.42,0.04,3.63,0c1.36-0.05,2.34-0.41,2.93-1.08c0.59-0.67,0.89-1.54,0.89-2.61
			c0-0.72-0.14-1.36-0.41-1.93s-0.68-1.01-1.23-1.34c-0.55-0.33-1.26-0.49-2.11-0.49h-0.86v3.06c0,0.14-0.04,0.25-0.13,0.34
			c-0.09,0.09-0.21,0.13-0.36,0.13h-0.65c-0.15,0-0.27-0.04-0.36-0.13c-0.09-0.09-0.13-0.2-0.13-0.34v-4.61
			c0-0.15,0.04-0.27,0.13-0.35c0.09-0.08,0.21-0.12,0.36-0.12h1.96c1.12,0,2.09,0.23,2.92,0.68c0.83,0.46,1.47,1.12,1.93,1.99
			C1795.97,1085.42,1796.2,1086.46,1796.2,1087.65"/>
		<path style="clip-path:url(#SVGID_00000141441459288161478280000001203740807578229929_);fill:#15457C;" d="M1796,1078.49
			c0,0.15-0.04,0.27-0.13,0.35c-0.09,0.08-0.2,0.12-0.34,0.12h-13.32c-0.15,0-0.27-0.04-0.36-0.12c-0.09-0.08-0.13-0.2-0.13-0.35
			v-8.42c0-0.15,0.04-0.27,0.13-0.35c0.09-0.08,0.21-0.12,0.36-0.12h0.78c0.15,0,0.27,0.04,0.35,0.12c0.08,0.08,0.12,0.2,0.12,0.35
			v6.94h4.47v-6.49c0-0.15,0.04-0.27,0.13-0.35c0.09-0.08,0.21-0.12,0.36-0.12h0.76c0.14,0,0.25,0.04,0.34,0.12
			c0.09,0.08,0.13,0.2,0.13,0.35v6.49h4.63v-7.1c0-0.15,0.04-0.27,0.12-0.35c0.08-0.08,0.2-0.12,0.35-0.12h0.8
			c0.14,0,0.25,0.04,0.34,0.12c0.09,0.08,0.13,0.2,0.13,0.35V1078.49z"/>
		<path style="clip-path:url(#SVGID_00000141441459288161478280000001203740807578229929_);fill:#15457C;" d="M1796.2,1062.01
			c0,1.18-0.18,2.18-0.55,2.98c-0.37,0.8-0.84,1.42-1.42,1.85c-0.58,0.43-1.19,0.66-1.82,0.68c-0.11,0-0.21-0.04-0.3-0.13
			c-0.09-0.09-0.13-0.19-0.13-0.32v-1.04c0-0.16,0.04-0.29,0.12-0.37c0.08-0.08,0.18-0.14,0.29-0.16c0.33-0.08,0.65-0.25,0.97-0.51
			c0.32-0.26,0.58-0.63,0.8-1.11c0.21-0.48,0.32-1.1,0.32-1.87c0-1.17-0.21-2.03-0.62-2.58c-0.41-0.55-0.97-0.83-1.66-0.83
			c-0.48,0-0.86,0.15-1.15,0.44c-0.29,0.29-0.55,0.74-0.78,1.34c-0.23,0.6-0.48,1.37-0.76,2.33c-0.29,0.99-0.6,1.82-0.94,2.47
			c-0.34,0.65-0.76,1.14-1.27,1.46c-0.5,0.32-1.14,0.48-1.92,0.48c-0.73,0-1.39-0.2-1.97-0.59c-0.58-0.39-1.04-0.97-1.38-1.71
			c-0.34-0.75-0.51-1.64-0.51-2.69c0-0.84,0.11-1.58,0.34-2.21c0.22-0.63,0.52-1.16,0.9-1.58c0.38-0.42,0.78-0.74,1.2-0.96
			c0.43-0.22,0.85-0.33,1.25-0.35c0.1,0,0.19,0.03,0.28,0.1c0.09,0.07,0.13,0.18,0.13,0.33v1.08c0,0.1-0.03,0.19-0.08,0.3
			c-0.05,0.1-0.16,0.18-0.31,0.23c-0.56,0.08-1.03,0.39-1.41,0.94c-0.38,0.54-0.57,1.25-0.57,2.12c0,0.88,0.17,1.6,0.51,2.15
			c0.34,0.55,0.87,0.83,1.59,0.83c0.46,0,0.85-0.13,1.15-0.39c0.31-0.26,0.58-0.67,0.81-1.22c0.23-0.56,0.48-1.28,0.73-2.18
			c0.3-1.09,0.62-1.98,0.95-2.67c0.33-0.69,0.75-1.21,1.24-1.54c0.5-0.33,1.13-0.5,1.91-0.5c0.86,0,1.59,0.23,2.19,0.67
			c0.61,0.45,1.07,1.08,1.39,1.89C1796.04,1059.95,1796.2,1060.91,1796.2,1062.01"/>
		<path style="clip-path:url(#SVGID_00000141441459288161478280000001203740807578229929_);fill:#15457C;" d="M1796,1050.48
			c0,0.14-0.04,0.25-0.13,0.34c-0.09,0.09-0.2,0.13-0.34,0.13h-11.99v3.92c0,0.14-0.04,0.25-0.13,0.34
			c-0.09,0.09-0.2,0.13-0.34,0.13h-0.86c-0.15,0-0.27-0.04-0.36-0.13c-0.09-0.09-0.13-0.2-0.13-0.34v-9.83
			c0-0.15,0.04-0.27,0.13-0.36c0.09-0.09,0.21-0.13,0.36-0.13h0.86c0.14,0,0.25,0.04,0.34,0.13c0.09,0.09,0.13,0.21,0.13,0.36v3.9
			h11.99c0.14,0,0.25,0.04,0.34,0.13c0.09,0.09,0.13,0.21,0.13,0.36V1050.48z"/>
		<path style="clip-path:url(#SVGID_00000141441459288161478280000001203740807578229929_);fill:#15457C;" d="M1780.8,1037.65
			c0,0.33-0.06,0.6-0.17,0.84c-0.11,0.23-0.23,0.44-0.35,0.62c-0.11,0.18-0.17,0.38-0.17,0.58c0,0.16,0.05,0.28,0.14,0.36
			c0.1,0.08,0.19,0.14,0.3,0.2c0.1,0.06,0.15,0.17,0.15,0.32v0.65c0,0.1-0.03,0.18-0.1,0.24c-0.07,0.07-0.14,0.1-0.22,0.1
			c-0.2,0-0.42-0.04-0.64-0.11c-0.22-0.08-0.43-0.19-0.62-0.35c-0.19-0.16-0.34-0.34-0.46-0.56c-0.12-0.22-0.17-0.46-0.17-0.73
			c0-0.34,0.06-0.63,0.17-0.86s0.23-0.44,0.35-0.63c0.11-0.19,0.17-0.39,0.17-0.59c0-0.16-0.05-0.28-0.15-0.35
			c-0.1-0.07-0.2-0.13-0.31-0.19c-0.1-0.06-0.15-0.17-0.15-0.32v-0.65c0-0.12,0.03-0.21,0.1-0.27c0.07-0.05,0.15-0.08,0.24-0.08
			c0.19,0,0.4,0.04,0.62,0.12c0.22,0.08,0.43,0.2,0.62,0.36c0.19,0.16,0.35,0.34,0.47,0.56
			C1780.74,1037.14,1780.8,1037.38,1780.8,1037.65 M1796,1044.73c0,0.11-0.04,0.2-0.12,0.28c-0.08,0.08-0.18,0.12-0.29,0.12
			c-0.07,0-0.14-0.01-0.22-0.02l-13.2-5.06c-0.14-0.05-0.24-0.13-0.33-0.22c-0.08-0.1-0.12-0.24-0.12-0.43v-1.39
			c0-0.19,0.04-0.33,0.12-0.43c0.08-0.09,0.19-0.17,0.33-0.22l13.2-5.04c0.08-0.03,0.16-0.04,0.22-0.04c0.11,0,0.2,0.04,0.29,0.12
			c0.08,0.08,0.12,0.18,0.12,0.28v1.04c0,0.16-0.04,0.28-0.12,0.36c-0.08,0.08-0.16,0.12-0.22,0.15l-2.9,1.12v6.69l2.9,1.12
			c0.07,0.01,0.14,0.06,0.22,0.14c0.08,0.08,0.12,0.2,0.12,0.37V1044.73z M1791,1041.47v-5.51l-7.24,2.75L1791,1041.47z"/>
		<path style="clip-path:url(#SVGID_00000141441459288161478280000001203740807578229929_);fill:#15457C;" d="M1796.2,1025.23
			c0,1.17-0.2,2.17-0.6,3c-0.4,0.83-1.02,1.47-1.86,1.92c-0.84,0.45-1.89,0.7-3.15,0.75c-0.6,0.01-1.17,0.02-1.72,0.02
			c-0.55,0-1.12-0.01-1.72-0.02c-1.25-0.05-2.29-0.32-3.13-0.79c-0.84-0.47-1.46-1.12-1.88-1.96c-0.41-0.84-0.62-1.81-0.62-2.93
			c0-1.1,0.21-2.07,0.62-2.91c0.41-0.84,1.04-1.49,1.88-1.97c0.84-0.48,1.88-0.73,3.13-0.77c0.6-0.03,1.17-0.04,1.72-0.04
			c0.55,0,1.13,0.01,1.72,0.04c1.26,0.04,2.32,0.29,3.15,0.74c0.84,0.46,1.46,1.1,1.86,1.93S1796.2,1024.07,1796.2,1025.23
			 M1794.47,1025.23c0-1.03-0.31-1.88-0.94-2.54c-0.63-0.66-1.64-1.02-3.04-1.07c-0.61-0.03-1.16-0.04-1.64-0.04
			c-0.48,0-1.02,0.01-1.62,0.04c-0.94,0.03-1.7,0.2-2.29,0.52c-0.58,0.32-1.01,0.74-1.28,1.28c-0.27,0.53-0.41,1.13-0.41,1.81
			c0,0.68,0.14,1.29,0.41,1.82c0.27,0.53,0.7,0.96,1.28,1.27c0.59,0.32,1.35,0.5,2.29,0.54c0.6,0.01,1.14,0.02,1.62,0.02
			c0.48,0,1.03-0.01,1.64-0.02c1.4-0.05,2.41-0.41,3.04-1.08C1794.16,1027.11,1794.47,1026.26,1794.47,1025.23"/>
		<path style="clip-path:url(#SVGID_00000141441459288161478280000001203740807578229929_);fill:#15457C;" d="M1796,1011.87
			c0,0.14-0.04,0.25-0.13,0.34c-0.09,0.09-0.2,0.13-0.34,0.13h-0.65c-0.12,0-0.26-0.03-0.41-0.1c-0.15-0.07-0.31-0.2-0.49-0.41
			l-4.32-4.33c-0.58-0.69-1.08-1.24-1.5-1.64c-0.42-0.4-0.81-0.69-1.19-0.86c-0.38-0.17-0.77-0.26-1.18-0.26
			c-0.78,0-1.39,0.22-1.85,0.65c-0.46,0.44-0.68,1.08-0.68,1.94c0,0.54,0.11,1.01,0.34,1.41c0.22,0.4,0.53,0.7,0.92,0.92
			c0.39,0.22,0.83,0.37,1.32,0.45c0.18,0.03,0.3,0.1,0.37,0.21c0.07,0.12,0.1,0.22,0.1,0.32v1.06c0,0.12-0.04,0.22-0.11,0.31
			c-0.08,0.08-0.17,0.12-0.28,0.12c-0.52-0.01-1.04-0.12-1.56-0.33c-0.52-0.2-1-0.51-1.43-0.91c-0.43-0.4-0.77-0.9-1.03-1.49
			c-0.26-0.59-0.39-1.28-0.39-2.07c0-1.08,0.19-1.96,0.58-2.64c0.39-0.69,0.9-1.19,1.54-1.52c0.64-0.33,1.34-0.49,2.1-0.49
			c0.6,0,1.15,0.1,1.64,0.31c0.5,0.2,0.98,0.5,1.45,0.89c0.47,0.39,0.95,0.87,1.44,1.44l3.98,3.92v-6.36c0-0.15,0.04-0.27,0.12-0.36
			c0.08-0.09,0.2-0.13,0.35-0.13h0.84c0.14,0,0.25,0.04,0.34,0.13c0.09,0.09,0.13,0.21,0.13,0.36V1011.87z"/>
		<path style="clip-path:url(#SVGID_00000141441459288161478280000001203740807578229929_);fill:#15457C;" d="M1796.2,994.9
			c0,0.94-0.15,1.73-0.44,2.38s-0.7,1.17-1.21,1.58c-0.52,0.41-1.11,0.7-1.77,0.89c-0.67,0.18-1.37,0.29-2.12,0.32
			c-0.37,0.01-0.76,0.02-1.16,0.03c-0.41,0.01-0.82,0.01-1.24,0c-0.42-0.01-0.82-0.02-1.2-0.03c-0.75-0.01-1.46-0.12-2.12-0.32
			c-0.67-0.2-1.25-0.5-1.76-0.91c-0.51-0.41-0.91-0.93-1.2-1.58c-0.29-0.64-0.44-1.43-0.44-2.36c0-0.94,0.15-1.73,0.44-2.38
			c0.29-0.65,0.69-1.17,1.2-1.58c0.51-0.41,1.1-0.71,1.76-0.91c0.67-0.2,1.38-0.3,2.12-0.32c0.38-0.01,0.78-0.02,1.2-0.03
			c0.42-0.01,0.84-0.01,1.24,0c0.41,0.01,0.8,0.02,1.16,0.03c0.75,0.01,1.45,0.12,2.12,0.32c0.67,0.2,1.26,0.5,1.77,0.9
			c0.52,0.4,0.92,0.92,1.21,1.57S1796.2,993.94,1796.2,994.9 M1794.45,994.9c0-1.06-0.35-1.85-1.04-2.36
			c-0.69-0.51-1.65-0.77-2.86-0.79c-0.39-0.03-0.78-0.04-1.15-0.04h-1.12c-0.37,0-0.74,0.01-1.11,0.04
			c-1.18,0.01-2.13,0.28-2.85,0.79c-0.71,0.51-1.07,1.29-1.07,2.36c0,1.05,0.36,1.83,1.07,2.34c0.71,0.51,1.66,0.78,2.85,0.81
			c0.37,0,0.74,0,1.11,0.01c0.37,0.01,0.75,0.01,1.12,0s0.76-0.01,1.15-0.01c1.21-0.03,2.16-0.3,2.86-0.82
			C1794.1,996.71,1794.45,995.93,1794.45,994.9"/>
		<path style="clip-path:url(#SVGID_00000141441459288161478280000001203740807578229929_);fill:#15457C;" d="M1796,986.94
			c0,0.14-0.04,0.25-0.13,0.34c-0.09,0.09-0.2,0.13-0.34,0.13h-0.65c-0.12,0-0.26-0.03-0.41-0.1c-0.15-0.07-0.31-0.2-0.49-0.41
			l-4.32-4.33c-0.58-0.69-1.08-1.24-1.5-1.64c-0.42-0.4-0.81-0.69-1.19-0.86c-0.38-0.17-0.77-0.26-1.18-0.26
			c-0.78,0-1.39,0.22-1.85,0.65c-0.46,0.44-0.68,1.08-0.68,1.94c0,0.54,0.11,1.01,0.34,1.41c0.22,0.39,0.53,0.7,0.92,0.92
			c0.39,0.22,0.83,0.37,1.32,0.45c0.18,0.03,0.3,0.1,0.37,0.21c0.07,0.11,0.1,0.22,0.1,0.32v1.06c0,0.12-0.04,0.22-0.11,0.31
			c-0.08,0.08-0.17,0.12-0.28,0.12c-0.52-0.01-1.04-0.12-1.56-0.33c-0.52-0.2-1-0.51-1.43-0.91c-0.43-0.4-0.77-0.9-1.03-1.49
			c-0.26-0.59-0.39-1.28-0.39-2.07c0-1.07,0.19-1.95,0.58-2.64c0.39-0.69,0.9-1.19,1.54-1.52c0.64-0.33,1.34-0.49,2.1-0.49
			c0.6,0,1.15,0.1,1.64,0.31c0.5,0.2,0.98,0.5,1.45,0.89c0.47,0.39,0.95,0.87,1.44,1.44l3.98,3.92v-6.36c0-0.15,0.04-0.27,0.12-0.36
			c0.08-0.09,0.2-0.13,0.35-0.13h0.84c0.14,0,0.25,0.04,0.34,0.13c0.09,0.09,0.13,0.21,0.13,0.36V986.94z"/>
		<path style="clip-path:url(#SVGID_00000141441459288161478280000001203740807578229929_);fill:#15457C;" d="M1796.2,970.48
			c0,1.07-0.19,1.98-0.56,2.72c-0.37,0.74-0.86,1.31-1.46,1.69c-0.6,0.39-1.23,0.59-1.9,0.62c-0.12,0.01-0.22-0.02-0.3-0.1
			c-0.07-0.08-0.11-0.18-0.11-0.31v-1.1c0-0.12,0.03-0.23,0.09-0.33c0.06-0.09,0.18-0.17,0.36-0.22c0.5-0.14,0.92-0.36,1.23-0.66
			s0.55-0.66,0.69-1.06c0.14-0.4,0.21-0.82,0.21-1.25c0-0.58-0.12-1.12-0.36-1.6c-0.24-0.48-0.59-0.87-1.06-1.15
			s-1.04-0.43-1.7-0.43c-0.61,0-1.14,0.14-1.58,0.42c-0.44,0.28-0.78,0.66-1.02,1.14c-0.24,0.48-0.36,1.02-0.36,1.62
			c0,0.45,0.05,0.82,0.16,1.1c0.11,0.29,0.24,0.53,0.39,0.72c0.15,0.2,0.28,0.37,0.39,0.53c0.11,0.16,0.16,0.33,0.16,0.52v1.06
			c0,0.12-0.04,0.23-0.13,0.33c-0.09,0.1-0.19,0.14-0.32,0.12l-6.81-0.65c-0.16-0.01-0.29-0.06-0.38-0.15
			c-0.09-0.09-0.13-0.21-0.13-0.36v-7.12c0-0.14,0.04-0.25,0.13-0.34c0.09-0.09,0.2-0.13,0.34-0.13h0.8c0.15,0,0.27,0.05,0.35,0.13
			c0.08,0.09,0.12,0.2,0.12,0.34v5.88l4.02,0.39c-0.12-0.2-0.27-0.51-0.44-0.93c-0.17-0.42-0.26-0.99-0.26-1.72
			c0-0.68,0.1-1.32,0.31-1.91c0.2-0.59,0.5-1.11,0.9-1.57c0.39-0.46,0.87-0.81,1.44-1.07c0.57-0.26,1.21-0.39,1.95-0.39
			c1.03,0,1.91,0.22,2.63,0.67c0.72,0.45,1.27,1.07,1.64,1.86C1796.02,968.57,1796.2,969.47,1796.2,970.48"/>
		<path style="clip-path:url(#SVGID_00000141441459288161478280000001203740807578229929_);fill:#15457C;" d="M1797.71,963.46
			c0,0.11-0.04,0.2-0.12,0.29c-0.08,0.08-0.18,0.12-0.29,0.12c-0.07,0-0.15-0.02-0.24-0.06l-16.73-6.98
			c-0.08-0.04-0.16-0.1-0.24-0.17c-0.08-0.07-0.12-0.19-0.12-0.36v-0.8c0-0.11,0.04-0.2,0.12-0.29c0.08-0.08,0.18-0.12,0.29-0.12
			c0.05,0,0.14,0.01,0.24,0.04l16.73,7c0.07,0.03,0.15,0.08,0.23,0.16c0.09,0.08,0.13,0.2,0.13,0.37V963.46z"/>
		<path style="clip-path:url(#SVGID_00000141441459288161478280000001203740807578229929_);fill:#15457C;" d="M1796,953.38
			c0,0.14-0.04,0.25-0.13,0.34c-0.09,0.09-0.2,0.13-0.34,0.13h-0.65c-0.12,0-0.26-0.03-0.41-0.1c-0.15-0.07-0.31-0.2-0.49-0.41
			l-4.32-4.32c-0.58-0.69-1.08-1.24-1.5-1.64c-0.42-0.4-0.81-0.69-1.19-0.86c-0.38-0.17-0.77-0.26-1.18-0.26
			c-0.78,0-1.39,0.22-1.85,0.65c-0.46,0.44-0.68,1.08-0.68,1.94c0,0.54,0.11,1.01,0.34,1.41c0.22,0.39,0.53,0.7,0.92,0.92
			c0.39,0.22,0.83,0.37,1.32,0.45c0.18,0.03,0.3,0.1,0.37,0.21c0.07,0.11,0.1,0.22,0.1,0.32v1.06c0,0.12-0.04,0.22-0.11,0.31
			c-0.08,0.08-0.17,0.12-0.28,0.12c-0.52-0.01-1.04-0.12-1.56-0.33c-0.52-0.2-1-0.51-1.43-0.91c-0.43-0.4-0.77-0.9-1.03-1.49
			c-0.26-0.59-0.39-1.28-0.39-2.07c0-1.07,0.19-1.95,0.58-2.64c0.39-0.69,0.9-1.19,1.54-1.52c0.64-0.33,1.34-0.49,2.1-0.49
			c0.6,0,1.15,0.1,1.64,0.31c0.5,0.2,0.98,0.5,1.45,0.89c0.47,0.39,0.95,0.87,1.44,1.44l3.98,3.92v-6.36c0-0.15,0.04-0.27,0.12-0.36
			c0.08-0.09,0.2-0.13,0.35-0.13h0.84c0.14,0,0.25,0.04,0.34,0.13c0.09,0.09,0.13,0.21,0.13,0.36V953.38z"/>
		<path style="clip-path:url(#SVGID_00000141441459288161478280000001203740807578229929_);fill:#15457C;" d="M1796.2,936.41
			c0,0.94-0.15,1.73-0.44,2.38c-0.29,0.65-0.7,1.17-1.21,1.58c-0.52,0.41-1.11,0.7-1.77,0.89c-0.67,0.18-1.37,0.29-2.12,0.32
			c-0.37,0.01-0.76,0.02-1.16,0.03c-0.41,0.01-0.82,0.01-1.24,0c-0.42-0.01-0.82-0.02-1.2-0.03c-0.75-0.01-1.46-0.12-2.12-0.32
			c-0.67-0.2-1.25-0.5-1.76-0.91c-0.51-0.41-0.91-0.93-1.2-1.58c-0.29-0.65-0.44-1.43-0.44-2.36c0-0.94,0.15-1.73,0.44-2.38
			c0.29-0.65,0.69-1.17,1.2-1.58c0.51-0.41,1.1-0.71,1.76-0.91c0.67-0.2,1.38-0.3,2.12-0.32c0.38-0.01,0.78-0.02,1.2-0.03
			c0.42-0.01,0.84-0.01,1.24,0c0.41,0.01,0.8,0.02,1.16,0.03c0.75,0.01,1.45,0.12,2.12,0.32c0.67,0.2,1.26,0.5,1.77,0.9
			c0.52,0.4,0.92,0.92,1.21,1.57S1796.2,935.46,1796.2,936.41 M1794.45,936.41c0-1.06-0.35-1.85-1.04-2.36
			c-0.69-0.51-1.65-0.77-2.86-0.79c-0.39-0.03-0.78-0.04-1.15-0.04h-1.12c-0.37,0-0.74,0.01-1.11,0.04
			c-1.18,0.01-2.13,0.28-2.85,0.79c-0.71,0.51-1.07,1.3-1.07,2.36c0,1.05,0.36,1.83,1.07,2.34c0.71,0.51,1.66,0.78,2.85,0.81
			c0.37,0,0.74,0,1.11,0.01c0.37,0.01,0.75,0.01,1.12,0c0.37-0.01,0.76-0.01,1.15-0.01c1.21-0.03,2.16-0.3,2.86-0.82
			C1794.1,938.22,1794.45,937.44,1794.45,936.41"/>
		<path style="clip-path:url(#SVGID_00000141441459288161478280000001203740807578229929_);fill:#15457C;" d="M1796,928.46
			c0,0.14-0.04,0.25-0.13,0.34c-0.09,0.09-0.2,0.13-0.34,0.13h-0.65c-0.12,0-0.26-0.03-0.41-0.1c-0.15-0.07-0.31-0.2-0.49-0.41
			l-4.32-4.32c-0.58-0.69-1.08-1.24-1.5-1.64c-0.42-0.4-0.81-0.69-1.19-0.86c-0.38-0.17-0.77-0.26-1.18-0.26
			c-0.78,0-1.39,0.22-1.85,0.65c-0.46,0.44-0.68,1.08-0.68,1.94c0,0.54,0.11,1.01,0.34,1.41c0.22,0.39,0.53,0.7,0.92,0.92
			c0.39,0.22,0.83,0.37,1.32,0.45c0.18,0.03,0.3,0.1,0.37,0.21c0.07,0.11,0.1,0.22,0.1,0.32v1.06c0,0.12-0.04,0.22-0.11,0.31
			c-0.08,0.08-0.17,0.12-0.28,0.12c-0.52-0.01-1.04-0.12-1.56-0.33c-0.52-0.2-1-0.51-1.43-0.91c-0.43-0.4-0.77-0.9-1.03-1.49
			c-0.26-0.59-0.39-1.28-0.39-2.07c0-1.07,0.19-1.95,0.58-2.64c0.39-0.69,0.9-1.19,1.54-1.52c0.64-0.33,1.34-0.49,2.1-0.49
			c0.6,0,1.15,0.1,1.64,0.31c0.5,0.2,0.98,0.5,1.45,0.89c0.47,0.39,0.95,0.87,1.44,1.44l3.98,3.92v-6.36c0-0.15,0.04-0.27,0.12-0.36
			c0.08-0.09,0.2-0.13,0.35-0.13h0.84c0.14,0,0.25,0.04,0.34,0.13c0.09,0.09,0.13,0.21,0.13,0.36V928.46z"/>
		<path style="clip-path:url(#SVGID_00000141441459288161478280000001203740807578229929_);fill:#15457C;" d="M1796.2,911.46
			c0,0.79-0.1,1.51-0.3,2.17c-0.2,0.66-0.49,1.22-0.87,1.69c-0.38,0.47-0.83,0.83-1.36,1.09c-0.52,0.26-1.12,0.39-1.79,0.39
			c-0.83,0-1.54-0.2-2.14-0.6c-0.6-0.4-1.05-0.93-1.37-1.6c-0.31,0.53-0.72,0.94-1.22,1.24c-0.5,0.3-1.1,0.45-1.8,0.45
			c-0.82,0-1.51-0.2-2.07-0.6c-0.56-0.4-1-0.96-1.31-1.69s-0.47-1.57-0.47-2.54c0-0.95,0.15-1.79,0.46-2.52
			c0.31-0.73,0.74-1.29,1.32-1.69c0.57-0.4,1.26-0.6,2.06-0.6c0.69,0,1.3,0.15,1.81,0.45c0.51,0.3,0.92,0.71,1.23,1.22
			c0.31-0.67,0.77-1.2,1.37-1.6c0.6-0.4,1.31-0.6,2.14-0.6c0.88,0,1.65,0.22,2.3,0.67c0.65,0.45,1.14,1.07,1.49,1.88
			C1796.03,909.47,1796.2,910.4,1796.2,911.46 M1787.65,911.46c0-0.52-0.09-1-0.29-1.44c-0.19-0.44-0.45-0.8-0.78-1.06
			c-0.33-0.27-0.72-0.4-1.18-0.4c-0.46,0-0.86,0.13-1.2,0.38c-0.34,0.25-0.6,0.6-0.79,1.04c-0.18,0.44-0.28,0.93-0.28,1.48
			c0,0.54,0.09,1.04,0.28,1.48c0.18,0.44,0.45,0.79,0.79,1.05c0.34,0.26,0.74,0.39,1.2,0.39c0.48,0,0.88-0.13,1.21-0.39
			c0.33-0.26,0.59-0.61,0.77-1.05C1787.57,912.5,1787.65,912.01,1787.65,911.46 M1794.57,911.46c0-0.62-0.11-1.19-0.33-1.69
			c-0.22-0.5-0.53-0.9-0.93-1.2c-0.4-0.3-0.87-0.45-1.42-0.45c-0.56,0-1.03,0.15-1.42,0.45c-0.39,0.3-0.69,0.7-0.9,1.2
			c-0.21,0.5-0.32,1.07-0.32,1.69c0,0.63,0.11,1.19,0.32,1.7c0.21,0.51,0.51,0.92,0.9,1.21c0.39,0.3,0.86,0.45,1.42,0.45
			c0.54,0,1.02-0.15,1.42-0.45c0.4-0.3,0.71-0.7,0.93-1.21C1794.46,912.66,1794.57,912.09,1794.57,911.46"/>
		<path style="clip-path:url(#SVGID_00000141441459288161478280000001203740807578229929_);fill:#0F2B41;" d="M203.84,801.23h14.99
			c3.12,0,5.79,0.64,7.99,1.93c2.2,1.29,3.87,3.03,4.99,5.23c1.12,2.2,1.68,4.69,1.68,7.44c0,2.76-0.56,5.23-1.68,7.41
			c-1.12,2.19-2.78,3.91-4.99,5.18c-2.21,1.27-4.87,1.9-7.99,1.9h-5.07v9.48h-9.92V801.23z M218.28,820.74
			c1.51,0,2.75-0.46,3.72-1.38c0.97-0.92,1.46-2.07,1.46-3.47c0-1.43-0.51-2.63-1.51-3.61c-1.01-0.97-2.23-1.46-3.66-1.46h-4.52
			v9.92H218.28z"/>
		<path style="clip-path:url(#SVGID_00000141441459288161478280000001203740807578229929_);fill:#0F2B41;" d="M243.91,801.23h14.99
			c4.77,0,8.41,1.1,10.91,3.31c2.5,2.2,3.75,5.31,3.75,9.31c0,2.57-0.57,4.79-1.71,6.64c-1.14,1.86-2.83,3.28-5.07,4.27l8.54,15.04
			h-11.08l-7.55-13.67h-2.87v13.67h-9.92V801.23z M259.01,817.49c1.58,0,2.73-0.26,3.44-0.77c0.72-0.51,1.08-1.3,1.08-2.37
			c0-2.35-1.51-3.53-4.52-3.53h-5.18v6.67H259.01z"/>
		<polygon style="clip-path:url(#SVGID_00000141441459288161478280000001203740807578229929_);fill:#0F2B41;" points="285.9,801.23 
			314.89,801.23 314.89,811.04 295.82,811.04 295.82,815.51 314.89,815.51 314.89,825.32 295.82,825.32 295.82,830 315.44,830 
			315.44,839.81 285.9,839.81 		"/>
		<polygon style="clip-path:url(#SVGID_00000141441459288161478280000001203740807578229929_);fill:#0F2B41;" points="
			326.68,801.23 355.67,801.23 355.67,811.04 336.6,811.04 336.6,815.51 355.39,815.51 355.39,825.32 336.6,825.32 336.6,839.81 
			326.68,839.81 		"/>
		<polygon style="clip-path:url(#SVGID_00000141441459288161478280000001203740807578229929_);fill:#0F2B41;" points="366.8,801.23 
			395.78,801.23 395.78,811.04 376.72,811.04 376.72,815.51 395.78,815.51 395.78,825.32 376.72,825.32 376.72,830 396.33,830 
			396.33,839.81 366.8,839.81 		"/>
		
			<rect x="407.69" y="801.23" style="clip-path:url(#SVGID_00000141441459288161478280000001203740807578229929_);fill:#0F2B41;" width="9.92" height="38.57"/>
		<polygon style="clip-path:url(#SVGID_00000141441459288161478280000001203740807578229929_);fill:#0F2B41;" points="
			437.83,811.04 428.41,811.04 428.41,801.23 457.12,801.23 457.12,811.04 447.75,811.04 447.75,839.81 437.83,839.81 		"/>
		<path style="clip-path:url(#SVGID_00000141441459288161478280000001203740807578229929_);fill:#0F2B41;" d="M476.87,839.18
			c-2.22-0.79-4.09-2.09-5.59-3.91c-1.51-1.82-2.26-4.2-2.26-7.14v-26.89h9.92v25.46c0,1.58,0.42,2.76,1.27,3.55
			c0.85,0.79,1.96,1.18,3.36,1.18s2.54-0.4,3.45-1.18c0.9-0.79,1.35-1.97,1.35-3.55v-25.46h9.92v26.89c0,2.94-0.76,5.32-2.29,7.14
			c-1.52,1.82-3.41,3.12-5.65,3.91c-2.24,0.79-4.5,1.19-6.78,1.19C481.33,840.36,479.09,839.97,476.87,839.18"/>
		<path style="clip-path:url(#SVGID_00000141441459288161478280000001203740807578229929_);fill:#0F2B41;" d="M511.18,801.23h14.99
			c4.78,0,8.41,1.1,10.91,3.31c2.5,2.2,3.75,5.31,3.75,9.31c0,2.57-0.57,4.79-1.71,6.64c-1.14,1.86-2.83,3.28-5.07,4.27l8.54,15.04
			h-11.08l-7.55-13.67h-2.87v13.67h-9.92V801.23z M526.28,817.49c1.58,0,2.73-0.26,3.44-0.77c0.72-0.51,1.08-1.3,1.08-2.37
			c0-2.35-1.51-3.53-4.52-3.53h-5.18v6.67H526.28z"/>
		<path style="clip-path:url(#SVGID_00000141441459288161478280000001203740807578229929_);fill:#0F2B41;" d="M563.64,801.23h11.13
			l11.46,38.57h-10.47l-1.6-6.5h-9.92l-1.54,6.5h-10.52L563.64,801.23z M571.96,823.99l-2.76-11.3l-2.7,11.3H571.96z"/>
		<polygon style="clip-path:url(#SVGID_00000141441459288161478280000001203740807578229929_);fill:#0F2B41;" points="
			616.54,801.23 629.38,801.23 638.86,823.33 648.06,801.23 660.85,801.23 660.85,839.81 650.93,839.81 650.93,817.82 
			644.42,832.65 633.29,832.65 626.46,817.6 626.46,839.81 616.54,839.81 		"/>
		<path style="clip-path:url(#SVGID_00000141441459288161478280000001203740807578229929_);fill:#0F2B41;" d="M681.59,839.18
			c-2.22-0.79-4.09-2.09-5.59-3.91c-1.51-1.82-2.26-4.2-2.26-7.14v-26.89h9.92v25.46c0,1.58,0.42,2.76,1.27,3.55
			c0.84,0.79,1.96,1.18,3.36,1.18s2.54-0.4,3.45-1.18c0.9-0.79,1.35-1.97,1.35-3.55v-25.46H703v26.89c0,2.94-0.76,5.32-2.29,7.14
			c-1.52,1.82-3.41,3.12-5.65,3.91c-2.24,0.79-4.5,1.19-6.78,1.19C686.05,840.36,683.82,839.97,681.59,839.18"/>
		<polygon style="clip-path:url(#SVGID_00000141441459288161478280000001203740807578229929_);fill:#0F2B41;" points="715.9,801.23 
			724.83,801.23 736.67,820.91 736.67,801.23 746.04,801.23 746.04,839.81 737.17,839.81 725.27,819.92 725.27,839.81 715.9,839.81 
					"/>
		
			<rect x="757.84" y="801.23" style="clip-path:url(#SVGID_00000141441459288161478280000001203740807578229929_);fill:#0F2B41;" width="9.92" height="38.57"/>
		<path style="clip-path:url(#SVGID_00000141441459288161478280000001203740807578229929_);fill:#0F2B41;" d="M788.17,838.13
			c-2.81-1.49-5.04-3.73-6.7-6.72c-1.65-2.99-2.48-6.64-2.48-10.94c0-4.26,0.83-7.88,2.48-10.86c1.65-2.98,3.89-5.21,6.72-6.7
			c2.83-1.49,5.99-2.23,9.48-2.23c3.89,0,7.18,0.83,9.86,2.48v10.47c-2.72-1.8-5.71-2.7-8.98-2.7c-2.83,0-5.09,0.77-6.78,2.31
			c-1.69,1.54-2.53,4.01-2.53,7.39c0,3.27,0.8,5.67,2.4,7.19c1.6,1.53,3.79,2.29,6.58,2.29c3.49,0,6.72-1.06,9.7-3.2v11.02
			c-1.21,0.77-2.76,1.37-4.63,1.79c-1.87,0.42-3.77,0.63-5.68,0.63C794.13,840.36,790.98,839.62,788.17,838.13"/>
		
			<rect x="819.55" y="801.23" style="clip-path:url(#SVGID_00000141441459288161478280000001203740807578229929_);fill:#0F2B41;" width="9.92" height="38.57"/>
		<path style="clip-path:url(#SVGID_00000141441459288161478280000001203740807578229929_);fill:#0F2B41;" d="M841.27,801.23h14.99
			c3.12,0,5.79,0.64,7.99,1.93c2.2,1.29,3.87,3.03,4.99,5.23c1.12,2.2,1.68,4.69,1.68,7.44c0,2.76-0.56,5.23-1.68,7.41
			c-1.12,2.19-2.78,3.91-4.99,5.18c-2.21,1.27-4.87,1.9-7.99,1.9h-5.07v9.48h-9.92V801.23z M855.7,820.74
			c1.51,0,2.75-0.46,3.72-1.38c0.97-0.92,1.46-2.07,1.46-3.47c0-1.43-0.51-2.63-1.52-3.61c-1.01-0.97-2.23-1.46-3.66-1.46h-4.52
			v9.92H855.7z"/>
		<path style="clip-path:url(#SVGID_00000141441459288161478280000001203740807578229929_);fill:#0F2B41;" d="M887.67,801.23h11.13
			l11.46,38.57h-10.47l-1.6-6.5h-9.92l-1.54,6.5h-10.52L887.67,801.23z M895.99,823.99l-2.76-11.3l-2.7,11.3H895.99z"/>
		<polygon style="clip-path:url(#SVGID_00000141441459288161478280000001203740807578229929_);fill:#0F2B41;" points="
			920.95,801.23 930.87,801.23 930.87,830 950.49,830 950.49,839.81 920.95,839.81 		"/>
		<path style="clip-path:url(#SVGID_00000141441459288161478280000001203740807578229929_);fill:#0F2B41;" d="M980.91,801.23h14.11
			c3.89,0,7.35,0.72,10.36,2.18c3.01,1.45,5.38,3.63,7.11,6.53c1.73,2.9,2.59,6.41,2.59,10.53c0,4.15-0.86,7.68-2.59,10.58
			c-1.73,2.9-4.1,5.09-7.11,6.56c-3.01,1.47-6.47,2.2-10.36,2.2h-14.11V801.23z M995.02,830.22c3.12,0,5.56-0.83,7.3-2.48
			c1.75-1.65,2.62-4.06,2.62-7.22c0-3.2-0.86-5.61-2.59-7.25c-1.73-1.63-4.17-2.45-7.33-2.45h-4.19v19.4H995.02z"/>
		<polygon style="clip-path:url(#SVGID_00000141441459288161478280000001203740807578229929_);fill:#0F2B41;" points="
			1026.21,801.23 1055.19,801.23 1055.19,811.04 1036.12,811.04 1036.12,815.51 1055.19,815.51 1055.19,825.32 1036.12,825.32 
			1036.12,830 1055.74,830 1055.74,839.81 1026.21,839.81 		"/>
		<polygon style="clip-path:url(#SVGID_00000141441459288161478280000001203740807578229929_);fill:#0F2B41;" points="364.8,1172 
			356.62,1172 356.62,1163.48 381.55,1163.48 381.55,1172 373.42,1172 373.42,1196.98 364.8,1196.98 		"/>
		<path style="clip-path:url(#SVGID_00000141441459288161478280000001203740807578229929_);fill:#0F2B41;" d="M412.08,1163.48h13.02
			c4.15,0,7.3,0.96,9.48,2.87c2.17,1.91,3.25,4.61,3.25,8.09c0,2.23-0.5,4.16-1.48,5.77c-0.99,1.61-2.46,2.85-4.4,3.71l7.42,13.06
			h-9.62l-6.56-11.87h-2.49v11.87h-8.61V1163.48z M425.19,1177.6c1.37,0,2.37-0.22,2.99-0.67c0.62-0.45,0.93-1.13,0.93-2.06
			c0-2.04-1.31-3.06-3.92-3.06h-4.5v5.79H425.19z"/>
		<path style="clip-path:url(#SVGID_00000141441459288161478280000001203740807578229929_);fill:#0F2B41;" d="M478.88,1163.48h9.67
			l9.95,33.5h-9.09l-1.39-5.65h-8.61l-1.34,5.65h-9.14L478.88,1163.48z M486.11,1183.25l-2.39-9.81l-2.34,9.81H486.11z"/>
		<path style="clip-path:url(#SVGID_00000141441459288161478280000001203740807578229929_);fill:#0F2B41;" d="M529.03,1163.48h13.02
			c4.02,0,6.99,0.82,8.9,2.46c1.91,1.64,2.87,3.74,2.87,6.29c0,1.72-0.39,3.17-1.17,4.35c-0.78,1.18-1.76,2.01-2.94,2.49
			c1.69,0.45,3.12,1.38,4.28,2.8c1.16,1.42,1.75,3.25,1.75,5.48c0,2.84-0.97,5.15-2.9,6.94c-1.93,1.79-4.89,2.68-8.88,2.68h-14.93
			V1163.48z M541.76,1176.98c1.08,0,1.93-0.21,2.54-0.65c0.61-0.43,0.91-1.08,0.91-1.94c0-1.72-1.2-2.58-3.59-2.58h-3.97v5.17
			H541.76z M543.1,1188.66c1.5,0,2.55-0.2,3.16-0.6c0.61-0.4,0.91-1,0.91-1.79c0-0.8-0.33-1.38-0.98-1.75
			c-0.65-0.37-1.78-0.55-3.37-0.55h-5.17v4.69H543.1z"/>
		<path style="clip-path:url(#SVGID_00000141441459288161478280000001203740807578229929_);fill:#0F2B41;" d="M594.16,1163.48h9.67
			l9.95,33.5h-9.09l-1.39-5.65h-8.61l-1.34,5.65h-9.14L594.16,1163.48z M601.39,1183.25l-2.39-9.81l-2.34,9.81H601.39z"/>
		<polygon style="clip-path:url(#SVGID_00000141441459288161478280000001203740807578229929_);fill:#0F2B41;" points="
			644.31,1163.48 652.92,1163.48 652.92,1188.46 669.96,1188.46 669.96,1196.98 644.31,1196.98 		"/>
		<polygon style="clip-path:url(#SVGID_00000141441459288161478280000001203740807578229929_);fill:#0F2B41;" points="
			700.58,1163.48 709.2,1163.48 709.2,1175.83 720.25,1175.83 720.25,1163.48 728.86,1163.48 728.86,1196.98 720.25,1196.98 
			720.25,1184.35 709.2,1184.35 709.2,1196.98 700.58,1196.98 		"/>
		<path style="clip-path:url(#SVGID_00000141441459288161478280000001203740807578229929_);fill:#0F2B41;" d="M767.7,1195.5
			c-2.41-1.31-4.33-3.26-5.77-5.86c-1.44-2.6-2.15-5.75-2.15-9.45c0-3.7,0.72-6.84,2.15-9.43s3.36-4.52,5.77-5.81
			c2.41-1.29,5.05-1.94,7.92-1.94c2.87,0,5.5,0.65,7.9,1.94c2.39,1.29,4.31,3.23,5.74,5.81c1.44,2.58,2.15,5.73,2.15,9.43
			c0,3.7-0.72,6.85-2.15,9.45c-1.43,2.6-3.35,4.55-5.74,5.86c-2.39,1.31-5.02,1.96-7.9,1.96
			C772.75,1197.46,770.11,1196.81,767.7,1195.5 M780.47,1186.5c1.35-1.37,2.03-3.46,2.03-6.27c0-2.84-0.67-4.94-2.01-6.29
			c-1.34-1.36-2.97-2.03-4.88-2.03s-3.55,0.68-4.9,2.03c-1.36,1.36-2.03,3.45-2.03,6.29c0,2.81,0.68,4.9,2.03,6.27
			c1.36,1.37,2.99,2.06,4.9,2.06C777.5,1188.56,779.12,1187.87,780.47,1186.5"/>
		<path style="clip-path:url(#SVGID_00000141441459288161478280000001203740807578229929_);fill:#0F2B41;" d="M801.34,1196.33
			c-0.72-0.75-1.08-1.65-1.08-2.7s0.38-1.95,1.12-2.7c0.75-0.75,1.65-1.12,2.7-1.12c1.05,0,1.96,0.38,2.7,1.12
			c0.75,0.75,1.12,1.65,1.12,2.7l-3.49,9.19h-2.58l1.96-5.36C802.88,1197.46,802.06,1197.08,801.34,1196.33"/>
		<path style="clip-path:url(#SVGID_00000141441459288161478280000001203740807578229929_);fill:#0F2B41;" d="M867.21,1163.48h12.25
			c3.38,0,6.38,0.63,9,1.89c2.62,1.26,4.67,3.15,6.17,5.67c1.5,2.52,2.25,5.57,2.25,9.14c0,3.6-0.75,6.67-2.25,9.19
			c-1.5,2.52-3.56,4.42-6.17,5.69c-2.62,1.28-5.61,1.91-9,1.91h-12.25V1163.48z M879.46,1188.66c2.71,0,4.82-0.72,6.34-2.15
			c1.52-1.44,2.27-3.53,2.27-6.27c0-2.78-0.75-4.87-2.25-6.29c-1.5-1.42-3.62-2.13-6.36-2.13h-3.64v16.84H879.46z"/>
		
			<rect x="927.89" y="1163.48" style="clip-path:url(#SVGID_00000141441459288161478280000001203740807578229929_);fill:#0F2B41;" width="8.61" height="33.5"/>
		<path style="clip-path:url(#SVGID_00000141441459288161478280000001203740807578229929_);fill:#0F2B41;" d="M977.08,1163.48h9.67
			l9.95,33.5h-9.09l-1.39-5.65h-8.61l-1.34,5.65h-9.14L977.08,1163.48z M978.04,1158.94l3.06-7.27l4.69,3.25l-5.79,5.36
			L978.04,1158.94z M984.31,1183.25l-2.39-9.81l-2.34,9.81H984.31z"/>
		<polygon style="clip-path:url(#SVGID_00000141441459288161478280000001203740807578229929_);fill:#0F2B41;" points="
			1027.23,1163.48 1035.84,1163.48 1035.84,1188.46 1052.88,1188.46 1052.88,1196.98 1027.23,1196.98 		"/>
		<path style="clip-path:url(#SVGID_00000141441459288161478280000001203740807578229929_);fill:#0F2B41;" d="M1089.89,1195.5
			c-2.41-1.31-4.33-3.26-5.77-5.86c-1.44-2.6-2.15-5.75-2.15-9.45c0-3.7,0.72-6.84,2.15-9.43c1.44-2.58,3.36-4.52,5.77-5.81
			c2.41-1.29,5.05-1.94,7.92-1.94s5.5,0.65,7.9,1.94s4.31,3.23,5.74,5.81c1.44,2.58,2.15,5.73,2.15,9.43c0,3.7-0.72,6.85-2.15,9.45
			c-1.43,2.6-3.35,4.55-5.74,5.86c-2.39,1.31-5.02,1.96-7.9,1.96S1092.3,1196.81,1089.89,1195.5 M1102.67,1186.5
			c1.35-1.37,2.03-3.46,2.03-6.27c0-2.84-0.67-4.94-2.01-6.29c-1.34-1.36-2.97-2.03-4.88-2.03c-1.91,0-3.55,0.68-4.91,2.03
			c-1.36,1.36-2.03,3.45-2.03,6.29c0,2.81,0.68,4.9,2.03,6.27c1.36,1.37,2.99,2.06,4.91,2.06
			C1099.69,1188.56,1101.31,1187.87,1102.67,1186.5"/>
		<path style="clip-path:url(#SVGID_00000141441459288161478280000001203740807578229929_);fill:#0F2B41;" d="M1151.98,1195.5
			c-2.43-1.31-4.35-3.26-5.79-5.86c-1.44-2.6-2.15-5.75-2.15-9.45c0-3.7,0.72-6.84,2.15-9.43s3.36-4.52,5.79-5.81
			c2.42-1.29,5.09-1.94,7.99-1.94c2.52,0,4.82,0.52,6.91,1.55c2.09,1.04,3.85,2.66,5.29,4.86l-6.94,5.12
			c-0.64-0.89-1.43-1.56-2.37-1.99c-0.94-0.43-1.94-0.65-2.99-0.65c-1.92,0-3.55,0.68-4.91,2.03c-1.36,1.36-2.03,3.45-2.03,6.29
			c0,2.87,0.7,5.03,2.11,6.46c1.4,1.44,3.13,2.15,5.17,2.15c1.82,0,3.32-0.54,4.5-1.63v-2.11h-7.42v-7.85h15.36v13.97
			c-1.18,1.72-2.86,3.19-5.05,4.4c-2.19,1.21-4.71,1.82-7.58,1.82C1157.08,1197.46,1154.4,1196.81,1151.98,1195.5"/>
		<path style="clip-path:url(#SVGID_00000141441459288161478280000001203740807578229929_);fill:#0F2B41;" d="M1211.34,1195.5
			c-2.41-1.31-4.33-3.26-5.77-5.86c-1.44-2.6-2.15-5.75-2.15-9.45c0-3.7,0.72-6.84,2.15-9.43c1.44-2.58,3.36-4.52,5.77-5.81
			c2.41-1.29,5.05-1.94,7.92-1.94s5.5,0.65,7.9,1.94s4.31,3.23,5.74,5.81c1.44,2.58,2.15,5.73,2.15,9.43c0,3.7-0.72,6.85-2.15,9.45
			c-1.43,2.6-3.35,4.55-5.74,5.86c-2.39,1.31-5.02,1.96-7.9,1.96S1213.75,1196.81,1211.34,1195.5 M1224.12,1186.5
			c1.35-1.37,2.03-3.46,2.03-6.27c0-2.84-0.67-4.94-2.01-6.29c-1.34-1.36-2.97-2.03-4.88-2.03c-1.91,0-3.55,0.68-4.91,2.03
			c-1.36,1.36-2.03,3.45-2.03,6.29c0,2.81,0.68,4.9,2.03,6.27c1.36,1.37,2.99,2.06,4.91,2.06
			C1221.14,1188.56,1222.76,1187.87,1224.12,1186.5"/>
		<polygon style="clip-path:url(#SVGID_00000141441459288161478280000001203740807578229929_);fill:#0F2B41;" points="
			1304.25,1163.48 1329.42,1163.48 1329.42,1172 1312.86,1172 1312.86,1175.88 1329.42,1175.88 1329.42,1184.4 1312.86,1184.4 
			1312.86,1188.46 1329.9,1188.46 1329.9,1196.98 1304.25,1196.98 		"/>
		<path style="clip-path:url(#SVGID_00000141441459288161478280000001203740807578229929_);fill:#0F2B41;" d="M1407.06,1196.43
			c-1.93-0.69-3.55-1.82-4.86-3.4c-1.31-1.58-1.96-3.64-1.96-6.2v-23.35h8.61v22.11c0,1.37,0.37,2.4,1.1,3.09
			c0.73,0.69,1.71,1.03,2.92,1.03c1.21,0,2.21-0.34,2.99-1.03c0.78-0.69,1.17-1.71,1.17-3.09v-22.11h8.61v23.35
			c0,2.55-0.66,4.62-1.99,6.2c-1.32,1.58-2.96,2.71-4.9,3.4c-1.95,0.69-3.91,1.03-5.89,1.03
			C1410.93,1197.46,1408.99,1197.12,1407.06,1196.43"/>
		<polygon style="clip-path:url(#SVGID_00000141441459288161478280000001203740807578229929_);fill:#0F2B41;" points="
			1458.09,1163.48 1465.85,1163.48 1476.14,1180.57 1476.14,1163.48 1484.27,1163.48 1484.27,1196.98 1476.57,1196.98 
			1466.23,1179.71 1466.23,1196.98 1458.09,1196.98 		"/>
		
			<rect x="1515.76" y="1163.48" style="clip-path:url(#SVGID_00000141441459288161478280000001203740807578229929_);fill:#0F2B41;" width="8.61" height="33.5"/>
		<path style="clip-path:url(#SVGID_00000141441459288161478280000001203740807578229929_);fill:#0F2B41;" d="M1564.95,1163.48h9.67
			l9.95,33.5h-9.09l-1.39-5.65h-8.61l-1.34,5.65H1555L1564.95,1163.48z M1565.93,1156.79c0.53-0.64,1.22-0.96,2.08-0.96
			c0.67,0,1.39,0.22,2.15,0.67c0.51,0.26,0.88,0.38,1.1,0.38c0.51,0,0.77-0.35,0.77-1.05h2.39c0,2.46-0.88,3.68-2.63,3.68
			c-0.7,0-1.44-0.21-2.2-0.62c-0.19-0.1-0.39-0.18-0.6-0.26c-0.21-0.08-0.39-0.12-0.55-0.12c-0.29,0-0.5,0.07-0.65,0.21
			c-0.14,0.14-0.22,0.42-0.22,0.84h-2.44C1565.14,1158.35,1565.4,1157.42,1565.93,1156.79 M1572.18,1183.25l-2.39-9.81l-2.34,9.81
			H1572.18z"/>
		<path style="clip-path:url(#SVGID_00000141441459288161478280000001203740807578229929_);fill:#0F2B41;" d="M1619.67,1195.5
			c-2.41-1.31-4.33-3.26-5.77-5.86c-1.44-2.6-2.15-5.75-2.15-9.45c0-3.7,0.72-6.84,2.15-9.43c1.44-2.58,3.36-4.52,5.77-5.81
			c2.41-1.29,5.05-1.94,7.92-1.94s5.5,0.65,7.9,1.94s4.31,3.23,5.74,5.81c1.44,2.58,2.15,5.73,2.15,9.43c0,3.7-0.72,6.85-2.15,9.45
			c-1.43,2.6-3.35,4.55-5.74,5.86c-2.39,1.31-5.02,1.96-7.9,1.96S1622.08,1196.81,1619.67,1195.5 M1632.45,1186.5
			c1.35-1.37,2.03-3.46,2.03-6.27c0-2.84-0.67-4.94-2.01-6.29c-1.34-1.36-2.97-2.03-4.88-2.03c-1.91,0-3.55,0.68-4.91,2.03
			c-1.36,1.36-2.03,3.45-2.03,6.29c0,2.81,0.68,4.9,2.03,6.27c1.36,1.37,2.99,2.06,4.91,2.06
			C1629.47,1188.56,1631.09,1187.87,1632.45,1186.5"/>
	</g>
</g>
</svg>
