<?xml version="1.0" encoding="UTF-8"?>
<svg id="Camada_1" xmlns="http://www.w3.org/2000/svg" version="1.1" xmlns:xlink="http://www.w3.org/1999/xlink" viewBox="0 0 841.89 595.28">
  <!-- Generator: Adobe Illustrator 30.0.0, SVG Export Plug-In . SVG Version: 2.1.1 Build 123)  -->
  <defs>
    <style>
      .st0 {
        clip-path: url(#clippath-6);
      }

      .st1 {
        clip-path: url(#clippath-7);
      }

      .st2 {
        fill: url(#Gradiente_sem_nome_82);
      }

      .st3 {
        fill: url(#Gradiente_sem_nome_9);
      }

      .st4 {
        clip-path: url(#clippath-4);
      }

      .st5 {
        fill: #fff;
      }

      .st6 {
        fill: none;
      }

      .st7 {
        clip-path: url(#clippath-1);
      }

      .st8 {
        fill: #0e2b41;
      }

      .st9 {
        clip-path: url(#clippath-5);
      }

      .st10 {
        clip-path: url(#clippath-8);
      }

      .st11 {
        clip-path: url(#clippath-3);
      }

      .st12 {
        fill: url(#Gradiente_sem_nome_71);
      }

      .st13 {
        fill: url(#Gradiente_sem_nome_7);
      }

      .st14 {
        fill: url(#Gradiente_sem_nome_4);
      }

      .st15 {
        fill: url(#Gradiente_sem_nome_6);
      }

      .st16 {
        clip-path: url(#clippath-2);
      }

      .st17 {
        fill: #e32822;
      }

      .st18 {
        fill: url(#Gradiente_sem_nome_81);
      }

      .st19 {
        fill: url(#Gradiente_sem_nome_8);
      }

      .st20 {
        fill: url(#Gradiente_sem_nome_41);
      }

      .st21 {
        clip-path: url(#clippath);
      }
    </style>
    <clipPath id="clippath">
      <path class="st6" d="M688.97,340.81l-5.21,11.65h106.1l-5.17-11.65h-95.72ZM722.31,317.52h29.23l-14.61-32.93-14.63,32.93Z"/>
    </clipPath>
    <linearGradient id="Gradiente_sem_nome_4" data-name="Gradiente sem nome 4" x1="-578.49" y1="1296.29" x2="-578" y2="1296.29" gradientTransform="translate(101563.33 -225738.8) scale(174.39)" gradientUnits="userSpaceOnUse">
      <stop offset="0" stop-color="#1d8dcd"/>
      <stop offset="0" stop-color="#1d8dcd"/>
      <stop offset=".51" stop-color="#3c99d4"/>
      <stop offset="1" stop-color="#5ea7dc"/>
    </linearGradient>
    <clipPath id="clippath-1">
      <path class="st6" d="M613.95,236.59l.07,115.88h56.57l-33.28-51.26v-9.49h3.45v-.07h5.46v.07h7.78c8.48,0,15.31-7.48,15.31-16.3,0-4.23-1.54-7.93-4.61-11.15-3.02-2.93-8.77-4.59-14.37-4.59h-9.57v-.03h-3.45v-23.06h-23.36Z"/>
    </clipPath>
    <linearGradient id="Gradiente_sem_nome_8" data-name="Gradiente sem nome 8" x1="-579.75" y1="1298.01" x2="-579.26" y2="1298.01" gradientTransform="translate(67689.63 -149882.44) scale(115.7)" gradientUnits="userSpaceOnUse">
      <stop offset="0" stop-color="#fcde2a"/>
      <stop offset="1" stop-color="#fab61f"/>
    </linearGradient>
    <clipPath id="clippath-2">
      <path class="st6" d="M582.94,263.49c-4.59-2.19-9.61-3.29-15.07-3.29-9.85,0-18.21,3.46-25.02,10.4-5.26,5.33-8.49,11.41-9.76,18.24h-.33c-.41,2.21-.62,4.49-.62,6.87,0,.33,0,.63.02.96h-23.27c.56,32.12,26.76,57.99,59.01,57.99s58.45-25.87,59.01-57.99h-23.27c.02-.31.02-.63.02-.96,0-9.83-3.51-18.27-10.52-25.3-6.54-6.54-14.31-9.99-23.26-10.44,4.65.32,9.05,1.54,13.06,3.52"/>
    </clipPath>
    <linearGradient id="Gradiente_sem_nome_7" data-name="Gradiente sem nome 7" x1="-578.38" y1="1297.95" x2="-577.9" y2="1297.95" gradientTransform="translate(139946.52 -312603.7) scale(241.08)" gradientUnits="userSpaceOnUse">
      <stop offset="0" stop-color="#82bb46"/>
      <stop offset=".17" stop-color="#75b746"/>
      <stop offset=".48" stop-color="#53ae46"/>
      <stop offset=".9" stop-color="#1c9f46"/>
      <stop offset="1" stop-color="#0f9c47"/>
    </linearGradient>
    <clipPath id="clippath-3">
      <path class="st6" d="M425.48,238.02v116.18h23.29v-23.29h7.79c20.96,0,34.61-13.91,34.61-34.9s-13.89-34.9-34.83-34.9h-7.57v-23.09h-23.29Z"/>
    </clipPath>
    <linearGradient id="Gradiente_sem_nome_41" data-name="Gradiente sem nome 4" x1="-577.74" y1="1297.83" x2="-577.25" y2="1297.83" gradientTransform="translate(-307568.83 -136767.17) rotate(-90) scale(237.34)" xlink:href="#Gradiente_sem_nome_4"/>
    <clipPath id="clippath-4">
      <polygon class="st6" points="149.32 260.87 149.32 284.32 184.36 284.32 184.36 307.61 125.95 307.61 125.95 354.35 196.06 354.35 196.06 260.87 149.32 260.87"/>
    </clipPath>
    <linearGradient id="Gradiente_sem_nome_81" data-name="Gradiente sem nome 8" x1="-575.86" y1="1297.91" x2="-575.37" y2="1297.91" gradientTransform="translate(82597.08 -185571.66) scale(143.21)" xlink:href="#Gradiente_sem_nome_8"/>
    <clipPath id="clippath-5">
      <path class="st6" d="M53.75,307.61v46.58h-23.3s85.47,0,85.47,0h0s-23.29,0-23.29,0v-46.58h-38.88ZM30.45,284.49h85.47v-46.56H30.45v46.56Z"/>
    </clipPath>
    <linearGradient id="Gradiente_sem_nome_6" data-name="Gradiente sem nome 6" x1="-577.75" y1="1296.48" x2="-577.26" y2="1296.48" gradientTransform="translate(307999.45 137458.51) rotate(90) scale(237.51)" gradientUnits="userSpaceOnUse">
      <stop offset="0" stop-color="#82bb46"/>
      <stop offset=".14" stop-color="#77b844"/>
      <stop offset=".39" stop-color="#5cb042"/>
      <stop offset=".71" stop-color="#2fa33d"/>
      <stop offset="1" stop-color="#029639"/>
      <stop offset="1" stop-color="#029639"/>
    </linearGradient>
    <clipPath id="clippath-6">
      <rect class="st6" x="287.25" y="296.07" width="23.37" height="58.13"/>
    </clipPath>
    <linearGradient id="Gradiente_sem_nome_71" data-name="Gradiente sem nome 7" x1="-578" y1="1296.94" x2="-577.51" y2="1296.94" gradientTransform="translate(154316.83 68936.96) rotate(90) scale(118.76)" xlink:href="#Gradiente_sem_nome_7"/>
    <clipPath id="clippath-7">
      <path class="st6" d="M395.49,263.04c-4.59-2.19-9.61-3.29-15.07-3.29-9.85,0-18.21,3.46-25.02,10.39-5.26,5.33-8.49,11.41-9.76,18.24h-.33c-.41,2.21-.62,4.49-.62,6.87,0,.33,0,.63.02.96h-23.27c.56,32.12,26.76,57.99,59.01,57.99s58.45-25.87,59.01-57.99h-23.27c.02-.31.02-.63.02-.96,0-9.83-3.51-18.27-10.52-25.3-6.54-6.54-14.31-9.99-23.26-10.44,4.65.32,9.05,1.54,13.06,3.52"/>
    </clipPath>
    <linearGradient id="Gradiente_sem_nome_82" data-name="Gradiente sem nome 8" x1="-577.81" y1="1297.79" x2="-577.32" y2="1297.79" gradientTransform="translate(251400.96 112019.75) rotate(90) scale(193.42)" xlink:href="#Gradiente_sem_nome_8"/>
    <clipPath id="clippath-8">
      <path class="st6" d="M207.2,297.1h23.36v34.9h46.74v23.22h-70.1v-58.13ZM207.2,355.24h70.11v-116.27h-70.11v116.27Z"/>
    </clipPath>
    <linearGradient id="Gradiente_sem_nome_9" data-name="Gradiente sem nome 9" x1="-576.45" y1="1297.99" x2="-575.96" y2="1297.99" gradientTransform="translate(82763.05 -185593.1) scale(143.21)" gradientUnits="userSpaceOnUse">
      <stop offset="0" stop-color="#39a6de"/>
      <stop offset=".36" stop-color="#27a1d8"/>
      <stop offset="1" stop-color="#0097cb"/>
      <stop offset="1" stop-color="#0097cb"/>
    </linearGradient>
  </defs>
  <g>
    <path class="st17" d="M566.05,259.91c-.26.01-.52.05-.78.06.66-.04,1.33-.09,2-.09-.41,0-.82.01-1.22.03"/>
    <path class="st17" d="M557.42,261.35c-.25.08-.49.17-.74.25.3-.1.59-.2.9-.29-.05.02-.11.02-.16.04"/>
    <path class="st17" d="M560.78,260.53s-.05.01-.08.02c.03,0,.06-.02.09-.02,0,0-.01,0-.02,0"/>
    <path class="st17" d="M562.76,260.23c.27-.04.55-.08.82-.11-.28.03-.55.07-.82.11"/>
    <path class="st17" d="M567.89,259.88h-.24s-.07,0-.1,0c.36,0,.72.02,1.08.03-.25,0-.49-.03-.74-.03"/>
  </g>
  <g class="st21">
    <rect class="st14" x="680.9" y="255.62" width="111.83" height="125.82" transform="translate(92.55 797.36) rotate(-60)"/>
  </g>
  <path class="st5" d="M774.36,317.52l-16.77-37.8-9.25-20.84-11.13-25.09h-.57l-11.13,25.09-8.22,18.53-.46,1.06-.57,1.25-16.89,37.8-10.41,23.29h95.72l-10.33-23.29ZM722.31,317.52l14.63-32.93,14.61,32.93h-29.23Z"/>
  <path class="st5" d="M672.09,310.48c6.58-2.6,9.81-5.02,13.87-10.72,4.88-6.9,7.33-14.25,7.33-22.06v-3.01c0-12.83-4.14-19.25-11.22-26.31-6.99-6.92-17.42-11.8-30.31-11.8h-14.45v23.06h3.45v.03h9.57c5.6,0,11.35,1.66,14.37,4.59,3.07,3.22,4.61,6.92,4.61,11.15,0,8.82-6.83,16.3-15.31,16.3h-7.78v-.07h-5.46v.07h-3.45v9.49l33.28,51.26h28.46l-26.96-41.98Z"/>
  <g class="st7">
    <rect class="st19" x="613.95" y="236.59" width="56.64" height="115.87"/>
  </g>
  <g class="st16">
    <rect class="st13" x="508.9" y="259.97" width="118.02" height="94.68"/>
  </g>
  <path class="st17" d="M535.22,246.46c-7.24,4.82-13.35,11.2-17.86,18.65,2.43-3.91,5.36-7.61,8.83-11.11,2.87-2.87,5.88-5.38,9.04-7.54"/>
  <path class="st17" d="M626.94,295.62c0-.37-.02-.73-.03-1.1,0,.39.03.77.03,1.16,0-.02,0-.04,0-.06"/>
  <path class="st17" d="M626.84,292.33c0,.1.02.2.02.3,0-.1-.02-.2-.02-.3"/>
  <path class="st17" d="M508.95,292.63c0-.11.02-.22.02-.32,0,.11-.02.22-.02.32"/>
  <path class="st17" d="M618.51,265.21c-4.99-8.29-11.96-15.24-20.25-20.22,3.99,2.46,7.76,5.47,11.31,9.02,3.52,3.52,6.49,7.26,8.94,11.21"/>
  <path class="st17" d="M508.87,295.62s0,.04,0,.06c0-.39.02-.77.03-1.15,0,.36-.03.72-.03,1.09"/>
  <path class="st8" d="M542.85,270.6c6.82-6.94,15.17-10.4,25.02-10.4,5.46,0,10.48,1.1,15.07,3.29-4-1.99-8.41-3.2-13.06-3.52-.42-.02-.84-.05-1.26-.06-.36-.01-.72-.03-1.08-.03-.09,0-.18,0-.27,0-.67,0-1.34.05-2,.09-.57.04-1.14.08-1.69.14-.28.03-.55.07-.82.11-.66.09-1.32.18-1.96.3-.03,0-.06.02-.09.02-1.05.21-2.1.47-3.12.76-.3.09-.6.19-.9.29-5.17,1.7-9.87,4.63-14.06,8.81-5.31,5.36-8.6,11.49-9.86,18.43h.33c1.27-6.83,4.5-12.91,9.76-18.24"/>
  <path class="st5" d="M626.91,294.52c-.01-.63-.02-1.27-.05-1.9,0-.1-.02-.2-.02-.3-.51-9.95-3.29-18.99-8.33-27.12-2.45-3.95-5.42-7.69-8.94-11.21-3.55-3.55-7.33-6.55-11.31-9.02-7.02-4.34-14.71-6.97-23.06-7.93-2.39-.28-4.83-.43-7.33-.43-2.2,0-4.36.12-6.48.33-9.6.97-18.32,4.14-26.17,9.51-3.15,2.16-6.16,4.67-9.04,7.54-3.47,3.5-6.4,7.2-8.83,11.11-5.07,8.17-7.87,17.23-8.39,27.19,0,.11-.02.22-.02.32-.03.63-.04,1.27-.05,1.9,0,.39-.03.77-.03,1.15,0,.02,0,.05,0,.07,0,.31,0,.62.02.91h23.28c-.02-.32-.02-.63-.02-.96,0-2.38.21-4.66.62-6.87h0c1.27-6.94,4.55-13.07,9.86-18.43,4.18-4.18,8.89-7.1,14.06-8.81.25-.08.49-.17.74-.25.05-.01.11-.02.16-.04,1.02-.3,2.07-.55,3.12-.76.03,0,.05-.01.08-.02,0,0,.01,0,.02,0,.65-.12,1.31-.21,1.97-.3.27-.04.55-.08.82-.11.56-.06,1.13-.1,1.69-.14.26-.02.51-.05.78-.06.41-.01.82-.02,1.22-.03.09,0,.18,0,.27,0,.03,0,.07,0,.1,0h.24c.25,0,.49.03.74.03.43,0,.84.04,1.26.06,8.96.45,16.73,3.9,23.26,10.44,7,7.02,10.52,15.47,10.52,25.3,0,.33,0,.65-.02.96h23.27c.02-.29.02-.6.02-.91,0-.02,0-.05,0-.07,0-.39-.02-.78-.03-1.16"/>
  <g class="st11">
    <rect class="st20" x="425.48" y="238.02" width="65.7" height="116.18"/>
  </g>
  <path class="st5" d="M498.9,255.04c-2-1.99-4.18-3.87-6.52-5.58-8.67-6.42-19.73-10.86-33-11.44-.98-.05-1.97-.07-2.96-.07v.07h-7.64v23.09h7.57c20.95,0,34.83,14.09,34.83,34.9s-13.65,34.9-34.61,34.9h-7.79v23.29h7.64c13.8,0,25.79-3.78,35.96-11.39,2.26-1.68,4.44-3.56,6.52-5.63,10.38-10.33,15.58-24,15.58-41s-5.21-30.71-15.58-41.14"/>
  <g class="st4">
    <rect class="st18" x="125.95" y="260.87" width="70.11" height="93.48"/>
  </g>
  <polygon class="st5" points="196.05 260.81 196.05 260.81 196.05 237.59 125.94 237.59 125.94 284.36 125.94 307.55 125.94 354.32 196.05 354.32 196.05 331.1 196.05 331.1 149.32 331.1 149.32 307.65 184.36 307.65 184.36 307.55 184.36 284.36 184.36 284.25 149.32 284.25 149.32 260.81 196.05 260.81"/>
  <g class="st9">
    <rect class="st15" x="30.45" y="237.93" width="85.47" height="116.27"/>
  </g>
  <polygon class="st5" points="115.92 237.93 115.92 237.93 92.63 237.93 92.63 284.49 53.76 284.49 53.76 237.93 30.45 237.93 30.45 237.93 30.45 284.49 30.44 284.49 30.44 354.19 30.45 354.19 53.75 354.19 53.75 307.64 92.63 307.64 92.63 354.19 115.92 354.19 115.92 354.19 115.92 307.64 115.92 307.64 115.92 237.93"/>
  <g class="st0">
    <rect class="st12" x="287.25" y="296.07" width="23.37" height="58.13"/>
  </g>
  <polygon class="st5" points="310.62 237.94 287.25 237.94 287.25 237.94 287.25 296.07 287.25 296.07 310.62 296.07 310.63 296.07 310.63 237.94 310.62 237.94"/>
  <path class="st17" d="M378.6,259.46c-.26.01-.52.05-.78.06.66-.04,1.33-.09,2-.09-.41,0-.82.01-1.22.03"/>
  <path class="st17" d="M369.97,260.89c-.25.08-.49.17-.74.25.3-.1.59-.2.9-.29-.05.02-.11.02-.16.04"/>
  <path class="st17" d="M373.33,260.07s-.05.01-.08.02c.03,0,.06-.02.09-.02,0,0-.01,0-.02,0"/>
  <path class="st17" d="M375.31,259.77c.27-.04.55-.08.82-.11-.28.03-.55.07-.82.11"/>
  <path class="st17" d="M380.44,259.42h-.24s-.07,0-.1,0c.36,0,.72.02,1.08.03-.25,0-.49-.03-.74-.03"/>
  <g class="st1">
    <rect class="st2" x="321.45" y="259.51" width="118.02" height="94.68"/>
  </g>
  <path class="st17" d="M347.77,246.01c-7.24,4.82-13.35,11.2-17.86,18.65,2.43-3.91,5.36-7.61,8.83-11.11,2.87-2.87,5.88-5.38,9.04-7.54"/>
  <path class="st17" d="M439.49,295.16c0-.37-.02-.73-.03-1.1,0,.39.03.77.03,1.16,0-.02,0-.04,0-.06"/>
  <path class="st17" d="M439.39,291.87c0,.1.02.2.02.3,0-.1-.02-.2-.02-.3"/>
  <path class="st17" d="M321.5,292.17c0-.11.02-.22.02-.32,0,.11-.02.22-.02.32"/>
  <path class="st17" d="M431.06,264.75c-4.99-8.29-11.96-15.24-20.25-20.22,3.99,2.46,7.76,5.47,11.31,9.02,3.52,3.52,6.49,7.26,8.94,11.21"/>
  <path class="st17" d="M321.42,295.16s0,.04,0,.06c0-.39.02-.77.03-1.15,0,.36-.03.72-.03,1.09"/>
  <path class="st8" d="M355.4,270.14c6.82-6.94,15.17-10.4,25.02-10.4,5.46,0,10.48,1.1,15.07,3.29-4-1.99-8.41-3.2-13.06-3.52-.42-.02-.84-.05-1.26-.06-.36-.01-.72-.03-1.08-.03-.09,0-.18,0-.27,0-.67,0-1.34.05-2,.09-.57.04-1.14.08-1.69.14-.28.03-.55.07-.82.11-.66.09-1.32.18-1.96.3-.03,0-.06.02-.09.02-1.05.21-2.1.47-3.12.76-.3.09-.6.19-.9.29-5.17,1.7-9.87,4.63-14.06,8.81-5.31,5.36-8.6,11.49-9.86,18.43h.33c1.27-6.83,4.5-12.91,9.76-18.24"/>
  <path class="st5" d="M439.46,294.07c-.01-.63-.02-1.27-.05-1.9,0-.1-.02-.2-.02-.3-.51-9.95-3.29-18.99-8.33-27.12-2.45-3.95-5.42-7.69-8.94-11.21-3.55-3.55-7.32-6.55-11.31-9.02-7.02-4.34-14.71-6.97-23.06-7.93-2.39-.28-4.83-.43-7.33-.43-2.2,0-4.36.12-6.48.33-9.6.97-18.32,4.14-26.17,9.51-3.15,2.16-6.16,4.67-9.04,7.54-3.47,3.5-6.4,7.2-8.83,11.11-5.07,8.17-7.87,17.23-8.39,27.19,0,.11-.02.22-.02.32-.03.63-.04,1.27-.05,1.9,0,.39-.03.77-.03,1.15,0,.02,0,.05,0,.07,0,.31,0,.62.02.91h23.28c-.02-.32-.02-.63-.02-.96,0-2.38.21-4.66.62-6.87h0c1.27-6.94,4.56-13.07,9.86-18.43,4.18-4.18,8.89-7.1,14.06-8.81.25-.08.49-.17.74-.25.05-.01.11-.02.16-.04,1.02-.3,2.07-.55,3.12-.76.03,0,.05-.01.08-.02,0,0,.01,0,.02,0,.65-.12,1.31-.21,1.97-.3.27-.04.55-.08.82-.11.56-.06,1.13-.1,1.69-.14.26-.02.51-.05.78-.06.41-.01.82-.02,1.22-.03.09,0,.18,0,.27,0,.03,0,.07,0,.1,0h.24c.25,0,.49.03.74.03.43,0,.84.04,1.26.06,8.96.45,16.73,3.9,23.26,10.44,7,7.02,10.52,15.47,10.52,25.3,0,.33,0,.65-.02.96h23.27c.02-.29.02-.6.02-.91,0-.02,0-.05,0-.07,0-.39-.02-.78-.03-1.16"/>
  <g class="st10">
    <rect class="st3" x="207.2" y="238.97" width="70.11" height="116.27"/>
  </g>
  <polygon class="st5" points="230.56 332.01 230.56 297.1 230.57 297.1 230.58 297.1 230.58 238.98 230.57 238.98 207.21 238.98 207.2 238.98 207.2 297.1 207.2 355.23 277.3 355.23 277.3 332.01 230.56 332.01"/>
  <path class="st5" d="M810.71,339.69c0,.59-.11,1.09-.33,1.5-.22.41-.53.72-.93.94-.4.22-.87.34-1.41.36-.29,0-.6,0-.93,0s-.64,0-.94,0c-.54-.03-1.01-.15-1.4-.36-.4-.22-.7-.53-.92-.94-.22-.41-.32-.91-.32-1.5,0-.47.07-.87.2-1.22.13-.35.3-.63.5-.85.2-.22.41-.39.63-.5.22-.11.41-.17.58-.17.06,0,.11,0,.14.05.04.04.05.09.05.16v.59c0,.07-.01.11-.04.14-.03.03-.07.06-.14.08-.17.06-.34.16-.51.29-.17.14-.3.32-.41.55-.11.23-.16.52-.16.87,0,.53.14.96.43,1.28.29.32.76.5,1.42.52.59.02,1.19.02,1.78,0,.67-.03,1.14-.2,1.43-.53.29-.33.43-.75.43-1.28,0-.35-.07-.67-.2-.94-.13-.28-.33-.49-.6-.65-.27-.16-.61-.24-1.03-.24h-.42v1.5c0,.07-.02.12-.07.16-.04.04-.1.06-.17.06h-.32c-.07,0-.13-.02-.17-.06-.04-.04-.06-.1-.06-.16v-2.26c0-.07.02-.13.06-.17.04-.04.1-.06.17-.06h.96c.55,0,1.02.11,1.43.33.41.22.72.55.94.97.22.43.33.93.33,1.52"/>
  <path class="st5" d="M810.61,335.21c0,.07-.02.13-.07.17-.04.04-.1.06-.16.06h-6.52c-.07,0-.13-.02-.17-.06-.04-.04-.07-.1-.07-.17v-4.12c0-.07.02-.13.07-.17.04-.04.1-.06.17-.06h.38c.07,0,.13.02.17.06.04.04.06.1.06.17v3.4h2.19v-3.18c0-.07.02-.13.06-.17.04-.04.1-.06.17-.06h.37c.07,0,.12.02.16.06.04.04.06.1.06.17v3.18h2.27v-3.48c0-.07.02-.13.06-.17.04-.04.1-.06.17-.06h.39c.07,0,.12.02.16.06.04.04.07.1.07.17v4.2Z"/>
  <path class="st5" d="M810.71,327.14c0,.58-.09,1.07-.27,1.46-.18.39-.41.69-.69.9-.28.21-.58.32-.89.33-.05,0-.1-.02-.14-.07-.04-.04-.07-.09-.07-.15v-.51c0-.08.02-.14.06-.18.04-.04.09-.07.14-.08.16-.04.32-.12.47-.25.16-.13.29-.31.39-.54.1-.24.15-.54.15-.91,0-.57-.1-.99-.3-1.26-.2-.27-.47-.4-.81-.4-.23,0-.42.07-.56.21-.14.14-.27.36-.38.65-.11.29-.24.67-.37,1.14-.14.49-.29.89-.46,1.21-.17.32-.37.56-.62.71-.25.16-.56.23-.94.23-.36,0-.68-.1-.96-.29-.28-.19-.51-.47-.67-.84-.17-.37-.25-.81-.25-1.32,0-.41.05-.77.16-1.08.11-.31.26-.57.44-.77.18-.21.38-.36.59-.47.21-.11.41-.16.61-.17.05,0,.09.02.14.05.04.03.06.09.06.16v.53s-.01.09-.04.14c-.03.05-.08.09-.15.12-.27.04-.5.19-.69.46s-.28.61-.28,1.04.08.78.25,1.05c.17.27.43.4.78.4.23,0,.41-.06.56-.19.15-.13.28-.33.39-.6.11-.27.23-.63.36-1.07.15-.53.3-.97.46-1.31.16-.34.37-.59.61-.75.24-.16.55-.24.93-.24.42,0,.78.11,1.07.33.3.22.52.53.68.92.16.4.24.86.24,1.4"/>
  <path class="st5" d="M810.61,321.49c0,.07-.02.12-.07.16s-.1.06-.16.06h-5.87v1.92c0,.07-.02.12-.07.16s-.1.06-.16.06h-.42c-.07,0-.13-.02-.17-.06-.04-.04-.07-.1-.07-.16v-4.81c0-.07.02-.13.07-.17.04-.04.1-.06.17-.06h.42c.07,0,.12.02.16.06s.07.1.07.17v1.91h5.87c.07,0,.12.02.16.06s.07.1.07.17v.52Z"/>
  <path class="st5" d="M803.17,315.21c0,.16-.03.3-.09.41-.06.11-.11.21-.17.3-.06.09-.08.18-.08.28,0,.08.02.14.07.17.05.04.1.07.14.1.05.03.07.08.07.15v.32s-.02.09-.05.12c-.03.03-.07.05-.11.05-.1,0-.2-.02-.31-.05-.11-.04-.21-.09-.3-.17-.09-.08-.17-.17-.22-.27-.06-.11-.09-.23-.09-.36,0-.17.03-.31.09-.42s.11-.22.17-.31c.06-.09.08-.19.08-.29,0-.08-.02-.14-.07-.17-.05-.03-.1-.07-.15-.09-.05-.03-.07-.08-.07-.16v-.32c0-.06.02-.1.05-.13.03-.03.07-.04.12-.04.09,0,.19.02.3.06.11.04.21.1.3.17.09.08.17.17.23.27.06.11.09.23.09.36M810.61,318.68c0,.05-.02.1-.06.14-.04.04-.09.06-.14.06-.03,0-.07,0-.11-.01l-6.46-2.48c-.07-.03-.12-.06-.16-.11-.04-.05-.06-.12-.06-.21v-.68c0-.09.02-.16.06-.21.04-.05.09-.08.16-.11l6.46-2.47s.08-.02.11-.02c.05,0,.1.02.14.06.04.04.06.09.06.14v.51c0,.08-.02.14-.06.17-.04.04-.08.06-.11.07l-1.42.55v3.27l1.42.55s.07.03.11.07c.04.04.06.1.06.18v.51ZM808.16,317.08v-2.7l-3.55,1.35,3.55,1.35Z"/>
  <path class="st5" d="M810.71,309.13c0,.57-.1,1.06-.29,1.47-.2.41-.5.72-.91.94-.41.22-.92.34-1.54.37-.29,0-.57,0-.84,0s-.55,0-.84,0c-.61-.03-1.12-.16-1.53-.38-.41-.23-.72-.55-.92-.96-.2-.41-.3-.89-.3-1.43s.1-1.01.3-1.42c.2-.41.51-.73.92-.96.41-.23.92-.36,1.53-.38.29-.01.57-.02.84-.02s.55,0,.84.02c.62.02,1.13.14,1.54.36.41.22.71.54.91.94.2.41.29.89.29,1.46M809.86,309.13c0-.51-.15-.92-.46-1.24-.31-.32-.8-.5-1.49-.52-.3-.01-.57-.02-.8-.02s-.5,0-.79.02c-.46.01-.83.1-1.12.26-.29.16-.5.36-.63.62-.13.26-.2.56-.2.89s.07.63.2.89c.13.26.34.47.63.62.29.16.66.24,1.12.26.29,0,.56.01.79.01s.5,0,.8-.01c.69-.03,1.18-.2,1.49-.53.31-.33.46-.74.46-1.25"/>
  <path class="st5" d="M810.61,302.59c0,.07-.02.12-.07.16s-.1.06-.16.06h-.32c-.06,0-.13-.02-.2-.05-.07-.03-.15-.1-.24-.2l-2.12-2.12c-.29-.34-.53-.61-.73-.8-.2-.2-.4-.34-.58-.42-.19-.08-.38-.12-.58-.12-.38,0-.68.11-.9.32-.22.21-.33.53-.33.95,0,.27.06.5.16.69.11.19.26.34.45.45.19.11.4.18.64.22.09.01.15.05.18.1.03.06.05.11.05.15v.52c0,.06-.02.11-.05.15-.04.04-.08.06-.14.06-.25,0-.51-.06-.76-.16-.26-.1-.49-.25-.7-.44-.21-.2-.38-.44-.5-.73-.13-.29-.19-.63-.19-1.01,0-.53.09-.96.28-1.29.19-.34.44-.58.75-.74.31-.16.66-.24,1.03-.24.29,0,.56.05.8.15.24.1.48.24.71.43.23.19.46.42.7.7l1.95,1.92v-3.12c0-.07.02-.13.06-.17.04-.04.1-.07.17-.07h.41c.07,0,.12.02.16.07s.07.1.07.17v4.4Z"/>
  <path class="st5" d="M810.71,294.28c0,.46-.07.85-.21,1.16s-.34.57-.59.77c-.25.2-.54.34-.87.43-.33.09-.67.14-1.04.15-.18,0-.37.01-.57.02-.2,0-.4,0-.61,0-.21,0-.4,0-.59-.02-.37,0-.71-.06-1.04-.15-.33-.1-.61-.24-.86-.44-.25-.2-.45-.46-.59-.77-.14-.32-.21-.7-.21-1.15s.07-.85.21-1.16c.14-.32.34-.57.59-.77.25-.2.54-.35.86-.44.33-.1.67-.15,1.04-.16.19,0,.38-.01.59-.01.21,0,.41,0,.61,0,.2,0,.39,0,.57.01.37,0,.71.06,1.04.16.33.1.62.24.87.44.25.2.45.45.59.77s.21.71.21,1.17M809.85,294.28c0-.52-.17-.9-.51-1.15-.34-.25-.81-.38-1.4-.38-.19-.01-.38-.02-.56-.02h-.55c-.18,0-.36,0-.54.02-.58,0-1.04.13-1.39.38-.35.25-.52.63-.52,1.15s.17.89.52,1.14c.35.25.81.38,1.39.39.18,0,.36,0,.54,0,.18,0,.37,0,.55,0s.37,0,.56,0c.59-.01,1.06-.15,1.4-.4.34-.25.51-.63.51-1.14"/>
  <path class="st5" d="M810.61,290.39c0,.07-.02.12-.07.16-.04.04-.1.07-.16.07h-.32c-.06,0-.13-.02-.2-.05-.07-.03-.15-.1-.24-.2l-2.12-2.12c-.29-.34-.53-.61-.73-.8-.2-.2-.4-.34-.58-.42-.19-.08-.38-.12-.58-.12-.38,0-.68.11-.9.32-.22.21-.33.53-.33.95,0,.27.06.5.16.69.11.19.26.34.45.45.19.11.4.18.64.22.09.01.15.05.18.11.03.06.05.11.05.15v.52c0,.06-.02.11-.05.15-.04.04-.08.06-.14.06-.25,0-.51-.06-.76-.16-.26-.1-.49-.25-.7-.44-.21-.2-.38-.44-.5-.73-.13-.29-.19-.63-.19-1.01,0-.53.09-.96.28-1.29.19-.34.44-.58.75-.74.31-.16.66-.24,1.03-.24.29,0,.56.05.8.15.24.1.48.24.71.43.23.19.46.42.7.7l1.95,1.92v-3.12c0-.07.02-.13.06-.17.04-.04.1-.07.17-.07h.41c.07,0,.12.02.16.07.04.04.07.1.07.17v4.4Z"/>
  <path class="st5" d="M810.71,282.33c0,.53-.09.97-.27,1.33-.18.36-.42.64-.71.83-.29.19-.6.29-.93.3-.06,0-.11-.01-.14-.05-.04-.04-.05-.09-.05-.15v-.54c0-.06.02-.11.05-.16.03-.05.09-.08.17-.11.25-.07.45-.17.6-.32s.27-.32.34-.52c.07-.2.1-.4.1-.61,0-.29-.06-.55-.17-.78-.12-.24-.29-.42-.52-.56s-.51-.21-.83-.21c-.3,0-.56.07-.77.2-.22.14-.38.32-.5.56-.12.24-.17.5-.17.79,0,.22.03.4.08.54.05.14.12.26.19.35.07.1.14.18.19.26.05.08.08.16.08.25v.52c0,.06-.02.11-.06.16-.04.05-.09.07-.16.06l-3.34-.32c-.08,0-.14-.03-.18-.07-.04-.04-.07-.1-.07-.17v-3.48c0-.07.02-.12.07-.16.04-.04.1-.07.16-.07h.39c.07,0,.13.02.17.07.04.04.06.1.06.16v2.88l1.97.19c-.06-.1-.13-.25-.21-.45-.08-.2-.12-.48-.12-.84,0-.33.05-.64.15-.93.1-.29.25-.55.44-.77.19-.22.43-.4.7-.52.28-.13.59-.19.95-.19.51,0,.94.11,1.29.33.35.22.62.52.8.91.18.39.27.83.27,1.32"/>
  <path class="st5" d="M811.44,278.89c0,.05-.02.1-.06.14-.04.04-.09.06-.14.06-.03,0-.07-.01-.12-.03l-8.19-3.42s-.08-.05-.12-.08c-.04-.04-.06-.09-.06-.17v-.39c0-.05.02-.1.06-.14.04-.04.09-.06.14-.06.03,0,.07,0,.12.02l8.19,3.43s.07.04.12.08c.04.04.06.1.06.18v.39Z"/>
  <path class="st5" d="M810.61,273.96c0,.07-.02.12-.07.16-.04.04-.1.07-.16.07h-.32c-.06,0-.13-.02-.2-.05-.07-.03-.15-.1-.24-.2l-2.12-2.12c-.29-.34-.53-.61-.73-.8-.2-.2-.4-.34-.58-.42-.19-.08-.38-.12-.58-.12-.38,0-.68.11-.9.32-.22.21-.33.53-.33.95,0,.27.06.5.16.69.11.19.26.34.45.45.19.11.4.18.64.22.09.01.15.05.18.11.03.06.05.11.05.15v.52c0,.06-.02.11-.05.15-.04.04-.08.06-.14.06-.25,0-.51-.06-.76-.16-.26-.1-.49-.25-.7-.44-.21-.2-.38-.44-.5-.73-.13-.29-.19-.63-.19-1.01,0-.53.09-.96.28-1.29.19-.34.44-.58.75-.74.31-.16.66-.24,1.03-.24.29,0,.56.05.8.15.24.1.48.24.71.43.23.19.46.42.7.7l1.95,1.92v-3.12c0-.07.02-.13.06-.17.04-.04.1-.07.17-.07h.41c.07,0,.12.02.16.07.04.04.07.1.07.17v4.4Z"/>
  <path class="st5" d="M810.71,265.65c0,.46-.07.85-.21,1.16-.14.32-.34.57-.59.77-.25.2-.54.34-.87.43-.33.09-.67.14-1.04.15-.18,0-.37.01-.57.02-.2,0-.4,0-.61,0-.21,0-.4,0-.59-.02-.37,0-.71-.06-1.04-.15-.33-.1-.61-.24-.86-.44-.25-.2-.45-.46-.59-.77-.14-.32-.21-.7-.21-1.15s.07-.85.21-1.16c.14-.32.34-.57.59-.77.25-.2.54-.35.86-.44.33-.1.67-.15,1.04-.16.19,0,.38-.01.59-.01.21,0,.41,0,.61,0,.2,0,.39,0,.57.01.37,0,.71.06,1.04.16.33.1.62.24.87.44.25.2.45.45.59.77.14.32.21.71.21,1.17M809.85,265.65c0-.52-.17-.9-.51-1.15-.34-.25-.81-.38-1.4-.38-.19-.01-.38-.02-.56-.02h-.55c-.18,0-.36,0-.54.02-.58,0-1.04.14-1.39.38-.35.25-.52.63-.52,1.15s.17.89.52,1.14c.35.25.81.38,1.39.39.18,0,.36,0,.54,0,.18,0,.37,0,.55,0,.18,0,.37,0,.56,0,.59-.01,1.06-.15,1.4-.4.34-.25.51-.63.51-1.14"/>
  <path class="st5" d="M810.61,261.76c0,.07-.02.12-.07.16-.04.04-.1.07-.16.07h-.32c-.06,0-.13-.02-.2-.05-.07-.03-.15-.1-.24-.2l-2.12-2.12c-.29-.34-.53-.61-.73-.8-.2-.2-.4-.34-.58-.42-.19-.08-.38-.12-.58-.12-.38,0-.68.11-.9.32-.22.21-.33.53-.33.95,0,.27.06.5.16.69.11.19.26.34.45.45.19.11.4.18.64.22.09.01.15.05.18.11.03.06.05.11.05.15v.52c0,.06-.02.11-.05.15-.04.04-.08.06-.14.06-.25,0-.51-.06-.76-.16-.26-.1-.49-.25-.7-.44-.21-.2-.38-.44-.5-.73-.13-.29-.19-.63-.19-1.01,0-.53.09-.96.28-1.29.19-.34.44-.58.75-.74.31-.16.66-.24,1.03-.24.29,0,.56.05.8.15.24.1.48.24.71.43.23.19.46.42.7.7l1.95,1.92v-3.12c0-.07.02-.13.06-.17.04-.04.1-.07.17-.07h.41c.07,0,.12.02.16.07.04.04.07.1.07.17v4.4Z"/>
  <path class="st5" d="M810.71,253.44c0,.39-.05.74-.14,1.06-.1.32-.24.6-.42.83-.19.23-.41.41-.66.53-.26.13-.55.19-.87.19-.41,0-.76-.1-1.05-.29-.29-.2-.52-.46-.67-.78-.15.26-.35.46-.6.61-.25.15-.54.22-.88.22-.4,0-.74-.1-1.01-.29-.28-.2-.49-.47-.64-.83s-.23-.77-.23-1.24.07-.88.22-1.23c.15-.36.36-.63.64-.83.28-.2.62-.29,1.01-.29.34,0,.63.07.88.22.25.15.45.35.6.6.15-.33.38-.59.67-.78.29-.2.64-.29,1.05-.29.43,0,.81.11,1.12.33.32.22.56.53.73.92.17.39.25.85.25,1.37M806.52,253.44c0-.25-.05-.49-.14-.7-.09-.22-.22-.39-.38-.52-.16-.13-.35-.19-.58-.19s-.42.06-.59.19c-.17.12-.29.29-.38.51-.09.22-.13.46-.13.72s.04.51.13.72c.09.22.22.39.38.51.17.13.36.19.59.19s.43-.06.59-.19c.16-.13.29-.3.37-.51.09-.22.13-.46.13-.72M809.91,253.44c0-.31-.05-.58-.16-.83-.11-.25-.26-.44-.45-.59-.2-.15-.43-.22-.69-.22s-.5.07-.69.22c-.19.15-.34.34-.44.59-.1.25-.15.52-.15.83s.05.58.15.83c.1.25.25.45.44.59.19.15.42.22.69.22s.5-.07.69-.22c.2-.15.35-.34.45-.59.11-.25.16-.53.16-.83"/>
  <path class="st5" d="M31.21,199.48h7.34c1.53,0,2.83.32,3.91.94,1.08.63,1.89,1.48,2.44,2.56.55,1.08.82,2.29.82,3.64s-.27,2.56-.82,3.63c-.55,1.07-1.36,1.92-2.44,2.54-1.08.62-2.38.93-3.91.93h-2.48v4.64h-4.86v-18.88ZM38.27,209.03c.74,0,1.34-.22,1.82-.67.48-.45.71-1.02.71-1.7s-.25-1.29-.74-1.77c-.49-.48-1.09-.71-1.79-.71h-2.21v4.86h2.21Z"/>
  <path class="st5" d="M50.82,199.48h7.34c2.34,0,4.12.54,5.34,1.62,1.22,1.08,1.83,2.6,1.83,4.56,0,1.26-.28,2.34-.84,3.25-.56.91-1.38,1.61-2.48,2.09l4.18,7.36h-5.42l-3.7-6.69h-1.4v6.69h-4.86v-18.88ZM58.21,207.44c.77,0,1.34-.13,1.69-.38.35-.25.53-.64.53-1.16,0-1.15-.74-1.73-2.21-1.73h-2.54v3.26h2.54Z"/>
  <polygon class="st5" points="71.37 199.48 85.56 199.48 85.56 204.28 76.23 204.28 76.23 206.47 85.56 206.47 85.56 211.27 76.23 211.27 76.23 213.56 85.83 213.56 85.83 218.36 71.37 218.36 71.37 199.48"/>
  <polygon class="st5" points="91.34 199.48 105.53 199.48 105.53 204.28 96.19 204.28 96.19 206.47 105.39 206.47 105.39 211.27 96.19 211.27 96.19 218.36 91.34 218.36 91.34 199.48"/>
  <polygon class="st5" points="110.98 199.48 125.17 199.48 125.17 204.28 115.83 204.28 115.83 206.47 125.17 206.47 125.17 211.27 115.83 211.27 115.83 213.56 125.44 213.56 125.44 218.36 110.98 218.36 110.98 199.48"/>
  <rect class="st5" x="130.99" y="199.48" width="4.86" height="18.88"/>
  <polygon class="st5" points="145.75 204.28 141.14 204.28 141.14 199.48 155.19 199.48 155.19 204.28 150.6 204.28 150.6 218.36 145.75 218.36 145.75 204.28"/>
  <path class="st5" d="M164.86,218.05c-1.09-.39-2-1.03-2.74-1.92-.74-.89-1.11-2.05-1.11-3.49v-13.16h4.86v12.46c0,.77.21,1.35.62,1.74.41.39.96.58,1.65.58s1.25-.19,1.69-.58c.44-.39.66-.97.66-1.74v-12.46h4.86v13.16c0,1.44-.37,2.6-1.12,3.49-.75.89-1.67,1.53-2.76,1.92-1.1.39-2.2.58-3.32.58s-2.19-.19-3.28-.58"/>
  <path class="st5" d="M181.65,199.48h7.34c2.34,0,4.12.54,5.34,1.62,1.22,1.08,1.83,2.6,1.83,4.56,0,1.26-.28,2.34-.84,3.25-.56.91-1.38,1.61-2.48,2.09l4.18,7.36h-5.42l-3.7-6.69h-1.4v6.69h-4.86v-18.88ZM189.05,207.44c.77,0,1.34-.13,1.69-.38.35-.25.53-.64.53-1.16,0-1.15-.74-1.73-2.21-1.73h-2.54v3.26h2.54Z"/>
  <path class="st5" d="M207.33,199.48h5.45l5.61,18.88h-5.13l-.78-3.18h-4.86l-.76,3.18h-5.15l5.61-18.88ZM211.41,210.62l-1.35-5.53-1.32,5.53h2.67Z"/>
  <polygon class="st5" points="233.23 199.48 239.52 199.48 244.16 210.3 248.66 199.48 254.92 199.48 254.92 218.36 250.07 218.36 250.07 207.6 246.88 214.86 241.43 214.86 238.09 207.49 238.09 218.36 233.23 218.36 233.23 199.48"/>
  <path class="st5" d="M265.08,218.05c-1.09-.39-2-1.03-2.74-1.92-.74-.89-1.11-2.05-1.11-3.49v-13.16h4.86v12.46c0,.77.21,1.35.62,1.74.41.39.96.58,1.65.58s1.25-.19,1.69-.58c.44-.39.66-.97.66-1.74v-12.46h4.86v13.16c0,1.44-.37,2.6-1.12,3.49-.75.89-1.67,1.53-2.76,1.92-1.1.39-2.2.58-3.32.58s-2.19-.19-3.28-.58"/>
  <polygon class="st5" points="281.87 199.48 286.24 199.48 292.04 209.11 292.04 199.48 296.63 199.48 296.63 218.36 292.28 218.36 286.46 208.62 286.46 218.36 281.87 218.36 281.87 199.48"/>
  <rect class="st5" x="302.4" y="199.48" width="4.86" height="18.88"/>
  <path class="st5" d="M317.25,217.54c-1.38-.73-2.47-1.83-3.28-3.29-.81-1.47-1.21-3.25-1.21-5.35s.4-3.86,1.21-5.31c.81-1.46,1.91-2.55,3.29-3.28,1.38-.73,2.93-1.09,4.64-1.09,1.91,0,3.52.4,4.83,1.21v5.13c-1.33-.88-2.8-1.32-4.4-1.32-1.39,0-2.49.38-3.32,1.13-.83.76-1.24,1.96-1.24,3.62s.39,2.77,1.17,3.52c.78.75,1.86,1.12,3.22,1.12,1.71,0,3.29-.52,4.75-1.56v5.4c-.59.38-1.35.67-2.27.88-.92.21-1.84.31-2.78.31-1.71,0-3.25-.36-4.63-1.09"/>
  <rect class="st5" x="332.61" y="199.48" width="4.86" height="18.88"/>
  <path class="st5" d="M343.24,199.48h7.34c1.53,0,2.83.32,3.91.94,1.08.63,1.89,1.48,2.44,2.56.55,1.08.82,2.29.82,3.64s-.27,2.56-.82,3.63c-.55,1.07-1.36,1.92-2.44,2.54-1.08.62-2.38.93-3.91.93h-2.48v4.64h-4.86v-18.88ZM350.31,209.03c.74,0,1.34-.22,1.82-.67.48-.45.71-1.02.71-1.7s-.25-1.29-.74-1.77c-.49-.48-1.09-.71-1.79-.71h-2.21v4.86h2.21Z"/>
  <path class="st5" d="M365.96,199.48h5.45l5.61,18.88h-5.13l-.78-3.18h-4.86l-.76,3.18h-5.15l5.61-18.88ZM370.03,210.62l-1.35-5.53-1.32,5.53h2.67Z"/>
  <polygon class="st5" points="382.25 199.48 387.1 199.48 387.1 213.56 396.71 213.56 396.71 218.36 382.25 218.36 382.25 199.48"/>
  <path class="st5" d="M411.6,199.48h6.91c1.91,0,3.6.35,5.07,1.07,1.47.71,2.64,1.78,3.48,3.2.85,1.42,1.27,3.14,1.27,5.15s-.42,3.76-1.27,5.18c-.84,1.42-2.01,2.49-3.48,3.21-1.47.72-3.17,1.08-5.07,1.08h-6.91v-18.88ZM418.5,213.67c1.53,0,2.72-.4,3.57-1.21.85-.81,1.28-1.99,1.28-3.53s-.42-2.75-1.27-3.55c-.85-.8-2.04-1.2-3.59-1.2h-2.05v9.5h2.05Z"/>
  <polygon class="st5" points="433.77 199.48 447.96 199.48 447.96 204.28 438.63 204.28 438.63 206.47 447.96 206.47 447.96 211.27 438.63 211.27 438.63 213.56 448.23 213.56 448.23 218.36 433.77 218.36 433.77 199.48"/>
  <polygon class="st5" points="110 380.98 105.99 380.98 105.99 376.81 118.2 376.81 118.2 380.98 114.22 380.98 114.22 393.21 110 393.21 110 380.98"/>
  <path class="st5" d="M133.14,376.81h6.37c2.03,0,3.58.47,4.64,1.41,1.06.94,1.59,2.26,1.59,3.96,0,1.09-.24,2.03-.73,2.82-.48.79-1.2,1.39-2.15,1.82l3.63,6.4h-4.71l-3.21-5.81h-1.22v5.81h-4.22v-16.4ZM139.56,383.72c.67,0,1.16-.11,1.46-.33.3-.22.46-.55.46-1.01,0-1-.64-1.5-1.92-1.5h-2.2v2.83h2.2Z"/>
  <path class="st5" d="M165.85,376.81h4.73l4.87,16.4h-4.45l-.68-2.76h-4.22l-.66,2.76h-4.47l4.87-16.4ZM169.38,386.48l-1.17-4.8-1.15,4.8h2.32Z"/>
  <path class="st5" d="M190.39,376.81h6.37c1.97,0,3.42.4,4.36,1.21.94.8,1.41,1.83,1.41,3.08,0,.84-.19,1.55-.57,2.13-.38.58-.86.98-1.44,1.22.83.22,1.53.68,2.1,1.37.57.69.85,1.59.85,2.68,0,1.39-.47,2.52-1.42,3.4-.94.88-2.39,1.31-4.35,1.31h-7.31v-16.4ZM196.63,383.42c.53,0,.94-.11,1.24-.32.3-.21.44-.53.44-.95,0-.84-.59-1.26-1.76-1.26h-1.94v2.53h2.01ZM197.28,389.13c.73,0,1.25-.1,1.55-.29.3-.19.44-.49.44-.88s-.16-.68-.48-.86c-.32-.18-.87-.27-1.65-.27h-2.53v2.3h2.67Z"/>
  <path class="st5" d="M222.28,376.81h4.73l4.87,16.4h-4.45l-.68-2.76h-4.22l-.66,2.76h-4.47l4.87-16.4ZM225.81,386.48l-1.17-4.8-1.15,4.8h2.32Z"/>
  <polygon class="st5" points="246.83 376.81 251.04 376.81 251.04 389.04 259.38 389.04 259.38 393.21 246.83 393.21 246.83 376.81"/>
  <polygon class="st5" points="274.37 376.81 278.59 376.81 278.59 382.85 284 382.85 284 376.81 288.22 376.81 288.22 393.21 284 393.21 284 387.02 278.59 387.02 278.59 393.21 274.37 393.21 274.37 376.81"/>
  <path class="st5" d="M307.23,392.48c-1.18-.64-2.12-1.6-2.82-2.87s-1.05-2.81-1.05-4.63.35-3.35,1.05-4.62c.7-1.26,1.64-2.21,2.82-2.85,1.18-.63,2.47-.95,3.88-.95s2.69.32,3.87.95c1.17.63,2.11,1.58,2.81,2.85.7,1.26,1.05,2.8,1.05,4.62s-.35,3.35-1.05,4.63c-.7,1.27-1.64,2.23-2.81,2.87-1.17.64-2.46.96-3.87.96s-2.7-.32-3.88-.96M313.48,388.08c.66-.67,1-1.69,1-3.07s-.33-2.42-.98-3.08c-.66-.66-1.45-1-2.39-1s-1.74.33-2.4,1c-.66.66-1,1.69-1,3.08s.33,2.4,1,3.07c.66.67,1.46,1.01,2.4,1.01s1.71-.34,2.38-1.01"/>
  <path class="st5" d="M323.7,392.89c-.35-.37-.53-.81-.53-1.32s.18-.96.55-1.32c.37-.37.81-.55,1.32-.55s.96.18,1.32.55c.37.37.55.81.55,1.32l-1.71,4.5h-1.26l.96-2.62c-.45,0-.85-.18-1.21-.55"/>
  <path class="st5" d="M355.94,376.81h6c1.66,0,3.12.31,4.4.93,1.28.62,2.29,1.54,3.02,2.78.73,1.23,1.1,2.73,1.1,4.47s-.37,3.26-1.1,4.5c-.73,1.23-1.74,2.16-3.02,2.79-1.28.62-2.75.94-4.4.94h-6v-16.4ZM361.94,389.13c1.33,0,2.36-.35,3.1-1.05.74-.7,1.11-1.73,1.11-3.07s-.37-2.39-1.1-3.08c-.73-.69-1.77-1.04-3.12-1.04h-1.78v8.25h1.78Z"/>
  <rect class="st5" x="385.64" y="376.81" width="4.22" height="16.4"/>
  <path class="st5" d="M409.72,376.81h4.73l4.87,16.4h-4.45l-.68-2.76h-4.22l-.66,2.76h-4.47l4.87-16.4ZM410.19,374.58l1.5-3.56,2.3,1.59-2.83,2.62-.96-.66ZM413.26,386.48l-1.17-4.8-1.15,4.8h2.32Z"/>
  <polygon class="st5" points="434.27 376.81 438.49 376.81 438.49 389.04 446.83 389.04 446.83 393.21 434.27 393.21 434.27 376.81"/>
  <path class="st5" d="M464.95,392.48c-1.18-.64-2.12-1.6-2.82-2.87-.7-1.27-1.05-2.81-1.05-4.63s.35-3.35,1.05-4.62c.7-1.26,1.64-2.21,2.82-2.85,1.18-.63,2.47-.95,3.88-.95s2.69.32,3.87.95c1.17.63,2.11,1.58,2.81,2.85.7,1.26,1.05,2.8,1.05,4.62s-.35,3.35-1.05,4.63c-.7,1.27-1.64,2.23-2.81,2.87-1.17.64-2.46.96-3.87.96s-2.7-.32-3.88-.96M471.2,388.08c.66-.67,1-1.69,1-3.07s-.33-2.42-.98-3.08c-.66-.66-1.45-1-2.39-1s-1.74.33-2.4,1c-.66.66-1,1.69-1,3.08s.33,2.4,1,3.07c.66.67,1.46,1.01,2.4,1.01s1.71-.34,2.38-1.01"/>
  <path class="st5" d="M495.34,392.48c-1.19-.64-2.13-1.6-2.83-2.87-.7-1.27-1.05-2.81-1.05-4.63s.35-3.35,1.05-4.61c.7-1.26,1.65-2.21,2.83-2.85,1.19-.63,2.49-.95,3.91-.95,1.23,0,2.36.25,3.39.76,1.02.51,1.89,1.3,2.59,2.38l-3.4,2.51c-.31-.44-.7-.76-1.16-.97-.46-.21-.95-.32-1.46-.32-.94,0-1.74.33-2.4,1-.66.66-1,1.69-1,3.08s.34,2.46,1.03,3.16c.69.7,1.53,1.05,2.53,1.05.89,0,1.62-.27,2.2-.8v-1.03h-3.63v-3.84h7.52v6.84c-.58.84-1.4,1.56-2.47,2.16-1.07.59-2.31.89-3.71.89s-2.75-.32-3.94-.96"/>
  <path class="st5" d="M524.4,392.48c-1.18-.64-2.12-1.6-2.82-2.87-.7-1.27-1.05-2.81-1.05-4.63s.35-3.35,1.05-4.62c.7-1.26,1.64-2.21,2.82-2.85,1.18-.63,2.47-.95,3.88-.95s2.69.32,3.87.95c1.17.63,2.11,1.58,2.81,2.85.7,1.26,1.05,2.8,1.05,4.62s-.35,3.35-1.05,4.63c-.7,1.27-1.64,2.23-2.81,2.87-1.17.64-2.46.96-3.87.96s-2.7-.32-3.88-.96M530.66,388.08c.66-.67,1-1.69,1-3.07s-.33-2.42-.98-3.08c-.66-.66-1.45-1-2.39-1s-1.74.33-2.4,1c-.66.66-1,1.69-1,3.08s.33,2.4,1,3.07c.66.67,1.46,1.01,2.4,1.01s1.71-.34,2.38-1.01"/>
  <polygon class="st5" points="569.88 376.81 582.2 376.81 582.2 380.98 574.1 380.98 574.1 382.88 582.2 382.88 582.2 387.05 574.1 387.05 574.1 389.04 582.44 389.04 582.44 393.21 569.88 393.21 569.88 376.81"/>
  <path class="st5" d="M620.21,392.94c-.95-.34-1.74-.89-2.38-1.66-.64-.77-.96-1.78-.96-3.03v-11.43h4.22v10.82c0,.67.18,1.17.54,1.51.36.34.84.5,1.43.5s1.08-.17,1.46-.5c.38-.34.57-.84.57-1.51v-10.82h4.22v11.43c0,1.25-.32,2.26-.97,3.03-.65.77-1.45,1.33-2.4,1.66-.95.34-1.91.5-2.88.5s-1.9-.17-2.85-.5"/>
  <polygon class="st5" points="645.19 376.81 648.99 376.81 654.03 385.17 654.03 376.81 658.01 376.81 658.01 393.21 654.24 393.21 649.18 384.75 649.18 393.21 645.19 393.21 645.19 376.81"/>
  <rect class="st5" x="673.42" y="376.81" width="4.22" height="16.4"/>
  <path class="st5" d="M697.5,376.81h4.73l4.87,16.4h-4.45l-.68-2.76h-4.22l-.66,2.76h-4.47l4.87-16.4ZM697.98,373.53c.26-.31.6-.47,1.02-.47.33,0,.68.11,1.05.33.25.13.43.19.54.19.25,0,.37-.17.37-.52h1.17c0,1.2-.43,1.8-1.29,1.8-.34,0-.7-.1-1.08-.3-.09-.05-.19-.09-.29-.13-.1-.04-.19-.06-.27-.06-.14,0-.25.03-.32.11-.07.07-.11.21-.11.41h-1.19c0-.59.13-1.05.39-1.36M701.04,386.48l-1.17-4.8-1.15,4.8h2.32Z"/>
  <path class="st5" d="M724.29,392.48c-1.18-.64-2.12-1.6-2.82-2.87-.7-1.27-1.05-2.81-1.05-4.63s.35-3.35,1.05-4.62c.7-1.26,1.64-2.21,2.82-2.85,1.18-.63,2.47-.95,3.88-.95s2.69.32,3.87.95c1.17.63,2.11,1.58,2.81,2.85.7,1.26,1.05,2.8,1.05,4.62s-.35,3.35-1.05,4.63c-.7,1.27-1.64,2.23-2.81,2.87-1.17.64-2.46.96-3.87.96s-2.7-.32-3.88-.96M730.54,388.08c.66-.67,1-1.69,1-3.07s-.33-2.42-.98-3.08c-.66-.66-1.45-1-2.39-1s-1.74.33-2.4,1c-.66.66-1,1.69-1,3.08s.33,2.4,1,3.07c.66.67,1.46,1.01,2.4,1.01s1.71-.34,2.38-1.01"/>
</svg>